<?xml version="1.0" encoding="us-ascii" standalone="no"?><svg xmlns="http://www.w3.org/2000/svg" xmlns:xlink="http://www.w3.org/1999/xlink" contentStyleType="text/css" height="528px" preserveAspectRatio="none" style="width:204px;height:528px;background:#FFFFFF;" version="1.1" viewBox="0 0 204 528" width="204px" zoomAndPan="magnify"><defs/><g><!--class Monochromator--><g id="elem_Monochromator"><rect codeLine="8" fill="#FFFFFF" height="406.5313" id="Monochromator" rx="2.5" ry="2.5" style="stroke:#555555;stroke-width:0.5;" width="190" x="7" y="115"/><rect fill="#808080" height="32" rx="2.5" ry="2.5" style="stroke:#808080;stroke-width:0.5;" width="190" x="7" y="115"/><rect fill="#808080" height="2.5" style="stroke:#808080;stroke-width:0.5;" width="190" x="7" y="144.5"/><rect codeLine="8" fill="none" height="406.5313" id="Monochromator" rx="2.5" ry="2.5" style="stroke:#555555;stroke-width:0.5;" width="190" x="7" y="115"/><ellipse cx="43.6" cy="131" fill="#ADD1B2" rx="11" ry="11" style="stroke:#181818;stroke-width:1.0;"/><path d="M46.5688,136.6406 Q45.9906,136.9375 45.35,137.0781 Q44.7094,137.2344 44.0063,137.2344 Q41.5063,137.2344 40.1781,135.5938 Q38.8656,133.9375 38.8656,130.8125 Q38.8656,127.6875 40.1781,126.0313 Q41.5063,124.375 44.0063,124.375 Q44.7094,124.375 45.35,124.5313 Q46.0063,124.6875 46.5688,124.9844 L46.5688,127.7031 Q45.9438,127.125 45.35,126.8594 Q44.7563,126.5781 44.1313,126.5781 Q42.7875,126.5781 42.1,127.6563 Q41.4125,128.7188 41.4125,130.8125 Q41.4125,132.9063 42.1,133.9844 Q42.7875,135.0469 44.1313,135.0469 Q44.7563,135.0469 45.35,134.7813 Q45.9438,134.5 46.5688,133.9219 L46.5688,136.6406 Z " fill="#000000"/><text fill="#000000" font-family="sans-serif" font-size="14" lengthAdjust="spacing" textLength="110" x="62.4" y="135.8467">Monochromator</text><line style="stroke:#555555;stroke-width:0.5;" x1="8" x2="196" y1="147" y2="147"/><line style="stroke:#555555;stroke-width:0.5;" x1="8" x2="196" y1="155" y2="155"/><ellipse cx="18" cy="168.6484" fill="#84BE84" rx="3" ry="3" style="stroke:#038048;stroke-width:1.0;"/><text fill="#000000" font-family="sans-serif" font-size="14" lengthAdjust="spacing" text-decoration="underline" textLength="87" x="27" y="171.9951">setPosition()</text><ellipse cx="18" cy="184.9453" fill="#84BE84" rx="3" ry="3" style="stroke:#038048;stroke-width:1.0;"/><text fill="#000000" font-family="sans-serif" font-size="14" lengthAdjust="spacing" text-decoration="underline" textLength="164" x="27" y="188.292">getFilterWheelPosition()</text><ellipse cx="18" cy="201.2422" fill="#84BE84" rx="3" ry="3" style="stroke:#038048;stroke-width:1.0;"/><text fill="#000000" font-family="sans-serif" font-size="14" lengthAdjust="spacing" text-decoration="underline" textLength="124" x="27" y="204.5889">moveFilterWheel()</text><ellipse cx="18" cy="217.5391" fill="#84BE84" rx="3" ry="3" style="stroke:#038048;stroke-width:1.0;"/><text fill="#000000" font-family="sans-serif" font-size="14" lengthAdjust="spacing" text-decoration="underline" textLength="138" x="27" y="220.8857">getGratingPosition()</text><ellipse cx="18" cy="233.8359" fill="#84BE84" rx="3" ry="3" style="stroke:#038048;stroke-width:1.0;"/><text fill="#000000" font-family="sans-serif" font-size="14" lengthAdjust="spacing" text-decoration="underline" textLength="98" x="27" y="237.1826">moveGrating()</text><ellipse cx="18" cy="250.1328" fill="#84BE84" rx="3" ry="3" style="stroke:#038048;stroke-width:1.0;"/><text fill="#000000" font-family="sans-serif" font-size="14" lengthAdjust="spacing" text-decoration="underline" textLength="127" x="27" y="253.4795">getMirrorPosition()</text><ellipse cx="18" cy="266.4297" fill="#84BE84" rx="3" ry="3" style="stroke:#038048;stroke-width:1.0;"/><text fill="#000000" font-family="sans-serif" font-size="14" lengthAdjust="spacing" text-decoration="underline" textLength="87" x="27" y="269.7764">moveMirror()</text><ellipse cx="18" cy="282.7266" fill="#84BE84" rx="3" ry="3" style="stroke:#038048;stroke-width:1.0;"/><text fill="#000000" font-family="sans-serif" font-size="14" lengthAdjust="spacing" text-decoration="underline" textLength="88" x="27" y="286.0732">getPosition()</text><ellipse cx="18" cy="299.0234" fill="#84BE84" rx="3" ry="3" style="stroke:#038048;stroke-width:1.0;"/><text fill="#000000" font-family="sans-serif" font-size="14" lengthAdjust="spacing" text-decoration="underline" textLength="121" x="27" y="302.3701">moveToPosition()</text><ellipse cx="18" cy="315.3203" fill="#84BE84" rx="3" ry="3" style="stroke:#038048;stroke-width:1.0;"/><text fill="#000000" font-family="sans-serif" font-size="14" lengthAdjust="spacing" text-decoration="underline" textLength="128" x="27" y="318.667">getShutterStatus()</text><ellipse cx="18" cy="331.6172" fill="#84BE84" rx="3" ry="3" style="stroke:#038048;stroke-width:1.0;"/><text fill="#000000" font-family="sans-serif" font-size="14" lengthAdjust="spacing" text-decoration="underline" textLength="99" x="27" y="334.9639">shutterClose()</text><ellipse cx="18" cy="347.9141" fill="#84BE84" rx="3" ry="3" style="stroke:#038048;stroke-width:1.0;"/><text fill="#000000" font-family="sans-serif" font-size="14" lengthAdjust="spacing" text-decoration="underline" textLength="98" x="27" y="351.2607">shutterOpen()</text><ellipse cx="18" cy="364.2109" fill="#84BE84" rx="3" ry="3" style="stroke:#038048;stroke-width:1.0;"/><text fill="#000000" font-family="sans-serif" font-size="14" lengthAdjust="spacing" text-decoration="underline" textLength="144" x="27" y="367.5576">getSlitPositionInMM()</text><ellipse cx="18" cy="380.5078" fill="#84BE84" rx="3" ry="3" style="stroke:#038048;stroke-width:1.0;"/><text fill="#000000" font-family="sans-serif" font-size="14" lengthAdjust="spacing" text-decoration="underline" textLength="92" x="27" y="383.8545">moveSlitMM()</text><ellipse cx="18" cy="396.8047" fill="#84BE84" rx="3" ry="3" style="stroke:#038048;stroke-width:1.0;"/><text fill="#000000" font-family="sans-serif" font-size="14" lengthAdjust="spacing" text-decoration="underline" textLength="77" x="27" y="400.1514">getConfig()</text><ellipse cx="18" cy="413.1016" fill="#84BE84" rx="3" ry="3" style="stroke:#038048;stroke-width:1.0;"/><text fill="#000000" font-family="sans-serif" font-size="14" lengthAdjust="spacing" text-decoration="underline" textLength="30" x="27" y="416.4482">Init()</text><ellipse cx="18" cy="429.3984" fill="#84BE84" rx="3" ry="3" style="stroke:#038048;stroke-width:1.0;"/><text fill="#000000" font-family="sans-serif" font-size="14" lengthAdjust="spacing" text-decoration="underline" textLength="55" x="27" y="432.7451">isBusy()</text><ellipse cx="18" cy="445.6953" fill="#84BE84" rx="3" ry="3" style="stroke:#038048;stroke-width:1.0;"/><text fill="#000000" font-family="sans-serif" font-size="14" lengthAdjust="spacing" text-decoration="underline" textLength="84" x="27" y="449.042">isInitialized()</text><rect fill="#F24D5C" height="6" style="stroke:#C82930;stroke-width:1.0;" width="6" x="15" y="458.9922"/><text fill="#000000" font-family="sans-serif" font-size="14" lengthAdjust="spacing" text-decoration="underline" textLength="125" x="27" y="465.3389">parseConfigData()</text><ellipse cx="18" cy="478.2891" fill="#84BE84" rx="3" ry="3" style="stroke:#038048;stroke-width:1.0;"/><text fill="#000000" font-family="sans-serif" font-size="14" lengthAdjust="spacing" textLength="96" x="27" y="481.6357">DeviceClose()</text><ellipse cx="18" cy="494.5859" fill="#84BE84" rx="3" ry="3" style="stroke:#038048;stroke-width:1.0;"/><text fill="#000000" font-family="sans-serif" font-size="14" lengthAdjust="spacing" textLength="106" x="27" y="497.9326">DeviceIsOpen()</text><ellipse cx="18" cy="510.8828" fill="#84BE84" rx="3" ry="3" style="stroke:#038048;stroke-width:1.0;"/><text fill="#000000" font-family="sans-serif" font-size="14" lengthAdjust="spacing" textLength="95" x="27" y="514.2295">DeviceOpen()</text></g><!--class GenericDevice--><g id="elem_GenericDevice"><rect fill="#FFFFFF" height="48" id="GenericDevice" rx="2.5" ry="2.5" style="stroke:#555555;stroke-width:0.5;" width="133" x="35.5" y="7"/><rect fill="#808080" height="32" rx="2.5" ry="2.5" style="stroke:#808080;stroke-width:0.5;" width="133" x="35.5" y="7"/><rect fill="#808080" height="2.5" style="stroke:#808080;stroke-width:0.5;" width="133" x="35.5" y="36.5"/><rect fill="none" height="48" id="GenericDevice" rx="2.5" ry="2.5" style="stroke:#555555;stroke-width:0.5;" width="133" x="35.5" y="7"/><ellipse cx="50.5" cy="23" fill="#ADD1B2" rx="11" ry="11" style="stroke:#181818;stroke-width:1.0;"/><path d="M53.4688,28.6406 Q52.8906,28.9375 52.25,29.0781 Q51.6094,29.2344 50.9063,29.2344 Q48.4063,29.2344 47.0781,27.5938 Q45.7656,25.9375 45.7656,22.8125 Q45.7656,19.6875 47.0781,18.0313 Q48.4063,16.375 50.9063,16.375 Q51.6094,16.375 52.25,16.5313 Q52.9063,16.6875 53.4688,16.9844 L53.4688,19.7031 Q52.8438,19.125 52.25,18.8594 Q51.6563,18.5781 51.0313,18.5781 Q49.6875,18.5781 49,19.6563 Q48.3125,20.7188 48.3125,22.8125 Q48.3125,24.9063 49,25.9844 Q49.6875,27.0469 51.0313,27.0469 Q51.6563,27.0469 52.25,26.7813 Q52.8438,26.5 53.4688,25.9219 L53.4688,28.6406 Z " fill="#000000"/><text fill="#000000" font-family="sans-serif" font-size="14" lengthAdjust="spacing" textLength="101" x="64.5" y="27.8467">GenericDevice</text><line style="stroke:#555555;stroke-width:0.5;" x1="36.5" x2="167.5" y1="39" y2="39"/><line style="stroke:#555555;stroke-width:0.5;" x1="36.5" x2="167.5" y1="47" y2="47"/></g><!--reverse link GenericDevice to Monochromator--><g id="link_GenericDevice_Monochromator"><path codeLine="33" d="M102,73.34 C102,88.25 102,91.16 102,114.75 " fill="none" id="GenericDevice-backto-Monochromator" style="stroke:#181818;stroke-width:1.0;"/><polygon fill="none" points="102,55.34,96,73.34,108,73.34,102,55.34" style="stroke:#181818;stroke-width:1.0;"/></g><!--SRC=[XPF1QiCm38RlVWgJNJP6ePV163irfLqFOOCETlOShH5rh60hXQthkyzkibBIf979mTAdN_QFuu6bLINuIcbOGwMSOdBoIVWjshWhPMgKzpEbjnj7jSrJCW6uMHpZ0YENWskHXsDqaGLPRe7fCRh02wYWSJ7mSHgNEAEPgl39JsAcKkReG3EI5Jggo2GZIxfmLCOR9N8lzfuLepx8VGbSK7wGznxuZJp6jjkxFc03l433u3uA07ETBMa7P_2Wu39uZ7OpBjQ2Wq8PEaTkNAVX1cN61TvfrALrKNEu-JhKQjzF-GP93NcuIhnMS6MGmTE9LpRBXayToQ5w44h9Vk60kIkBt5z1Fwlzzr0jzg4o-0DvBp89BzT3CtckM4Ner3w77MeusTF9h_o_BPr2cnO7aIp1WaFTv1Fv_3kPTFy38SGV]--></g></svg>