<?xml version="1.0" encoding="us-ascii" standalone="no"?><svg xmlns="http://www.w3.org/2000/svg" xmlns:xlink="http://www.w3.org/1999/xlink" contentStyleType="text/css" height="968px" preserveAspectRatio="none" style="width:258px;height:968px;background:#FFFFFF;" version="1.1" viewBox="0 0 258 968" width="258px" zoomAndPan="magnify"><defs/><g><!--class CCD--><g id="elem_CCD"><rect codeLine="8" fill="#FFFFFF" height="846.5469" id="CCD" rx="2.5" ry="2.5" style="stroke:#555555;stroke-width:0.5;" width="244" x="7" y="115"/><rect fill="#808080" height="32" rx="2.5" ry="2.5" style="stroke:#808080;stroke-width:0.5;" width="244" x="7" y="115"/><rect fill="#808080" height="2.5" style="stroke:#808080;stroke-width:0.5;" width="244" x="7" y="144.5"/><rect codeLine="8" fill="none" height="846.5469" id="CCD" rx="2.5" ry="2.5" style="stroke:#555555;stroke-width:0.5;" width="244" x="7" y="115"/><ellipse cx="109.25" cy="131" fill="#ADD1B2" rx="11" ry="11" style="stroke:#181818;stroke-width:1.0;"/><path d="M112.2188,136.6406 Q111.6406,136.9375 111,137.0781 Q110.3594,137.2344 109.6563,137.2344 Q107.1563,137.2344 105.8281,135.5938 Q104.5156,133.9375 104.5156,130.8125 Q104.5156,127.6875 105.8281,126.0313 Q107.1563,124.375 109.6563,124.375 Q110.3594,124.375 111,124.5313 Q111.6563,124.6875 112.2188,124.9844 L112.2188,127.7031 Q111.5938,127.125 111,126.8594 Q110.4063,126.5781 109.7813,126.5781 Q108.4375,126.5781 107.75,127.6563 Q107.0625,128.7188 107.0625,130.8125 Q107.0625,132.9063 107.75,133.9844 Q108.4375,135.0469 109.7813,135.0469 Q110.4063,135.0469 111,134.7813 Q111.5938,134.5 112.2188,133.9219 L112.2188,136.6406 Z " fill="#000000"/><text fill="#000000" font-family="sans-serif" font-size="14" lengthAdjust="spacing" textLength="31" x="129.75" y="135.8467">CCD</text><line style="stroke:#555555;stroke-width:0.5;" x1="8" x2="250" y1="147" y2="147"/><line style="stroke:#555555;stroke-width:0.5;" x1="8" x2="250" y1="155" y2="155"/><ellipse cx="18" cy="168.6484" fill="#84BE84" rx="3" ry="3" style="stroke:#038048;stroke-width:1.0;"/><text fill="#000000" font-family="sans-serif" font-size="14" lengthAdjust="spacing" text-decoration="underline" textLength="193" x="27" y="171.9951">getSpeedAndGainSettings()</text><ellipse cx="18" cy="184.9453" fill="#84BE84" rx="3" ry="3" style="stroke:#038048;stroke-width:1.0;"/><text fill="#000000" font-family="sans-serif" font-size="14" lengthAdjust="spacing" text-decoration="underline" textLength="125" x="27" y="188.292">parseConfigData()</text><ellipse cx="18" cy="201.2422" fill="#84BE84" rx="3" ry="3" style="stroke:#038048;stroke-width:1.0;"/><text fill="#000000" font-family="sans-serif" font-size="14" lengthAdjust="spacing" text-decoration="underline" textLength="123" x="27" y="204.5889">parseImageData()</text><ellipse cx="18" cy="217.5391" fill="#84BE84" rx="3" ry="3" style="stroke:#038048;stroke-width:1.0;"/><text fill="#000000" font-family="sans-serif" font-size="14" lengthAdjust="spacing" text-decoration="underline" textLength="133" x="27" y="220.8857">parseRangeMode()</text><ellipse cx="18" cy="233.8359" fill="#84BE84" rx="3" ry="3" style="stroke:#038048;stroke-width:1.0;"/><text fill="#000000" font-family="sans-serif" font-size="14" lengthAdjust="spacing" text-decoration="underline" textLength="137" x="27" y="237.1826">parseSpectralData()</text><ellipse cx="18" cy="250.1328" fill="#84BE84" rx="3" ry="3" style="stroke:#038048;stroke-width:1.0;"/><text fill="#000000" font-family="sans-serif" font-size="14" lengthAdjust="spacing" text-decoration="underline" textLength="106" x="27" y="253.4795">sortGetConfig()</text><ellipse cx="18" cy="266.4297" fill="#84BE84" rx="3" ry="3" style="stroke:#038048;stroke-width:1.0;"/><text fill="#000000" font-family="sans-serif" font-size="14" lengthAdjust="spacing" text-decoration="underline" textLength="121" x="27" y="269.7764">acquisitionAbort()</text><ellipse cx="18" cy="282.7266" fill="#84BE84" rx="3" ry="3" style="stroke:#038048;stroke-width:1.0;"/><text fill="#000000" font-family="sans-serif" font-size="14" lengthAdjust="spacing" text-decoration="underline" textLength="116" x="27" y="286.0732">acquisitionStart()</text><ellipse cx="18" cy="299.0234" fill="#84BE84" rx="3" ry="3" style="stroke:#038048;stroke-width:1.0;"/><text fill="#000000" font-family="sans-serif" font-size="14" lengthAdjust="spacing" text-decoration="underline" textLength="218" x="27" y="302.3701">calculateRangeModePositions()</text><ellipse cx="18" cy="315.3203" fill="#84BE84" rx="3" ry="3" style="stroke:#038048;stroke-width:1.0;"/><text fill="#000000" font-family="sans-serif" font-size="14" lengthAdjust="spacing" text-decoration="underline" textLength="101" x="27" y="318.667">getAcqCount()</text><ellipse cx="18" cy="331.6172" fill="#84BE84" rx="3" ry="3" style="stroke:#038048;stroke-width:1.0;"/><text fill="#000000" font-family="sans-serif" font-size="14" lengthAdjust="spacing" text-decoration="underline" textLength="142" x="27" y="334.9639">getAcquisitionBusy()</text><ellipse cx="18" cy="347.9141" fill="#84BE84" rx="3" ry="3" style="stroke:#038048;stroke-width:1.0;"/><text fill="#000000" font-family="sans-serif" font-size="14" lengthAdjust="spacing" text-decoration="underline" textLength="140" x="27" y="351.2607">getAcquisitionData()</text><ellipse cx="18" cy="364.2109" fill="#84BE84" rx="3" ry="3" style="stroke:#038048;stroke-width:1.0;"/><text fill="#000000" font-family="sans-serif" font-size="14" lengthAdjust="spacing" text-decoration="underline" textLength="151" x="27" y="367.5576">getAcquisitionReady()</text><ellipse cx="18" cy="380.5078" fill="#84BE84" rx="3" ry="3" style="stroke:#038048;stroke-width:1.0;"/><text fill="#000000" font-family="sans-serif" font-size="14" lengthAdjust="spacing" text-decoration="underline" textLength="154" x="27" y="383.8545">getChipTemperature()</text><ellipse cx="18" cy="396.8047" fill="#84BE84" rx="3" ry="3" style="stroke:#038048;stroke-width:1.0;"/><text fill="#000000" font-family="sans-serif" font-size="14" lengthAdjust="spacing" text-decoration="underline" textLength="114" x="27" y="400.1514">getCleanCount()</text><ellipse cx="18" cy="413.1016" fill="#84BE84" rx="3" ry="3" style="stroke:#038048;stroke-width:1.0;"/><text fill="#000000" font-family="sans-serif" font-size="14" lengthAdjust="spacing" text-decoration="underline" textLength="77" x="27" y="416.4482">getConfig()</text><ellipse cx="18" cy="429.3984" fill="#84BE84" rx="3" ry="3" style="stroke:#038048;stroke-width:1.0;"/><text fill="#000000" font-family="sans-serif" font-size="14" lengthAdjust="spacing" text-decoration="underline" textLength="94" x="27" y="432.7451">getDataSize()</text><ellipse cx="18" cy="445.6953" fill="#84BE84" rx="3" ry="3" style="stroke:#038048;stroke-width:1.0;"/><text fill="#000000" font-family="sans-serif" font-size="14" lengthAdjust="spacing" text-decoration="underline" textLength="132" x="27" y="449.042">getExposureTime()</text><ellipse cx="18" cy="461.9922" fill="#84BE84" rx="3" ry="3" style="stroke:#038048;stroke-width:1.0;"/><text fill="#000000" font-family="sans-serif" font-size="14" lengthAdjust="spacing" text-decoration="underline" textLength="100" x="27" y="465.3389">getFitParams()</text><ellipse cx="18" cy="478.2891" fill="#84BE84" rx="3" ry="3" style="stroke:#038048;stroke-width:1.0;"/><text fill="#000000" font-family="sans-serif" font-size="14" lengthAdjust="spacing" text-decoration="underline" textLength="64" x="27" y="481.6357">getGain()</text><ellipse cx="18" cy="494.5859" fill="#84BE84" rx="3" ry="3" style="stroke:#038048;stroke-width:1.0;"/><text fill="#000000" font-family="sans-serif" font-size="14" lengthAdjust="spacing" text-decoration="underline" textLength="126" x="27" y="497.9326">getParallelSpeed()</text><ellipse cx="18" cy="510.8828" fill="#84BE84" rx="3" ry="3" style="stroke:#038048;stroke-width:1.0;"/><text fill="#000000" font-family="sans-serif" font-size="14" lengthAdjust="spacing" text-decoration="underline" textLength="99" x="27" y="514.2295">getSignalOut()</text><ellipse cx="18" cy="527.1797" fill="#84BE84" rx="3" ry="3" style="stroke:#038048;stroke-width:1.0;"/><text fill="#000000" font-family="sans-serif" font-size="14" lengthAdjust="spacing" text-decoration="underline" textLength="78" x="27" y="530.5264">getSpeed()</text><ellipse cx="18" cy="543.4766" fill="#84BE84" rx="3" ry="3" style="stroke:#038048;stroke-width:1.0;"/><text fill="#000000" font-family="sans-serif" font-size="14" lengthAdjust="spacing" text-decoration="underline" textLength="146" x="27" y="546.8232">getTimerResolution()</text><ellipse cx="18" cy="559.7734" fill="#84BE84" rx="3" ry="3" style="stroke:#038048;stroke-width:1.0;"/><text fill="#000000" font-family="sans-serif" font-size="14" lengthAdjust="spacing" text-decoration="underline" textLength="94" x="27" y="563.1201">getTriggerIn()</text><ellipse cx="18" cy="576.0703" fill="#84BE84" rx="3" ry="3" style="stroke:#038048;stroke-width:1.0;"/><text fill="#000000" font-family="sans-serif" font-size="14" lengthAdjust="spacing" text-decoration="underline" textLength="181" x="27" y="579.417">getXAxisConversionType()</text><ellipse cx="18" cy="592.3672" fill="#84BE84" rx="3" ry="3" style="stroke:#038048;stroke-width:1.0;"/><text fill="#000000" font-family="sans-serif" font-size="14" lengthAdjust="spacing" text-decoration="underline" textLength="55" x="27" y="595.7139">restart()</text><ellipse cx="18" cy="608.6641" fill="#84BE84" rx="3" ry="3" style="stroke:#038048;stroke-width:1.0;"/><text fill="#000000" font-family="sans-serif" font-size="14" lengthAdjust="spacing" text-decoration="underline" textLength="100" x="27" y="612.0107">setAcqCount()</text><ellipse cx="18" cy="624.9609" fill="#84BE84" rx="3" ry="3" style="stroke:#038048;stroke-width:1.0;"/><text fill="#000000" font-family="sans-serif" font-size="14" lengthAdjust="spacing" text-decoration="underline" textLength="106" x="27" y="628.3076">setAcqFormat()</text><ellipse cx="18" cy="641.2578" fill="#84BE84" rx="3" ry="3" style="stroke:#038048;stroke-width:1.0;"/><text fill="#000000" font-family="sans-serif" font-size="14" lengthAdjust="spacing" text-decoration="underline" textLength="160" x="27" y="644.6045">setCenterWavelength()</text><ellipse cx="18" cy="657.5547" fill="#84BE84" rx="3" ry="3" style="stroke:#038048;stroke-width:1.0;"/><text fill="#000000" font-family="sans-serif" font-size="14" lengthAdjust="spacing" text-decoration="underline" textLength="113" x="27" y="660.9014">setCleanCount()</text><ellipse cx="18" cy="673.8516" fill="#84BE84" rx="3" ry="3" style="stroke:#038048;stroke-width:1.0;"/><text fill="#000000" font-family="sans-serif" font-size="14" lengthAdjust="spacing" text-decoration="underline" textLength="131" x="27" y="677.1982">setExposureTime()</text><ellipse cx="18" cy="690.1484" fill="#84BE84" rx="3" ry="3" style="stroke:#038048;stroke-width:1.0;"/><text fill="#000000" font-family="sans-serif" font-size="14" lengthAdjust="spacing" text-decoration="underline" textLength="63" x="27" y="693.4951">setGain()</text><ellipse cx="18" cy="706.4453" fill="#84BE84" rx="3" ry="3" style="stroke:#038048;stroke-width:1.0;"/><text fill="#000000" font-family="sans-serif" font-size="14" lengthAdjust="spacing" text-decoration="underline" textLength="125" x="27" y="709.792">setParallelSpeed()</text><ellipse cx="18" cy="722.7422" fill="#84BE84" rx="3" ry="3" style="stroke:#038048;stroke-width:1.0;"/><text fill="#000000" font-family="sans-serif" font-size="14" lengthAdjust="spacing" text-decoration="underline" textLength="54" x="27" y="726.0889">setRoi()</text><ellipse cx="18" cy="739.0391" fill="#84BE84" rx="3" ry="3" style="stroke:#038048;stroke-width:1.0;"/><text fill="#000000" font-family="sans-serif" font-size="14" lengthAdjust="spacing" text-decoration="underline" textLength="98" x="27" y="742.3857">setSignalOut()</text><ellipse cx="18" cy="755.3359" fill="#84BE84" rx="3" ry="3" style="stroke:#038048;stroke-width:1.0;"/><text fill="#000000" font-family="sans-serif" font-size="14" lengthAdjust="spacing" text-decoration="underline" textLength="77" x="27" y="758.6826">setSpeed()</text><ellipse cx="18" cy="771.6328" fill="#84BE84" rx="3" ry="3" style="stroke:#038048;stroke-width:1.0;"/><text fill="#000000" font-family="sans-serif" font-size="14" lengthAdjust="spacing" text-decoration="underline" textLength="145" x="27" y="774.9795">setTimerResolution()</text><ellipse cx="18" cy="787.9297" fill="#84BE84" rx="3" ry="3" style="stroke:#038048;stroke-width:1.0;"/><text fill="#000000" font-family="sans-serif" font-size="14" lengthAdjust="spacing" text-decoration="underline" textLength="93" x="27" y="791.2764">setTriggerIn()</text><ellipse cx="18" cy="804.2266" fill="#84BE84" rx="3" ry="3" style="stroke:#038048;stroke-width:1.0;"/><text fill="#000000" font-family="sans-serif" font-size="14" lengthAdjust="spacing" text-decoration="underline" textLength="180" x="27" y="807.5732">setXAxisConversionType()</text><ellipse cx="18" cy="820.5234" fill="#84BE84" rx="3" ry="3" style="stroke:#038048;stroke-width:1.0;"/><text fill="#000000" font-family="sans-serif" font-size="14" lengthAdjust="spacing" text-decoration="underline" textLength="113" x="27" y="823.8701">Setup Example()</text><ellipse cx="18" cy="836.8203" fill="#84BE84" rx="3" ry="3" style="stroke:#038048;stroke-width:1.0;"/><text fill="#000000" font-family="sans-serif" font-size="14" lengthAdjust="spacing" text-decoration="underline" textLength="141" x="27" y="840.167">Teardown Example()</text><ellipse cx="18" cy="853.1172" fill="#84BE84" rx="3" ry="3" style="stroke:#038048;stroke-width:1.0;"/><text fill="#000000" font-family="sans-serif" font-size="14" lengthAdjust="spacing" text-decoration="underline" textLength="197" x="27" y="856.4639">Example - Open Close CCD()</text><ellipse cx="18" cy="869.4141" fill="#84BE84" rx="3" ry="3" style="stroke:#038048;stroke-width:1.0;"/><text fill="#000000" font-family="sans-serif" font-size="14" lengthAdjust="spacing" text-decoration="underline" textLength="154" x="27" y="872.7607">Example - Get Config()</text><ellipse cx="18" cy="885.7109" fill="#84BE84" rx="3" ry="3" style="stroke:#038048;stroke-width:1.0;"/><text fill="#000000" font-family="sans-serif" font-size="14" lengthAdjust="spacing" text-decoration="underline" textLength="103" x="27" y="889.0576">CCD Example()</text><ellipse cx="18" cy="902.0078" fill="#84BE84" rx="3" ry="3" style="stroke:#038048;stroke-width:1.0;"/><text fill="#000000" font-family="sans-serif" font-size="14" lengthAdjust="spacing" textLength="96" x="27" y="905.3545">DeviceClose()</text><ellipse cx="18" cy="918.3047" fill="#84BE84" rx="3" ry="3" style="stroke:#038048;stroke-width:1.0;"/><text fill="#000000" font-family="sans-serif" font-size="14" lengthAdjust="spacing" textLength="106" x="27" y="921.6514">DeviceIsOpen()</text><ellipse cx="18" cy="934.6016" fill="#84BE84" rx="3" ry="3" style="stroke:#038048;stroke-width:1.0;"/><text fill="#000000" font-family="sans-serif" font-size="14" lengthAdjust="spacing" textLength="95" x="27" y="937.9482">DeviceOpen()</text><ellipse cx="18" cy="950.8984" fill="#84BE84" rx="3" ry="3" style="stroke:#038048;stroke-width:1.0;"/><text fill="#000000" font-family="sans-serif" font-size="14" lengthAdjust="spacing" textLength="93" x="27" y="954.2451">getChipSize()</text></g><!--class GenericDevice--><g id="elem_GenericDevice"><rect fill="#FFFFFF" height="48" id="GenericDevice" rx="2.5" ry="2.5" style="stroke:#555555;stroke-width:0.5;" width="133" x="62.5" y="7"/><rect fill="#808080" height="32" rx="2.5" ry="2.5" style="stroke:#808080;stroke-width:0.5;" width="133" x="62.5" y="7"/><rect fill="#808080" height="2.5" style="stroke:#808080;stroke-width:0.5;" width="133" x="62.5" y="36.5"/><rect fill="none" height="48" id="GenericDevice" rx="2.5" ry="2.5" style="stroke:#555555;stroke-width:0.5;" width="133" x="62.5" y="7"/><ellipse cx="77.5" cy="23" fill="#ADD1B2" rx="11" ry="11" style="stroke:#181818;stroke-width:1.0;"/><path d="M80.4688,28.6406 Q79.8906,28.9375 79.25,29.0781 Q78.6094,29.2344 77.9063,29.2344 Q75.4063,29.2344 74.0781,27.5938 Q72.7656,25.9375 72.7656,22.8125 Q72.7656,19.6875 74.0781,18.0313 Q75.4063,16.375 77.9063,16.375 Q78.6094,16.375 79.25,16.5313 Q79.9063,16.6875 80.4688,16.9844 L80.4688,19.7031 Q79.8438,19.125 79.25,18.8594 Q78.6563,18.5781 78.0313,18.5781 Q76.6875,18.5781 76,19.6563 Q75.3125,20.7188 75.3125,22.8125 Q75.3125,24.9063 76,25.9844 Q76.6875,27.0469 78.0313,27.0469 Q78.6563,27.0469 79.25,26.7813 Q79.8438,26.5 80.4688,25.9219 L80.4688,28.6406 Z " fill="#000000"/><text fill="#000000" font-family="sans-serif" font-size="14" lengthAdjust="spacing" textLength="101" x="91.5" y="27.8467">GenericDevice</text><line style="stroke:#555555;stroke-width:0.5;" x1="63.5" x2="194.5" y1="39" y2="39"/><line style="stroke:#555555;stroke-width:0.5;" x1="63.5" x2="194.5" y1="47" y2="47"/></g><!--reverse link GenericDevice to CCD--><g id="link_GenericDevice_CCD"><path codeLine="60" d="M129,73.36 C129,87.82 129,90.27 129,114.67 " fill="none" id="GenericDevice-backto-CCD" style="stroke:#181818;stroke-width:1.0;"/><polygon fill="none" points="129,55.36,123,73.36,135,73.36,129,55.36" style="stroke:#181818;stroke-width:1.0;"/></g><!--SRC=[bPN1ZjCm48RlUGghN42eqbwG4EBIJRUb1xIhfX9SPvqXjTQnlPv9wLBwxjX9W6LR9yLH3l5ydXdFFx49MHYeaHn8BD211xPUVCZeGPduLOjS0z4ro8VAsyQKkTK1UBLenmbcVOc-HzwruoMoi8PxuAeTBu5F2C77IS3tL_79dj5iNNZ5lMMsjIYLHydAcan6BsAIv_E9E6G7Oc0bZ-9G8szjUHHlA-J28POpKov1cGAPbQdezPjpS8X5c5lpJLLpO1Y0LZLKECAimLJusPOum8JS97lGQLTaFI-HkwpE8o0V6qKg5cHs7_1Hgc18KHAqR3Jmt-plRBSeKRDGu9byp8DwF0Jy3dtTqDCbNBeW_tBhq45fX_bMkGtM3aEhDnxJd4OmmtiO4Y2OOxw5-f4ESRDtba8E6rMdeONYkzZlwLh79auQurgjKRSTdwGALHdGjqrwhyFhumxy6idg9YgGvhogAlIhDF5rjbSK2hj3Jy7JviabIkEHqYrBOntO0GlhQqWJEHf6_mLsgD5Kl4s38xr2bsXDGqhIHKe6QcrLqZQYCWsgJ1UgJACgqt-e70xdnecRFTHE9v0DWY_jTpDCzKOn5RSEJRXgBA48TyGO7SvPCVIV1nVF0_-Pd-DEIMp3d9bVKSpYZE5akZ-n-dCaEsQJ9HhqIdRyH7pyEPrsjrsMPRy0]--></g></svg>