<?xml version="1.0" encoding="us-ascii" standalone="no"?><svg xmlns="http://www.w3.org/2000/svg" xmlns:xlink="http://www.w3.org/1999/xlink" contentStyleType="text/css" height="414px" preserveAspectRatio="none" style="width:277px;height:414px;background:#FFFFFF;" version="1.1" viewBox="0 0 277 414" width="277px" zoomAndPan="magnify"><defs/><g><!--cluster WebSockets.lvlib--><g id="cluster_WebSockets.lvlib"><path d="M49,308.16 L184,308.16 A3.75,3.75 0 0 1 186.5,310.66 L193.5,330.4569 L230,330.4569 A2.5,2.5 0 0 1 232.5,332.9569 L232.5,404.66 A2.5,2.5 0 0 1 230,407.16 L49,407.16 A2.5,2.5 0 0 1 46.5,404.66 L46.5,310.66 A2.5,2.5 0 0 1 49,308.16 " fill="none" style="stroke:#000000;stroke-width:1.5;"/><line style="stroke:#000000;stroke-width:1.5;" x1="46.5" x2="193.5" y1="330.4569" y2="330.4569"/><text fill="#000000" font-family="sans-serif" font-size="14" font-weight="bold" lengthAdjust="spacing" textLength="134" x="50.5" y="323.1551">WebSockets.lvlib</text></g><!--class WebSocket Client--><g id="elem_WebSocket Client"><rect fill="#FFFFFF" height="48" id="WebSocket Client" rx="2.5" ry="2.5" style="stroke:#555555;stroke-width:0.5;" width="154" x="62.5" y="343.16"/><rect fill="#808080" height="32" rx="2.5" ry="2.5" style="stroke:#808080;stroke-width:0.5;" width="154" x="62.5" y="343.16"/><rect fill="#808080" height="2.5" style="stroke:#808080;stroke-width:0.5;" width="154" x="62.5" y="372.66"/><rect fill="none" height="48" id="WebSocket Client" rx="2.5" ry="2.5" style="stroke:#555555;stroke-width:0.5;" width="154" x="62.5" y="343.16"/><ellipse cx="77.5" cy="359.16" fill="#ADD1B2" rx="11" ry="11" style="stroke:#181818;stroke-width:1.0;"/><path d="M80.4688,364.8006 Q79.8906,365.0975 79.25,365.2381 Q78.6094,365.3944 77.9063,365.3944 Q75.4063,365.3944 74.0781,363.7538 Q72.7656,362.0975 72.7656,358.9725 Q72.7656,355.8475 74.0781,354.1913 Q75.4063,352.535 77.9063,352.535 Q78.6094,352.535 79.25,352.6913 Q79.9063,352.8475 80.4688,353.1444 L80.4688,355.8631 Q79.8438,355.285 79.25,355.0194 Q78.6563,354.7381 78.0313,354.7381 Q76.6875,354.7381 76,355.8163 Q75.3125,356.8788 75.3125,358.9725 Q75.3125,361.0663 76,362.1444 Q76.6875,363.2069 78.0313,363.2069 Q78.6563,363.2069 79.25,362.9413 Q79.8438,362.66 80.4688,362.0819 L80.4688,364.8006 Z " fill="#000000"/><text fill="#000000" font-family="sans-serif" font-size="14" lengthAdjust="spacing" textLength="122" x="91.5" y="364.0067">WebSocket Client</text><line style="stroke:#555555;stroke-width:0.5;" x1="63.5" x2="215.5" y1="375.16" y2="375.16"/><line style="stroke:#555555;stroke-width:0.5;" x1="63.5" x2="215.5" y1="383.16" y2="383.16"/></g><!--class Communicator--><g id="elem_Communicator"><rect codeLine="8" fill="#FFFFFF" height="276.1563" id="Communicator" rx="2.5" ry="2.5" style="stroke:#555555;stroke-width:0.5;" width="261" x="9" y="7"/><rect fill="#808080" height="32" rx="2.5" ry="2.5" style="stroke:#808080;stroke-width:0.5;" width="261" x="9" y="7"/><rect fill="#808080" height="2.5" style="stroke:#808080;stroke-width:0.5;" width="261" x="9" y="36.5"/><rect codeLine="8" fill="none" height="276.1563" id="Communicator" rx="2.5" ry="2.5" style="stroke:#555555;stroke-width:0.5;" width="261" x="9" y="7"/><ellipse cx="84.75" cy="23" fill="#ADD1B2" rx="11" ry="11" style="stroke:#181818;stroke-width:1.0;"/><path d="M87.7188,28.6406 Q87.1406,28.9375 86.5,29.0781 Q85.8594,29.2344 85.1563,29.2344 Q82.6563,29.2344 81.3281,27.5938 Q80.0156,25.9375 80.0156,22.8125 Q80.0156,19.6875 81.3281,18.0313 Q82.6563,16.375 85.1563,16.375 Q85.8594,16.375 86.5,16.5313 Q87.1563,16.6875 87.7188,16.9844 L87.7188,19.7031 Q87.0938,19.125 86.5,18.8594 Q85.9063,18.5781 85.2813,18.5781 Q83.9375,18.5781 83.25,19.6563 Q82.5625,20.7188 82.5625,22.8125 Q82.5625,24.9063 83.25,25.9844 Q83.9375,27.0469 85.2813,27.0469 Q85.9063,27.0469 86.5,26.7813 Q87.0938,26.5 87.7188,25.9219 L87.7188,28.6406 Z " fill="#000000"/><text fill="#000000" font-family="sans-serif" font-size="14" lengthAdjust="spacing" textLength="101" x="105.25" y="27.8467">Communicator</text><line style="stroke:#555555;stroke-width:0.5;" x1="10" x2="269" y1="39" y2="39"/><rect fill="none" height="6" style="stroke:#C82930;stroke-width:1.0;" width="6" x="17" y="49.6484"/><text fill="#000000" font-family="sans-serif" font-size="14" lengthAdjust="spacing" textLength="233" x="29" y="55.9951">WebSocket Connection : LV Class</text><rect fill="none" height="6" style="stroke:#C82930;stroke-width:1.0;" width="6" x="17" y="65.9453"/><text fill="#000000" font-family="sans-serif" font-size="14" lengthAdjust="spacing" textLength="106" x="29" y="72.292">ID counter : I32</text><rect fill="none" height="6" style="stroke:#C82930;stroke-width:1.0;" width="6" x="17" y="82.2422"/><text fill="#000000" font-family="sans-serif" font-size="14" lengthAdjust="spacing" textLength="235" x="29" y="88.5889">connectionEstablished? : Boolean</text><line style="stroke:#555555;stroke-width:0.5;" x1="10" x2="269" y1="95.8906" y2="95.8906"/><ellipse cx="20" cy="109.5391" fill="#84BE84" rx="3" ry="3" style="stroke:#038048;stroke-width:1.0;"/><text fill="#000000" font-family="sans-serif" font-size="14" lengthAdjust="spacing" text-decoration="underline" textLength="161" x="29" y="112.8857">JSON Parse Command()</text><ellipse cx="20" cy="125.8359" fill="#84BE84" rx="3" ry="3" style="stroke:#038048;stroke-width:1.0;"/><text fill="#000000" font-family="sans-serif" font-size="14" lengthAdjust="spacing" text-decoration="underline" textLength="131" x="29" y="129.1826">JSON Parse Errors()</text><ellipse cx="20" cy="142.1328" fill="#84BE84" rx="3" ry="3" style="stroke:#038048;stroke-width:1.0;"/><text fill="#000000" font-family="sans-serif" font-size="14" lengthAdjust="spacing" text-decoration="underline" textLength="104" x="29" y="145.4795">JSON Parse ID()</text><ellipse cx="20" cy="158.4297" fill="#84BE84" rx="3" ry="3" style="stroke:#038048;stroke-width:1.0;"/><text fill="#000000" font-family="sans-serif" font-size="14" lengthAdjust="spacing" text-decoration="underline" textLength="115" x="29" y="161.7764">JSON Parse Info()</text><ellipse cx="20" cy="174.7266" fill="#84BE84" rx="3" ry="3" style="stroke:#038048;stroke-width:1.0;"/><text fill="#000000" font-family="sans-serif" font-size="14" lengthAdjust="spacing" text-decoration="underline" textLength="142" x="29" y="178.0732">JSON Parse Results()</text><ellipse cx="20" cy="191.0234" fill="#84BE84" rx="3" ry="3" style="stroke:#038048;stroke-width:1.0;"/><text fill="#000000" font-family="sans-serif" font-size="14" lengthAdjust="spacing" text-decoration="underline" textLength="93" x="29" y="194.3701">Overwrite ID()</text><ellipse cx="20" cy="207.3203" fill="#84BE84" rx="3" ry="3" style="stroke:#038048;stroke-width:1.0;"/><text fill="#000000" font-family="sans-serif" font-size="14" lengthAdjust="spacing" textLength="128" x="29" y="210.667">OpenConnection()</text><ellipse cx="20" cy="223.6172" fill="#84BE84" rx="3" ry="3" style="stroke:#038048;stroke-width:1.0;"/><text fill="#000000" font-family="sans-serif" font-size="14" lengthAdjust="spacing" textLength="129" x="29" y="226.9639">CloseConnection()</text><ellipse cx="20" cy="239.9141" fill="#84BE84" rx="3" ry="3" style="stroke:#038048;stroke-width:1.0;"/><text fill="#000000" font-family="sans-serif" font-size="14" lengthAdjust="spacing" textLength="158" x="29" y="243.2607">SendAndAskForReply()</text><polygon fill="#FFFF44" points="20,251.2109,24,255.2109,20,259.2109,16,255.2109" style="stroke:#B38D22;stroke-width:1.0;"/><text fill="#000000" font-family="sans-serif" font-size="14" lengthAdjust="spacing" textLength="94" x="29" y="259.5576">ReceiveJson()</text><polygon fill="#FFFF44" points="20,267.5078,24,271.5078,20,275.5078,16,271.5078" style="stroke:#B38D22;stroke-width:1.0;"/><text fill="#000000" font-family="sans-serif" font-size="14" lengthAdjust="spacing" textLength="75" x="29" y="275.8545">SendJson()</text></g><!--reverse link Communicator to WebSocket Client--><g id="link_Communicator_WebSocket Client"><path codeLine="25" d="M139.5,295.58 C139.5,318.52 139.5,327.76 139.5,342.95 " fill="none" id="Communicator-backto-WebSocket Client" style="stroke:#181818;stroke-width:1.0;"/><polygon fill="#181818" points="139.5,283.58,135.5,289.58,139.5,295.58,143.5,289.58,139.5,283.58" style="stroke:#181818;stroke-width:1.0;"/></g><!--SRC=[XP5DQm8n48Rl-HN3Uka75caf52-bhagLKeiBxJcRZ3LiDhCaqL8M_tkpkdNzG7QI79BtUMUIZ4CFXkVe2YummO9Rxib2dxbCcMgNGwovSmCkiczBAoDZqW7eZBTnXf6LQ6laSHkdo9YChu7UDaw1L-GXnrd1frurs07jgGWBKlAUSf3Ael2A31DL5eXYolELKQ9wK0GbAnSAjTn0zmlJX4GMNXwJCJiJzE7jSrU_0IT34E467iE7mEJXlb74tZXodgTQkINAvq0DY3Homyfmx9NOG9cZNrBmt4wJsJjySEiGggjn8w-kMxYHjMHTApOPjYDcGQtG7DrA-mlrPckqFrRv_tADKA1fFl98YZKvlA0bQEHBc2uRavrZeNyFvSuS1QerJjsnhLFPwaEsOITDlkbs8TgtrztfjLPf_w3VMg7n4MFi3m00]--></g></svg>