<?xml version="1.0" encoding="us-ascii" standalone="no"?><svg xmlns="http://www.w3.org/2000/svg" xmlns:xlink="http://www.w3.org/1999/xlink" contentStyleType="text/css" height="1196px" preserveAspectRatio="none" style="width:894px;height:1196px;background:#FFFFFF;" version="1.1" viewBox="0 0 894 1196" width="894px" zoomAndPan="magnify"><defs/><g><!--cluster WebSockets.lvlib--><g id="cluster_WebSockets.lvlib"><path d="M49,707.43 L184,707.43 A3.75,3.75 0 0 1 186.5,709.93 L193.5,729.7269 L230,729.7269 A2.5,2.5 0 0 1 232.5,732.2269 L232.5,803.93 A2.5,2.5 0 0 1 230,806.43 L49,806.43 A2.5,2.5 0 0 1 46.5,803.93 L46.5,709.93 A2.5,2.5 0 0 1 49,707.43 " fill="none" style="stroke:#000000;stroke-width:1.5;"/><line style="stroke:#000000;stroke-width:1.5;" x1="46.5" x2="193.5" y1="729.7269" y2="729.7269"/><text fill="#000000" font-family="sans-serif" font-size="14" font-weight="bold" lengthAdjust="spacing" textLength="134" x="50.5" y="722.4251">WebSockets.lvlib</text></g><!--class WebSocket Client--><g id="elem_WebSocket Client"><rect fill="#FFFFFF" height="48" id="WebSocket Client" rx="2.5" ry="2.5" style="stroke:#555555;stroke-width:0.5;" width="154" x="62.5" y="742.43"/><rect fill="#808080" height="32" rx="2.5" ry="2.5" style="stroke:#808080;stroke-width:0.5;" width="154" x="62.5" y="742.43"/><rect fill="#808080" height="2.5" style="stroke:#808080;stroke-width:0.5;" width="154" x="62.5" y="771.93"/><rect fill="none" height="48" id="WebSocket Client" rx="2.5" ry="2.5" style="stroke:#555555;stroke-width:0.5;" width="154" x="62.5" y="742.43"/><ellipse cx="77.5" cy="758.43" fill="#ADD1B2" rx="11" ry="11" style="stroke:#181818;stroke-width:1.0;"/><path d="M80.4688,764.0706 Q79.8906,764.3675 79.25,764.5081 Q78.6094,764.6644 77.9063,764.6644 Q75.4063,764.6644 74.0781,763.0238 Q72.7656,761.3675 72.7656,758.2425 Q72.7656,755.1175 74.0781,753.4613 Q75.4063,751.805 77.9063,751.805 Q78.6094,751.805 79.25,751.9613 Q79.9063,752.1175 80.4688,752.4144 L80.4688,755.1331 Q79.8438,754.555 79.25,754.2894 Q78.6563,754.0081 78.0313,754.0081 Q76.6875,754.0081 76,755.0863 Q75.3125,756.1488 75.3125,758.2425 Q75.3125,760.3363 76,761.4144 Q76.6875,762.4769 78.0313,762.4769 Q78.6563,762.4769 79.25,762.2113 Q79.8438,761.93 80.4688,761.3519 L80.4688,764.0706 Z " fill="#000000"/><text fill="#000000" font-family="sans-serif" font-size="14" lengthAdjust="spacing" textLength="122" x="91.5" y="763.2767">WebSocket Client</text><line style="stroke:#555555;stroke-width:0.5;" x1="63.5" x2="215.5" y1="774.43" y2="774.43"/><line style="stroke:#555555;stroke-width:0.5;" x1="63.5" x2="215.5" y1="782.43" y2="782.43"/></g><!--class Communicator--><g id="elem_Communicator"><rect codeLine="8" fill="#FFFFFF" height="276.1563" id="Communicator" rx="2.5" ry="2.5" style="stroke:#555555;stroke-width:0.5;" width="261" x="9" y="7"/><rect fill="#808080" height="32" rx="2.5" ry="2.5" style="stroke:#808080;stroke-width:0.5;" width="261" x="9" y="7"/><rect fill="#808080" height="2.5" style="stroke:#808080;stroke-width:0.5;" width="261" x="9" y="36.5"/><rect codeLine="8" fill="none" height="276.1563" id="Communicator" rx="2.5" ry="2.5" style="stroke:#555555;stroke-width:0.5;" width="261" x="9" y="7"/><ellipse cx="84.75" cy="23" fill="#ADD1B2" rx="11" ry="11" style="stroke:#181818;stroke-width:1.0;"/><path d="M87.7188,28.6406 Q87.1406,28.9375 86.5,29.0781 Q85.8594,29.2344 85.1563,29.2344 Q82.6563,29.2344 81.3281,27.5938 Q80.0156,25.9375 80.0156,22.8125 Q80.0156,19.6875 81.3281,18.0313 Q82.6563,16.375 85.1563,16.375 Q85.8594,16.375 86.5,16.5313 Q87.1563,16.6875 87.7188,16.9844 L87.7188,19.7031 Q87.0938,19.125 86.5,18.8594 Q85.9063,18.5781 85.2813,18.5781 Q83.9375,18.5781 83.25,19.6563 Q82.5625,20.7188 82.5625,22.8125 Q82.5625,24.9063 83.25,25.9844 Q83.9375,27.0469 85.2813,27.0469 Q85.9063,27.0469 86.5,26.7813 Q87.0938,26.5 87.7188,25.9219 L87.7188,28.6406 Z " fill="#000000"/><text fill="#000000" font-family="sans-serif" font-size="14" lengthAdjust="spacing" textLength="101" x="105.25" y="27.8467">Communicator</text><line style="stroke:#555555;stroke-width:0.5;" x1="10" x2="269" y1="39" y2="39"/><rect fill="none" height="6" style="stroke:#C82930;stroke-width:1.0;" width="6" x="17" y="49.6484"/><text fill="#000000" font-family="sans-serif" font-size="14" lengthAdjust="spacing" textLength="233" x="29" y="55.9951">WebSocket Connection : LV Class</text><rect fill="none" height="6" style="stroke:#C82930;stroke-width:1.0;" width="6" x="17" y="65.9453"/><text fill="#000000" font-family="sans-serif" font-size="14" lengthAdjust="spacing" textLength="106" x="29" y="72.292">ID counter : I32</text><rect fill="none" height="6" style="stroke:#C82930;stroke-width:1.0;" width="6" x="17" y="82.2422"/><text fill="#000000" font-family="sans-serif" font-size="14" lengthAdjust="spacing" textLength="235" x="29" y="88.5889">connectionEstablished? : Boolean</text><line style="stroke:#555555;stroke-width:0.5;" x1="10" x2="269" y1="95.8906" y2="95.8906"/><ellipse cx="20" cy="109.5391" fill="#84BE84" rx="3" ry="3" style="stroke:#038048;stroke-width:1.0;"/><text fill="#000000" font-family="sans-serif" font-size="14" lengthAdjust="spacing" text-decoration="underline" textLength="161" x="29" y="112.8857">JSON Parse Command()</text><ellipse cx="20" cy="125.8359" fill="#84BE84" rx="3" ry="3" style="stroke:#038048;stroke-width:1.0;"/><text fill="#000000" font-family="sans-serif" font-size="14" lengthAdjust="spacing" text-decoration="underline" textLength="131" x="29" y="129.1826">JSON Parse Errors()</text><ellipse cx="20" cy="142.1328" fill="#84BE84" rx="3" ry="3" style="stroke:#038048;stroke-width:1.0;"/><text fill="#000000" font-family="sans-serif" font-size="14" lengthAdjust="spacing" text-decoration="underline" textLength="104" x="29" y="145.4795">JSON Parse ID()</text><ellipse cx="20" cy="158.4297" fill="#84BE84" rx="3" ry="3" style="stroke:#038048;stroke-width:1.0;"/><text fill="#000000" font-family="sans-serif" font-size="14" lengthAdjust="spacing" text-decoration="underline" textLength="115" x="29" y="161.7764">JSON Parse Info()</text><ellipse cx="20" cy="174.7266" fill="#84BE84" rx="3" ry="3" style="stroke:#038048;stroke-width:1.0;"/><text fill="#000000" font-family="sans-serif" font-size="14" lengthAdjust="spacing" text-decoration="underline" textLength="142" x="29" y="178.0732">JSON Parse Results()</text><ellipse cx="20" cy="191.0234" fill="#84BE84" rx="3" ry="3" style="stroke:#038048;stroke-width:1.0;"/><text fill="#000000" font-family="sans-serif" font-size="14" lengthAdjust="spacing" text-decoration="underline" textLength="93" x="29" y="194.3701">Overwrite ID()</text><ellipse cx="20" cy="207.3203" fill="#84BE84" rx="3" ry="3" style="stroke:#038048;stroke-width:1.0;"/><text fill="#000000" font-family="sans-serif" font-size="14" lengthAdjust="spacing" textLength="128" x="29" y="210.667">OpenConnection()</text><ellipse cx="20" cy="223.6172" fill="#84BE84" rx="3" ry="3" style="stroke:#038048;stroke-width:1.0;"/><text fill="#000000" font-family="sans-serif" font-size="14" lengthAdjust="spacing" textLength="129" x="29" y="226.9639">CloseConnection()</text><ellipse cx="20" cy="239.9141" fill="#84BE84" rx="3" ry="3" style="stroke:#038048;stroke-width:1.0;"/><text fill="#000000" font-family="sans-serif" font-size="14" lengthAdjust="spacing" textLength="158" x="29" y="243.2607">SendAndAskForReply()</text><polygon fill="#FFFF44" points="20,251.2109,24,255.2109,20,259.2109,16,255.2109" style="stroke:#B38D22;stroke-width:1.0;"/><text fill="#000000" font-family="sans-serif" font-size="14" lengthAdjust="spacing" textLength="94" x="29" y="259.5576">ReceiveJson()</text><polygon fill="#FFFF44" points="20,267.5078,24,271.5078,20,275.5078,16,271.5078" style="stroke:#B38D22;stroke-width:1.0;"/><text fill="#000000" font-family="sans-serif" font-size="14" lengthAdjust="spacing" textLength="75" x="29" y="275.8545">SendJson()</text></g><!--class GenericDevice--><g id="elem_GenericDevice"><rect codeLine="28" fill="#FFFFFF" height="259.8594" id="GenericDevice" rx="2.5" ry="2.5" style="stroke:#555555;stroke-width:0.5;" width="210" x="493.5" y="15.15"/><rect fill="#808080" height="32" rx="2.5" ry="2.5" style="stroke:#808080;stroke-width:0.5;" width="210" x="493.5" y="15.15"/><rect fill="#808080" height="2.5" style="stroke:#808080;stroke-width:0.5;" width="210" x="493.5" y="44.65"/><rect codeLine="28" fill="none" height="259.8594" id="GenericDevice" rx="2.5" ry="2.5" style="stroke:#555555;stroke-width:0.5;" width="210" x="493.5" y="15.15"/><ellipse cx="543.75" cy="31.15" fill="#ADD1B2" rx="11" ry="11" style="stroke:#181818;stroke-width:1.0;"/><path d="M546.7188,36.7906 Q546.1406,37.0875 545.5,37.2281 Q544.8594,37.3844 544.1563,37.3844 Q541.6563,37.3844 540.3281,35.7438 Q539.0156,34.0875 539.0156,30.9625 Q539.0156,27.8375 540.3281,26.1813 Q541.6563,24.525 544.1563,24.525 Q544.8594,24.525 545.5,24.6813 Q546.1563,24.8375 546.7188,25.1344 L546.7188,27.8531 Q546.0938,27.275 545.5,27.0094 Q544.9063,26.7281 544.2813,26.7281 Q542.9375,26.7281 542.25,27.8063 Q541.5625,28.8688 541.5625,30.9625 Q541.5625,33.0563 542.25,34.1344 Q542.9375,35.1969 544.2813,35.1969 Q544.9063,35.1969 545.5,34.9313 Q546.0938,34.65 546.7188,34.0719 L546.7188,36.7906 Z " fill="#000000"/><text fill="#000000" font-family="sans-serif" font-size="14" lengthAdjust="spacing" textLength="101" x="564.25" y="35.9967">GenericDevice</text><line style="stroke:#555555;stroke-width:0.5;" x1="494.5" x2="702.5" y1="47.15" y2="47.15"/><rect fill="none" height="6" style="stroke:#C82930;stroke-width:1.0;" width="6" x="501.5" y="57.7984"/><text fill="#000000" font-family="sans-serif" font-size="14" lengthAdjust="spacing" textLength="134" x="513.5" y="64.1451">deviceTerm : String</text><rect fill="none" height="6" style="stroke:#C82930;stroke-width:1.0;" width="6" x="501.5" y="74.0953"/><text fill="#000000" font-family="sans-serif" font-size="14" lengthAdjust="spacing" textLength="132" x="513.5" y="80.442">deviceType : String</text><rect fill="none" height="6" style="stroke:#C82930;stroke-width:1.0;" width="6" x="501.5" y="90.3922"/><text fill="#000000" font-family="sans-serif" font-size="14" lengthAdjust="spacing" textLength="71" x="513.5" y="96.7389">index : I32</text><rect fill="none" height="6" style="stroke:#C82930;stroke-width:1.0;" width="6" x="501.5" y="106.6891"/><text fill="#000000" font-family="sans-serif" font-size="14" lengthAdjust="spacing" textLength="106" x="513.5" y="113.0357">open : Boolean</text><rect fill="none" height="6" style="stroke:#C82930;stroke-width:1.0;" width="6" x="501.5" y="122.9859"/><text fill="#000000" font-family="sans-serif" font-size="14" lengthAdjust="spacing" textLength="144" x="513.5" y="129.3326">serialNumber : String</text><ellipse cx="504.5" cy="142.2828" fill="none" rx="3" ry="3" style="stroke:#038048;stroke-width:1.0;"/><text fill="#000000" font-family="sans-serif" font-size="14" lengthAdjust="spacing" textLength="100" x="513.5" y="145.6295">productId : I32</text><line style="stroke:#555555;stroke-width:0.5;" x1="494.5" x2="702.5" y1="152.9313" y2="152.9313"/><ellipse cx="504.5" cy="166.5797" fill="#84BE84" rx="3" ry="3" style="stroke:#038048;stroke-width:1.0;"/><text fill="#000000" font-family="sans-serif" font-size="14" lengthAdjust="spacing" text-decoration="underline" textLength="148" x="513.5" y="169.9264">Send Receive Parse()</text><ellipse cx="504.5" cy="182.8766" fill="#84BE84" rx="3" ry="3" style="stroke:#038048;stroke-width:1.0;"/><text fill="#000000" font-family="sans-serif" font-size="14" lengthAdjust="spacing" text-decoration="underline" textLength="149" x="513.5" y="186.2232">ReadDeviceJSONList()</text><ellipse cx="504.5" cy="199.1734" fill="#84BE84" rx="3" ry="3" style="stroke:#038048;stroke-width:1.0;"/><text fill="#000000" font-family="sans-serif" font-size="14" lengthAdjust="spacing" text-decoration="underline" textLength="168" x="513.5" y="202.5201">DecodeDeviceJSONList()</text><ellipse cx="504.5" cy="215.4703" fill="#84BE84" rx="3" ry="3" style="stroke:#038048;stroke-width:1.0;"/><text fill="#000000" font-family="sans-serif" font-size="14" lengthAdjust="spacing" text-decoration="underline" textLength="184" x="513.5" y="218.817">ReadDeviceTypeAsString()</text><ellipse cx="504.5" cy="231.7672" fill="#84BE84" rx="3" ry="3" style="stroke:#038048;stroke-width:1.0;"/><text fill="#000000" font-family="sans-serif" font-size="14" lengthAdjust="spacing" textLength="96" x="513.5" y="235.1139">DeviceClose()</text><ellipse cx="504.5" cy="248.0641" fill="#84BE84" rx="3" ry="3" style="stroke:#038048;stroke-width:1.0;"/><text fill="#000000" font-family="sans-serif" font-size="14" lengthAdjust="spacing" textLength="95" x="513.5" y="251.4107">DeviceOpen()</text><ellipse cx="504.5" cy="264.3609" fill="#84BE84" rx="3" ry="3" style="stroke:#038048;stroke-width:1.0;"/><text fill="#000000" font-family="sans-serif" font-size="14" lengthAdjust="spacing" textLength="106" x="513.5" y="267.7076">DeviceIsOpen()</text></g><!--class Monochromator--><g id="elem_Monochromator"><rect codeLine="46" fill="#FFFFFF" height="439.125" id="Monochromator" rx="2.5" ry="2.5" style="stroke:#555555;stroke-width:0.5;" width="190" x="251.5" y="546.86"/><rect fill="#808080" height="32" rx="2.5" ry="2.5" style="stroke:#808080;stroke-width:0.5;" width="190" x="251.5" y="546.86"/><rect fill="#808080" height="2.5" style="stroke:#808080;stroke-width:0.5;" width="190" x="251.5" y="576.36"/><rect codeLine="46" fill="none" height="439.125" id="Monochromator" rx="2.5" ry="2.5" style="stroke:#555555;stroke-width:0.5;" width="190" x="251.5" y="546.86"/><ellipse cx="288.1" cy="562.86" fill="#ADD1B2" rx="11" ry="11" style="stroke:#181818;stroke-width:1.0;"/><path d="M291.0688,568.5006 Q290.4906,568.7975 289.85,568.9381 Q289.2094,569.0944 288.5063,569.0944 Q286.0063,569.0944 284.6781,567.4538 Q283.3656,565.7975 283.3656,562.6725 Q283.3656,559.5475 284.6781,557.8913 Q286.0063,556.235 288.5063,556.235 Q289.2094,556.235 289.85,556.3913 Q290.5063,556.5475 291.0688,556.8444 L291.0688,559.5631 Q290.4438,558.985 289.85,558.7194 Q289.2563,558.4381 288.6313,558.4381 Q287.2875,558.4381 286.6,559.5163 Q285.9125,560.5788 285.9125,562.6725 Q285.9125,564.7663 286.6,565.8444 Q287.2875,566.9069 288.6313,566.9069 Q289.2563,566.9069 289.85,566.6413 Q290.4438,566.36 291.0688,565.7819 L291.0688,568.5006 Z " fill="#000000"/><text fill="#000000" font-family="sans-serif" font-size="14" lengthAdjust="spacing" textLength="110" x="306.9" y="567.7067">Monochromator</text><line style="stroke:#555555;stroke-width:0.5;" x1="252.5" x2="440.5" y1="578.86" y2="578.86"/><line style="stroke:#555555;stroke-width:0.5;" x1="252.5" x2="440.5" y1="586.86" y2="586.86"/><ellipse cx="262.5" cy="600.5084" fill="#84BE84" rx="3" ry="3" style="stroke:#038048;stroke-width:1.0;"/><text fill="#000000" font-family="sans-serif" font-size="14" lengthAdjust="spacing" text-decoration="underline" textLength="106" x="271.5" y="603.8551">sortGetConfig()</text><ellipse cx="262.5" cy="616.8053" fill="#84BE84" rx="3" ry="3" style="stroke:#038048;stroke-width:1.0;"/><text fill="#000000" font-family="sans-serif" font-size="14" lengthAdjust="spacing" text-decoration="underline" textLength="55" x="271.5" y="620.152">isBusy()</text><ellipse cx="262.5" cy="633.1022" fill="#84BE84" rx="3" ry="3" style="stroke:#038048;stroke-width:1.0;"/><text fill="#000000" font-family="sans-serif" font-size="14" lengthAdjust="spacing" text-decoration="underline" textLength="30" x="271.5" y="636.4489">Init()</text><ellipse cx="262.5" cy="649.3991" fill="#84BE84" rx="3" ry="3" style="stroke:#038048;stroke-width:1.0;"/><text fill="#000000" font-family="sans-serif" font-size="14" lengthAdjust="spacing" text-decoration="underline" textLength="84" x="271.5" y="652.7457">isInitialized()</text><ellipse cx="262.5" cy="665.6959" fill="#84BE84" rx="3" ry="3" style="stroke:#038048;stroke-width:1.0;"/><text fill="#000000" font-family="sans-serif" font-size="14" lengthAdjust="spacing" text-decoration="underline" textLength="77" x="271.5" y="669.0426">getConfig()</text><ellipse cx="262.5" cy="681.9928" fill="#84BE84" rx="3" ry="3" style="stroke:#038048;stroke-width:1.0;"/><text fill="#000000" font-family="sans-serif" font-size="14" lengthAdjust="spacing" text-decoration="underline" textLength="125" x="271.5" y="685.3395">parseConfigData()</text><ellipse cx="262.5" cy="698.2897" fill="#84BE84" rx="3" ry="3" style="stroke:#038048;stroke-width:1.0;"/><text fill="#000000" font-family="sans-serif" font-size="14" lengthAdjust="spacing" text-decoration="underline" textLength="88" x="271.5" y="701.6364">getPosition()</text><ellipse cx="262.5" cy="714.5866" fill="#84BE84" rx="3" ry="3" style="stroke:#038048;stroke-width:1.0;"/><text fill="#000000" font-family="sans-serif" font-size="14" lengthAdjust="spacing" text-decoration="underline" textLength="87" x="271.5" y="717.9332">setPosition()</text><ellipse cx="262.5" cy="730.8834" fill="#84BE84" rx="3" ry="3" style="stroke:#038048;stroke-width:1.0;"/><text fill="#000000" font-family="sans-serif" font-size="14" lengthAdjust="spacing" text-decoration="underline" textLength="121" x="271.5" y="734.2301">moveToPosition()</text><ellipse cx="262.5" cy="747.1803" fill="#84BE84" rx="3" ry="3" style="stroke:#038048;stroke-width:1.0;"/><text fill="#000000" font-family="sans-serif" font-size="14" lengthAdjust="spacing" text-decoration="underline" textLength="138" x="271.5" y="750.527">getGratingPosition()</text><ellipse cx="262.5" cy="763.4772" fill="#84BE84" rx="3" ry="3" style="stroke:#038048;stroke-width:1.0;"/><text fill="#000000" font-family="sans-serif" font-size="14" lengthAdjust="spacing" text-decoration="underline" textLength="98" x="271.5" y="766.8239">moveGrating()</text><ellipse cx="262.5" cy="779.7741" fill="#84BE84" rx="3" ry="3" style="stroke:#038048;stroke-width:1.0;"/><text fill="#000000" font-family="sans-serif" font-size="14" lengthAdjust="spacing" text-decoration="underline" textLength="164" x="271.5" y="783.1207">getFilterWheelPosition()</text><ellipse cx="262.5" cy="796.0709" fill="#84BE84" rx="3" ry="3" style="stroke:#038048;stroke-width:1.0;"/><text fill="#000000" font-family="sans-serif" font-size="14" lengthAdjust="spacing" text-decoration="underline" textLength="124" x="271.5" y="799.4176">moveFilterWheel()</text><ellipse cx="262.5" cy="812.3678" fill="#84BE84" rx="3" ry="3" style="stroke:#038048;stroke-width:1.0;"/><text fill="#000000" font-family="sans-serif" font-size="14" lengthAdjust="spacing" text-decoration="underline" textLength="127" x="271.5" y="815.7145">getMirrorPosition()</text><ellipse cx="262.5" cy="828.6647" fill="#84BE84" rx="3" ry="3" style="stroke:#038048;stroke-width:1.0;"/><text fill="#000000" font-family="sans-serif" font-size="14" lengthAdjust="spacing" text-decoration="underline" textLength="87" x="271.5" y="832.0114">moveMirror()</text><ellipse cx="262.5" cy="844.9616" fill="#84BE84" rx="3" ry="3" style="stroke:#038048;stroke-width:1.0;"/><text fill="#000000" font-family="sans-serif" font-size="14" lengthAdjust="spacing" text-decoration="underline" textLength="144" x="271.5" y="848.3082">getSlitPositionInMM()</text><ellipse cx="262.5" cy="861.2584" fill="#84BE84" rx="3" ry="3" style="stroke:#038048;stroke-width:1.0;"/><text fill="#000000" font-family="sans-serif" font-size="14" lengthAdjust="spacing" text-decoration="underline" textLength="92" x="271.5" y="864.6051">moveSlitMM()</text><ellipse cx="262.5" cy="877.5553" fill="#84BE84" rx="3" ry="3" style="stroke:#038048;stroke-width:1.0;"/><text fill="#000000" font-family="sans-serif" font-size="14" lengthAdjust="spacing" text-decoration="underline" textLength="103" x="271.5" y="880.902">shutterSelect()</text><ellipse cx="262.5" cy="893.8522" fill="#84BE84" rx="3" ry="3" style="stroke:#038048;stroke-width:1.0;"/><text fill="#000000" font-family="sans-serif" font-size="14" lengthAdjust="spacing" text-decoration="underline" textLength="98" x="271.5" y="897.1989">shutterOpen()</text><ellipse cx="262.5" cy="910.1491" fill="#84BE84" rx="3" ry="3" style="stroke:#038048;stroke-width:1.0;"/><text fill="#000000" font-family="sans-serif" font-size="14" lengthAdjust="spacing" text-decoration="underline" textLength="99" x="271.5" y="913.4957">shutterClose()</text><ellipse cx="262.5" cy="926.4459" fill="#84BE84" rx="3" ry="3" style="stroke:#038048;stroke-width:1.0;"/><text fill="#000000" font-family="sans-serif" font-size="14" lengthAdjust="spacing" text-decoration="underline" textLength="128" x="271.5" y="929.7926">getShutterStatus()</text><ellipse cx="262.5" cy="942.7428" fill="#84BE84" rx="3" ry="3" style="stroke:#038048;stroke-width:1.0;"/><text fill="#000000" font-family="sans-serif" font-size="14" lengthAdjust="spacing" textLength="96" x="271.5" y="946.0895">DeviceClose()</text><ellipse cx="262.5" cy="959.0397" fill="#84BE84" rx="3" ry="3" style="stroke:#038048;stroke-width:1.0;"/><text fill="#000000" font-family="sans-serif" font-size="14" lengthAdjust="spacing" textLength="95" x="271.5" y="962.3864">DeviceOpen()</text><ellipse cx="262.5" cy="975.3366" fill="#84BE84" rx="3" ry="3" style="stroke:#038048;stroke-width:1.0;"/><text fill="#000000" font-family="sans-serif" font-size="14" lengthAdjust="spacing" textLength="106" x="271.5" y="978.6832">DeviceIsOpen()</text></g><!--class CCD--><g id="elem_CCD"><rect codeLine="76" fill="#FFFFFF" height="846.5469" id="CCD" rx="2.5" ry="2.5" style="stroke:#555555;stroke-width:0.5;" width="244" x="476.5" y="343.15"/><rect fill="#808080" height="32" rx="2.5" ry="2.5" style="stroke:#808080;stroke-width:0.5;" width="244" x="476.5" y="343.15"/><rect fill="#808080" height="2.5" style="stroke:#808080;stroke-width:0.5;" width="244" x="476.5" y="372.65"/><rect codeLine="76" fill="none" height="846.5469" id="CCD" rx="2.5" ry="2.5" style="stroke:#555555;stroke-width:0.5;" width="244" x="476.5" y="343.15"/><ellipse cx="578.75" cy="359.15" fill="#ADD1B2" rx="11" ry="11" style="stroke:#181818;stroke-width:1.0;"/><path d="M581.7188,364.7906 Q581.1406,365.0875 580.5,365.2281 Q579.8594,365.3844 579.1563,365.3844 Q576.6563,365.3844 575.3281,363.7438 Q574.0156,362.0875 574.0156,358.9625 Q574.0156,355.8375 575.3281,354.1813 Q576.6563,352.525 579.1563,352.525 Q579.8594,352.525 580.5,352.6813 Q581.1563,352.8375 581.7188,353.1344 L581.7188,355.8531 Q581.0938,355.275 580.5,355.0094 Q579.9063,354.7281 579.2813,354.7281 Q577.9375,354.7281 577.25,355.8063 Q576.5625,356.8688 576.5625,358.9625 Q576.5625,361.0563 577.25,362.1344 Q577.9375,363.1969 579.2813,363.1969 Q579.9063,363.1969 580.5,362.9313 Q581.0938,362.65 581.7188,362.0719 L581.7188,364.7906 Z " fill="#000000"/><text fill="#000000" font-family="sans-serif" font-size="14" lengthAdjust="spacing" textLength="31" x="599.25" y="363.9967">CCD</text><line style="stroke:#555555;stroke-width:0.5;" x1="477.5" x2="719.5" y1="375.15" y2="375.15"/><line style="stroke:#555555;stroke-width:0.5;" x1="477.5" x2="719.5" y1="383.15" y2="383.15"/><ellipse cx="487.5" cy="396.7984" fill="#84BE84" rx="3" ry="3" style="stroke:#038048;stroke-width:1.0;"/><text fill="#000000" font-family="sans-serif" font-size="14" lengthAdjust="spacing" text-decoration="underline" textLength="193" x="496.5" y="400.1451">getSpeedAndGainSettings()</text><ellipse cx="487.5" cy="413.0953" fill="#84BE84" rx="3" ry="3" style="stroke:#038048;stroke-width:1.0;"/><text fill="#000000" font-family="sans-serif" font-size="14" lengthAdjust="spacing" text-decoration="underline" textLength="125" x="496.5" y="416.442">parseConfigData()</text><ellipse cx="487.5" cy="429.3922" fill="#84BE84" rx="3" ry="3" style="stroke:#038048;stroke-width:1.0;"/><text fill="#000000" font-family="sans-serif" font-size="14" lengthAdjust="spacing" text-decoration="underline" textLength="123" x="496.5" y="432.7389">parseImageData()</text><ellipse cx="487.5" cy="445.6891" fill="#84BE84" rx="3" ry="3" style="stroke:#038048;stroke-width:1.0;"/><text fill="#000000" font-family="sans-serif" font-size="14" lengthAdjust="spacing" text-decoration="underline" textLength="133" x="496.5" y="449.0357">parseRangeMode()</text><ellipse cx="487.5" cy="461.9859" fill="#84BE84" rx="3" ry="3" style="stroke:#038048;stroke-width:1.0;"/><text fill="#000000" font-family="sans-serif" font-size="14" lengthAdjust="spacing" text-decoration="underline" textLength="137" x="496.5" y="465.3326">parseSpectralData()</text><ellipse cx="487.5" cy="478.2828" fill="#84BE84" rx="3" ry="3" style="stroke:#038048;stroke-width:1.0;"/><text fill="#000000" font-family="sans-serif" font-size="14" lengthAdjust="spacing" text-decoration="underline" textLength="106" x="496.5" y="481.6295">sortGetConfig()</text><ellipse cx="487.5" cy="494.5797" fill="#84BE84" rx="3" ry="3" style="stroke:#038048;stroke-width:1.0;"/><text fill="#000000" font-family="sans-serif" font-size="14" lengthAdjust="spacing" text-decoration="underline" textLength="121" x="496.5" y="497.9264">acquisitionAbort()</text><ellipse cx="487.5" cy="510.8766" fill="#84BE84" rx="3" ry="3" style="stroke:#038048;stroke-width:1.0;"/><text fill="#000000" font-family="sans-serif" font-size="14" lengthAdjust="spacing" text-decoration="underline" textLength="116" x="496.5" y="514.2232">acquisitionStart()</text><ellipse cx="487.5" cy="527.1734" fill="#84BE84" rx="3" ry="3" style="stroke:#038048;stroke-width:1.0;"/><text fill="#000000" font-family="sans-serif" font-size="14" lengthAdjust="spacing" text-decoration="underline" textLength="218" x="496.5" y="530.5201">calculateRangeModePositions()</text><ellipse cx="487.5" cy="543.4703" fill="#84BE84" rx="3" ry="3" style="stroke:#038048;stroke-width:1.0;"/><text fill="#000000" font-family="sans-serif" font-size="14" lengthAdjust="spacing" text-decoration="underline" textLength="101" x="496.5" y="546.817">getAcqCount()</text><ellipse cx="487.5" cy="559.7672" fill="#84BE84" rx="3" ry="3" style="stroke:#038048;stroke-width:1.0;"/><text fill="#000000" font-family="sans-serif" font-size="14" lengthAdjust="spacing" text-decoration="underline" textLength="142" x="496.5" y="563.1139">getAcquisitionBusy()</text><ellipse cx="487.5" cy="576.0641" fill="#84BE84" rx="3" ry="3" style="stroke:#038048;stroke-width:1.0;"/><text fill="#000000" font-family="sans-serif" font-size="14" lengthAdjust="spacing" text-decoration="underline" textLength="140" x="496.5" y="579.4107">getAcquisitionData()</text><ellipse cx="487.5" cy="592.3609" fill="#84BE84" rx="3" ry="3" style="stroke:#038048;stroke-width:1.0;"/><text fill="#000000" font-family="sans-serif" font-size="14" lengthAdjust="spacing" text-decoration="underline" textLength="151" x="496.5" y="595.7076">getAcquisitionReady()</text><ellipse cx="487.5" cy="608.6578" fill="#84BE84" rx="3" ry="3" style="stroke:#038048;stroke-width:1.0;"/><text fill="#000000" font-family="sans-serif" font-size="14" lengthAdjust="spacing" text-decoration="underline" textLength="154" x="496.5" y="612.0045">getChipTemperature()</text><ellipse cx="487.5" cy="624.9547" fill="#84BE84" rx="3" ry="3" style="stroke:#038048;stroke-width:1.0;"/><text fill="#000000" font-family="sans-serif" font-size="14" lengthAdjust="spacing" text-decoration="underline" textLength="114" x="496.5" y="628.3014">getCleanCount()</text><ellipse cx="487.5" cy="641.2516" fill="#84BE84" rx="3" ry="3" style="stroke:#038048;stroke-width:1.0;"/><text fill="#000000" font-family="sans-serif" font-size="14" lengthAdjust="spacing" text-decoration="underline" textLength="77" x="496.5" y="644.5982">getConfig()</text><ellipse cx="487.5" cy="657.5484" fill="#84BE84" rx="3" ry="3" style="stroke:#038048;stroke-width:1.0;"/><text fill="#000000" font-family="sans-serif" font-size="14" lengthAdjust="spacing" text-decoration="underline" textLength="94" x="496.5" y="660.8951">getDataSize()</text><ellipse cx="487.5" cy="673.8453" fill="#84BE84" rx="3" ry="3" style="stroke:#038048;stroke-width:1.0;"/><text fill="#000000" font-family="sans-serif" font-size="14" lengthAdjust="spacing" text-decoration="underline" textLength="132" x="496.5" y="677.192">getExposureTime()</text><ellipse cx="487.5" cy="690.1422" fill="#84BE84" rx="3" ry="3" style="stroke:#038048;stroke-width:1.0;"/><text fill="#000000" font-family="sans-serif" font-size="14" lengthAdjust="spacing" text-decoration="underline" textLength="100" x="496.5" y="693.4889">getFitParams()</text><ellipse cx="487.5" cy="706.4391" fill="#84BE84" rx="3" ry="3" style="stroke:#038048;stroke-width:1.0;"/><text fill="#000000" font-family="sans-serif" font-size="14" lengthAdjust="spacing" text-decoration="underline" textLength="64" x="496.5" y="709.7857">getGain()</text><ellipse cx="487.5" cy="722.7359" fill="#84BE84" rx="3" ry="3" style="stroke:#038048;stroke-width:1.0;"/><text fill="#000000" font-family="sans-serif" font-size="14" lengthAdjust="spacing" text-decoration="underline" textLength="126" x="496.5" y="726.0826">getParallelSpeed()</text><ellipse cx="487.5" cy="739.0328" fill="#84BE84" rx="3" ry="3" style="stroke:#038048;stroke-width:1.0;"/><text fill="#000000" font-family="sans-serif" font-size="14" lengthAdjust="spacing" text-decoration="underline" textLength="99" x="496.5" y="742.3795">getSignalOut()</text><ellipse cx="487.5" cy="755.3297" fill="#84BE84" rx="3" ry="3" style="stroke:#038048;stroke-width:1.0;"/><text fill="#000000" font-family="sans-serif" font-size="14" lengthAdjust="spacing" text-decoration="underline" textLength="78" x="496.5" y="758.6764">getSpeed()</text><ellipse cx="487.5" cy="771.6266" fill="#84BE84" rx="3" ry="3" style="stroke:#038048;stroke-width:1.0;"/><text fill="#000000" font-family="sans-serif" font-size="14" lengthAdjust="spacing" text-decoration="underline" textLength="146" x="496.5" y="774.9732">getTimerResolution()</text><ellipse cx="487.5" cy="787.9234" fill="#84BE84" rx="3" ry="3" style="stroke:#038048;stroke-width:1.0;"/><text fill="#000000" font-family="sans-serif" font-size="14" lengthAdjust="spacing" text-decoration="underline" textLength="94" x="496.5" y="791.2701">getTriggerIn()</text><ellipse cx="487.5" cy="804.2203" fill="#84BE84" rx="3" ry="3" style="stroke:#038048;stroke-width:1.0;"/><text fill="#000000" font-family="sans-serif" font-size="14" lengthAdjust="spacing" text-decoration="underline" textLength="181" x="496.5" y="807.567">getXAxisConversionType()</text><ellipse cx="487.5" cy="820.5172" fill="#84BE84" rx="3" ry="3" style="stroke:#038048;stroke-width:1.0;"/><text fill="#000000" font-family="sans-serif" font-size="14" lengthAdjust="spacing" text-decoration="underline" textLength="55" x="496.5" y="823.8639">restart()</text><ellipse cx="487.5" cy="836.8141" fill="#84BE84" rx="3" ry="3" style="stroke:#038048;stroke-width:1.0;"/><text fill="#000000" font-family="sans-serif" font-size="14" lengthAdjust="spacing" text-decoration="underline" textLength="100" x="496.5" y="840.1607">setAcqCount()</text><ellipse cx="487.5" cy="853.1109" fill="#84BE84" rx="3" ry="3" style="stroke:#038048;stroke-width:1.0;"/><text fill="#000000" font-family="sans-serif" font-size="14" lengthAdjust="spacing" text-decoration="underline" textLength="106" x="496.5" y="856.4576">setAcqFormat()</text><ellipse cx="487.5" cy="869.4078" fill="#84BE84" rx="3" ry="3" style="stroke:#038048;stroke-width:1.0;"/><text fill="#000000" font-family="sans-serif" font-size="14" lengthAdjust="spacing" text-decoration="underline" textLength="160" x="496.5" y="872.7545">setCenterWavelength()</text><ellipse cx="487.5" cy="885.7047" fill="#84BE84" rx="3" ry="3" style="stroke:#038048;stroke-width:1.0;"/><text fill="#000000" font-family="sans-serif" font-size="14" lengthAdjust="spacing" text-decoration="underline" textLength="113" x="496.5" y="889.0514">setCleanCount()</text><ellipse cx="487.5" cy="902.0016" fill="#84BE84" rx="3" ry="3" style="stroke:#038048;stroke-width:1.0;"/><text fill="#000000" font-family="sans-serif" font-size="14" lengthAdjust="spacing" text-decoration="underline" textLength="131" x="496.5" y="905.3482">setExposureTime()</text><ellipse cx="487.5" cy="918.2984" fill="#84BE84" rx="3" ry="3" style="stroke:#038048;stroke-width:1.0;"/><text fill="#000000" font-family="sans-serif" font-size="14" lengthAdjust="spacing" text-decoration="underline" textLength="63" x="496.5" y="921.6451">setGain()</text><ellipse cx="487.5" cy="934.5953" fill="#84BE84" rx="3" ry="3" style="stroke:#038048;stroke-width:1.0;"/><text fill="#000000" font-family="sans-serif" font-size="14" lengthAdjust="spacing" text-decoration="underline" textLength="125" x="496.5" y="937.942">setParallelSpeed()</text><ellipse cx="487.5" cy="950.8922" fill="#84BE84" rx="3" ry="3" style="stroke:#038048;stroke-width:1.0;"/><text fill="#000000" font-family="sans-serif" font-size="14" lengthAdjust="spacing" text-decoration="underline" textLength="54" x="496.5" y="954.2389">setRoi()</text><ellipse cx="487.5" cy="967.1891" fill="#84BE84" rx="3" ry="3" style="stroke:#038048;stroke-width:1.0;"/><text fill="#000000" font-family="sans-serif" font-size="14" lengthAdjust="spacing" text-decoration="underline" textLength="98" x="496.5" y="970.5357">setSignalOut()</text><ellipse cx="487.5" cy="983.4859" fill="#84BE84" rx="3" ry="3" style="stroke:#038048;stroke-width:1.0;"/><text fill="#000000" font-family="sans-serif" font-size="14" lengthAdjust="spacing" text-decoration="underline" textLength="77" x="496.5" y="986.8326">setSpeed()</text><ellipse cx="487.5" cy="999.7828" fill="#84BE84" rx="3" ry="3" style="stroke:#038048;stroke-width:1.0;"/><text fill="#000000" font-family="sans-serif" font-size="14" lengthAdjust="spacing" text-decoration="underline" textLength="145" x="496.5" y="1003.1295">setTimerResolution()</text><ellipse cx="487.5" cy="1016.0797" fill="#84BE84" rx="3" ry="3" style="stroke:#038048;stroke-width:1.0;"/><text fill="#000000" font-family="sans-serif" font-size="14" lengthAdjust="spacing" text-decoration="underline" textLength="93" x="496.5" y="1019.4264">setTriggerIn()</text><ellipse cx="487.5" cy="1032.3766" fill="#84BE84" rx="3" ry="3" style="stroke:#038048;stroke-width:1.0;"/><text fill="#000000" font-family="sans-serif" font-size="14" lengthAdjust="spacing" text-decoration="underline" textLength="180" x="496.5" y="1035.7232">setXAxisConversionType()</text><ellipse cx="487.5" cy="1048.6734" fill="#84BE84" rx="3" ry="3" style="stroke:#038048;stroke-width:1.0;"/><text fill="#000000" font-family="sans-serif" font-size="14" lengthAdjust="spacing" text-decoration="underline" textLength="113" x="496.5" y="1052.0201">Setup Example()</text><ellipse cx="487.5" cy="1064.9703" fill="#84BE84" rx="3" ry="3" style="stroke:#038048;stroke-width:1.0;"/><text fill="#000000" font-family="sans-serif" font-size="14" lengthAdjust="spacing" text-decoration="underline" textLength="141" x="496.5" y="1068.317">Teardown Example()</text><ellipse cx="487.5" cy="1081.2672" fill="#84BE84" rx="3" ry="3" style="stroke:#038048;stroke-width:1.0;"/><text fill="#000000" font-family="sans-serif" font-size="14" lengthAdjust="spacing" text-decoration="underline" textLength="197" x="496.5" y="1084.6139">Example - Open Close CCD()</text><ellipse cx="487.5" cy="1097.5641" fill="#84BE84" rx="3" ry="3" style="stroke:#038048;stroke-width:1.0;"/><text fill="#000000" font-family="sans-serif" font-size="14" lengthAdjust="spacing" text-decoration="underline" textLength="154" x="496.5" y="1100.9107">Example - Get Config()</text><ellipse cx="487.5" cy="1113.8609" fill="#84BE84" rx="3" ry="3" style="stroke:#038048;stroke-width:1.0;"/><text fill="#000000" font-family="sans-serif" font-size="14" lengthAdjust="spacing" text-decoration="underline" textLength="103" x="496.5" y="1117.2076">CCD Example()</text><ellipse cx="487.5" cy="1130.1578" fill="#84BE84" rx="3" ry="3" style="stroke:#038048;stroke-width:1.0;"/><text fill="#000000" font-family="sans-serif" font-size="14" lengthAdjust="spacing" textLength="96" x="496.5" y="1133.5045">DeviceClose()</text><ellipse cx="487.5" cy="1146.4547" fill="#84BE84" rx="3" ry="3" style="stroke:#038048;stroke-width:1.0;"/><text fill="#000000" font-family="sans-serif" font-size="14" lengthAdjust="spacing" textLength="106" x="496.5" y="1149.8014">DeviceIsOpen()</text><ellipse cx="487.5" cy="1162.7516" fill="#84BE84" rx="3" ry="3" style="stroke:#038048;stroke-width:1.0;"/><text fill="#000000" font-family="sans-serif" font-size="14" lengthAdjust="spacing" textLength="95" x="496.5" y="1166.0982">DeviceOpen()</text><ellipse cx="487.5" cy="1179.0484" fill="#84BE84" rx="3" ry="3" style="stroke:#038048;stroke-width:1.0;"/><text fill="#000000" font-family="sans-serif" font-size="14" lengthAdjust="spacing" textLength="93" x="496.5" y="1182.3951">getChipSize()</text></g><!--class SCD--><g id="elem_SCD"><rect codeLine="131" fill="#FFFFFF" height="96.8906" id="SCD" rx="2.5" ry="2.5" style="stroke:#555555;stroke-width:0.5;" width="132" x="755.5" y="717.98"/><rect fill="#808080" height="32" rx="2.5" ry="2.5" style="stroke:#808080;stroke-width:0.5;" width="132" x="755.5" y="717.98"/><rect fill="#808080" height="2.5" style="stroke:#808080;stroke-width:0.5;" width="132" x="755.5" y="747.48"/><rect codeLine="131" fill="none" height="96.8906" id="SCD" rx="2.5" ry="2.5" style="stroke:#555555;stroke-width:0.5;" width="132" x="755.5" y="717.98"/><ellipse cx="802.25" cy="733.98" fill="#ADD1B2" rx="11" ry="11" style="stroke:#181818;stroke-width:1.0;"/><path d="M805.2188,739.6206 Q804.6406,739.9175 804,740.0581 Q803.3594,740.2144 802.6563,740.2144 Q800.1563,740.2144 798.8281,738.5738 Q797.5156,736.9175 797.5156,733.7925 Q797.5156,730.6675 798.8281,729.0113 Q800.1563,727.355 802.6563,727.355 Q803.3594,727.355 804,727.5113 Q804.6563,727.6675 805.2188,727.9644 L805.2188,730.6831 Q804.5938,730.105 804,729.8394 Q803.4063,729.5581 802.7813,729.5581 Q801.4375,729.5581 800.75,730.6363 Q800.0625,731.6988 800.0625,733.7925 Q800.0625,735.8863 800.75,736.9644 Q801.4375,738.0269 802.7813,738.0269 Q803.4063,738.0269 804,737.7613 Q804.5938,737.48 805.2188,736.9019 L805.2188,739.6206 Z " fill="#000000"/><text fill="#000000" font-family="sans-serif" font-size="14" lengthAdjust="spacing" textLength="30" x="822.75" y="738.8267">SCD</text><line style="stroke:#555555;stroke-width:0.5;" x1="756.5" x2="886.5" y1="749.98" y2="749.98"/><line style="stroke:#555555;stroke-width:0.5;" x1="756.5" x2="886.5" y1="757.98" y2="757.98"/><ellipse cx="766.5" cy="771.6284" fill="#84BE84" rx="3" ry="3" style="stroke:#038048;stroke-width:1.0;"/><text fill="#000000" font-family="sans-serif" font-size="14" lengthAdjust="spacing" textLength="96" x="775.5" y="774.9751">DeviceClose()</text><ellipse cx="766.5" cy="787.9253" fill="#84BE84" rx="3" ry="3" style="stroke:#038048;stroke-width:1.0;"/><text fill="#000000" font-family="sans-serif" font-size="14" lengthAdjust="spacing" textLength="95" x="775.5" y="791.272">DeviceOpen()</text><ellipse cx="766.5" cy="804.2222" fill="#84BE84" rx="3" ry="3" style="stroke:#038048;stroke-width:1.0;"/><text fill="#000000" font-family="sans-serif" font-size="14" lengthAdjust="spacing" textLength="106" x="775.5" y="807.5689">DeviceIsOpen()</text></g><!--reverse link Communicator to WebSocket Client--><g id="link_Communicator_WebSocket Client"><path codeLine="25" d="M139.5,295.53 C139.5,447.35 139.5,668.14 139.5,742.06 " fill="none" id="Communicator-backto-WebSocket Client" style="stroke:#181818;stroke-width:1.0;"/><polygon fill="#181818" points="139.5,283.53,135.5,289.53,139.5,295.53,143.5,289.53,139.5,283.53" style="stroke:#181818;stroke-width:1.0;"/></g><!--reverse link GenericDevice to Monochromator--><g id="link_GenericDevice_Monochromator"><path codeLine="73" d="M487.0943,290.4486 C472.8243,312.2886 469.24,320.26 458.5,343.15 C428.71,406.67 405.83,479.42 388.75,546.44 " fill="none" id="GenericDevice-backto-Monochromator" style="stroke:#181818;stroke-width:1.0;"/><polygon fill="none" points="496.94,275.38,482.0715,287.1667,492.1172,293.7305,496.94,275.38" style="stroke:#181818;stroke-width:1.0;"/></g><!--reverse link GenericDevice to CCD--><g id="link_GenericDevice_CCD"><path codeLine="128" d="M598.5,293.16 C598.5,314.25 598.5,319.06 598.5,342.91 " fill="none" id="GenericDevice-backto-CCD" style="stroke:#181818;stroke-width:1.0;"/><polygon fill="none" points="598.5,275.16,592.5,293.16,604.5,293.16,598.5,275.16" style="stroke:#181818;stroke-width:1.0;"/></g><!--reverse link GenericDevice to SCD--><g id="link_GenericDevice_SCD"><path codeLine="137" d="M711.4527,290.4882 C725.4127,312.2382 728.6,320.11 738.5,343.15 C793.59,471.35 812.47,637.22 818.66,717.59 " fill="none" id="GenericDevice-backto-SCD" style="stroke:#181818;stroke-width:1.0;"/><polygon fill="none" points="701.73,275.34,706.4033,293.7291,716.5021,287.2473,701.73,275.34" style="stroke:#181818;stroke-width:1.0;"/></g><!--SRC=[jLVVRzis47xNNq4aBzsA54M70KCme73an5DHDu5bD7kbgOjCX29L7kKco_A_xoZ9lqN9GpSdVWZluzsHtzrt389ZcXU09HUGGiajTyQoomWVfVP_5InM7F6AYyVScafdiL44EB-fFqSmOpEmBUJN-dC8kJ7QjO3tzUSGy0Tmyd4KyBVt_YVQGJjJqfSjZ7EcO9cq89mqEXBU2pkBJL5KMWf_e3Fs4hqyI53PAxkuXqLgn2ETF3PQDvlO9VlyjOc_1IPZ9YW31tGXBFdbmzOYDXklqV65ahY4x2EXhenHm7NqGijEYbVsKe1R6jhpzbDw-uNTSOl0V6fSPsz-6i1TMsii3iAIyJ14FvX1q0omKYuGxtO5zhkLRXrkQoX1RozopnGhWn2mfQ2p4VtYuusnCoZLywxvV0O2v0e-uVwsSx-jNOnUemEIVxwuO6SRUl6TMYcvkDpXMqdGxYoArZKo0GrMYZ6if82z8idgfJdOWbXDdPKwFp8-bz1Xb3g3fyE2CNH9k-MnNaSApzMNgbZKHNRWwsrfJLO9bsHhVyUy-0jXxMqrF7RpDwEsQixf6VyiqNNZnY1C1gSWjnxzJOomINwFvCPSbq77kg-SZkK4MmCHl65gQhGHIskAJJiV9uJ6kWcGkkW7cNVdBF6gmkTkMwAb2-toDY9A_WM1hitxuvQUc0Omveu7VTmPbEjMwJZW4A0mAvYRVWn5cP3A4rN3lbfWqD6DLAIEzqi0DUni1nnqE9LUyePzDRYWcrJ9pKqbUZeDE_B8a1sNbQECKr2aNxsGTIK70PiMw4wt3KIs2l_R1ZgKkD__zXgvtqtRBelZSQ2tV9ObW9Vi2PSw1USB0t-WscjGKl0S1Z0phdEOaYZrO2WtuInNOLSdY0CNtohP5CreGV11514MGWckHAMussQ_haSCbi58V8lzUwCFi0uTbh5zNA_QxE2yc8STnajPpg4eWVIWik52Zlrqwpz37m5azlcc9BD1mFLJQP1ocCi2UdJ9tVatOlYkVH67LPZsAWMghlXmryfSStLRXS_Qlz-VW5u-Q5JLgzPpA_CSR196_3bwaaWNIqyq94z-77TZBM2uP76e0Xi0FTT8DeA86Fo3-PwlI3LrxfPXu42ju2bSOn-JU1AJX9eP6RGDi8ozBEE9BECWo_WlM2Pnhafs_SIBKWKWS-0sCzzrFweriWlc1mghnn2Z6J64dZJ_MmNxd5pi1Zvnsct6sk0OR1MhrP7W5FJJRZlxqdRs_T-pDssY_WC0]--></g></svg>