<?xml version="1.0" encoding="us-ascii" standalone="no"?><svg xmlns="http://www.w3.org/2000/svg" xmlns:xlink="http://www.w3.org/1999/xlink" contentStyleType="text/css" height="1214px" preserveAspectRatio="none" style="width:913px;height:1214px;background:#FFFFFF;" version="1.1" viewBox="0 0 913 1214" width="913px" zoomAndPan="magnify"><defs/><g><!--cluster horiba.lvlib--><g id="cluster_horiba.lvlib"><path d="M8.5,6 L95.5,6 A3.75,3.75 0 0 1 98,8.5 L105,28.2969 L693.5,28.2969 A2.5,2.5 0 0 1 696,30.7969 L696,1204.61 A2.5,2.5 0 0 1 693.5,1207.11 L8.5,1207.11 A2.5,2.5 0 0 1 6,1204.61 L6,8.5 A2.5,2.5 0 0 1 8.5,6 " fill="none" style="stroke:#000000;stroke-width:1.5;"/><line style="stroke:#000000;stroke-width:1.5;" x1="6" x2="105" y1="28.2969" y2="28.2969"/><text fill="#000000" font-family="sans-serif" font-size="14" font-weight="bold" lengthAdjust="spacing" textLength="86" x="10" y="20.9951">horiba.lvlib</text></g><!--cluster WebSockets.lvlib--><g id="cluster_WebSockets.lvlib"><path d="M722.5,725.13 L857.5,725.13 A3.75,3.75 0 0 1 860,727.63 L867,747.4269 L903.5,747.4269 A2.5,2.5 0 0 1 906,749.9269 L906,821.63 A2.5,2.5 0 0 1 903.5,824.13 L722.5,824.13 A2.5,2.5 0 0 1 720,821.63 L720,727.63 A2.5,2.5 0 0 1 722.5,725.13 " fill="none" style="stroke:#000000;stroke-width:1.5;"/><line style="stroke:#000000;stroke-width:1.5;" x1="720" x2="867" y1="747.4269" y2="747.4269"/><text fill="#000000" font-family="sans-serif" font-size="14" font-weight="bold" lengthAdjust="spacing" textLength="134" x="724" y="740.1251">WebSockets.lvlib</text></g><!--class CCD--><g id="elem_CCD"><rect codeLine="8" fill="#FFFFFF" height="813.9531" id="CCD" rx="2.5" ry="2.5" style="stroke:#555555;stroke-width:0.5;" width="265" x="22.5" y="377.16"/><rect fill="#808080" height="32" rx="2.5" ry="2.5" style="stroke:#808080;stroke-width:0.5;" width="265" x="22.5" y="377.16"/><rect fill="#808080" height="2.5" style="stroke:#808080;stroke-width:0.5;" width="265" x="22.5" y="406.66"/><rect codeLine="8" fill="none" height="813.9531" id="CCD" rx="2.5" ry="2.5" style="stroke:#555555;stroke-width:0.5;" width="265" x="22.5" y="377.16"/><ellipse cx="135.25" cy="393.16" fill="#ADD1B2" rx="11" ry="11" style="stroke:#181818;stroke-width:1.0;"/><path d="M138.2188,398.8006 Q137.6406,399.0975 137,399.2381 Q136.3594,399.3944 135.6563,399.3944 Q133.1563,399.3944 131.8281,397.7537 Q130.5156,396.0975 130.5156,392.9725 Q130.5156,389.8475 131.8281,388.1912 Q133.1563,386.535 135.6563,386.535 Q136.3594,386.535 137,386.6912 Q137.6563,386.8475 138.2188,387.1444 L138.2188,389.8631 Q137.5938,389.285 137,389.0194 Q136.4063,388.7381 135.7813,388.7381 Q134.4375,388.7381 133.75,389.8162 Q133.0625,390.8787 133.0625,392.9725 Q133.0625,395.0662 133.75,396.1444 Q134.4375,397.2069 135.7813,397.2069 Q136.4063,397.2069 137,396.9412 Q137.5938,396.66 138.2188,396.0819 L138.2188,398.8006 Z " fill="#000000"/><text fill="#000000" font-family="sans-serif" font-size="14" lengthAdjust="spacing" textLength="31" x="155.75" y="398.0067">CCD</text><line style="stroke:#555555;stroke-width:0.5;" x1="23.5" x2="286.5" y1="409.16" y2="409.16"/><line style="stroke:#555555;stroke-width:0.5;" x1="23.5" x2="286.5" y1="417.16" y2="417.16"/><ellipse cx="33.5" cy="430.8084" fill="#84BE84" rx="3" ry="3" style="stroke:#038048;stroke-width:1.0;"/><text fill="#000000" font-family="sans-serif" font-size="14" lengthAdjust="spacing" text-decoration="underline" textLength="193" x="42.5" y="434.1551">getSpeedAndGainSettings()</text><ellipse cx="33.5" cy="447.1053" fill="#84BE84" rx="3" ry="3" style="stroke:#038048;stroke-width:1.0;"/><text fill="#000000" font-family="sans-serif" font-size="14" lengthAdjust="spacing" text-decoration="underline" textLength="125" x="42.5" y="450.452">parseConfigData()</text><ellipse cx="33.5" cy="463.4022" fill="#84BE84" rx="3" ry="3" style="stroke:#038048;stroke-width:1.0;"/><text fill="#000000" font-family="sans-serif" font-size="14" lengthAdjust="spacing" text-decoration="underline" textLength="123" x="42.5" y="466.7489">parseImageData()</text><ellipse cx="33.5" cy="479.6991" fill="#84BE84" rx="3" ry="3" style="stroke:#038048;stroke-width:1.0;"/><text fill="#000000" font-family="sans-serif" font-size="14" lengthAdjust="spacing" text-decoration="underline" textLength="133" x="42.5" y="483.0457">parseRangeMode()</text><ellipse cx="33.5" cy="495.9959" fill="#84BE84" rx="3" ry="3" style="stroke:#038048;stroke-width:1.0;"/><text fill="#000000" font-family="sans-serif" font-size="14" lengthAdjust="spacing" text-decoration="underline" textLength="137" x="42.5" y="499.3426">parseSpectralData()</text><ellipse cx="33.5" cy="512.2928" fill="#84BE84" rx="3" ry="3" style="stroke:#038048;stroke-width:1.0;"/><text fill="#000000" font-family="sans-serif" font-size="14" lengthAdjust="spacing" text-decoration="underline" textLength="164" x="42.5" y="515.6395">stitchingModeAverage()</text><ellipse cx="33.5" cy="528.5897" fill="#84BE84" rx="3" ry="3" style="stroke:#038048;stroke-width:1.0;"/><text fill="#000000" font-family="sans-serif" font-size="14" lengthAdjust="spacing" text-decoration="underline" textLength="154" x="42.5" y="531.9364">stitchingModeSimple()</text><ellipse cx="33.5" cy="544.8866" fill="#84BE84" rx="3" ry="3" style="stroke:#038048;stroke-width:1.0;"/><text fill="#000000" font-family="sans-serif" font-size="14" lengthAdjust="spacing" text-decoration="underline" textLength="121" x="42.5" y="548.2332">acquisitionAbort()</text><ellipse cx="33.5" cy="561.1834" fill="#84BE84" rx="3" ry="3" style="stroke:#038048;stroke-width:1.0;"/><text fill="#000000" font-family="sans-serif" font-size="14" lengthAdjust="spacing" text-decoration="underline" textLength="116" x="42.5" y="564.5301">acquisitionStart()</text><ellipse cx="33.5" cy="577.4803" fill="#84BE84" rx="3" ry="3" style="stroke:#038048;stroke-width:1.0;"/><text fill="#000000" font-family="sans-serif" font-size="14" lengthAdjust="spacing" text-decoration="underline" textLength="218" x="42.5" y="580.827">calculateRangeModePositions()</text><ellipse cx="33.5" cy="593.7772" fill="#84BE84" rx="3" ry="3" style="stroke:#038048;stroke-width:1.0;"/><text fill="#000000" font-family="sans-serif" font-size="14" lengthAdjust="spacing" text-decoration="underline" textLength="239" x="42.5" y="597.1239">convertWavelengthToRamanShift()</text><ellipse cx="33.5" cy="610.0741" fill="#84BE84" rx="3" ry="3" style="stroke:#038048;stroke-width:1.0;"/><text fill="#000000" font-family="sans-serif" font-size="14" lengthAdjust="spacing" text-decoration="underline" textLength="101" x="42.5" y="613.4207">getAcqCount()</text><ellipse cx="33.5" cy="626.3709" fill="#84BE84" rx="3" ry="3" style="stroke:#038048;stroke-width:1.0;"/><text fill="#000000" font-family="sans-serif" font-size="14" lengthAdjust="spacing" text-decoration="underline" textLength="142" x="42.5" y="629.7176">getAcquisitionBusy()</text><ellipse cx="33.5" cy="642.6678" fill="#84BE84" rx="3" ry="3" style="stroke:#038048;stroke-width:1.0;"/><text fill="#000000" font-family="sans-serif" font-size="14" lengthAdjust="spacing" text-decoration="underline" textLength="151" x="42.5" y="646.0145">getAcquisitionReady()</text><ellipse cx="33.5" cy="658.9647" fill="#84BE84" rx="3" ry="3" style="stroke:#038048;stroke-width:1.0;"/><text fill="#000000" font-family="sans-serif" font-size="14" lengthAdjust="spacing" text-decoration="underline" textLength="154" x="42.5" y="662.3114">getChipTemperature()</text><ellipse cx="33.5" cy="675.2616" fill="#84BE84" rx="3" ry="3" style="stroke:#038048;stroke-width:1.0;"/><text fill="#000000" font-family="sans-serif" font-size="14" lengthAdjust="spacing" text-decoration="underline" textLength="114" x="42.5" y="678.6082">getCleanCount()</text><ellipse cx="33.5" cy="691.5584" fill="#84BE84" rx="3" ry="3" style="stroke:#038048;stroke-width:1.0;"/><text fill="#000000" font-family="sans-serif" font-size="14" lengthAdjust="spacing" text-decoration="underline" textLength="77" x="42.5" y="694.9051">getConfig()</text><ellipse cx="33.5" cy="707.8553" fill="#84BE84" rx="3" ry="3" style="stroke:#038048;stroke-width:1.0;"/><text fill="#000000" font-family="sans-serif" font-size="14" lengthAdjust="spacing" text-decoration="underline" textLength="94" x="42.5" y="711.202">getDataSize()</text><ellipse cx="33.5" cy="724.1522" fill="#84BE84" rx="3" ry="3" style="stroke:#038048;stroke-width:1.0;"/><text fill="#000000" font-family="sans-serif" font-size="14" lengthAdjust="spacing" text-decoration="underline" textLength="132" x="42.5" y="727.4989">getExposureTime()</text><ellipse cx="33.5" cy="740.4491" fill="#84BE84" rx="3" ry="3" style="stroke:#038048;stroke-width:1.0;"/><text fill="#000000" font-family="sans-serif" font-size="14" lengthAdjust="spacing" text-decoration="underline" textLength="100" x="42.5" y="743.7957">getFitParams()</text><ellipse cx="33.5" cy="756.7459" fill="#84BE84" rx="3" ry="3" style="stroke:#038048;stroke-width:1.0;"/><text fill="#000000" font-family="sans-serif" font-size="14" lengthAdjust="spacing" text-decoration="underline" textLength="64" x="42.5" y="760.0926">getGain()</text><ellipse cx="33.5" cy="773.0428" fill="#84BE84" rx="3" ry="3" style="stroke:#038048;stroke-width:1.0;"/><text fill="#000000" font-family="sans-serif" font-size="14" lengthAdjust="spacing" text-decoration="underline" textLength="107" x="42.5" y="776.3895">getImageData()</text><ellipse cx="33.5" cy="789.3397" fill="#84BE84" rx="3" ry="3" style="stroke:#038048;stroke-width:1.0;"/><text fill="#000000" font-family="sans-serif" font-size="14" lengthAdjust="spacing" text-decoration="underline" textLength="126" x="42.5" y="792.6864">getParallelSpeed()</text><ellipse cx="33.5" cy="805.6366" fill="#84BE84" rx="3" ry="3" style="stroke:#038048;stroke-width:1.0;"/><text fill="#000000" font-family="sans-serif" font-size="14" lengthAdjust="spacing" text-decoration="underline" textLength="99" x="42.5" y="808.9832">getSignalOut()</text><ellipse cx="33.5" cy="821.9334" fill="#84BE84" rx="3" ry="3" style="stroke:#038048;stroke-width:1.0;"/><text fill="#000000" font-family="sans-serif" font-size="14" lengthAdjust="spacing" text-decoration="underline" textLength="121" x="42.5" y="825.2801">getSpectralData()</text><ellipse cx="33.5" cy="838.2303" fill="#84BE84" rx="3" ry="3" style="stroke:#038048;stroke-width:1.0;"/><text fill="#000000" font-family="sans-serif" font-size="14" lengthAdjust="spacing" text-decoration="underline" textLength="78" x="42.5" y="841.577">getSpeed()</text><ellipse cx="33.5" cy="854.5272" fill="#84BE84" rx="3" ry="3" style="stroke:#038048;stroke-width:1.0;"/><text fill="#000000" font-family="sans-serif" font-size="14" lengthAdjust="spacing" text-decoration="underline" textLength="146" x="42.5" y="857.8739">getTimerResolution()</text><ellipse cx="33.5" cy="870.8241" fill="#84BE84" rx="3" ry="3" style="stroke:#038048;stroke-width:1.0;"/><text fill="#000000" font-family="sans-serif" font-size="14" lengthAdjust="spacing" text-decoration="underline" textLength="94" x="42.5" y="874.1707">getTriggerIn()</text><ellipse cx="33.5" cy="887.1209" fill="#84BE84" rx="3" ry="3" style="stroke:#038048;stroke-width:1.0;"/><text fill="#000000" font-family="sans-serif" font-size="14" lengthAdjust="spacing" text-decoration="underline" textLength="181" x="42.5" y="890.4676">getXAxisConversionType()</text><ellipse cx="33.5" cy="903.4178" fill="#84BE84" rx="3" ry="3" style="stroke:#038048;stroke-width:1.0;"/><text fill="#000000" font-family="sans-serif" font-size="14" lengthAdjust="spacing" text-decoration="underline" textLength="55" x="42.5" y="906.7645">restart()</text><ellipse cx="33.5" cy="919.7147" fill="#84BE84" rx="3" ry="3" style="stroke:#038048;stroke-width:1.0;"/><text fill="#000000" font-family="sans-serif" font-size="14" lengthAdjust="spacing" text-decoration="underline" textLength="100" x="42.5" y="923.0614">setAcqCount()</text><ellipse cx="33.5" cy="936.0116" fill="#84BE84" rx="3" ry="3" style="stroke:#038048;stroke-width:1.0;"/><text fill="#000000" font-family="sans-serif" font-size="14" lengthAdjust="spacing" text-decoration="underline" textLength="106" x="42.5" y="939.3582">setAcqFormat()</text><ellipse cx="33.5" cy="952.3084" fill="#84BE84" rx="3" ry="3" style="stroke:#038048;stroke-width:1.0;"/><text fill="#000000" font-family="sans-serif" font-size="14" lengthAdjust="spacing" text-decoration="underline" textLength="160" x="42.5" y="955.6551">setCenterWavelength()</text><ellipse cx="33.5" cy="968.6053" fill="#84BE84" rx="3" ry="3" style="stroke:#038048;stroke-width:1.0;"/><text fill="#000000" font-family="sans-serif" font-size="14" lengthAdjust="spacing" text-decoration="underline" textLength="113" x="42.5" y="971.952">setCleanCount()</text><ellipse cx="33.5" cy="984.9022" fill="#84BE84" rx="3" ry="3" style="stroke:#038048;stroke-width:1.0;"/><text fill="#000000" font-family="sans-serif" font-size="14" lengthAdjust="spacing" text-decoration="underline" textLength="131" x="42.5" y="988.2489">setExposureTime()</text><ellipse cx="33.5" cy="1001.1991" fill="#84BE84" rx="3" ry="3" style="stroke:#038048;stroke-width:1.0;"/><text fill="#000000" font-family="sans-serif" font-size="14" lengthAdjust="spacing" text-decoration="underline" textLength="63" x="42.5" y="1004.5457">setGain()</text><ellipse cx="33.5" cy="1017.4959" fill="#84BE84" rx="3" ry="3" style="stroke:#038048;stroke-width:1.0;"/><text fill="#000000" font-family="sans-serif" font-size="14" lengthAdjust="spacing" text-decoration="underline" textLength="125" x="42.5" y="1020.8426">setParallelSpeed()</text><ellipse cx="33.5" cy="1033.7928" fill="#84BE84" rx="3" ry="3" style="stroke:#038048;stroke-width:1.0;"/><text fill="#000000" font-family="sans-serif" font-size="14" lengthAdjust="spacing" text-decoration="underline" textLength="54" x="42.5" y="1037.1395">setRoi()</text><ellipse cx="33.5" cy="1050.0897" fill="#84BE84" rx="3" ry="3" style="stroke:#038048;stroke-width:1.0;"/><text fill="#000000" font-family="sans-serif" font-size="14" lengthAdjust="spacing" text-decoration="underline" textLength="98" x="42.5" y="1053.4364">setSignalOut()</text><ellipse cx="33.5" cy="1066.3866" fill="#84BE84" rx="3" ry="3" style="stroke:#038048;stroke-width:1.0;"/><text fill="#000000" font-family="sans-serif" font-size="14" lengthAdjust="spacing" text-decoration="underline" textLength="77" x="42.5" y="1069.7332">setSpeed()</text><ellipse cx="33.5" cy="1082.6834" fill="#84BE84" rx="3" ry="3" style="stroke:#038048;stroke-width:1.0;"/><text fill="#000000" font-family="sans-serif" font-size="14" lengthAdjust="spacing" text-decoration="underline" textLength="145" x="42.5" y="1086.0301">setTimerResolution()</text><ellipse cx="33.5" cy="1098.9803" fill="#84BE84" rx="3" ry="3" style="stroke:#038048;stroke-width:1.0;"/><text fill="#000000" font-family="sans-serif" font-size="14" lengthAdjust="spacing" text-decoration="underline" textLength="93" x="42.5" y="1102.327">setTriggerIn()</text><ellipse cx="33.5" cy="1115.2772" fill="#84BE84" rx="3" ry="3" style="stroke:#038048;stroke-width:1.0;"/><text fill="#000000" font-family="sans-serif" font-size="14" lengthAdjust="spacing" text-decoration="underline" textLength="180" x="42.5" y="1118.6239">setXAxisConversionType()</text><ellipse cx="33.5" cy="1131.5741" fill="#84BE84" rx="3" ry="3" style="stroke:#038048;stroke-width:1.0;"/><text fill="#000000" font-family="sans-serif" font-size="14" lengthAdjust="spacing" textLength="96" x="42.5" y="1134.9207">DeviceClose()</text><ellipse cx="33.5" cy="1147.8709" fill="#84BE84" rx="3" ry="3" style="stroke:#038048;stroke-width:1.0;"/><text fill="#000000" font-family="sans-serif" font-size="14" lengthAdjust="spacing" textLength="106" x="42.5" y="1151.2176">DeviceIsOpen()</text><ellipse cx="33.5" cy="1164.1678" fill="#84BE84" rx="3" ry="3" style="stroke:#038048;stroke-width:1.0;"/><text fill="#000000" font-family="sans-serif" font-size="14" lengthAdjust="spacing" textLength="95" x="42.5" y="1167.5145">DeviceOpen()</text><ellipse cx="33.5" cy="1180.4647" fill="#84BE84" rx="3" ry="3" style="stroke:#038048;stroke-width:1.0;"/><text fill="#000000" font-family="sans-serif" font-size="14" lengthAdjust="spacing" textLength="93" x="42.5" y="1183.8114">getChipSize()</text></g><!--class GenericDevice--><g id="elem_GenericDevice"><rect codeLine="81" fill="#FFFFFF" height="259.8594" id="GenericDevice" rx="2.5" ry="2.5" style="stroke:#555555;stroke-width:0.5;" width="210" x="173" y="49.15"/><rect fill="#808080" height="32" rx="2.5" ry="2.5" style="stroke:#808080;stroke-width:0.5;" width="210" x="173" y="49.15"/><rect fill="#808080" height="2.5" style="stroke:#808080;stroke-width:0.5;" width="210" x="173" y="78.65"/><rect codeLine="81" fill="none" height="259.8594" id="GenericDevice" rx="2.5" ry="2.5" style="stroke:#555555;stroke-width:0.5;" width="210" x="173" y="49.15"/><ellipse cx="223.25" cy="65.15" fill="#ADD1B2" rx="11" ry="11" style="stroke:#181818;stroke-width:1.0;"/><path d="M226.2188,70.7906 Q225.6406,71.0875 225,71.2281 Q224.3594,71.3844 223.6563,71.3844 Q221.1563,71.3844 219.8281,69.7437 Q218.5156,68.0875 218.5156,64.9625 Q218.5156,61.8375 219.8281,60.1812 Q221.1563,58.525 223.6563,58.525 Q224.3594,58.525 225,58.6812 Q225.6563,58.8375 226.2188,59.1344 L226.2188,61.8531 Q225.5938,61.275 225,61.0094 Q224.4063,60.7281 223.7813,60.7281 Q222.4375,60.7281 221.75,61.8062 Q221.0625,62.8687 221.0625,64.9625 Q221.0625,67.0562 221.75,68.1344 Q222.4375,69.1969 223.7813,69.1969 Q224.4063,69.1969 225,68.9312 Q225.5938,68.65 226.2188,68.0719 L226.2188,70.7906 Z " fill="#000000"/><text fill="#000000" font-family="sans-serif" font-size="14" lengthAdjust="spacing" textLength="101" x="243.75" y="69.9967">GenericDevice</text><line style="stroke:#555555;stroke-width:0.5;" x1="174" x2="382" y1="81.15" y2="81.15"/><rect fill="none" height="6" style="stroke:#C82930;stroke-width:1.0;" width="6" x="181" y="91.7984"/><text fill="#000000" font-family="sans-serif" font-size="14" lengthAdjust="spacing" textLength="134" x="193" y="98.1451">deviceTerm : String</text><rect fill="none" height="6" style="stroke:#C82930;stroke-width:1.0;" width="6" x="181" y="108.0953"/><text fill="#000000" font-family="sans-serif" font-size="14" lengthAdjust="spacing" textLength="132" x="193" y="114.442">deviceType : String</text><rect fill="none" height="6" style="stroke:#C82930;stroke-width:1.0;" width="6" x="181" y="124.3922"/><text fill="#000000" font-family="sans-serif" font-size="14" lengthAdjust="spacing" textLength="71" x="193" y="130.7389">index : I32</text><rect fill="none" height="6" style="stroke:#C82930;stroke-width:1.0;" width="6" x="181" y="140.6891"/><text fill="#000000" font-family="sans-serif" font-size="14" lengthAdjust="spacing" textLength="106" x="193" y="147.0357">open : Boolean</text><rect fill="none" height="6" style="stroke:#C82930;stroke-width:1.0;" width="6" x="181" y="156.9859"/><text fill="#000000" font-family="sans-serif" font-size="14" lengthAdjust="spacing" textLength="144" x="193" y="163.3326">serialNumber : String</text><ellipse cx="184" cy="176.2828" fill="none" rx="3" ry="3" style="stroke:#038048;stroke-width:1.0;"/><text fill="#000000" font-family="sans-serif" font-size="14" lengthAdjust="spacing" textLength="100" x="193" y="179.6295">productId : I32</text><line style="stroke:#555555;stroke-width:0.5;" x1="174" x2="382" y1="186.9312" y2="186.9312"/><ellipse cx="184" cy="200.5797" fill="#84BE84" rx="3" ry="3" style="stroke:#038048;stroke-width:1.0;"/><text fill="#000000" font-family="sans-serif" font-size="14" lengthAdjust="spacing" text-decoration="underline" textLength="148" x="193" y="203.9264">Send Receive Parse()</text><ellipse cx="184" cy="216.8766" fill="#84BE84" rx="3" ry="3" style="stroke:#038048;stroke-width:1.0;"/><text fill="#000000" font-family="sans-serif" font-size="14" lengthAdjust="spacing" text-decoration="underline" textLength="149" x="193" y="220.2232">ReadDeviceJSONList()</text><ellipse cx="184" cy="233.1734" fill="#84BE84" rx="3" ry="3" style="stroke:#038048;stroke-width:1.0;"/><text fill="#000000" font-family="sans-serif" font-size="14" lengthAdjust="spacing" text-decoration="underline" textLength="168" x="193" y="236.5201">DecodeDeviceJSONList()</text><ellipse cx="184" cy="249.4703" fill="#84BE84" rx="3" ry="3" style="stroke:#038048;stroke-width:1.0;"/><text fill="#000000" font-family="sans-serif" font-size="14" lengthAdjust="spacing" text-decoration="underline" textLength="184" x="193" y="252.817">ReadDeviceTypeAsString()</text><ellipse cx="184" cy="265.7672" fill="#84BE84" rx="3" ry="3" style="stroke:#038048;stroke-width:1.0;"/><text fill="#000000" font-family="sans-serif" font-size="14" lengthAdjust="spacing" textLength="96" x="193" y="269.1139">DeviceClose()</text><ellipse cx="184" cy="282.0641" fill="#84BE84" rx="3" ry="3" style="stroke:#038048;stroke-width:1.0;"/><text fill="#000000" font-family="sans-serif" font-size="14" lengthAdjust="spacing" textLength="95" x="193" y="285.4107">DeviceOpen()</text><ellipse cx="184" cy="298.3609" fill="#84BE84" rx="3" ry="3" style="stroke:#038048;stroke-width:1.0;"/><text fill="#000000" font-family="sans-serif" font-size="14" lengthAdjust="spacing" textLength="106" x="193" y="301.7076">DeviceIsOpen()</text></g><!--class Communicator--><g id="elem_Communicator"><rect codeLine="61" fill="#FFFFFF" height="276.1563" id="Communicator" rx="2.5" ry="2.5" style="stroke:#555555;stroke-width:0.5;" width="261" x="418.5" y="41"/><rect fill="#808080" height="32" rx="2.5" ry="2.5" style="stroke:#808080;stroke-width:0.5;" width="261" x="418.5" y="41"/><rect fill="#808080" height="2.5" style="stroke:#808080;stroke-width:0.5;" width="261" x="418.5" y="70.5"/><rect codeLine="61" fill="none" height="276.1563" id="Communicator" rx="2.5" ry="2.5" style="stroke:#555555;stroke-width:0.5;" width="261" x="418.5" y="41"/><ellipse cx="494.25" cy="57" fill="#ADD1B2" rx="11" ry="11" style="stroke:#181818;stroke-width:1.0;"/><path d="M497.2188,62.6406 Q496.6406,62.9375 496,63.0781 Q495.3594,63.2344 494.6563,63.2344 Q492.1563,63.2344 490.8281,61.5938 Q489.5156,59.9375 489.5156,56.8125 Q489.5156,53.6875 490.8281,52.0313 Q492.1563,50.375 494.6563,50.375 Q495.3594,50.375 496,50.5313 Q496.6563,50.6875 497.2188,50.9844 L497.2188,53.7031 Q496.5938,53.125 496,52.8594 Q495.4063,52.5781 494.7813,52.5781 Q493.4375,52.5781 492.75,53.6563 Q492.0625,54.7188 492.0625,56.8125 Q492.0625,58.9063 492.75,59.9844 Q493.4375,61.0469 494.7813,61.0469 Q495.4063,61.0469 496,60.7813 Q496.5938,60.5 497.2188,59.9219 L497.2188,62.6406 Z " fill="#000000"/><text fill="#000000" font-family="sans-serif" font-size="14" lengthAdjust="spacing" textLength="101" x="514.75" y="61.8467">Communicator</text><line style="stroke:#555555;stroke-width:0.5;" x1="419.5" x2="678.5" y1="73" y2="73"/><rect fill="none" height="6" style="stroke:#C82930;stroke-width:1.0;" width="6" x="426.5" y="83.6484"/><text fill="#000000" font-family="sans-serif" font-size="14" lengthAdjust="spacing" textLength="233" x="438.5" y="89.9951">WebSocket Connection : LV Class</text><rect fill="none" height="6" style="stroke:#C82930;stroke-width:1.0;" width="6" x="426.5" y="99.9453"/><text fill="#000000" font-family="sans-serif" font-size="14" lengthAdjust="spacing" textLength="106" x="438.5" y="106.292">ID counter : I32</text><rect fill="none" height="6" style="stroke:#C82930;stroke-width:1.0;" width="6" x="426.5" y="116.2422"/><text fill="#000000" font-family="sans-serif" font-size="14" lengthAdjust="spacing" textLength="235" x="438.5" y="122.5889">connectionEstablished? : Boolean</text><line style="stroke:#555555;stroke-width:0.5;" x1="419.5" x2="678.5" y1="129.8906" y2="129.8906"/><ellipse cx="429.5" cy="143.5391" fill="#84BE84" rx="3" ry="3" style="stroke:#038048;stroke-width:1.0;"/><text fill="#000000" font-family="sans-serif" font-size="14" lengthAdjust="spacing" text-decoration="underline" textLength="161" x="438.5" y="146.8857">JSON Parse Command()</text><ellipse cx="429.5" cy="159.8359" fill="#84BE84" rx="3" ry="3" style="stroke:#038048;stroke-width:1.0;"/><text fill="#000000" font-family="sans-serif" font-size="14" lengthAdjust="spacing" text-decoration="underline" textLength="131" x="438.5" y="163.1826">JSON Parse Errors()</text><ellipse cx="429.5" cy="176.1328" fill="#84BE84" rx="3" ry="3" style="stroke:#038048;stroke-width:1.0;"/><text fill="#000000" font-family="sans-serif" font-size="14" lengthAdjust="spacing" text-decoration="underline" textLength="104" x="438.5" y="179.4795">JSON Parse ID()</text><ellipse cx="429.5" cy="192.4297" fill="#84BE84" rx="3" ry="3" style="stroke:#038048;stroke-width:1.0;"/><text fill="#000000" font-family="sans-serif" font-size="14" lengthAdjust="spacing" text-decoration="underline" textLength="115" x="438.5" y="195.7764">JSON Parse Info()</text><ellipse cx="429.5" cy="208.7266" fill="#84BE84" rx="3" ry="3" style="stroke:#038048;stroke-width:1.0;"/><text fill="#000000" font-family="sans-serif" font-size="14" lengthAdjust="spacing" text-decoration="underline" textLength="142" x="438.5" y="212.0732">JSON Parse Results()</text><ellipse cx="429.5" cy="225.0234" fill="#84BE84" rx="3" ry="3" style="stroke:#038048;stroke-width:1.0;"/><text fill="#000000" font-family="sans-serif" font-size="14" lengthAdjust="spacing" text-decoration="underline" textLength="93" x="438.5" y="228.3701">Overwrite ID()</text><ellipse cx="429.5" cy="241.3203" fill="#84BE84" rx="3" ry="3" style="stroke:#038048;stroke-width:1.0;"/><text fill="#000000" font-family="sans-serif" font-size="14" lengthAdjust="spacing" textLength="128" x="438.5" y="244.667">OpenConnection()</text><ellipse cx="429.5" cy="257.6172" fill="#84BE84" rx="3" ry="3" style="stroke:#038048;stroke-width:1.0;"/><text fill="#000000" font-family="sans-serif" font-size="14" lengthAdjust="spacing" textLength="129" x="438.5" y="260.9639">CloseConnection()</text><ellipse cx="429.5" cy="273.9141" fill="#84BE84" rx="3" ry="3" style="stroke:#038048;stroke-width:1.0;"/><text fill="#000000" font-family="sans-serif" font-size="14" lengthAdjust="spacing" textLength="158" x="438.5" y="277.2607">SendAndAskForReply()</text><polygon fill="#FFFF44" points="429.5,285.2109,433.5,289.2109,429.5,293.2109,425.5,289.2109" style="stroke:#B38D22;stroke-width:1.0;"/><text fill="#000000" font-family="sans-serif" font-size="14" lengthAdjust="spacing" textLength="94" x="438.5" y="293.5576">ReceiveJson()</text><polygon fill="#FFFF44" points="429.5,301.5078,433.5,305.5078,429.5,309.5078,425.5,305.5078" style="stroke:#B38D22;stroke-width:1.0;"/><text fill="#000000" font-family="sans-serif" font-size="14" lengthAdjust="spacing" textLength="75" x="438.5" y="309.8545">SendJson()</text></g><!--class Monochromator--><g id="elem_Monochromator"><rect codeLine="99" fill="#FFFFFF" height="422.8281" id="Monochromator" rx="2.5" ry="2.5" style="stroke:#555555;stroke-width:0.5;" width="190" x="323" y="572.72"/><rect fill="#808080" height="32" rx="2.5" ry="2.5" style="stroke:#808080;stroke-width:0.5;" width="190" x="323" y="572.72"/><rect fill="#808080" height="2.5" style="stroke:#808080;stroke-width:0.5;" width="190" x="323" y="602.22"/><rect codeLine="99" fill="none" height="422.8281" id="Monochromator" rx="2.5" ry="2.5" style="stroke:#555555;stroke-width:0.5;" width="190" x="323" y="572.72"/><ellipse cx="359.6" cy="588.72" fill="#ADD1B2" rx="11" ry="11" style="stroke:#181818;stroke-width:1.0;"/><path d="M362.5688,594.3606 Q361.9906,594.6575 361.35,594.7981 Q360.7094,594.9544 360.0063,594.9544 Q357.5063,594.9544 356.1781,593.3137 Q354.8656,591.6575 354.8656,588.5325 Q354.8656,585.4075 356.1781,583.7512 Q357.5063,582.095 360.0063,582.095 Q360.7094,582.095 361.35,582.2512 Q362.0063,582.4075 362.5688,582.7044 L362.5688,585.4231 Q361.9438,584.845 361.35,584.5794 Q360.7563,584.2981 360.1313,584.2981 Q358.7875,584.2981 358.1,585.3762 Q357.4125,586.4387 357.4125,588.5325 Q357.4125,590.6262 358.1,591.7044 Q358.7875,592.7669 360.1313,592.7669 Q360.7563,592.7669 361.35,592.5012 Q361.9438,592.22 362.5688,591.6419 L362.5688,594.3606 Z " fill="#000000"/><text fill="#000000" font-family="sans-serif" font-size="14" lengthAdjust="spacing" textLength="110" x="378.4" y="593.5667">Monochromator</text><line style="stroke:#555555;stroke-width:0.5;" x1="324" x2="512" y1="604.72" y2="604.72"/><line style="stroke:#555555;stroke-width:0.5;" x1="324" x2="512" y1="612.72" y2="612.72"/><ellipse cx="334" cy="626.3684" fill="#84BE84" rx="3" ry="3" style="stroke:#038048;stroke-width:1.0;"/><text fill="#000000" font-family="sans-serif" font-size="14" lengthAdjust="spacing" text-decoration="underline" textLength="87" x="343" y="629.7151">setPosition()</text><ellipse cx="334" cy="642.6653" fill="#84BE84" rx="3" ry="3" style="stroke:#038048;stroke-width:1.0;"/><text fill="#000000" font-family="sans-serif" font-size="14" lengthAdjust="spacing" text-decoration="underline" textLength="164" x="343" y="646.012">getFilterWheelPosition()</text><ellipse cx="334" cy="658.9622" fill="#84BE84" rx="3" ry="3" style="stroke:#038048;stroke-width:1.0;"/><text fill="#000000" font-family="sans-serif" font-size="14" lengthAdjust="spacing" text-decoration="underline" textLength="124" x="343" y="662.3089">moveFilterWheel()</text><ellipse cx="334" cy="675.2591" fill="#84BE84" rx="3" ry="3" style="stroke:#038048;stroke-width:1.0;"/><text fill="#000000" font-family="sans-serif" font-size="14" lengthAdjust="spacing" text-decoration="underline" textLength="138" x="343" y="678.6057">getGratingPosition()</text><ellipse cx="334" cy="691.5559" fill="#84BE84" rx="3" ry="3" style="stroke:#038048;stroke-width:1.0;"/><text fill="#000000" font-family="sans-serif" font-size="14" lengthAdjust="spacing" text-decoration="underline" textLength="98" x="343" y="694.9026">moveGrating()</text><ellipse cx="334" cy="707.8528" fill="#84BE84" rx="3" ry="3" style="stroke:#038048;stroke-width:1.0;"/><text fill="#000000" font-family="sans-serif" font-size="14" lengthAdjust="spacing" text-decoration="underline" textLength="127" x="343" y="711.1995">getMirrorPosition()</text><ellipse cx="334" cy="724.1497" fill="#84BE84" rx="3" ry="3" style="stroke:#038048;stroke-width:1.0;"/><text fill="#000000" font-family="sans-serif" font-size="14" lengthAdjust="spacing" text-decoration="underline" textLength="87" x="343" y="727.4964">moveMirror()</text><ellipse cx="334" cy="740.4466" fill="#84BE84" rx="3" ry="3" style="stroke:#038048;stroke-width:1.0;"/><text fill="#000000" font-family="sans-serif" font-size="14" lengthAdjust="spacing" text-decoration="underline" textLength="88" x="343" y="743.7932">getPosition()</text><ellipse cx="334" cy="756.7434" fill="#84BE84" rx="3" ry="3" style="stroke:#038048;stroke-width:1.0;"/><text fill="#000000" font-family="sans-serif" font-size="14" lengthAdjust="spacing" text-decoration="underline" textLength="121" x="343" y="760.0901">moveToPosition()</text><ellipse cx="334" cy="773.0403" fill="#84BE84" rx="3" ry="3" style="stroke:#038048;stroke-width:1.0;"/><text fill="#000000" font-family="sans-serif" font-size="14" lengthAdjust="spacing" text-decoration="underline" textLength="128" x="343" y="776.387">getShutterStatus()</text><ellipse cx="334" cy="789.3372" fill="#84BE84" rx="3" ry="3" style="stroke:#038048;stroke-width:1.0;"/><text fill="#000000" font-family="sans-serif" font-size="14" lengthAdjust="spacing" text-decoration="underline" textLength="99" x="343" y="792.6839">shutterClose()</text><ellipse cx="334" cy="805.6341" fill="#84BE84" rx="3" ry="3" style="stroke:#038048;stroke-width:1.0;"/><text fill="#000000" font-family="sans-serif" font-size="14" lengthAdjust="spacing" text-decoration="underline" textLength="98" x="343" y="808.9807">shutterOpen()</text><ellipse cx="334" cy="821.9309" fill="#84BE84" rx="3" ry="3" style="stroke:#038048;stroke-width:1.0;"/><text fill="#000000" font-family="sans-serif" font-size="14" lengthAdjust="spacing" text-decoration="underline" textLength="103" x="343" y="825.2776">shutterSelect()</text><ellipse cx="334" cy="838.2278" fill="#84BE84" rx="3" ry="3" style="stroke:#038048;stroke-width:1.0;"/><text fill="#000000" font-family="sans-serif" font-size="14" lengthAdjust="spacing" text-decoration="underline" textLength="144" x="343" y="841.5745">getSlitPositionInMM()</text><ellipse cx="334" cy="854.5247" fill="#84BE84" rx="3" ry="3" style="stroke:#038048;stroke-width:1.0;"/><text fill="#000000" font-family="sans-serif" font-size="14" lengthAdjust="spacing" text-decoration="underline" textLength="92" x="343" y="857.8714">moveSlitMM()</text><ellipse cx="334" cy="870.8216" fill="#84BE84" rx="3" ry="3" style="stroke:#038048;stroke-width:1.0;"/><text fill="#000000" font-family="sans-serif" font-size="14" lengthAdjust="spacing" text-decoration="underline" textLength="77" x="343" y="874.1682">getConfig()</text><ellipse cx="334" cy="887.1184" fill="#84BE84" rx="3" ry="3" style="stroke:#038048;stroke-width:1.0;"/><text fill="#000000" font-family="sans-serif" font-size="14" lengthAdjust="spacing" text-decoration="underline" textLength="30" x="343" y="890.4651">Init()</text><ellipse cx="334" cy="903.4153" fill="#84BE84" rx="3" ry="3" style="stroke:#038048;stroke-width:1.0;"/><text fill="#000000" font-family="sans-serif" font-size="14" lengthAdjust="spacing" text-decoration="underline" textLength="55" x="343" y="906.762">isBusy()</text><ellipse cx="334" cy="919.7122" fill="#84BE84" rx="3" ry="3" style="stroke:#038048;stroke-width:1.0;"/><text fill="#000000" font-family="sans-serif" font-size="14" lengthAdjust="spacing" text-decoration="underline" textLength="84" x="343" y="923.0589">isInitialized()</text><rect fill="#F24D5C" height="6" style="stroke:#C82930;stroke-width:1.0;" width="6" x="331" y="933.0091"/><text fill="#000000" font-family="sans-serif" font-size="14" lengthAdjust="spacing" text-decoration="underline" textLength="125" x="343" y="939.3557">parseConfigData()</text><ellipse cx="334" cy="952.3059" fill="#84BE84" rx="3" ry="3" style="stroke:#038048;stroke-width:1.0;"/><text fill="#000000" font-family="sans-serif" font-size="14" lengthAdjust="spacing" textLength="96" x="343" y="955.6526">DeviceClose()</text><ellipse cx="334" cy="968.6028" fill="#84BE84" rx="3" ry="3" style="stroke:#038048;stroke-width:1.0;"/><text fill="#000000" font-family="sans-serif" font-size="14" lengthAdjust="spacing" textLength="106" x="343" y="971.9495">DeviceIsOpen()</text><ellipse cx="334" cy="984.8997" fill="#84BE84" rx="3" ry="3" style="stroke:#038048;stroke-width:1.0;"/><text fill="#000000" font-family="sans-serif" font-size="14" lengthAdjust="spacing" textLength="95" x="343" y="988.2464">DeviceOpen()</text></g><!--class SCD--><g id="elem_SCD"><rect codeLine="128" fill="#FFFFFF" height="96.8906" id="SCD" rx="2.5" ry="2.5" style="stroke:#555555;stroke-width:0.5;" width="132" x="548" y="735.69"/><rect fill="#808080" height="32" rx="2.5" ry="2.5" style="stroke:#808080;stroke-width:0.5;" width="132" x="548" y="735.69"/><rect fill="#808080" height="2.5" style="stroke:#808080;stroke-width:0.5;" width="132" x="548" y="765.19"/><rect codeLine="128" fill="none" height="96.8906" id="SCD" rx="2.5" ry="2.5" style="stroke:#555555;stroke-width:0.5;" width="132" x="548" y="735.69"/><ellipse cx="594.75" cy="751.69" fill="#ADD1B2" rx="11" ry="11" style="stroke:#181818;stroke-width:1.0;"/><path d="M597.7188,757.3306 Q597.1406,757.6275 596.5,757.7681 Q595.8594,757.9244 595.1563,757.9244 Q592.6563,757.9244 591.3281,756.2837 Q590.0156,754.6275 590.0156,751.5025 Q590.0156,748.3775 591.3281,746.7212 Q592.6563,745.065 595.1563,745.065 Q595.8594,745.065 596.5,745.2212 Q597.1563,745.3775 597.7188,745.6744 L597.7188,748.3931 Q597.0938,747.815 596.5,747.5494 Q595.9063,747.2681 595.2813,747.2681 Q593.9375,747.2681 593.25,748.3462 Q592.5625,749.4087 592.5625,751.5025 Q592.5625,753.5962 593.25,754.6744 Q593.9375,755.7369 595.2813,755.7369 Q595.9063,755.7369 596.5,755.4712 Q597.0938,755.19 597.7188,754.6119 L597.7188,757.3306 Z " fill="#000000"/><text fill="#000000" font-family="sans-serif" font-size="14" lengthAdjust="spacing" textLength="30" x="615.25" y="756.5367">SCD</text><line style="stroke:#555555;stroke-width:0.5;" x1="549" x2="679" y1="767.69" y2="767.69"/><line style="stroke:#555555;stroke-width:0.5;" x1="549" x2="679" y1="775.69" y2="775.69"/><ellipse cx="559" cy="789.3384" fill="#84BE84" rx="3" ry="3" style="stroke:#038048;stroke-width:1.0;"/><text fill="#000000" font-family="sans-serif" font-size="14" lengthAdjust="spacing" textLength="96" x="568" y="792.6851">DeviceClose()</text><ellipse cx="559" cy="805.6353" fill="#84BE84" rx="3" ry="3" style="stroke:#038048;stroke-width:1.0;"/><text fill="#000000" font-family="sans-serif" font-size="14" lengthAdjust="spacing" textLength="95" x="568" y="808.982">DeviceOpen()</text><ellipse cx="559" cy="821.9322" fill="#84BE84" rx="3" ry="3" style="stroke:#038048;stroke-width:1.0;"/><text fill="#000000" font-family="sans-serif" font-size="14" lengthAdjust="spacing" textLength="106" x="568" y="825.2789">DeviceIsOpen()</text></g><!--class WebSocket Client--><g id="elem_WebSocket Client"><rect fill="#FFFFFF" height="48" id="WebSocket Client" rx="2.5" ry="2.5" style="stroke:#555555;stroke-width:0.5;" width="154" x="736" y="760.13"/><rect fill="#808080" height="32" rx="2.5" ry="2.5" style="stroke:#808080;stroke-width:0.5;" width="154" x="736" y="760.13"/><rect fill="#808080" height="2.5" style="stroke:#808080;stroke-width:0.5;" width="154" x="736" y="789.63"/><rect fill="none" height="48" id="WebSocket Client" rx="2.5" ry="2.5" style="stroke:#555555;stroke-width:0.5;" width="154" x="736" y="760.13"/><ellipse cx="751" cy="776.13" fill="#ADD1B2" rx="11" ry="11" style="stroke:#181818;stroke-width:1.0;"/><path d="M753.9688,781.7706 Q753.3906,782.0675 752.75,782.2081 Q752.1094,782.3644 751.4063,782.3644 Q748.9063,782.3644 747.5781,780.7237 Q746.2656,779.0675 746.2656,775.9425 Q746.2656,772.8175 747.5781,771.1612 Q748.9063,769.505 751.4063,769.505 Q752.1094,769.505 752.75,769.6612 Q753.4063,769.8175 753.9688,770.1144 L753.9688,772.8331 Q753.3438,772.255 752.75,771.9894 Q752.1563,771.7081 751.5313,771.7081 Q750.1875,771.7081 749.5,772.7862 Q748.8125,773.8487 748.8125,775.9425 Q748.8125,778.0362 749.5,779.1144 Q750.1875,780.1769 751.5313,780.1769 Q752.1563,780.1769 752.75,779.9112 Q753.3438,779.63 753.9688,779.0519 L753.9688,781.7706 Z " fill="#000000"/><text fill="#000000" font-family="sans-serif" font-size="14" lengthAdjust="spacing" textLength="122" x="765" y="780.9767">WebSocket Client</text><line style="stroke:#555555;stroke-width:0.5;" x1="737" x2="889" y1="792.13" y2="792.13"/><line style="stroke:#555555;stroke-width:0.5;" x1="737" x2="889" y1="800.13" y2="800.13"/></g><!--reverse link GenericDevice to CCD--><g id="link_GenericDevice_CCD"><path codeLine="58" d="M248.0186,327.0881 C243.7386,348.1081 242.69,353.18 237.86,376.87 " fill="none" id="GenericDevice-backto-CCD" style="stroke:#181818;stroke-width:1.0;"/><polygon fill="none" points="251.61,309.45,242.1393,325.891,253.898,328.2852,251.61,309.45" style="stroke:#181818;stroke-width:1.0;"/></g><!--reverse link Communicator to WebSocket Client--><g id="link_Communicator_WebSocket Client"><path codeLine="78" d="M667.7564,327.6246 C680.6364,346.9446 686.04,357.08 696,377.16 C763.83,513.82 798.68,696.41 809.36,760.08 " fill="none" id="Communicator-backto-WebSocket Client" style="stroke:#181818;stroke-width:1.0;"/><polygon fill="#181818" points="661.1,317.64,661.1,324.8511,667.7564,327.6246,667.7564,320.4135,661.1,317.64" style="stroke:#181818;stroke-width:1.0;"/></g><!--reverse link GenericDevice to Monochromator--><g id="link_GenericDevice_Monochromator"><path codeLine="125" d="M312.1014,326.9835 C329.8814,403.5535 348.76,484.87 369.09,572.44 " fill="none" id="GenericDevice-backto-Monochromator" style="stroke:#181818;stroke-width:1.0;"/><polygon fill="none" points="308.03,309.45,306.2569,328.3406,317.9459,325.6264,308.03,309.45" style="stroke:#181818;stroke-width:1.0;"/></g><!--reverse link GenericDevice to SCD--><g id="link_GenericDevice_SCD"><path codeLine="134" d="M397.1666,314.8942 C402.9066,319.8142 395.08,312.79 401,317.16 C452.19,354.95 491.48,327.28 531,377.16 C615.21,483.45 620.41,653.32 617.3,735.51 " fill="none" id="GenericDevice-backto-SCD" style="stroke:#181818;stroke-width:1.0;"/><polygon fill="none" points="383.5,303.18,393.2619,319.4498,401.0714,310.3387,383.5,303.18" style="stroke:#181818;stroke-width:1.0;"/></g><!--SRC=[hPVVRzis4CVV_LS8oSks8aFHOS0G52WSEMbTr4rW6UrUQUeY4Q58bKTvoRByxprAyc-Tv0vra0VhFZgITz_ZdH5yP4G1M0e92PJ22MzTT3d21sN2joAAjK2y4l8XSxOoQMmr0UStzUS8iou5ro9_rfz3vCOQtmAlwyyXy044-JXQyA_NuM-qGtjRqd-qjDxR8agL0-cLDICPl4HdkNLgANxNAwsMbt4yEOkUHy_eXLVo9NekmESsVObUPU2J4Y0Tc_IzK2O1xvN9y9TVks1Q626svbvb4-553pGjH0O3p5oO36OsXHw6zYQz4vftXLvvcTEUWwVn2XmjV0APgABK32ZajqgX2j4SBwtpWrJY1KT9eMMbXT-UziusBp4nbjRG8VnNiG8D9lFvmiv58KoIgtjc3ShXM7wBIIszm7gtLnK-dSBDIOay6EUgN41HKi1zvO3dD0ZJlxT6KQmvv3vH__9BN3-M5caF2rNmq8toTw5ka2M2_bdZWA292Dwr1bsN4qibAZD2trPyD8OblwvPrXe2uUQ0LbSXaJpdL9Q1c_B4t-D7XN4jIIHFYwUIYR03v8i0XmJQ03VM5O8dOZ0UtBOmU710SdYAPB1F47XIkecQMyNQ1gI0lLd64xECWrb6DiiRP08h9I7M5hkUJ_6s1DDXE7hSNXjjCOzUHljTwZqOS4esBvz5R_-xkEZeOwDHTukpHL4P9KC3htlTlG9DYrvyXMLYvGDrUZgXQPfaT1bz-jBqsoqudKGoY0Pe08YcVxpPMkJcnMkAtr8hp25zHzILjK5hNM7zcDn-Zkv23ul2reHX4hd3NJjd7GvYqyamOkxj84JIgRHdrhibBVpZb5yljpLGKhU1t3FL0c5i2PWmOupnWQfy3gL-sZMVpq62Mi57t7_jFBpMFZoIotx6VmjYsUGQMsOd-LhH_S6fvq1wE_99wqSBS0NbE_6EveSZ8zLBXr6P51uFfMGfVBl2MJz7MbxeprMnhELtuEjLwMnQIJzDr_wECnP25RLnR3BSdTdGrfjp1YryKiZSFnEGDAsSGcuzXaYCiTdy3zmWpFsnkLWezTrfcrbZPUviiQdwxhkw7RbwXWCTMaiEeFlPmgvW1-Pd2PgAA0R3pbgGTJHJuL8OzjDm_70ow61X1wEKv9MdazEqwolcsi06sIIQ9TOfPu64khpicPAqsXngQcOp_c21vEm3m-VKA6O72lafMc5uZwgPsbptfN_HyKFg9pNR_z5Kzuk8gRIa_GNvyohwHxUPDBt_Em00]--></g></svg>