<svg xmlns="http://www.w3.org/2000/svg" xmlns:xlink="http://www.w3.org/1999/xlink" contentStyleType="text/css" data-diagram-type="CLASS" height="463px" preserveAspectRatio="none" style="width:307px;height:463px;background:#FFFFFF;" version="1.1" viewBox="0 0 307 463" width="307px" zoomAndPan="magnify"><defs/><g><!--cluster horiba.lvlib--><g class="cluster" data-entity="horiba.lvlib" data-source-line="8" data-uid="ent0003" id="cluster_horiba.lvlib"><path d="M8.5,6 L99.1191,6 A3.75,3.75 0 0 1 101.6191,8.5 L108.6191,28.2969 L297.5,28.2969 A2.5,2.5 0 0 1 300,30.7969 L300,330.66 A2.5,2.5 0 0 1 297.5,333.16 L8.5,333.16 A2.5,2.5 0 0 1 6,330.66 L6,8.5 A2.5,2.5 0 0 1 8.5,6" fill="none" style="stroke:#000000;stroke-width:1.5;"/><line style="stroke:#000000;stroke-width:1.5;" x1="6" x2="108.6191" y1="28.2969" y2="28.2969"/><text fill="#000000" font-family="sans-serif" font-size="14" font-weight="bold" lengthAdjust="spacing" textLength="89.6191" x="10" y="20.9951">horiba.lvlib</text></g><!--cluster WebSockets.lvlib--><g class="cluster" data-entity="WebSockets.lvlib" data-source-line="25" data-uid="ent0005" id="cluster_WebSockets.lvlib"><path d="M61.5,357.16 L198.1523,357.16 A3.75,3.75 0 0 1 200.6523,359.66 L207.6523,379.4569 L244.5,379.4569 A2.5,2.5 0 0 1 247,381.9569 L247,453.66 A2.5,2.5 0 0 1 244.5,456.16 L61.5,456.16 A2.5,2.5 0 0 1 59,453.66 L59,359.66 A2.5,2.5 0 0 1 61.5,357.16" fill="none" style="stroke:#000000;stroke-width:1.5;"/><line style="stroke:#000000;stroke-width:1.5;" x1="59" x2="207.6523" y1="379.4569" y2="379.4569"/><text fill="#000000" font-family="sans-serif" font-size="14" font-weight="bold" lengthAdjust="spacing" textLength="135.6523" x="63" y="372.1551">WebSockets.lvlib</text></g><!--class Communicator--><g class="entity" data-entity="Communicator" data-source-line="8" data-uid="ent0002" id="entity_Communicator"><rect fill="#FFFFFF" height="276.1563" rx="2.5" ry="2.5" style="stroke:#555555;stroke-width:0.5;" width="261.416" x="22.29" y="41"/><rect fill="#808080" height="32" rx="2.5" ry="2.5" style="stroke:#808080;stroke-width:0.5;" width="261.416" x="22.29" y="41"/><rect fill="#808080" height="2.5" style="stroke:#808080;stroke-width:0.5;" width="261.416" x="22.29" y="70.5"/><rect fill="none" height="276.1563" rx="2.5" ry="2.5" style="stroke:#555555;stroke-width:0.5;" width="261.416" x="22.29" y="41"/><ellipse cx="97.0786" cy="57" fill="#ADD1B2" rx="11" ry="11" style="stroke:#181818;stroke-width:1;"/><path d="M100.0473,62.6406 Q99.4692,62.9375 98.8286,63.0781 Q98.1879,63.2344 97.4848,63.2344 Q94.9848,63.2344 93.6567,61.5938 Q92.3442,59.9375 92.3442,56.8125 Q92.3442,53.6875 93.6567,52.0313 Q94.9848,50.375 97.4848,50.375 Q98.1879,50.375 98.8286,50.5313 Q99.4848,50.6875 100.0473,50.9844 L100.0473,53.7031 Q99.4223,53.125 98.8286,52.8594 Q98.2348,52.5781 97.6098,52.5781 Q96.2661,52.5781 95.5786,53.6563 Q94.8911,54.7188 94.8911,56.8125 Q94.8911,58.9063 95.5786,59.9844 Q96.2661,61.0469 97.6098,61.0469 Q98.2348,61.0469 98.8286,60.7813 Q99.4223,60.5 100.0473,59.9219 L100.0473,62.6406 Z " fill="#000000"/><text fill="#000000" font-family="sans-serif" font-size="14" lengthAdjust="spacing" textLength="103.3389" x="117.5786" y="61.8467">Communicator</text><line style="stroke:#555555;stroke-width:0.5;" x1="23.29" x2="282.706" y1="73" y2="73"/><rect fill="none" height="6" style="stroke:#C82930;stroke-width:1;" width="6" x="30.29" y="83.6484"/><text fill="#000000" font-family="sans-serif" font-size="14" lengthAdjust="spacing" textLength="234.6436" x="42.29" y="89.9951">WebSocket Connection : LV Class</text><rect fill="none" height="6" style="stroke:#C82930;stroke-width:1;" width="6" x="30.29" y="99.9453"/><text fill="#000000" font-family="sans-serif" font-size="14" lengthAdjust="spacing" textLength="108.7871" x="42.29" y="106.292">ID counter : I32</text><rect fill="none" height="6" style="stroke:#C82930;stroke-width:1;" width="6" x="30.29" y="116.2422"/><text fill="#000000" font-family="sans-serif" font-size="14" lengthAdjust="spacing" textLength="235.416" x="42.29" y="122.5889">connectionEstablished? : Boolean</text><line style="stroke:#555555;stroke-width:0.5;" x1="23.29" x2="282.706" y1="129.8906" y2="129.8906"/><ellipse cx="33.29" cy="143.5391" fill="#84BE84" rx="3" ry="3" style="stroke:#038048;stroke-width:1;"/><text fill="#000000" font-family="sans-serif" font-size="14" lengthAdjust="spacing" text-decoration="underline" textLength="164.9717" x="42.29" y="146.8857">JSON Parse Command()</text><ellipse cx="33.29" cy="159.8359" fill="#84BE84" rx="3" ry="3" style="stroke:#038048;stroke-width:1;"/><text fill="#000000" font-family="sans-serif" font-size="14" lengthAdjust="spacing" text-decoration="underline" textLength="134.9893" x="42.29" y="163.1826">JSON Parse Errors()</text><ellipse cx="33.29" cy="176.1328" fill="#84BE84" rx="3" ry="3" style="stroke:#038048;stroke-width:1;"/><text fill="#000000" font-family="sans-serif" font-size="14" lengthAdjust="spacing" text-decoration="underline" textLength="107.9258" x="42.29" y="179.4795">JSON Parse ID()</text><ellipse cx="33.29" cy="192.4297" fill="#84BE84" rx="3" ry="3" style="stroke:#038048;stroke-width:1;"/><text fill="#000000" font-family="sans-serif" font-size="14" lengthAdjust="spacing" text-decoration="underline" textLength="119.5127" x="42.29" y="195.7764">JSON Parse Info()</text><ellipse cx="33.29" cy="208.7266" fill="#84BE84" rx="3" ry="3" style="stroke:#038048;stroke-width:1;"/><text fill="#000000" font-family="sans-serif" font-size="14" lengthAdjust="spacing" text-decoration="underline" textLength="144.1973" x="42.29" y="212.0732">JSON Parse Results()</text><ellipse cx="33.29" cy="225.0234" fill="#84BE84" rx="3" ry="3" style="stroke:#038048;stroke-width:1;"/><text fill="#000000" font-family="sans-serif" font-size="14" lengthAdjust="spacing" text-decoration="underline" textLength="99.1553" x="42.29" y="228.3701">Overwrite ID()</text><ellipse cx="33.29" cy="241.3203" fill="#84BE84" rx="3" ry="3" style="stroke:#038048;stroke-width:1;"/><text fill="#000000" font-family="sans-serif" font-size="14" lengthAdjust="spacing" textLength="127.5313" x="42.29" y="244.667">OpenConnection()</text><ellipse cx="33.29" cy="257.6172" fill="#84BE84" rx="3" ry="3" style="stroke:#038048;stroke-width:1;"/><text fill="#000000" font-family="sans-serif" font-size="14" lengthAdjust="spacing" textLength="128.2764" x="42.29" y="260.9639">CloseConnection()</text><ellipse cx="33.29" cy="273.9141" fill="#84BE84" rx="3" ry="3" style="stroke:#038048;stroke-width:1;"/><text fill="#000000" font-family="sans-serif" font-size="14" lengthAdjust="spacing" textLength="160.2754" x="42.29" y="277.2607">SendAndAskForReply()</text><polygon fill="#FFFF44" points="33.29,285.2109,37.29,289.2109,33.29,293.2109,29.29,289.2109" style="stroke:#B38D22;stroke-width:1;"/><text fill="#000000" font-family="sans-serif" font-size="14" lengthAdjust="spacing" textLength="95.2246" x="42.29" y="293.5576">ReceiveJson()</text><polygon fill="#FFFF44" points="33.29,301.5078,37.29,305.5078,33.29,309.5078,29.29,305.5078" style="stroke:#B38D22;stroke-width:1;"/><text fill="#000000" font-family="sans-serif" font-size="14" lengthAdjust="spacing" textLength="75.0449" x="42.29" y="309.8545">SendJson()</text></g><!--class WebSocket Client--><g class="entity" data-entity="WebSocket Client" data-source-line="25" data-uid="ent0004" id="entity_WebSocket Client"><rect fill="#FFFFFF" height="48" rx="2.5" ry="2.5" style="stroke:#555555;stroke-width:0.5;" width="155.6826" x="75.16" y="392.16"/><rect fill="#808080" height="32" rx="2.5" ry="2.5" style="stroke:#808080;stroke-width:0.5;" width="155.6826" x="75.16" y="392.16"/><rect fill="#808080" height="2.5" style="stroke:#808080;stroke-width:0.5;" width="155.6826" x="75.16" y="421.66"/><rect fill="none" height="48" rx="2.5" ry="2.5" style="stroke:#555555;stroke-width:0.5;" width="155.6826" x="75.16" y="392.16"/><ellipse cx="90.16" cy="408.16" fill="#ADD1B2" rx="11" ry="11" style="stroke:#181818;stroke-width:1;"/><path d="M93.1288,413.8006 Q92.5506,414.0975 91.91,414.2381 Q91.2694,414.3944 90.5663,414.3944 Q88.0663,414.3944 86.7381,412.7538 Q85.4256,411.0975 85.4256,407.9725 Q85.4256,404.8475 86.7381,403.1913 Q88.0663,401.535 90.5663,401.535 Q91.2694,401.535 91.91,401.6913 Q92.5663,401.8475 93.1288,402.1444 L93.1288,404.8631 Q92.5038,404.285 91.91,404.0194 Q91.3163,403.7381 90.6913,403.7381 Q89.3475,403.7381 88.66,404.8163 Q87.9725,405.8788 87.9725,407.9725 Q87.9725,410.0663 88.66,411.1444 Q89.3475,412.2069 90.6913,412.2069 Q91.3163,412.2069 91.91,411.9413 Q92.5038,411.66 93.1288,411.0819 L93.1288,413.8006 Z " fill="#000000"/><text fill="#000000" font-family="sans-serif" font-size="14" lengthAdjust="spacing" textLength="123.6826" x="104.16" y="413.0067">WebSocket Client</text><line style="stroke:#555555;stroke-width:0.5;" x1="76.16" x2="229.8426" y1="424.16" y2="424.16"/><line style="stroke:#555555;stroke-width:0.5;" x1="76.16" x2="229.8426" y1="432.16" y2="432.16"/></g><!--reverse link Communicator to WebSocket Client--><g class="link" data-entity-1="Communicator" data-entity-2="WebSocket Client" data-source-line="25" data-uid="lnk6" id="link_Communicator_WebSocket Client"><path codeLine="25" d="M153,329.51 C153,358.24 153,373.35 153,391.67" fill="none" id="Communicator-backto-WebSocket Client" style="stroke:#181818;stroke-width:1;"/><polygon fill="#181818" points="153,317.51,149,323.51,153,329.51,157,323.51,153,317.51" style="stroke:#181818;stroke-width:1;"/></g><!--SRC=[XP5BImCn4CVl-HJ3zkA3Ib44wKNijiKMiT85FMUJgGsRpIn9Mf6btzriNRjzK7UI79B_RnwPSUZ1y1nTmGKcM73BFLdeCvSfKzroY3LtRi15zcbfPMHCEW2TyTPECB8IROtSR-qO6PFnDT3RsZ7mZ3p4E4duqAiMswCz5U50IjvJ3b9P55wHOQAA0j6Ih4hvZLvhbVPZolELKQBwNGGbAnSAjTn0zmFJX4GMsX2JCRyHe0ylxx_5DE1a22AKup5q1oPtjuqYTeuZvtcgbLkYV0pKW4WZDwmCprw93PGv-YK5d-jfCdk5DsuTGbKQD_BYieKRMKlMjMAJOJjY5jGApT6jj3-JRxP6-sML_qlN20MQff47Kgp9uHajGIEVmdRPcEmS2_szBtVcA52jSUeEtJgLM_t8Dko_YLzrkn3jPkrgPc_uMg7n4MFi1m00]--></g></svg>