<?xml version="1.0" encoding="us-ascii" standalone="no"?><svg xmlns="http://www.w3.org/2000/svg" xmlns:xlink="http://www.w3.org/1999/xlink" contentStyleType="text/css" height="323px" preserveAspectRatio="none" style="width:255px;height:323px;background:#FFFFFF;" version="1.1" viewBox="0 0 255 323" width="255px" zoomAndPan="magnify"><defs/><g><!--cluster horiba.lvlib--><g id="cluster_horiba.lvlib"><path d="M8.5,6 L95.5,6 A3.75,3.75 0 0 1 98,8.5 L105,28.2969 L245.5,28.2969 A2.5,2.5 0 0 1 248,30.7969 L248,314.36 A2.5,2.5 0 0 1 245.5,316.86 L8.5,316.86 A2.5,2.5 0 0 1 6,314.36 L6,8.5 A2.5,2.5 0 0 1 8.5,6 " fill="none" style="stroke:#000000;stroke-width:1.5;"/><line style="stroke:#000000;stroke-width:1.5;" x1="6" x2="105" y1="28.2969" y2="28.2969"/><text fill="#000000" font-family="sans-serif" font-size="14" font-weight="bold" lengthAdjust="spacing" textLength="86" x="10" y="20.9951">horiba.lvlib</text></g><!--class GenericDevice--><g id="elem_GenericDevice"><rect codeLine="8" fill="#FFFFFF" height="259.8594" id="GenericDevice" rx="2.5" ry="2.5" style="stroke:#555555;stroke-width:0.5;" width="210" x="22" y="41"/><rect fill="#808080" height="32" rx="2.5" ry="2.5" style="stroke:#808080;stroke-width:0.5;" width="210" x="22" y="41"/><rect fill="#808080" height="2.5" style="stroke:#808080;stroke-width:0.5;" width="210" x="22" y="70.5"/><rect codeLine="8" fill="none" height="259.8594" id="GenericDevice" rx="2.5" ry="2.5" style="stroke:#555555;stroke-width:0.5;" width="210" x="22" y="41"/><ellipse cx="72.25" cy="57" fill="#ADD1B2" rx="11" ry="11" style="stroke:#181818;stroke-width:1.0;"/><path d="M75.2188,62.6406 Q74.6406,62.9375 74,63.0781 Q73.3594,63.2344 72.6563,63.2344 Q70.1563,63.2344 68.8281,61.5938 Q67.5156,59.9375 67.5156,56.8125 Q67.5156,53.6875 68.8281,52.0313 Q70.1563,50.375 72.6563,50.375 Q73.3594,50.375 74,50.5313 Q74.6563,50.6875 75.2188,50.9844 L75.2188,53.7031 Q74.5938,53.125 74,52.8594 Q73.4063,52.5781 72.7813,52.5781 Q71.4375,52.5781 70.75,53.6563 Q70.0625,54.7188 70.0625,56.8125 Q70.0625,58.9063 70.75,59.9844 Q71.4375,61.0469 72.7813,61.0469 Q73.4063,61.0469 74,60.7813 Q74.5938,60.5 75.2188,59.9219 L75.2188,62.6406 Z " fill="#000000"/><text fill="#000000" font-family="sans-serif" font-size="14" lengthAdjust="spacing" textLength="101" x="92.75" y="61.8467">GenericDevice</text><line style="stroke:#555555;stroke-width:0.5;" x1="23" x2="231" y1="73" y2="73"/><rect fill="none" height="6" style="stroke:#C82930;stroke-width:1.0;" width="6" x="30" y="83.6484"/><text fill="#000000" font-family="sans-serif" font-size="14" lengthAdjust="spacing" textLength="134" x="42" y="89.9951">deviceTerm : String</text><rect fill="none" height="6" style="stroke:#C82930;stroke-width:1.0;" width="6" x="30" y="99.9453"/><text fill="#000000" font-family="sans-serif" font-size="14" lengthAdjust="spacing" textLength="132" x="42" y="106.292">deviceType : String</text><rect fill="none" height="6" style="stroke:#C82930;stroke-width:1.0;" width="6" x="30" y="116.2422"/><text fill="#000000" font-family="sans-serif" font-size="14" lengthAdjust="spacing" textLength="71" x="42" y="122.5889">index : I32</text><rect fill="none" height="6" style="stroke:#C82930;stroke-width:1.0;" width="6" x="30" y="132.5391"/><text fill="#000000" font-family="sans-serif" font-size="14" lengthAdjust="spacing" textLength="106" x="42" y="138.8857">open : Boolean</text><rect fill="none" height="6" style="stroke:#C82930;stroke-width:1.0;" width="6" x="30" y="148.8359"/><text fill="#000000" font-family="sans-serif" font-size="14" lengthAdjust="spacing" textLength="144" x="42" y="155.1826">serialNumber : String</text><ellipse cx="33" cy="168.1328" fill="none" rx="3" ry="3" style="stroke:#038048;stroke-width:1.0;"/><text fill="#000000" font-family="sans-serif" font-size="14" lengthAdjust="spacing" textLength="100" x="42" y="171.4795">productId : I32</text><line style="stroke:#555555;stroke-width:0.5;" x1="23" x2="231" y1="178.7813" y2="178.7813"/><ellipse cx="33" cy="192.4297" fill="#84BE84" rx="3" ry="3" style="stroke:#038048;stroke-width:1.0;"/><text fill="#000000" font-family="sans-serif" font-size="14" lengthAdjust="spacing" text-decoration="underline" textLength="148" x="42" y="195.7764">Send Receive Parse()</text><ellipse cx="33" cy="208.7266" fill="#84BE84" rx="3" ry="3" style="stroke:#038048;stroke-width:1.0;"/><text fill="#000000" font-family="sans-serif" font-size="14" lengthAdjust="spacing" text-decoration="underline" textLength="149" x="42" y="212.0732">ReadDeviceJSONList()</text><ellipse cx="33" cy="225.0234" fill="#84BE84" rx="3" ry="3" style="stroke:#038048;stroke-width:1.0;"/><text fill="#000000" font-family="sans-serif" font-size="14" lengthAdjust="spacing" text-decoration="underline" textLength="168" x="42" y="228.3701">DecodeDeviceJSONList()</text><ellipse cx="33" cy="241.3203" fill="#84BE84" rx="3" ry="3" style="stroke:#038048;stroke-width:1.0;"/><text fill="#000000" font-family="sans-serif" font-size="14" lengthAdjust="spacing" text-decoration="underline" textLength="184" x="42" y="244.667">ReadDeviceTypeAsString()</text><ellipse cx="33" cy="257.6172" fill="#84BE84" rx="3" ry="3" style="stroke:#038048;stroke-width:1.0;"/><text fill="#000000" font-family="sans-serif" font-size="14" lengthAdjust="spacing" textLength="96" x="42" y="260.9639">DeviceClose()</text><ellipse cx="33" cy="273.9141" fill="#84BE84" rx="3" ry="3" style="stroke:#038048;stroke-width:1.0;"/><text fill="#000000" font-family="sans-serif" font-size="14" lengthAdjust="spacing" textLength="95" x="42" y="277.2607">DeviceOpen()</text><ellipse cx="33" cy="290.2109" fill="#84BE84" rx="3" ry="3" style="stroke:#038048;stroke-width:1.0;"/><text fill="#000000" font-family="sans-serif" font-size="14" lengthAdjust="spacing" textLength="106" x="42" y="293.5576">DeviceIsOpen()</text></g><!--SRC=[ZP31IWCn48RlUOf1BueeHH6aDzjIhKWhNLyWcupjq6nccQH5ANrtassbfRi79-IG___uPp818tXTOQYrmG9hBJgoG5-55Vdygc3eT0W3RLOBuRMtGtO9k1mtrS9OBCe1UMpg71cpZmUWrzGvy8ewPRGQFlNoKITqv3fTA3b6hi2Ie8d4NfcS0XTB5YhrdTiuAlilw578Z7131YzWgxPVXCxkuDOsqYTA1Nqeef1VjCoV6ZjCyXQ_apvvk3-ANADFse3PeVP7FQJssatNLOdIphgfXUtQn8dzomjHHp8xs5OObvoH0hs5EHga3SA7be1NrrtSFErl_y-tOZPzfn2xkH4QjlWVyfYOD_4SziDdzYGisqF7-wdEz5bQIeSy2GT3xPHIlm00]--></g></svg>