<svg xmlns="http://www.w3.org/2000/svg" xmlns:xlink="http://www.w3.org/1999/xlink" contentStyleType="text/css" data-diagram-type="CLASS" height="1197px" preserveAspectRatio="none" style="width:1014px;height:1197px;background:#FFFFFF;" version="1.1" viewBox="0 0 1014 1197" width="1014px" zoomAndPan="magnify"><defs/><g><!--cluster horiba.lvlib--><g class="cluster" data-entity="horiba.lvlib" data-source-line="8" data-uid="ent0003" id="cluster_horiba.lvlib"><path d="M8.5,6 L99.1191,6 A3.75,3.75 0 0 1 101.6191,8.5 L108.6191,28.2969 L792.5,28.2969 A2.5,2.5 0 0 1 795,30.7969 L795,1188.31 A2.5,2.5 0 0 1 792.5,1190.81 L8.5,1190.81 A2.5,2.5 0 0 1 6,1188.31 L6,8.5 A2.5,2.5 0 0 1 8.5,6" fill="none" style="stroke:#000000;stroke-width:1.5;"/><line style="stroke:#000000;stroke-width:1.5;" x1="6" x2="108.6191" y1="28.2969" y2="28.2969"/><text fill="#000000" font-family="sans-serif" font-size="14" font-weight="bold" lengthAdjust="spacing" textLength="89.6191" x="10" y="20.9951">horiba.lvlib</text></g><!--cluster WebSockets.lvlib--><g class="cluster" data-entity="WebSockets.lvlib" data-source-line="77" data-uid="ent0008" id="cluster_WebSockets.lvlib"><path d="M821.5,716.98 L958.1523,716.98 A3.75,3.75 0 0 1 960.6523,719.48 L967.6523,739.2769 L1004.5,739.2769 A2.5,2.5 0 0 1 1007,741.7769 L1007,813.48 A2.5,2.5 0 0 1 1004.5,815.98 L821.5,815.98 A2.5,2.5 0 0 1 819,813.48 L819,719.48 A2.5,2.5 0 0 1 821.5,716.98" fill="none" style="stroke:#000000;stroke-width:1.5;"/><line style="stroke:#000000;stroke-width:1.5;" x1="819" x2="967.6523" y1="739.2769" y2="739.2769"/><text fill="#000000" font-family="sans-serif" font-size="14" font-weight="bold" lengthAdjust="spacing" textLength="135.6523" x="823" y="731.9751">WebSockets.lvlib</text></g><!--class CCD--><g class="entity" data-entity="CCD" data-source-line="8" data-uid="ent0002" id="entity_CCD"><rect fill="#FFFFFF" height="797.6563" rx="2.5" ry="2.5" style="stroke:#555555;stroke-width:0.5;" width="272.7295" x="21.64" y="377.15"/><rect fill="#808080" height="32" rx="2.5" ry="2.5" style="stroke:#808080;stroke-width:0.5;" width="272.7295" x="21.64" y="377.15"/><rect fill="#808080" height="2.5" style="stroke:#808080;stroke-width:0.5;" width="272.7295" x="21.64" y="406.65"/><rect fill="none" height="797.6563" rx="2.5" ry="2.5" style="stroke:#555555;stroke-width:0.5;" width="272.7295" x="21.64" y="377.15"/><ellipse cx="138.5892" cy="393.15" fill="#ADD1B2" rx="11" ry="11" style="stroke:#181818;stroke-width:1;"/><path d="M141.558,398.7906 Q140.9798,399.0875 140.3392,399.2281 Q139.6986,399.3844 138.9955,399.3844 Q136.4955,399.3844 135.1673,397.7438 Q133.8548,396.0875 133.8548,392.9625 Q133.8548,389.8375 135.1673,388.1813 Q136.4955,386.525 138.9955,386.525 Q139.6986,386.525 140.3392,386.6813 Q140.9955,386.8375 141.558,387.1344 L141.558,389.8531 Q140.933,389.275 140.3392,389.0094 Q139.7455,388.7281 139.1205,388.7281 Q137.7767,388.7281 137.0892,389.8063 Q136.4017,390.8688 136.4017,392.9625 Q136.4017,395.0563 137.0892,396.1344 Q137.7767,397.1969 139.1205,397.1969 Q139.7455,397.1969 140.3392,396.9313 Q140.933,396.65 141.558,396.0719 L141.558,398.7906 Z " fill="#000000"/><text fill="#000000" font-family="sans-serif" font-size="14" lengthAdjust="spacing" textLength="30.3311" x="159.0892" y="397.9967">CCD</text><line style="stroke:#555555;stroke-width:0.5;" x1="22.64" x2="293.3695" y1="409.15" y2="409.15"/><line style="stroke:#555555;stroke-width:0.5;" x1="22.64" x2="293.3695" y1="417.15" y2="417.15"/><ellipse cx="32.64" cy="430.7984" fill="#84BE84" rx="3" ry="3" style="stroke:#038048;stroke-width:1;"/><text fill="#000000" font-family="sans-serif" font-size="14" lengthAdjust="spacing" text-decoration="underline" textLength="194.749" x="41.64" y="434.1451">getSpeedAndGainSettings()</text><ellipse cx="32.64" cy="447.0953" fill="#84BE84" rx="3" ry="3" style="stroke:#038048;stroke-width:1;"/><text fill="#000000" font-family="sans-serif" font-size="14" lengthAdjust="spacing" text-decoration="underline" textLength="140.3691" x="41.64" y="450.442">parse1dOr2dArray()</text><ellipse cx="32.64" cy="463.3922" fill="#84BE84" rx="3" ry="3" style="stroke:#038048;stroke-width:1;"/><text fill="#000000" font-family="sans-serif" font-size="14" lengthAdjust="spacing" text-decoration="underline" textLength="109.8398" x="41.64" y="466.7389">parseCcdData()</text><ellipse cx="32.64" cy="479.6891" fill="#84BE84" rx="3" ry="3" style="stroke:#038048;stroke-width:1;"/><text fill="#000000" font-family="sans-serif" font-size="14" lengthAdjust="spacing" text-decoration="underline" textLength="128.3994" x="41.64" y="483.0357">parseConfigData()</text><ellipse cx="32.64" cy="495.9859" fill="#84BE84" rx="3" ry="3" style="stroke:#038048;stroke-width:1;"/><text fill="#000000" font-family="sans-serif" font-size="14" lengthAdjust="spacing" text-decoration="underline" textLength="132.877" x="41.64" y="499.3326">parseRangeMode()</text><ellipse cx="32.64" cy="512.2828" fill="#84BE84" rx="3" ry="3" style="stroke:#038048;stroke-width:1;"/><text fill="#000000" font-family="sans-serif" font-size="14" lengthAdjust="spacing" text-decoration="underline" textLength="167.7607" x="41.64" y="515.6295">stitchingModeAverage()</text><ellipse cx="32.64" cy="528.5797" fill="#84BE84" rx="3" ry="3" style="stroke:#038048;stroke-width:1;"/><text fill="#000000" font-family="sans-serif" font-size="14" lengthAdjust="spacing" text-decoration="underline" textLength="157.2539" x="41.64" y="531.9264">stitchingModeSimple()</text><ellipse cx="32.64" cy="544.8766" fill="#84BE84" rx="3" ry="3" style="stroke:#038048;stroke-width:1;"/><text fill="#000000" font-family="sans-serif" font-size="14" lengthAdjust="spacing" text-decoration="underline" textLength="125.125" x="41.64" y="548.2232">acquisitionAbort()</text><ellipse cx="32.64" cy="561.1734" fill="#84BE84" rx="3" ry="3" style="stroke:#038048;stroke-width:1;"/><text fill="#000000" font-family="sans-serif" font-size="14" lengthAdjust="spacing" text-decoration="underline" textLength="121.0508" x="41.64" y="564.5201">acquisitionStart()</text><ellipse cx="32.64" cy="577.4703" fill="#84BE84" rx="3" ry="3" style="stroke:#038048;stroke-width:1;"/><text fill="#000000" font-family="sans-serif" font-size="14" lengthAdjust="spacing" text-decoration="underline" textLength="219.3584" x="41.64" y="580.817">calculateRangeModePositions()</text><ellipse cx="32.64" cy="593.7672" fill="#84BE84" rx="3" ry="3" style="stroke:#038048;stroke-width:1;"/><text fill="#000000" font-family="sans-serif" font-size="14" lengthAdjust="spacing" text-decoration="underline" textLength="246.7295" x="41.64" y="597.1139">convertWavelengthToRamanShift()</text><ellipse cx="32.64" cy="610.0641" fill="#84BE84" rx="3" ry="3" style="stroke:#038048;stroke-width:1;"/><text fill="#000000" font-family="sans-serif" font-size="14" lengthAdjust="spacing" text-decoration="underline" textLength="101.6504" x="41.64" y="613.4107">getAcqCount()</text><ellipse cx="32.64" cy="626.3609" fill="#84BE84" rx="3" ry="3" style="stroke:#038048;stroke-width:1;"/><text fill="#000000" font-family="sans-serif" font-size="14" lengthAdjust="spacing" text-decoration="underline" textLength="144.8945" x="41.64" y="629.7076">getAcquisitionBusy()</text><ellipse cx="32.64" cy="642.6578" fill="#84BE84" rx="3" ry="3" style="stroke:#038048;stroke-width:1;"/><text fill="#000000" font-family="sans-serif" font-size="14" lengthAdjust="spacing" text-decoration="underline" textLength="144.2656" x="41.64" y="646.0045">getAcquisitionData()</text><ellipse cx="32.64" cy="658.9547" fill="#84BE84" rx="3" ry="3" style="stroke:#038048;stroke-width:1;"/><text fill="#000000" font-family="sans-serif" font-size="14" lengthAdjust="spacing" text-decoration="underline" textLength="154.9297" x="41.64" y="662.3014">getAcquisitionReady()</text><ellipse cx="32.64" cy="675.2516" fill="#84BE84" rx="3" ry="3" style="stroke:#038048;stroke-width:1;"/><text fill="#000000" font-family="sans-serif" font-size="14" lengthAdjust="spacing" text-decoration="underline" textLength="156.707" x="41.64" y="678.5982">getChipTemperature()</text><ellipse cx="32.64" cy="691.5484" fill="#84BE84" rx="3" ry="3" style="stroke:#038048;stroke-width:1;"/><text fill="#000000" font-family="sans-serif" font-size="14" lengthAdjust="spacing" text-decoration="underline" textLength="115.2197" x="41.64" y="694.8951">getCleanCount()</text><ellipse cx="32.64" cy="707.8453" fill="#84BE84" rx="3" ry="3" style="stroke:#038048;stroke-width:1;"/><text fill="#000000" font-family="sans-serif" font-size="14" lengthAdjust="spacing" text-decoration="underline" textLength="78.832" x="41.64" y="711.192">getConfig()</text><ellipse cx="32.64" cy="724.1422" fill="#84BE84" rx="3" ry="3" style="stroke:#038048;stroke-width:1;"/><text fill="#000000" font-family="sans-serif" font-size="14" lengthAdjust="spacing" text-decoration="underline" textLength="96.0791" x="41.64" y="727.4889">getDataSize()</text><ellipse cx="32.64" cy="740.4391" fill="#84BE84" rx="3" ry="3" style="stroke:#038048;stroke-width:1;"/><text fill="#000000" font-family="sans-serif" font-size="14" lengthAdjust="spacing" text-decoration="underline" textLength="133.7246" x="41.64" y="743.7857">getExposureTime()</text><ellipse cx="32.64" cy="756.7359" fill="#84BE84" rx="3" ry="3" style="stroke:#038048;stroke-width:1;"/><text fill="#000000" font-family="sans-serif" font-size="14" lengthAdjust="spacing" text-decoration="underline" textLength="103.6328" x="41.64" y="760.0826">getFitParams()</text><ellipse cx="32.64" cy="773.0328" fill="#84BE84" rx="3" ry="3" style="stroke:#038048;stroke-width:1;"/><text fill="#000000" font-family="sans-serif" font-size="14" lengthAdjust="spacing" text-decoration="underline" textLength="66.1035" x="41.64" y="776.3795">getGain()</text><ellipse cx="32.64" cy="789.3297" fill="#84BE84" rx="3" ry="3" style="stroke:#038048;stroke-width:1;"/><text fill="#000000" font-family="sans-serif" font-size="14" lengthAdjust="spacing" text-decoration="underline" textLength="129.4385" x="41.64" y="792.6764">getParallelSpeed()</text><ellipse cx="32.64" cy="805.6266" fill="#84BE84" rx="3" ry="3" style="stroke:#038048;stroke-width:1;"/><text fill="#000000" font-family="sans-serif" font-size="14" lengthAdjust="spacing" text-decoration="underline" textLength="102.2998" x="41.64" y="808.9732">getSignalOut()</text><ellipse cx="32.64" cy="821.9234" fill="#84BE84" rx="3" ry="3" style="stroke:#038048;stroke-width:1;"/><text fill="#000000" font-family="sans-serif" font-size="14" lengthAdjust="spacing" text-decoration="underline" textLength="77.7998" x="41.64" y="825.2701">getSpeed()</text><ellipse cx="32.64" cy="838.2203" fill="#84BE84" rx="3" ry="3" style="stroke:#038048;stroke-width:1;"/><text fill="#000000" font-family="sans-serif" font-size="14" lengthAdjust="spacing" text-decoration="underline" textLength="148.1416" x="41.64" y="841.567">getTimerResolution()</text><ellipse cx="32.64" cy="854.5172" fill="#84BE84" rx="3" ry="3" style="stroke:#038048;stroke-width:1;"/><text fill="#000000" font-family="sans-serif" font-size="14" lengthAdjust="spacing" text-decoration="underline" textLength="97.2549" x="41.64" y="857.8639">getTriggerIn()</text><ellipse cx="32.64" cy="870.8141" fill="#84BE84" rx="3" ry="3" style="stroke:#038048;stroke-width:1;"/><text fill="#000000" font-family="sans-serif" font-size="14" lengthAdjust="spacing" text-decoration="underline" textLength="185.377" x="41.64" y="874.1607">getXAxisConversionType()</text><ellipse cx="32.64" cy="887.1109" fill="#84BE84" rx="3" ry="3" style="stroke:#038048;stroke-width:1;"/><text fill="#000000" font-family="sans-serif" font-size="14" lengthAdjust="spacing" text-decoration="underline" textLength="57.9004" x="41.64" y="890.4576">restart()</text><ellipse cx="32.64" cy="903.4078" fill="#84BE84" rx="3" ry="3" style="stroke:#038048;stroke-width:1;"/><text fill="#000000" font-family="sans-serif" font-size="14" lengthAdjust="spacing" text-decoration="underline" textLength="100.0576" x="41.64" y="906.7545">setAcqCount()</text><ellipse cx="32.64" cy="919.7047" fill="#84BE84" rx="3" ry="3" style="stroke:#038048;stroke-width:1;"/><text fill="#000000" font-family="sans-serif" font-size="14" lengthAdjust="spacing" text-decoration="underline" textLength="108.5615" x="41.64" y="923.0514">setAcqFormat()</text><ellipse cx="32.64" cy="936.0016" fill="#84BE84" rx="3" ry="3" style="stroke:#038048;stroke-width:1;"/><text fill="#000000" font-family="sans-serif" font-size="14" lengthAdjust="spacing" text-decoration="underline" textLength="163.3857" x="41.64" y="939.3482">setCenterWavelength()</text><ellipse cx="32.64" cy="952.2984" fill="#84BE84" rx="3" ry="3" style="stroke:#038048;stroke-width:1;"/><text fill="#000000" font-family="sans-serif" font-size="14" lengthAdjust="spacing" text-decoration="underline" textLength="113.627" x="41.64" y="955.6451">setCleanCount()</text><ellipse cx="32.64" cy="968.5953" fill="#84BE84" rx="3" ry="3" style="stroke:#038048;stroke-width:1;"/><text fill="#000000" font-family="sans-serif" font-size="14" lengthAdjust="spacing" text-decoration="underline" textLength="132.1318" x="41.64" y="971.942">setExposureTime()</text><ellipse cx="32.64" cy="984.8922" fill="#84BE84" rx="3" ry="3" style="stroke:#038048;stroke-width:1;"/><text fill="#000000" font-family="sans-serif" font-size="14" lengthAdjust="spacing" text-decoration="underline" textLength="64.5107" x="41.64" y="988.2389">setGain()</text><ellipse cx="32.64" cy="1001.1891" fill="#84BE84" rx="3" ry="3" style="stroke:#038048;stroke-width:1;"/><text fill="#000000" font-family="sans-serif" font-size="14" lengthAdjust="spacing" text-decoration="underline" textLength="127.8457" x="41.64" y="1004.5357">setParallelSpeed()</text><ellipse cx="32.64" cy="1017.4859" fill="#84BE84" rx="3" ry="3" style="stroke:#038048;stroke-width:1;"/><text fill="#000000" font-family="sans-serif" font-size="14" lengthAdjust="spacing" text-decoration="underline" textLength="54.5029" x="41.64" y="1020.8326">setRoi()</text><ellipse cx="32.64" cy="1033.7828" fill="#84BE84" rx="3" ry="3" style="stroke:#038048;stroke-width:1;"/><text fill="#000000" font-family="sans-serif" font-size="14" lengthAdjust="spacing" text-decoration="underline" textLength="100.707" x="41.64" y="1037.1295">setSignalOut()</text><ellipse cx="32.64" cy="1050.0797" fill="#84BE84" rx="3" ry="3" style="stroke:#038048;stroke-width:1;"/><text fill="#000000" font-family="sans-serif" font-size="14" lengthAdjust="spacing" text-decoration="underline" textLength="76.207" x="41.64" y="1053.4264">setSpeed()</text><ellipse cx="32.64" cy="1066.3766" fill="#84BE84" rx="3" ry="3" style="stroke:#038048;stroke-width:1;"/><text fill="#000000" font-family="sans-serif" font-size="14" lengthAdjust="spacing" text-decoration="underline" textLength="146.5488" x="41.64" y="1069.7232">setTimerResolution()</text><ellipse cx="32.64" cy="1082.6734" fill="#84BE84" rx="3" ry="3" style="stroke:#038048;stroke-width:1;"/><text fill="#000000" font-family="sans-serif" font-size="14" lengthAdjust="spacing" text-decoration="underline" textLength="95.6621" x="41.64" y="1086.0201">setTriggerIn()</text><ellipse cx="32.64" cy="1098.9703" fill="#84BE84" rx="3" ry="3" style="stroke:#038048;stroke-width:1;"/><text fill="#000000" font-family="sans-serif" font-size="14" lengthAdjust="spacing" text-decoration="underline" textLength="183.7842" x="41.64" y="1102.317">setXAxisConversionType()</text><ellipse cx="32.64" cy="1115.2672" fill="#84BE84" rx="3" ry="3" style="stroke:#038048;stroke-width:1;"/><text fill="#000000" font-family="sans-serif" font-size="14" lengthAdjust="spacing" textLength="96.9404" x="41.64" y="1118.6139">DeviceClose()</text><ellipse cx="32.64" cy="1131.5641" fill="#84BE84" rx="3" ry="3" style="stroke:#038048;stroke-width:1;"/><text fill="#000000" font-family="sans-serif" font-size="14" lengthAdjust="spacing" textLength="107.6182" x="41.64" y="1134.9107">DeviceIsOpen()</text><ellipse cx="32.64" cy="1147.8609" fill="#84BE84" rx="3" ry="3" style="stroke:#038048;stroke-width:1;"/><text fill="#000000" font-family="sans-serif" font-size="14" lengthAdjust="spacing" textLength="96.1953" x="41.64" y="1151.2076">DeviceOpen()</text><ellipse cx="32.64" cy="1164.1578" fill="#84BE84" rx="3" ry="3" style="stroke:#038048;stroke-width:1;"/><text fill="#000000" font-family="sans-serif" font-size="14" lengthAdjust="spacing" textLength="94.0762" x="41.64" y="1167.5045">getChipSize()</text></g><!--class GenericDevice--><g class="entity" data-entity="GenericDevice" data-source-line="57" data-uid="ent0004" id="entity_GenericDevice"><rect fill="#FFFFFF" height="259.8594" rx="2.5" ry="2.5" style="stroke:#555555;stroke-width:0.5;" width="213.5986" x="268.2" y="49.15"/><rect fill="#808080" height="32" rx="2.5" ry="2.5" style="stroke:#808080;stroke-width:0.5;" width="213.5986" x="268.2" y="49.15"/><rect fill="#808080" height="2.5" style="stroke:#808080;stroke-width:0.5;" width="213.5986" x="268.2" y="78.65"/><rect fill="none" height="259.8594" rx="2.5" ry="2.5" style="stroke:#555555;stroke-width:0.5;" width="213.5986" x="268.2" y="49.15"/><ellipse cx="319.6644" cy="65.15" fill="#ADD1B2" rx="11" ry="11" style="stroke:#181818;stroke-width:1;"/><path d="M322.6331,70.7906 Q322.055,71.0875 321.4144,71.2281 Q320.7737,71.3844 320.0706,71.3844 Q317.5706,71.3844 316.2425,69.7437 Q314.93,68.0875 314.93,64.9625 Q314.93,61.8375 316.2425,60.1812 Q317.5706,58.525 320.0706,58.525 Q320.7737,58.525 321.4144,58.6812 Q322.0706,58.8375 322.6331,59.1344 L322.6331,61.8531 Q322.0081,61.275 321.4144,61.0094 Q320.8206,60.7281 320.1956,60.7281 Q318.8519,60.7281 318.1644,61.8062 Q317.4769,62.8687 317.4769,64.9625 Q317.4769,67.0562 318.1644,68.1344 Q318.8519,69.1969 320.1956,69.1969 Q320.8206,69.1969 321.4144,68.9312 Q322.0081,68.65 322.6331,68.0719 L322.6331,70.7906 Z " fill="#000000"/><text fill="#000000" font-family="sans-serif" font-size="14" lengthAdjust="spacing" textLength="102.1699" x="340.1644" y="69.9967">GenericDevice</text><line style="stroke:#555555;stroke-width:0.5;" x1="269.2" x2="480.7986" y1="81.15" y2="81.15"/><rect fill="none" height="6" style="stroke:#C82930;stroke-width:1;" width="6" x="276.2" y="91.7984"/><text fill="#000000" font-family="sans-serif" font-size="14" lengthAdjust="spacing" textLength="137.9424" x="288.2" y="98.1451">deviceTerm : String</text><rect fill="none" height="6" style="stroke:#C82930;stroke-width:1;" width="6" x="276.2" y="108.0953"/><text fill="#000000" font-family="sans-serif" font-size="14" lengthAdjust="spacing" textLength="135.7207" x="288.2" y="114.442">deviceType : String</text><rect fill="none" height="6" style="stroke:#C82930;stroke-width:1;" width="6" x="276.2" y="124.3922"/><text fill="#000000" font-family="sans-serif" font-size="14" lengthAdjust="spacing" textLength="74.1084" x="288.2" y="130.7389">index : I32</text><rect fill="none" height="6" style="stroke:#C82930;stroke-width:1;" width="6" x="276.2" y="140.6891"/><text fill="#000000" font-family="sans-serif" font-size="14" lengthAdjust="spacing" textLength="105.2461" x="288.2" y="147.0357">open : Boolean</text><rect fill="none" height="6" style="stroke:#C82930;stroke-width:1;" width="6" x="276.2" y="156.9859"/><text fill="#000000" font-family="sans-serif" font-size="14" lengthAdjust="spacing" textLength="149.6592" x="288.2" y="163.3326">serialNumber : String</text><ellipse cx="279.2" cy="176.2828" fill="none" rx="3" ry="3" style="stroke:#038048;stroke-width:1;"/><text fill="#000000" font-family="sans-serif" font-size="14" lengthAdjust="spacing" textLength="102.7305" x="288.2" y="179.6295">productId : I32</text><line style="stroke:#555555;stroke-width:0.5;" x1="269.2" x2="480.7986" y1="186.9312" y2="186.9312"/><ellipse cx="279.2" cy="200.5797" fill="#84BE84" rx="3" ry="3" style="stroke:#038048;stroke-width:1;"/><text fill="#000000" font-family="sans-serif" font-size="14" lengthAdjust="spacing" text-decoration="underline" textLength="149.208" x="288.2" y="203.9264">Send Receive Parse()</text><ellipse cx="279.2" cy="216.8766" fill="#84BE84" rx="3" ry="3" style="stroke:#038048;stroke-width:1;"/><text fill="#000000" font-family="sans-serif" font-size="14" lengthAdjust="spacing" text-decoration="underline" textLength="153.5898" x="288.2" y="220.2232">ReadDeviceJSONList()</text><ellipse cx="279.2" cy="233.1734" fill="#84BE84" rx="3" ry="3" style="stroke:#038048;stroke-width:1;"/><text fill="#000000" font-family="sans-serif" font-size="14" lengthAdjust="spacing" text-decoration="underline" textLength="170.9395" x="288.2" y="236.5201">DecodeDeviceJSONList()</text><ellipse cx="279.2" cy="249.4703" fill="#84BE84" rx="3" ry="3" style="stroke:#038048;stroke-width:1;"/><text fill="#000000" font-family="sans-serif" font-size="14" lengthAdjust="spacing" text-decoration="underline" textLength="187.5986" x="288.2" y="252.817">ReadDeviceTypeAsString()</text><ellipse cx="279.2" cy="265.7672" fill="#84BE84" rx="3" ry="3" style="stroke:#038048;stroke-width:1;"/><text fill="#000000" font-family="sans-serif" font-size="14" lengthAdjust="spacing" textLength="96.9404" x="288.2" y="269.1139">DeviceClose()</text><ellipse cx="279.2" cy="282.0641" fill="#84BE84" rx="3" ry="3" style="stroke:#038048;stroke-width:1;"/><text fill="#000000" font-family="sans-serif" font-size="14" lengthAdjust="spacing" textLength="96.1953" x="288.2" y="285.4107">DeviceOpen()</text><ellipse cx="279.2" cy="298.3609" fill="#84BE84" rx="3" ry="3" style="stroke:#038048;stroke-width:1;"/><text fill="#000000" font-family="sans-serif" font-size="14" lengthAdjust="spacing" textLength="107.6182" x="288.2" y="301.7076">DeviceIsOpen()</text></g><!--class Communicator--><g class="entity" data-entity="Communicator" data-source-line="60" data-uid="ent0006" id="entity_Communicator"><rect fill="#FFFFFF" height="276.1563" rx="2.5" ry="2.5" style="stroke:#555555;stroke-width:0.5;" width="261.416" x="517.29" y="41"/><rect fill="#808080" height="32" rx="2.5" ry="2.5" style="stroke:#808080;stroke-width:0.5;" width="261.416" x="517.29" y="41"/><rect fill="#808080" height="2.5" style="stroke:#808080;stroke-width:0.5;" width="261.416" x="517.29" y="70.5"/><rect fill="none" height="276.1563" rx="2.5" ry="2.5" style="stroke:#555555;stroke-width:0.5;" width="261.416" x="517.29" y="41"/><ellipse cx="592.0786" cy="57" fill="#ADD1B2" rx="11" ry="11" style="stroke:#181818;stroke-width:1;"/><path d="M595.0473,62.6406 Q594.4692,62.9375 593.8286,63.0781 Q593.1879,63.2344 592.4848,63.2344 Q589.9848,63.2344 588.6567,61.5938 Q587.3442,59.9375 587.3442,56.8125 Q587.3442,53.6875 588.6567,52.0313 Q589.9848,50.375 592.4848,50.375 Q593.1879,50.375 593.8286,50.5313 Q594.4848,50.6875 595.0473,50.9844 L595.0473,53.7031 Q594.4223,53.125 593.8286,52.8594 Q593.2348,52.5781 592.6098,52.5781 Q591.2661,52.5781 590.5786,53.6563 Q589.8911,54.7188 589.8911,56.8125 Q589.8911,58.9063 590.5786,59.9844 Q591.2661,61.0469 592.6098,61.0469 Q593.2348,61.0469 593.8286,60.7813 Q594.4223,60.5 595.0473,59.9219 L595.0473,62.6406 Z " fill="#000000"/><text fill="#000000" font-family="sans-serif" font-size="14" lengthAdjust="spacing" textLength="103.3389" x="612.5786" y="61.8467">Communicator</text><line style="stroke:#555555;stroke-width:0.5;" x1="518.29" x2="777.706" y1="73" y2="73"/><rect fill="none" height="6" style="stroke:#C82930;stroke-width:1;" width="6" x="525.29" y="83.6484"/><text fill="#000000" font-family="sans-serif" font-size="14" lengthAdjust="spacing" textLength="234.6436" x="537.29" y="89.9951">WebSocket Connection : LV Class</text><rect fill="none" height="6" style="stroke:#C82930;stroke-width:1;" width="6" x="525.29" y="99.9453"/><text fill="#000000" font-family="sans-serif" font-size="14" lengthAdjust="spacing" textLength="108.7871" x="537.29" y="106.292">ID counter : I32</text><rect fill="none" height="6" style="stroke:#C82930;stroke-width:1;" width="6" x="525.29" y="116.2422"/><text fill="#000000" font-family="sans-serif" font-size="14" lengthAdjust="spacing" textLength="235.416" x="537.29" y="122.5889">connectionEstablished? : Boolean</text><line style="stroke:#555555;stroke-width:0.5;" x1="518.29" x2="777.706" y1="129.8906" y2="129.8906"/><ellipse cx="528.29" cy="143.5391" fill="#84BE84" rx="3" ry="3" style="stroke:#038048;stroke-width:1;"/><text fill="#000000" font-family="sans-serif" font-size="14" lengthAdjust="spacing" text-decoration="underline" textLength="164.9717" x="537.29" y="146.8857">JSON Parse Command()</text><ellipse cx="528.29" cy="159.8359" fill="#84BE84" rx="3" ry="3" style="stroke:#038048;stroke-width:1;"/><text fill="#000000" font-family="sans-serif" font-size="14" lengthAdjust="spacing" text-decoration="underline" textLength="134.9893" x="537.29" y="163.1826">JSON Parse Errors()</text><ellipse cx="528.29" cy="176.1328" fill="#84BE84" rx="3" ry="3" style="stroke:#038048;stroke-width:1;"/><text fill="#000000" font-family="sans-serif" font-size="14" lengthAdjust="spacing" text-decoration="underline" textLength="107.9258" x="537.29" y="179.4795">JSON Parse ID()</text><ellipse cx="528.29" cy="192.4297" fill="#84BE84" rx="3" ry="3" style="stroke:#038048;stroke-width:1;"/><text fill="#000000" font-family="sans-serif" font-size="14" lengthAdjust="spacing" text-decoration="underline" textLength="119.5127" x="537.29" y="195.7764">JSON Parse Info()</text><ellipse cx="528.29" cy="208.7266" fill="#84BE84" rx="3" ry="3" style="stroke:#038048;stroke-width:1;"/><text fill="#000000" font-family="sans-serif" font-size="14" lengthAdjust="spacing" text-decoration="underline" textLength="144.1973" x="537.29" y="212.0732">JSON Parse Results()</text><ellipse cx="528.29" cy="225.0234" fill="#84BE84" rx="3" ry="3" style="stroke:#038048;stroke-width:1;"/><text fill="#000000" font-family="sans-serif" font-size="14" lengthAdjust="spacing" text-decoration="underline" textLength="99.1553" x="537.29" y="228.3701">Overwrite ID()</text><ellipse cx="528.29" cy="241.3203" fill="#84BE84" rx="3" ry="3" style="stroke:#038048;stroke-width:1;"/><text fill="#000000" font-family="sans-serif" font-size="14" lengthAdjust="spacing" textLength="127.5313" x="537.29" y="244.667">OpenConnection()</text><ellipse cx="528.29" cy="257.6172" fill="#84BE84" rx="3" ry="3" style="stroke:#038048;stroke-width:1;"/><text fill="#000000" font-family="sans-serif" font-size="14" lengthAdjust="spacing" textLength="128.2764" x="537.29" y="260.9639">CloseConnection()</text><ellipse cx="528.29" cy="273.9141" fill="#84BE84" rx="3" ry="3" style="stroke:#038048;stroke-width:1;"/><text fill="#000000" font-family="sans-serif" font-size="14" lengthAdjust="spacing" textLength="160.2754" x="537.29" y="277.2607">SendAndAskForReply()</text><polygon fill="#FFFF44" points="528.29,285.2109,532.29,289.2109,528.29,293.2109,524.29,289.2109" style="stroke:#B38D22;stroke-width:1;"/><text fill="#000000" font-family="sans-serif" font-size="14" lengthAdjust="spacing" textLength="95.2246" x="537.29" y="293.5576">ReceiveJson()</text><polygon fill="#FFFF44" points="528.29,301.5078,532.29,305.5078,528.29,309.5078,524.29,305.5078" style="stroke:#B38D22;stroke-width:1;"/><text fill="#000000" font-family="sans-serif" font-size="14" lengthAdjust="spacing" textLength="75.0449" x="537.29" y="309.8545">SendJson()</text></g><!--class Monochromator--><g class="entity" data-entity="Monochromator" data-source-line="98" data-uid="ent0010" id="entity_Monochromator"><rect fill="#FFFFFF" height="406.5313" rx="2.5" ry="2.5" style="stroke:#555555;stroke-width:0.5;" width="194.4443" x="329.78" y="572.72"/><rect fill="#808080" height="32" rx="2.5" ry="2.5" style="stroke:#808080;stroke-width:0.5;" width="194.4443" x="329.78" y="572.72"/><rect fill="#808080" height="2.5" style="stroke:#808080;stroke-width:0.5;" width="194.4443" x="329.78" y="602.22"/><rect fill="none" height="406.5313" rx="2.5" ry="2.5" style="stroke:#555555;stroke-width:0.5;" width="194.4443" x="329.78" y="572.72"/><ellipse cx="367.9291" cy="588.72" fill="#ADD1B2" rx="11" ry="11" style="stroke:#181818;stroke-width:1;"/><path d="M370.8978,594.3606 Q370.3197,594.6575 369.6791,594.7981 Q369.0384,594.9544 368.3353,594.9544 Q365.8353,594.9544 364.5072,593.3137 Q363.1947,591.6575 363.1947,588.5325 Q363.1947,585.4075 364.5072,583.7512 Q365.8353,582.095 368.3353,582.095 Q369.0384,582.095 369.6791,582.2512 Q370.3353,582.4075 370.8978,582.7044 L370.8978,585.4231 Q370.2728,584.845 369.6791,584.5794 Q369.0853,584.2981 368.4603,584.2981 Q367.1166,584.2981 366.4291,585.3762 Q365.7416,586.4387 365.7416,588.5325 Q365.7416,590.6262 366.4291,591.7044 Q367.1166,592.7669 368.4603,592.7669 Q369.0853,592.7669 369.6791,592.5012 Q370.2728,592.22 370.8978,591.6419 L370.8978,594.3606 Z " fill="#000000"/><text fill="#000000" font-family="sans-serif" font-size="14" lengthAdjust="spacing" textLength="111.002" x="387.0733" y="593.5667">Monochromator</text><line style="stroke:#555555;stroke-width:0.5;" x1="330.78" x2="523.2243" y1="604.72" y2="604.72"/><line style="stroke:#555555;stroke-width:0.5;" x1="330.78" x2="523.2243" y1="612.72" y2="612.72"/><ellipse cx="340.78" cy="626.3684" fill="#84BE84" rx="3" ry="3" style="stroke:#038048;stroke-width:1;"/><text fill="#000000" font-family="sans-serif" font-size="14" lengthAdjust="spacing" text-decoration="underline" textLength="87.3291" x="349.78" y="629.7151">setPosition()</text><ellipse cx="340.78" cy="642.6653" fill="#84BE84" rx="3" ry="3" style="stroke:#038048;stroke-width:1;"/><text fill="#000000" font-family="sans-serif" font-size="14" lengthAdjust="spacing" text-decoration="underline" textLength="168.4443" x="349.78" y="646.012">getFilterWheelPosition()</text><ellipse cx="340.78" cy="658.9622" fill="#84BE84" rx="3" ry="3" style="stroke:#038048;stroke-width:1;"/><text fill="#000000" font-family="sans-serif" font-size="14" lengthAdjust="spacing" text-decoration="underline" textLength="129.5479" x="349.78" y="662.3089">moveFilterWheel()</text><ellipse cx="340.78" cy="675.2591" fill="#84BE84" rx="3" ry="3" style="stroke:#038048;stroke-width:1;"/><text fill="#000000" font-family="sans-serif" font-size="14" lengthAdjust="spacing" text-decoration="underline" textLength="141.2441" x="349.78" y="678.6057">getGratingPosition()</text><ellipse cx="340.78" cy="691.5559" fill="#84BE84" rx="3" ry="3" style="stroke:#038048;stroke-width:1;"/><text fill="#000000" font-family="sans-serif" font-size="14" lengthAdjust="spacing" text-decoration="underline" textLength="102.3477" x="349.78" y="694.9026">moveGrating()</text><ellipse cx="340.78" cy="707.8528" fill="#84BE84" rx="3" ry="3" style="stroke:#038048;stroke-width:1;"/><text fill="#000000" font-family="sans-serif" font-size="14" lengthAdjust="spacing" text-decoration="underline" textLength="130.7236" x="349.78" y="711.1995">getMirrorPosition()</text><ellipse cx="340.78" cy="724.1497" fill="#84BE84" rx="3" ry="3" style="stroke:#038048;stroke-width:1;"/><text fill="#000000" font-family="sans-serif" font-size="14" lengthAdjust="spacing" text-decoration="underline" textLength="91.8271" x="349.78" y="727.4964">moveMirror()</text><ellipse cx="340.78" cy="740.4466" fill="#84BE84" rx="3" ry="3" style="stroke:#038048;stroke-width:1;"/><text fill="#000000" font-family="sans-serif" font-size="14" lengthAdjust="spacing" text-decoration="underline" textLength="88.9219" x="349.78" y="743.7932">getPosition()</text><ellipse cx="340.78" cy="756.7434" fill="#84BE84" rx="3" ry="3" style="stroke:#038048;stroke-width:1;"/><text fill="#000000" font-family="sans-serif" font-size="14" lengthAdjust="spacing" text-decoration="underline" textLength="122.1514" x="349.78" y="760.0901">moveToPosition()</text><ellipse cx="340.78" cy="773.0403" fill="#84BE84" rx="3" ry="3" style="stroke:#038048;stroke-width:1;"/><text fill="#000000" font-family="sans-serif" font-size="14" lengthAdjust="spacing" text-decoration="underline" textLength="130.5049" x="349.78" y="776.387">getShutterStatus()</text><ellipse cx="340.78" cy="789.3372" fill="#84BE84" rx="3" ry="3" style="stroke:#038048;stroke-width:1;"/><text fill="#000000" font-family="sans-serif" font-size="14" lengthAdjust="spacing" text-decoration="underline" textLength="99.4492" x="349.78" y="792.6839">shutterClose()</text><ellipse cx="340.78" cy="805.6341" fill="#84BE84" rx="3" ry="3" style="stroke:#038048;stroke-width:1;"/><text fill="#000000" font-family="sans-serif" font-size="14" lengthAdjust="spacing" text-decoration="underline" textLength="98.7041" x="349.78" y="808.9807">shutterOpen()</text><ellipse cx="340.78" cy="821.9309" fill="#84BE84" rx="3" ry="3" style="stroke:#038048;stroke-width:1;"/><text fill="#000000" font-family="sans-serif" font-size="14" lengthAdjust="spacing" text-decoration="underline" textLength="148.2373" x="349.78" y="825.2776">getSlitPositionInMM()</text><ellipse cx="340.78" cy="838.2278" fill="#84BE84" rx="3" ry="3" style="stroke:#038048;stroke-width:1;"/><text fill="#000000" font-family="sans-serif" font-size="14" lengthAdjust="spacing" text-decoration="underline" textLength="96.3389" x="349.78" y="841.5745">moveSlitMM()</text><ellipse cx="340.78" cy="854.5247" fill="#84BE84" rx="3" ry="3" style="stroke:#038048;stroke-width:1;"/><text fill="#000000" font-family="sans-serif" font-size="14" lengthAdjust="spacing" text-decoration="underline" textLength="78.832" x="349.78" y="857.8714">getConfig()</text><ellipse cx="340.78" cy="870.8216" fill="#84BE84" rx="3" ry="3" style="stroke:#038048;stroke-width:1;"/><text fill="#000000" font-family="sans-serif" font-size="14" lengthAdjust="spacing" text-decoration="underline" textLength="33.3047" x="349.78" y="874.1682">Init()</text><ellipse cx="340.78" cy="887.1184" fill="#84BE84" rx="3" ry="3" style="stroke:#038048;stroke-width:1;"/><text fill="#000000" font-family="sans-serif" font-size="14" lengthAdjust="spacing" text-decoration="underline" textLength="56.1641" x="349.78" y="890.4651">isBusy()</text><ellipse cx="340.78" cy="903.4153" fill="#84BE84" rx="3" ry="3" style="stroke:#038048;stroke-width:1;"/><text fill="#000000" font-family="sans-serif" font-size="14" lengthAdjust="spacing" text-decoration="underline" textLength="89.585" x="349.78" y="906.762">isInitialized()</text><rect fill="#F24D5C" height="6" style="stroke:#C82930;stroke-width:1;" width="6" x="337.78" y="916.7122"/><text fill="#000000" font-family="sans-serif" font-size="14" lengthAdjust="spacing" text-decoration="underline" textLength="128.3994" x="349.78" y="923.0589">parseConfigData()</text><ellipse cx="340.78" cy="936.0091" fill="#84BE84" rx="3" ry="3" style="stroke:#038048;stroke-width:1;"/><text fill="#000000" font-family="sans-serif" font-size="14" lengthAdjust="spacing" textLength="96.9404" x="349.78" y="939.3557">DeviceClose()</text><ellipse cx="340.78" cy="952.3059" fill="#84BE84" rx="3" ry="3" style="stroke:#038048;stroke-width:1;"/><text fill="#000000" font-family="sans-serif" font-size="14" lengthAdjust="spacing" textLength="107.6182" x="349.78" y="955.6526">DeviceIsOpen()</text><ellipse cx="340.78" cy="968.6028" fill="#84BE84" rx="3" ry="3" style="stroke:#038048;stroke-width:1;"/><text fill="#000000" font-family="sans-serif" font-size="14" lengthAdjust="spacing" textLength="96.1953" x="349.78" y="971.9495">DeviceOpen()</text></g><!--class SCD--><g class="entity" data-entity="SCD" data-source-line="126" data-uid="ent0012" id="entity_SCD"><rect fill="#FFFFFF" height="439.125" rx="2.5" ry="2.5" style="stroke:#555555;stroke-width:0.5;" width="219.3955" x="559.3" y="556.42"/><rect fill="#808080" height="32" rx="2.5" ry="2.5" style="stroke:#808080;stroke-width:0.5;" width="219.3955" x="559.3" y="556.42"/><rect fill="#808080" height="2.5" style="stroke:#808080;stroke-width:0.5;" width="219.3955" x="559.3" y="585.92"/><rect fill="none" height="439.125" rx="2.5" ry="2.5" style="stroke:#555555;stroke-width:0.5;" width="219.3955" x="559.3" y="556.42"/><ellipse cx="650.0266" cy="572.42" fill="#ADD1B2" rx="11" ry="11" style="stroke:#181818;stroke-width:1;"/><path d="M652.9953,578.0606 Q652.4172,578.3575 651.7766,578.4981 Q651.1359,578.6544 650.4328,578.6544 Q647.9328,578.6544 646.6047,577.0138 Q645.2922,575.3575 645.2922,572.2325 Q645.2922,569.1075 646.6047,567.4513 Q647.9328,565.795 650.4328,565.795 Q651.1359,565.795 651.7766,565.9513 Q652.4328,566.1075 652.9953,566.4044 L652.9953,569.1231 Q652.3703,568.545 651.7766,568.2794 Q651.1828,567.9981 650.5578,567.9981 Q649.2141,567.9981 648.5266,569.0763 Q647.8391,570.1388 647.8391,572.2325 Q647.8391,574.3263 648.5266,575.4044 Q649.2141,576.4669 650.5578,576.4669 Q651.1828,576.4669 651.7766,576.2013 Q652.3703,575.92 652.9953,575.3419 L652.9953,578.0606 Z " fill="#000000"/><text fill="#000000" font-family="sans-serif" font-size="14" lengthAdjust="spacing" textLength="29.4424" x="670.5266" y="577.2667">SCD</text><line style="stroke:#555555;stroke-width:0.5;" x1="560.3" x2="777.6955" y1="588.42" y2="588.42"/><line style="stroke:#555555;stroke-width:0.5;" x1="560.3" x2="777.6955" y1="596.42" y2="596.42"/><ellipse cx="570.3" cy="610.0684" fill="#84BE84" rx="3" ry="3" style="stroke:#038048;stroke-width:1;"/><text fill="#000000" font-family="sans-serif" font-size="14" lengthAdjust="spacing" text-decoration="underline" textLength="71.2852" x="579.3" y="613.4151">AcqStart()</text><ellipse cx="570.3" cy="626.3653" fill="#84BE84" rx="3" ry="3" style="stroke:#038048;stroke-width:1;"/><text fill="#000000" font-family="sans-serif" font-size="14" lengthAdjust="spacing" text-decoration="underline" textLength="68.9131" x="579.3" y="629.712">AcqStop()</text><ellipse cx="570.3" cy="642.6622" fill="#84BE84" rx="3" ry="3" style="stroke:#038048;stroke-width:1;"/><text fill="#000000" font-family="sans-serif" font-size="14" lengthAdjust="spacing" text-decoration="underline" textLength="78.8867" x="579.3" y="646.0089">AcqPause()</text><ellipse cx="570.3" cy="658.9591" fill="#84BE84" rx="3" ry="3" style="stroke:#038048;stroke-width:1;"/><text fill="#000000" font-family="sans-serif" font-size="14" lengthAdjust="spacing" text-decoration="underline" textLength="100.0371" x="579.3" y="662.3057">AcqContinue()</text><ellipse cx="570.3" cy="675.2559" fill="#84BE84" rx="3" ry="3" style="stroke:#038048;stroke-width:1;"/><text fill="#000000" font-family="sans-serif" font-size="14" lengthAdjust="spacing" text-decoration="underline" textLength="99.9482" x="579.3" y="678.6026">ForceTrigger()</text><ellipse cx="570.3" cy="691.5528" fill="#84BE84" rx="3" ry="3" style="stroke:#038048;stroke-width:1;"/><text fill="#000000" font-family="sans-serif" font-size="14" lengthAdjust="spacing" text-decoration="underline" textLength="104.2822" x="579.3" y="694.8995">IsDeviceBusy()</text><ellipse cx="570.3" cy="707.8497" fill="#84BE84" rx="3" ry="3" style="stroke:#038048;stroke-width:1;"/><text fill="#000000" font-family="sans-serif" font-size="14" lengthAdjust="spacing" text-decoration="underline" textLength="154.1777" x="579.3" y="711.1964">GetFirmwareVersion()</text><ellipse cx="570.3" cy="724.1466" fill="#84BE84" rx="3" ry="3" style="stroke:#038048;stroke-width:1;"/><text fill="#000000" font-family="sans-serif" font-size="14" lengthAdjust="spacing" text-decoration="underline" textLength="122.8486" x="579.3" y="727.4932">GetFpgaVersion()</text><ellipse cx="570.3" cy="740.4434" fill="#84BE84" rx="3" ry="3" style="stroke:#038048;stroke-width:1;"/><text fill="#000000" font-family="sans-serif" font-size="14" lengthAdjust="spacing" text-decoration="underline" textLength="136.4043" x="579.3" y="743.7901">GetBoardRevision()</text><ellipse cx="570.3" cy="756.7403" fill="#84BE84" rx="3" ry="3" style="stroke:#038048;stroke-width:1;"/><text fill="#000000" font-family="sans-serif" font-size="14" lengthAdjust="spacing" text-decoration="underline" textLength="131.7285" x="579.3" y="760.087">GetSerialNumber()</text><ellipse cx="570.3" cy="773.0372" fill="#84BE84" rx="3" ry="3" style="stroke:#038048;stroke-width:1;"/><text fill="#000000" font-family="sans-serif" font-size="14" lengthAdjust="spacing" text-decoration="underline" textLength="135.6934" x="579.3" y="776.3839">SetHvBiasVoltage()</text><ellipse cx="570.3" cy="789.3341" fill="#84BE84" rx="3" ry="3" style="stroke:#038048;stroke-width:1;"/><text fill="#000000" font-family="sans-serif" font-size="14" lengthAdjust="spacing" text-decoration="underline" textLength="137.6553" x="579.3" y="792.6807">GetHvBiasVoltage()</text><ellipse cx="570.3" cy="805.6309" fill="#84BE84" rx="3" ry="3" style="stroke:#038048;stroke-width:1;"/><text fill="#000000" font-family="sans-serif" font-size="14" lengthAdjust="spacing" text-decoration="underline" textLength="193.3955" x="579.3" y="808.9776">GetMaxHVVoltageAllowed()</text><ellipse cx="570.3" cy="821.9278" fill="#84BE84" rx="3" ry="3" style="stroke:#038048;stroke-width:1;"/><text fill="#000000" font-family="sans-serif" font-size="14" lengthAdjust="spacing" text-decoration="underline" textLength="85.0254" x="579.3" y="825.2745">GetAcqSet()</text><ellipse cx="570.3" cy="838.2247" fill="#84BE84" rx="3" ry="3" style="stroke:#038048;stroke-width:1;"/><text fill="#000000" font-family="sans-serif" font-size="14" lengthAdjust="spacing" text-decoration="underline" textLength="83.0635" x="579.3" y="841.5714">SetAcqSet()</text><ellipse cx="570.3" cy="854.5216" fill="#84BE84" rx="3" ry="3" style="stroke:#038048;stroke-width:1;"/><text fill="#000000" font-family="sans-serif" font-size="14" lengthAdjust="spacing" text-decoration="underline" textLength="119.9639" x="579.3" y="857.8682">IsDataAvailable()</text><ellipse cx="570.3" cy="870.8184" fill="#84BE84" rx="3" ry="3" style="stroke:#038048;stroke-width:1;"/><text fill="#000000" font-family="sans-serif" font-size="14" lengthAdjust="spacing" text-decoration="underline" textLength="133.4922" x="579.3" y="874.1651">GetAvailableData()</text><ellipse cx="570.3" cy="887.1153" fill="#84BE84" rx="3" ry="3" style="stroke:#038048;stroke-width:1;"/><text fill="#000000" font-family="sans-serif" font-size="14" lengthAdjust="spacing" text-decoration="underline" textLength="135.3994" x="579.3" y="890.462">SetInTriggerMode()</text><ellipse cx="570.3" cy="903.4122" fill="#84BE84" rx="3" ry="3" style="stroke:#038048;stroke-width:1;"/><text fill="#000000" font-family="sans-serif" font-size="14" lengthAdjust="spacing" text-decoration="underline" textLength="124.3594" x="579.3" y="906.7589">GetTriggerMode()</text><ellipse cx="570.3" cy="919.7091" fill="#84BE84" rx="3" ry="3" style="stroke:#038048;stroke-width:1;"/><text fill="#000000" font-family="sans-serif" font-size="14" lengthAdjust="spacing" text-decoration="underline" textLength="99.7158" x="579.3" y="923.0557">GetLastError()</text><ellipse cx="570.3" cy="936.0059" fill="#84BE84" rx="3" ry="3" style="stroke:#038048;stroke-width:1;"/><text fill="#000000" font-family="sans-serif" font-size="14" lengthAdjust="spacing" text-decoration="underline" textLength="95.8057" x="579.3" y="939.3526">GetErrorLog()</text><ellipse cx="570.3" cy="952.3028" fill="#84BE84" rx="3" ry="3" style="stroke:#038048;stroke-width:1;"/><text fill="#000000" font-family="sans-serif" font-size="14" lengthAdjust="spacing" textLength="96.9404" x="579.3" y="955.6495">DeviceClose()</text><ellipse cx="570.3" cy="968.5997" fill="#84BE84" rx="3" ry="3" style="stroke:#038048;stroke-width:1;"/><text fill="#000000" font-family="sans-serif" font-size="14" lengthAdjust="spacing" textLength="96.1953" x="579.3" y="971.9464">DeviceOpen()</text><ellipse cx="570.3" cy="984.8966" fill="#84BE84" rx="3" ry="3" style="stroke:#038048;stroke-width:1;"/><text fill="#000000" font-family="sans-serif" font-size="14" lengthAdjust="spacing" textLength="107.6182" x="579.3" y="988.2432">DeviceIsOpen()</text></g><!--class WebSocket Client--><g class="entity" data-entity="WebSocket Client" data-source-line="77" data-uid="ent0007" id="entity_WebSocket Client"><rect fill="#FFFFFF" height="48" rx="2.5" ry="2.5" style="stroke:#555555;stroke-width:0.5;" width="155.6826" x="835.16" y="751.98"/><rect fill="#808080" height="32" rx="2.5" ry="2.5" style="stroke:#808080;stroke-width:0.5;" width="155.6826" x="835.16" y="751.98"/><rect fill="#808080" height="2.5" style="stroke:#808080;stroke-width:0.5;" width="155.6826" x="835.16" y="781.48"/><rect fill="none" height="48" rx="2.5" ry="2.5" style="stroke:#555555;stroke-width:0.5;" width="155.6826" x="835.16" y="751.98"/><ellipse cx="850.16" cy="767.98" fill="#ADD1B2" rx="11" ry="11" style="stroke:#181818;stroke-width:1;"/><path d="M853.1288,773.6206 Q852.5506,773.9175 851.91,774.0581 Q851.2694,774.2144 850.5663,774.2144 Q848.0663,774.2144 846.7381,772.5738 Q845.4256,770.9175 845.4256,767.7925 Q845.4256,764.6675 846.7381,763.0113 Q848.0663,761.355 850.5663,761.355 Q851.2694,761.355 851.91,761.5113 Q852.5663,761.6675 853.1288,761.9644 L853.1288,764.6831 Q852.5038,764.105 851.91,763.8394 Q851.3163,763.5581 850.6913,763.5581 Q849.3475,763.5581 848.66,764.6363 Q847.9725,765.6988 847.9725,767.7925 Q847.9725,769.8863 848.66,770.9644 Q849.3475,772.0269 850.6913,772.0269 Q851.3163,772.0269 851.91,771.7613 Q852.5038,771.48 853.1288,770.9019 L853.1288,773.6206 Z " fill="#000000"/><text fill="#000000" font-family="sans-serif" font-size="14" lengthAdjust="spacing" textLength="123.6826" x="864.16" y="772.8267">WebSocket Client</text><line style="stroke:#555555;stroke-width:0.5;" x1="836.16" x2="989.8426" y1="783.98" y2="783.98"/><line style="stroke:#555555;stroke-width:0.5;" x1="836.16" x2="989.8426" y1="791.98" y2="791.98"/></g><!--reverse link GenericDevice to CCD--><g class="link" data-entity-1="GenericDevice" data-entity-2="CCD" data-source-line="57" data-uid="lnk5" id="link_GenericDevice_CCD"><path codeLine="57" d="M321.7464,326.0718 C311.5964,353.9218 306.52,367.8 294.82,399.88" fill="none" id="GenericDevice-backto-CCD" style="stroke:#181818;stroke-width:1;"/><polygon fill="none" points="327.91,309.16,316.1092,324.0173,327.3837,328.1264,327.91,309.16" style="stroke:#181818;stroke-width:1;"/></g><!--reverse link Communicator to WebSocket Client--><g class="link" data-entity-1="Communicator" data-entity-2="WebSocket Client" data-source-line="77" data-uid="lnk9" id="link_Communicator_WebSocket Client"><path codeLine="77" d="M766.4418,327.4043 C779.4118,346.7943 784.91,357.02 795,377.15 C861.82,510.47 897.73,688.3 909.03,751.49" fill="none" id="Communicator-backto-WebSocket Client" style="stroke:#181818;stroke-width:1;"/><polygon fill="#181818" points="759.77,317.43,759.7811,324.6411,766.4418,327.4043,766.4307,320.1932,759.77,317.43" style="stroke:#181818;stroke-width:1;"/></g><!--reverse link GenericDevice to Monochromator--><g class="link" data-entity-1="GenericDevice" data-entity-2="Monochromator" data-source-line="123" data-uid="lnk11" id="link_GenericDevice_Monochromator"><path codeLine="123" d="M387.8472,327.0916 C394.5672,403.9816 401.68,485.32 409.3,572.45" fill="none" id="GenericDevice-backto-Monochromator" style="stroke:#181818;stroke-width:1;"/><polygon fill="none" points="386.28,309.16,381.87,327.614,393.8244,326.5693,386.28,309.16" style="stroke:#181818;stroke-width:1;"/></g><!--reverse link GenericDevice to SCD--><g class="link" data-entity-1="GenericDevice" data-entity-2="SCD" data-source-line="153" data-uid="lnk13" id="link_GenericDevice_SCD"><path codeLine="153" d="M493.9344,312.6322 C520.3544,343.5922 532.22,359.5 542,377.15 C572.62,432.41 597.1,496.13 616.08,556.16" fill="none" id="GenericDevice-backto-SCD" style="stroke:#181818;stroke-width:1;"/><polygon fill="none" points="482.25,298.94,489.3703,316.527,498.4984,308.7374,482.25,298.94" style="stroke:#181818;stroke-width:1;"/></g><!--SRC=[hPTjRzis4CVV-rC8oPjjHOQkmu0X653u8N5Sn4rW6MdVqjH59aAHAezoacRvxZjAYXzraZlKHLz4z-FJ_UzuHmGV6P41va923BbmmbiNdVVmGPdmLnODjK0S2FcGEbkOP6Wr0QUNvUy0iou1LoD_bRzzvD8QNmFlozy-S0M2vZXOyE_tuLzlY_Osf__HmdflioXH3gHNrlHac2KwMLgd5k9tlT9gSJuSZawYbzuBUk6LV8rUCl1Bcxn6xrBmSGwGz4qo5ih4uBqoAVxoQnDC2oFyaTou3qdVEV7SGWrbCX9Uj17MtAkq0ve9ayBK9j3Ce5TUBcd30Uclm8dq639MMQuPKCXlXK8LNDbVMESxgTWBZf92oq8Blpd6hQq6CGwMrj0X_1Un0WqczSkvdObCc7YfxfarIC2-_3QaK6a5tdOxAF3v68xNPPURKRZo4mwNAfz3bfCmld30Sng4QJz35IwiEUmtLj_v9IwUSekqXxdAUEXI-TkGNCWI8KbOOnYhDUWoerWgLgaH-gRWpze-Ffp0pG2jBe82FETKceARyCJN_fF2OHbpI3FDdtF6DGwGZtBiYi0AkBGk4pmn1EF1RIAV1pjY1O_H6jkKnAEK96fc5MlhK1bRLSOZLSPEbP5LUOsCOAKa3BN5fkyJlCd1D1WEFjVvNcTXxxMtMuF6OC0fMGq-YVxvz-oieKhrUiq5p6PPOPGCvRciPFSAD2rwzWKMiPKFLCVfXAOgWT5vT7rNLTCDE1b5CWGDK7cF9dz-s5ZaUk05-M-X5IuX-KZKmDeGQqrk_HJVV8vkGuMAmjQ4OOJSuYwSimuxiSce6p7tjXEYq2cqPzQxeLXuTCg_BRSnaAWRH-wOoW1XR36Oq47qyO6oV0QvVjusdyv0Wbh19zmTTXg6rHyFmcLNyTz2iAornfhP4byhkZ-uwDaBlQtmISfFSt0PwHrxHmt2WP7ofS6eJ09F-w5aoNtRWVFs7MbveJyNsQ8ClxsvtkNE9eNqa-HjlaF5WgkYse-LmitAXdfSdJF4mhL2vluPWQHsv1XoCsFmH1-hpV_03SBS7-kBXQHlbcrgZPLBPxDrrZVVrNLFrLBLTIWjIm3TpcPs1LimtmHGEqC-w9wi1jc9fYfS2jtpL1pVTtHECBUTNegNXQUJKplh2-RQm0fP2yqIRv8tBwJLUiSJCvtokmuaP-ze2IT6CV6iaE-15OPnbAfKmvflzBE6jyjFggJ_esBkPWYJHZ7x-AEkhENrKbfjpXflHS65GTaF6WhzWW6eJD1zKhKkZ81OdPiNQnmossMFmi5TrThmN9wABcPWXKjcj6Oh5M_TvCqGFQ6lLWCbyCvgpxv7nyTIK_5qTLT3VQtj8zSpZiikcrPdjzLc9dTJDFTNGcbgWVZjh0d-WKXhJ4ojBVzq7wzRrrRcMg2_u2y_8ahhjVt95Ub7Cp6kUjV_0000]--></g></svg>