<svg xmlns="http://www.w3.org/2000/svg" xmlns:xlink="http://www.w3.org/1999/xlink" contentStyleType="text/css" data-diagram-type="CLASS" height="323px" preserveAspectRatio="none" style="width:259px;height:323px;background:#FFFFFF;" version="1.1" viewBox="0 0 259 323" width="259px" zoomAndPan="magnify"><defs/><g><!--cluster horiba.lvlib--><g class="cluster" data-entity="horiba.lvlib" data-source-line="8" data-uid="ent0003" id="cluster_horiba.lvlib"><path d="M8.5,6 L99.1191,6 A3.75,3.75 0 0 1 101.6191,8.5 L108.6191,28.2969 L249.5,28.2969 A2.5,2.5 0 0 1 252,30.7969 L252,314.36 A2.5,2.5 0 0 1 249.5,316.86 L8.5,316.86 A2.5,2.5 0 0 1 6,314.36 L6,8.5 A2.5,2.5 0 0 1 8.5,6" fill="none" style="stroke:#000000;stroke-width:1.5;"/><line style="stroke:#000000;stroke-width:1.5;" x1="6" x2="108.6191" y1="28.2969" y2="28.2969"/><text fill="#000000" font-family="sans-serif" font-size="14" font-weight="bold" lengthAdjust="spacing" textLength="89.6191" x="10" y="20.9951">horiba.lvlib</text></g><!--class GenericDevice--><g class="entity" data-entity="GenericDevice" data-source-line="8" data-uid="ent0002" id="entity_GenericDevice"><rect fill="#FFFFFF" height="259.8594" rx="2.5" ry="2.5" style="stroke:#555555;stroke-width:0.5;" width="213.5986" x="22.2" y="41"/><rect fill="#808080" height="32" rx="2.5" ry="2.5" style="stroke:#808080;stroke-width:0.5;" width="213.5986" x="22.2" y="41"/><rect fill="#808080" height="2.5" style="stroke:#808080;stroke-width:0.5;" width="213.5986" x="22.2" y="70.5"/><rect fill="none" height="259.8594" rx="2.5" ry="2.5" style="stroke:#555555;stroke-width:0.5;" width="213.5986" x="22.2" y="41"/><ellipse cx="73.6644" cy="57" fill="#ADD1B2" rx="11" ry="11" style="stroke:#181818;stroke-width:1;"/><path d="M76.6331,62.6406 Q76.055,62.9375 75.4144,63.0781 Q74.7737,63.2344 74.0706,63.2344 Q71.5706,63.2344 70.2425,61.5938 Q68.93,59.9375 68.93,56.8125 Q68.93,53.6875 70.2425,52.0313 Q71.5706,50.375 74.0706,50.375 Q74.7737,50.375 75.4144,50.5313 Q76.0706,50.6875 76.6331,50.9844 L76.6331,53.7031 Q76.0081,53.125 75.4144,52.8594 Q74.8206,52.5781 74.1956,52.5781 Q72.8519,52.5781 72.1644,53.6563 Q71.4769,54.7188 71.4769,56.8125 Q71.4769,58.9063 72.1644,59.9844 Q72.8519,61.0469 74.1956,61.0469 Q74.8206,61.0469 75.4144,60.7813 Q76.0081,60.5 76.6331,59.9219 L76.6331,62.6406 Z " fill="#000000"/><text fill="#000000" font-family="sans-serif" font-size="14" lengthAdjust="spacing" textLength="102.1699" x="94.1644" y="61.8467">GenericDevice</text><line style="stroke:#555555;stroke-width:0.5;" x1="23.2" x2="234.7986" y1="73" y2="73"/><rect fill="none" height="6" style="stroke:#C82930;stroke-width:1;" width="6" x="30.2" y="83.6484"/><text fill="#000000" font-family="sans-serif" font-size="14" lengthAdjust="spacing" textLength="137.9424" x="42.2" y="89.9951">deviceTerm : String</text><rect fill="none" height="6" style="stroke:#C82930;stroke-width:1;" width="6" x="30.2" y="99.9453"/><text fill="#000000" font-family="sans-serif" font-size="14" lengthAdjust="spacing" textLength="135.7207" x="42.2" y="106.292">deviceType : String</text><rect fill="none" height="6" style="stroke:#C82930;stroke-width:1;" width="6" x="30.2" y="116.2422"/><text fill="#000000" font-family="sans-serif" font-size="14" lengthAdjust="spacing" textLength="74.1084" x="42.2" y="122.5889">index : I32</text><rect fill="none" height="6" style="stroke:#C82930;stroke-width:1;" width="6" x="30.2" y="132.5391"/><text fill="#000000" font-family="sans-serif" font-size="14" lengthAdjust="spacing" textLength="105.2461" x="42.2" y="138.8857">open : Boolean</text><rect fill="none" height="6" style="stroke:#C82930;stroke-width:1;" width="6" x="30.2" y="148.8359"/><text fill="#000000" font-family="sans-serif" font-size="14" lengthAdjust="spacing" textLength="149.6592" x="42.2" y="155.1826">serialNumber : String</text><ellipse cx="33.2" cy="168.1328" fill="none" rx="3" ry="3" style="stroke:#038048;stroke-width:1;"/><text fill="#000000" font-family="sans-serif" font-size="14" lengthAdjust="spacing" textLength="102.7305" x="42.2" y="171.4795">productId : I32</text><line style="stroke:#555555;stroke-width:0.5;" x1="23.2" x2="234.7986" y1="178.7813" y2="178.7813"/><ellipse cx="33.2" cy="192.4297" fill="#84BE84" rx="3" ry="3" style="stroke:#038048;stroke-width:1;"/><text fill="#000000" font-family="sans-serif" font-size="14" lengthAdjust="spacing" text-decoration="underline" textLength="149.208" x="42.2" y="195.7764">Send Receive Parse()</text><ellipse cx="33.2" cy="208.7266" fill="#84BE84" rx="3" ry="3" style="stroke:#038048;stroke-width:1;"/><text fill="#000000" font-family="sans-serif" font-size="14" lengthAdjust="spacing" text-decoration="underline" textLength="153.5898" x="42.2" y="212.0732">ReadDeviceJSONList()</text><ellipse cx="33.2" cy="225.0234" fill="#84BE84" rx="3" ry="3" style="stroke:#038048;stroke-width:1;"/><text fill="#000000" font-family="sans-serif" font-size="14" lengthAdjust="spacing" text-decoration="underline" textLength="170.9395" x="42.2" y="228.3701">DecodeDeviceJSONList()</text><ellipse cx="33.2" cy="241.3203" fill="#84BE84" rx="3" ry="3" style="stroke:#038048;stroke-width:1;"/><text fill="#000000" font-family="sans-serif" font-size="14" lengthAdjust="spacing" text-decoration="underline" textLength="187.5986" x="42.2" y="244.667">ReadDeviceTypeAsString()</text><ellipse cx="33.2" cy="257.6172" fill="#84BE84" rx="3" ry="3" style="stroke:#038048;stroke-width:1;"/><text fill="#000000" font-family="sans-serif" font-size="14" lengthAdjust="spacing" textLength="96.9404" x="42.2" y="260.9639">DeviceClose()</text><ellipse cx="33.2" cy="273.9141" fill="#84BE84" rx="3" ry="3" style="stroke:#038048;stroke-width:1;"/><text fill="#000000" font-family="sans-serif" font-size="14" lengthAdjust="spacing" textLength="96.1953" x="42.2" y="277.2607">DeviceOpen()</text><ellipse cx="33.2" cy="290.2109" fill="#84BE84" rx="3" ry="3" style="stroke:#038048;stroke-width:1;"/><text fill="#000000" font-family="sans-serif" font-size="14" lengthAdjust="spacing" textLength="107.6182" x="42.2" y="293.5576">DeviceIsOpen()</text></g><!--SRC=[ZP31IWCn48RlUOf1BueeHH6aDzjIhKWhNLyWcupjq6nccQH5ANrtassbfRi79-IG___uPp818tXTOQYrmG9hBJgoG5-55Vdygc3eT0W3RLOBuRMtGtO9k1mtrS9OBCe1UMpg71cpZmUWrzGvy8ewPRGQFlNoKITqv3fTA3b6hi2Ie8d4NfcS0XTB5YhrdTiuAlilw578Z7131YzWgxPVXCxkuDOsqYTA1Nqeef1VjCoV6ZjCyXQ_apvvk3-ANADFse3PeVP7FQJssatNLOdIphgfXUtQn8dzomjHHp8xs5OObvoH0hs5EHga3SA7be1NrrtSFErl_y-tOZPzfn2xkH4QjlWVyfYOD_4SziDdzYGisqF7-wdEz5bQIeSy2GT3xPHIlm00]--></g></svg>