<?xml version="1.0" encoding="us-ascii" standalone="no"?><svg xmlns="http://www.w3.org/2000/svg" xmlns:xlink="http://www.w3.org/1999/xlink" contentStyleType="text/css" height="1197px" preserveAspectRatio="none" style="width:993px;height:1197px;background:#FFFFFF;" version="1.1" viewBox="0 0 993 1197" width="993px" zoomAndPan="magnify"><defs/><g><!--cluster horiba.lvlib--><g id="cluster_horiba.lvlib"><path d="M8.5,6 L95.5,6 A3.75,3.75 0 0 1 98,8.5 L105,28.2969 L773.5,28.2969 A2.5,2.5 0 0 1 776,30.7969 L776,1188.31 A2.5,2.5 0 0 1 773.5,1190.81 L8.5,1190.81 A2.5,2.5 0 0 1 6,1188.31 L6,8.5 A2.5,2.5 0 0 1 8.5,6 " fill="none" style="stroke:#000000;stroke-width:1.5;"/><line style="stroke:#000000;stroke-width:1.5;" x1="6" x2="105" y1="28.2969" y2="28.2969"/><text fill="#000000" font-family="sans-serif" font-size="14" font-weight="bold" lengthAdjust="spacing" textLength="86" x="10" y="20.9951">horiba.lvlib</text></g><!--cluster WebSockets.lvlib--><g id="cluster_WebSockets.lvlib"><path d="M802.5,716.98 L937.5,716.98 A3.75,3.75 0 0 1 940,719.48 L947,739.2769 L983.5,739.2769 A2.5,2.5 0 0 1 986,741.7769 L986,813.48 A2.5,2.5 0 0 1 983.5,815.98 L802.5,815.98 A2.5,2.5 0 0 1 800,813.48 L800,719.48 A2.5,2.5 0 0 1 802.5,716.98 " fill="none" style="stroke:#000000;stroke-width:1.5;"/><line style="stroke:#000000;stroke-width:1.5;" x1="800" x2="947" y1="739.2769" y2="739.2769"/><text fill="#000000" font-family="sans-serif" font-size="14" font-weight="bold" lengthAdjust="spacing" textLength="134" x="804" y="731.9751">WebSockets.lvlib</text></g><!--class CCD--><g id="elem_CCD"><rect codeLine="8" fill="#FFFFFF" height="797.6563" id="CCD" rx="2.5" ry="2.5" style="stroke:#555555;stroke-width:0.5;" width="265" x="22.5" y="377.15"/><rect fill="#808080" height="32" rx="2.5" ry="2.5" style="stroke:#808080;stroke-width:0.5;" width="265" x="22.5" y="377.15"/><rect fill="#808080" height="2.5" style="stroke:#808080;stroke-width:0.5;" width="265" x="22.5" y="406.65"/><rect codeLine="8" fill="none" height="797.6563" id="CCD" rx="2.5" ry="2.5" style="stroke:#555555;stroke-width:0.5;" width="265" x="22.5" y="377.15"/><ellipse cx="135.25" cy="393.15" fill="#ADD1B2" rx="11" ry="11" style="stroke:#181818;stroke-width:1.0;"/><path d="M138.2188,398.7906 Q137.6406,399.0875 137,399.2281 Q136.3594,399.3844 135.6563,399.3844 Q133.1563,399.3844 131.8281,397.7438 Q130.5156,396.0875 130.5156,392.9625 Q130.5156,389.8375 131.8281,388.1813 Q133.1563,386.525 135.6563,386.525 Q136.3594,386.525 137,386.6813 Q137.6563,386.8375 138.2188,387.1344 L138.2188,389.8531 Q137.5938,389.275 137,389.0094 Q136.4063,388.7281 135.7813,388.7281 Q134.4375,388.7281 133.75,389.8063 Q133.0625,390.8688 133.0625,392.9625 Q133.0625,395.0563 133.75,396.1344 Q134.4375,397.1969 135.7813,397.1969 Q136.4063,397.1969 137,396.9313 Q137.5938,396.65 138.2188,396.0719 L138.2188,398.7906 Z " fill="#000000"/><text fill="#000000" font-family="sans-serif" font-size="14" lengthAdjust="spacing" textLength="31" x="155.75" y="397.9967">CCD</text><line style="stroke:#555555;stroke-width:0.5;" x1="23.5" x2="286.5" y1="409.15" y2="409.15"/><line style="stroke:#555555;stroke-width:0.5;" x1="23.5" x2="286.5" y1="417.15" y2="417.15"/><ellipse cx="33.5" cy="430.7984" fill="#84BE84" rx="3" ry="3" style="stroke:#038048;stroke-width:1.0;"/><text fill="#000000" font-family="sans-serif" font-size="14" lengthAdjust="spacing" text-decoration="underline" textLength="193" x="42.5" y="434.1451">getSpeedAndGainSettings()</text><ellipse cx="33.5" cy="447.0953" fill="#84BE84" rx="3" ry="3" style="stroke:#038048;stroke-width:1.0;"/><text fill="#000000" font-family="sans-serif" font-size="14" lengthAdjust="spacing" text-decoration="underline" textLength="135" x="42.5" y="450.442">parse1dOr2dArray()</text><ellipse cx="33.5" cy="463.3922" fill="#84BE84" rx="3" ry="3" style="stroke:#038048;stroke-width:1.0;"/><text fill="#000000" font-family="sans-serif" font-size="14" lengthAdjust="spacing" text-decoration="underline" textLength="108" x="42.5" y="466.7389">parseCcdData()</text><ellipse cx="33.5" cy="479.6891" fill="#84BE84" rx="3" ry="3" style="stroke:#038048;stroke-width:1.0;"/><text fill="#000000" font-family="sans-serif" font-size="14" lengthAdjust="spacing" text-decoration="underline" textLength="125" x="42.5" y="483.0357">parseConfigData()</text><ellipse cx="33.5" cy="495.9859" fill="#84BE84" rx="3" ry="3" style="stroke:#038048;stroke-width:1.0;"/><text fill="#000000" font-family="sans-serif" font-size="14" lengthAdjust="spacing" text-decoration="underline" textLength="133" x="42.5" y="499.3326">parseRangeMode()</text><ellipse cx="33.5" cy="512.2828" fill="#84BE84" rx="3" ry="3" style="stroke:#038048;stroke-width:1.0;"/><text fill="#000000" font-family="sans-serif" font-size="14" lengthAdjust="spacing" text-decoration="underline" textLength="164" x="42.5" y="515.6295">stitchingModeAverage()</text><ellipse cx="33.5" cy="528.5797" fill="#84BE84" rx="3" ry="3" style="stroke:#038048;stroke-width:1.0;"/><text fill="#000000" font-family="sans-serif" font-size="14" lengthAdjust="spacing" text-decoration="underline" textLength="154" x="42.5" y="531.9264">stitchingModeSimple()</text><ellipse cx="33.5" cy="544.8766" fill="#84BE84" rx="3" ry="3" style="stroke:#038048;stroke-width:1.0;"/><text fill="#000000" font-family="sans-serif" font-size="14" lengthAdjust="spacing" text-decoration="underline" textLength="121" x="42.5" y="548.2232">acquisitionAbort()</text><ellipse cx="33.5" cy="561.1734" fill="#84BE84" rx="3" ry="3" style="stroke:#038048;stroke-width:1.0;"/><text fill="#000000" font-family="sans-serif" font-size="14" lengthAdjust="spacing" text-decoration="underline" textLength="116" x="42.5" y="564.5201">acquisitionStart()</text><ellipse cx="33.5" cy="577.4703" fill="#84BE84" rx="3" ry="3" style="stroke:#038048;stroke-width:1.0;"/><text fill="#000000" font-family="sans-serif" font-size="14" lengthAdjust="spacing" text-decoration="underline" textLength="218" x="42.5" y="580.817">calculateRangeModePositions()</text><ellipse cx="33.5" cy="593.7672" fill="#84BE84" rx="3" ry="3" style="stroke:#038048;stroke-width:1.0;"/><text fill="#000000" font-family="sans-serif" font-size="14" lengthAdjust="spacing" text-decoration="underline" textLength="239" x="42.5" y="597.1139">convertWavelengthToRamanShift()</text><ellipse cx="33.5" cy="610.0641" fill="#84BE84" rx="3" ry="3" style="stroke:#038048;stroke-width:1.0;"/><text fill="#000000" font-family="sans-serif" font-size="14" lengthAdjust="spacing" text-decoration="underline" textLength="101" x="42.5" y="613.4107">getAcqCount()</text><ellipse cx="33.5" cy="626.3609" fill="#84BE84" rx="3" ry="3" style="stroke:#038048;stroke-width:1.0;"/><text fill="#000000" font-family="sans-serif" font-size="14" lengthAdjust="spacing" text-decoration="underline" textLength="142" x="42.5" y="629.7076">getAcquisitionBusy()</text><ellipse cx="33.5" cy="642.6578" fill="#84BE84" rx="3" ry="3" style="stroke:#038048;stroke-width:1.0;"/><text fill="#000000" font-family="sans-serif" font-size="14" lengthAdjust="spacing" text-decoration="underline" textLength="140" x="42.5" y="646.0045">getAcquisitionData()</text><ellipse cx="33.5" cy="658.9547" fill="#84BE84" rx="3" ry="3" style="stroke:#038048;stroke-width:1.0;"/><text fill="#000000" font-family="sans-serif" font-size="14" lengthAdjust="spacing" text-decoration="underline" textLength="151" x="42.5" y="662.3014">getAcquisitionReady()</text><ellipse cx="33.5" cy="675.2516" fill="#84BE84" rx="3" ry="3" style="stroke:#038048;stroke-width:1.0;"/><text fill="#000000" font-family="sans-serif" font-size="14" lengthAdjust="spacing" text-decoration="underline" textLength="154" x="42.5" y="678.5982">getChipTemperature()</text><ellipse cx="33.5" cy="691.5484" fill="#84BE84" rx="3" ry="3" style="stroke:#038048;stroke-width:1.0;"/><text fill="#000000" font-family="sans-serif" font-size="14" lengthAdjust="spacing" text-decoration="underline" textLength="114" x="42.5" y="694.8951">getCleanCount()</text><ellipse cx="33.5" cy="707.8453" fill="#84BE84" rx="3" ry="3" style="stroke:#038048;stroke-width:1.0;"/><text fill="#000000" font-family="sans-serif" font-size="14" lengthAdjust="spacing" text-decoration="underline" textLength="77" x="42.5" y="711.192">getConfig()</text><ellipse cx="33.5" cy="724.1422" fill="#84BE84" rx="3" ry="3" style="stroke:#038048;stroke-width:1.0;"/><text fill="#000000" font-family="sans-serif" font-size="14" lengthAdjust="spacing" text-decoration="underline" textLength="94" x="42.5" y="727.4889">getDataSize()</text><ellipse cx="33.5" cy="740.4391" fill="#84BE84" rx="3" ry="3" style="stroke:#038048;stroke-width:1.0;"/><text fill="#000000" font-family="sans-serif" font-size="14" lengthAdjust="spacing" text-decoration="underline" textLength="132" x="42.5" y="743.7857">getExposureTime()</text><ellipse cx="33.5" cy="756.7359" fill="#84BE84" rx="3" ry="3" style="stroke:#038048;stroke-width:1.0;"/><text fill="#000000" font-family="sans-serif" font-size="14" lengthAdjust="spacing" text-decoration="underline" textLength="100" x="42.5" y="760.0826">getFitParams()</text><ellipse cx="33.5" cy="773.0328" fill="#84BE84" rx="3" ry="3" style="stroke:#038048;stroke-width:1.0;"/><text fill="#000000" font-family="sans-serif" font-size="14" lengthAdjust="spacing" text-decoration="underline" textLength="64" x="42.5" y="776.3795">getGain()</text><ellipse cx="33.5" cy="789.3297" fill="#84BE84" rx="3" ry="3" style="stroke:#038048;stroke-width:1.0;"/><text fill="#000000" font-family="sans-serif" font-size="14" lengthAdjust="spacing" text-decoration="underline" textLength="126" x="42.5" y="792.6764">getParallelSpeed()</text><ellipse cx="33.5" cy="805.6266" fill="#84BE84" rx="3" ry="3" style="stroke:#038048;stroke-width:1.0;"/><text fill="#000000" font-family="sans-serif" font-size="14" lengthAdjust="spacing" text-decoration="underline" textLength="99" x="42.5" y="808.9732">getSignalOut()</text><ellipse cx="33.5" cy="821.9234" fill="#84BE84" rx="3" ry="3" style="stroke:#038048;stroke-width:1.0;"/><text fill="#000000" font-family="sans-serif" font-size="14" lengthAdjust="spacing" text-decoration="underline" textLength="78" x="42.5" y="825.2701">getSpeed()</text><ellipse cx="33.5" cy="838.2203" fill="#84BE84" rx="3" ry="3" style="stroke:#038048;stroke-width:1.0;"/><text fill="#000000" font-family="sans-serif" font-size="14" lengthAdjust="spacing" text-decoration="underline" textLength="146" x="42.5" y="841.567">getTimerResolution()</text><ellipse cx="33.5" cy="854.5172" fill="#84BE84" rx="3" ry="3" style="stroke:#038048;stroke-width:1.0;"/><text fill="#000000" font-family="sans-serif" font-size="14" lengthAdjust="spacing" text-decoration="underline" textLength="94" x="42.5" y="857.8639">getTriggerIn()</text><ellipse cx="33.5" cy="870.8141" fill="#84BE84" rx="3" ry="3" style="stroke:#038048;stroke-width:1.0;"/><text fill="#000000" font-family="sans-serif" font-size="14" lengthAdjust="spacing" text-decoration="underline" textLength="181" x="42.5" y="874.1607">getXAxisConversionType()</text><ellipse cx="33.5" cy="887.1109" fill="#84BE84" rx="3" ry="3" style="stroke:#038048;stroke-width:1.0;"/><text fill="#000000" font-family="sans-serif" font-size="14" lengthAdjust="spacing" text-decoration="underline" textLength="55" x="42.5" y="890.4576">restart()</text><ellipse cx="33.5" cy="903.4078" fill="#84BE84" rx="3" ry="3" style="stroke:#038048;stroke-width:1.0;"/><text fill="#000000" font-family="sans-serif" font-size="14" lengthAdjust="spacing" text-decoration="underline" textLength="100" x="42.5" y="906.7545">setAcqCount()</text><ellipse cx="33.5" cy="919.7047" fill="#84BE84" rx="3" ry="3" style="stroke:#038048;stroke-width:1.0;"/><text fill="#000000" font-family="sans-serif" font-size="14" lengthAdjust="spacing" text-decoration="underline" textLength="106" x="42.5" y="923.0514">setAcqFormat()</text><ellipse cx="33.5" cy="936.0016" fill="#84BE84" rx="3" ry="3" style="stroke:#038048;stroke-width:1.0;"/><text fill="#000000" font-family="sans-serif" font-size="14" lengthAdjust="spacing" text-decoration="underline" textLength="160" x="42.5" y="939.3482">setCenterWavelength()</text><ellipse cx="33.5" cy="952.2984" fill="#84BE84" rx="3" ry="3" style="stroke:#038048;stroke-width:1.0;"/><text fill="#000000" font-family="sans-serif" font-size="14" lengthAdjust="spacing" text-decoration="underline" textLength="113" x="42.5" y="955.6451">setCleanCount()</text><ellipse cx="33.5" cy="968.5953" fill="#84BE84" rx="3" ry="3" style="stroke:#038048;stroke-width:1.0;"/><text fill="#000000" font-family="sans-serif" font-size="14" lengthAdjust="spacing" text-decoration="underline" textLength="131" x="42.5" y="971.942">setExposureTime()</text><ellipse cx="33.5" cy="984.8922" fill="#84BE84" rx="3" ry="3" style="stroke:#038048;stroke-width:1.0;"/><text fill="#000000" font-family="sans-serif" font-size="14" lengthAdjust="spacing" text-decoration="underline" textLength="63" x="42.5" y="988.2389">setGain()</text><ellipse cx="33.5" cy="1001.1891" fill="#84BE84" rx="3" ry="3" style="stroke:#038048;stroke-width:1.0;"/><text fill="#000000" font-family="sans-serif" font-size="14" lengthAdjust="spacing" text-decoration="underline" textLength="125" x="42.5" y="1004.5357">setParallelSpeed()</text><ellipse cx="33.5" cy="1017.4859" fill="#84BE84" rx="3" ry="3" style="stroke:#038048;stroke-width:1.0;"/><text fill="#000000" font-family="sans-serif" font-size="14" lengthAdjust="spacing" text-decoration="underline" textLength="54" x="42.5" y="1020.8326">setRoi()</text><ellipse cx="33.5" cy="1033.7828" fill="#84BE84" rx="3" ry="3" style="stroke:#038048;stroke-width:1.0;"/><text fill="#000000" font-family="sans-serif" font-size="14" lengthAdjust="spacing" text-decoration="underline" textLength="98" x="42.5" y="1037.1295">setSignalOut()</text><ellipse cx="33.5" cy="1050.0797" fill="#84BE84" rx="3" ry="3" style="stroke:#038048;stroke-width:1.0;"/><text fill="#000000" font-family="sans-serif" font-size="14" lengthAdjust="spacing" text-decoration="underline" textLength="77" x="42.5" y="1053.4264">setSpeed()</text><ellipse cx="33.5" cy="1066.3766" fill="#84BE84" rx="3" ry="3" style="stroke:#038048;stroke-width:1.0;"/><text fill="#000000" font-family="sans-serif" font-size="14" lengthAdjust="spacing" text-decoration="underline" textLength="145" x="42.5" y="1069.7232">setTimerResolution()</text><ellipse cx="33.5" cy="1082.6734" fill="#84BE84" rx="3" ry="3" style="stroke:#038048;stroke-width:1.0;"/><text fill="#000000" font-family="sans-serif" font-size="14" lengthAdjust="spacing" text-decoration="underline" textLength="93" x="42.5" y="1086.0201">setTriggerIn()</text><ellipse cx="33.5" cy="1098.9703" fill="#84BE84" rx="3" ry="3" style="stroke:#038048;stroke-width:1.0;"/><text fill="#000000" font-family="sans-serif" font-size="14" lengthAdjust="spacing" text-decoration="underline" textLength="180" x="42.5" y="1102.317">setXAxisConversionType()</text><ellipse cx="33.5" cy="1115.2672" fill="#84BE84" rx="3" ry="3" style="stroke:#038048;stroke-width:1.0;"/><text fill="#000000" font-family="sans-serif" font-size="14" lengthAdjust="spacing" textLength="96" x="42.5" y="1118.6139">DeviceClose()</text><ellipse cx="33.5" cy="1131.5641" fill="#84BE84" rx="3" ry="3" style="stroke:#038048;stroke-width:1.0;"/><text fill="#000000" font-family="sans-serif" font-size="14" lengthAdjust="spacing" textLength="106" x="42.5" y="1134.9107">DeviceIsOpen()</text><ellipse cx="33.5" cy="1147.8609" fill="#84BE84" rx="3" ry="3" style="stroke:#038048;stroke-width:1.0;"/><text fill="#000000" font-family="sans-serif" font-size="14" lengthAdjust="spacing" textLength="95" x="42.5" y="1151.2076">DeviceOpen()</text><ellipse cx="33.5" cy="1164.1578" fill="#84BE84" rx="3" ry="3" style="stroke:#038048;stroke-width:1.0;"/><text fill="#000000" font-family="sans-serif" font-size="14" lengthAdjust="spacing" textLength="93" x="42.5" y="1167.5045">getChipSize()</text></g><!--class GenericDevice--><g id="elem_GenericDevice"><rect codeLine="80" fill="#FFFFFF" height="259.8594" id="GenericDevice" rx="2.5" ry="2.5" style="stroke:#555555;stroke-width:0.5;" width="210" x="253" y="49.15"/><rect fill="#808080" height="32" rx="2.5" ry="2.5" style="stroke:#808080;stroke-width:0.5;" width="210" x="253" y="49.15"/><rect fill="#808080" height="2.5" style="stroke:#808080;stroke-width:0.5;" width="210" x="253" y="78.65"/><rect codeLine="80" fill="none" height="259.8594" id="GenericDevice" rx="2.5" ry="2.5" style="stroke:#555555;stroke-width:0.5;" width="210" x="253" y="49.15"/><ellipse cx="303.25" cy="65.15" fill="#ADD1B2" rx="11" ry="11" style="stroke:#181818;stroke-width:1.0;"/><path d="M306.2188,70.7906 Q305.6406,71.0875 305,71.2281 Q304.3594,71.3844 303.6563,71.3844 Q301.1563,71.3844 299.8281,69.7437 Q298.5156,68.0875 298.5156,64.9625 Q298.5156,61.8375 299.8281,60.1812 Q301.1563,58.525 303.6563,58.525 Q304.3594,58.525 305,58.6812 Q305.6563,58.8375 306.2188,59.1344 L306.2188,61.8531 Q305.5938,61.275 305,61.0094 Q304.4063,60.7281 303.7813,60.7281 Q302.4375,60.7281 301.75,61.8062 Q301.0625,62.8687 301.0625,64.9625 Q301.0625,67.0562 301.75,68.1344 Q302.4375,69.1969 303.7813,69.1969 Q304.4063,69.1969 305,68.9312 Q305.5938,68.65 306.2188,68.0719 L306.2188,70.7906 Z " fill="#000000"/><text fill="#000000" font-family="sans-serif" font-size="14" lengthAdjust="spacing" textLength="101" x="323.75" y="69.9967">GenericDevice</text><line style="stroke:#555555;stroke-width:0.5;" x1="254" x2="462" y1="81.15" y2="81.15"/><rect fill="none" height="6" style="stroke:#C82930;stroke-width:1.0;" width="6" x="261" y="91.7984"/><text fill="#000000" font-family="sans-serif" font-size="14" lengthAdjust="spacing" textLength="134" x="273" y="98.1451">deviceTerm : String</text><rect fill="none" height="6" style="stroke:#C82930;stroke-width:1.0;" width="6" x="261" y="108.0953"/><text fill="#000000" font-family="sans-serif" font-size="14" lengthAdjust="spacing" textLength="132" x="273" y="114.442">deviceType : String</text><rect fill="none" height="6" style="stroke:#C82930;stroke-width:1.0;" width="6" x="261" y="124.3922"/><text fill="#000000" font-family="sans-serif" font-size="14" lengthAdjust="spacing" textLength="71" x="273" y="130.7389">index : I32</text><rect fill="none" height="6" style="stroke:#C82930;stroke-width:1.0;" width="6" x="261" y="140.6891"/><text fill="#000000" font-family="sans-serif" font-size="14" lengthAdjust="spacing" textLength="106" x="273" y="147.0357">open : Boolean</text><rect fill="none" height="6" style="stroke:#C82930;stroke-width:1.0;" width="6" x="261" y="156.9859"/><text fill="#000000" font-family="sans-serif" font-size="14" lengthAdjust="spacing" textLength="144" x="273" y="163.3326">serialNumber : String</text><ellipse cx="264" cy="176.2828" fill="none" rx="3" ry="3" style="stroke:#038048;stroke-width:1.0;"/><text fill="#000000" font-family="sans-serif" font-size="14" lengthAdjust="spacing" textLength="100" x="273" y="179.6295">productId : I32</text><line style="stroke:#555555;stroke-width:0.5;" x1="254" x2="462" y1="186.9312" y2="186.9312"/><ellipse cx="264" cy="200.5797" fill="#84BE84" rx="3" ry="3" style="stroke:#038048;stroke-width:1.0;"/><text fill="#000000" font-family="sans-serif" font-size="14" lengthAdjust="spacing" text-decoration="underline" textLength="148" x="273" y="203.9264">Send Receive Parse()</text><ellipse cx="264" cy="216.8766" fill="#84BE84" rx="3" ry="3" style="stroke:#038048;stroke-width:1.0;"/><text fill="#000000" font-family="sans-serif" font-size="14" lengthAdjust="spacing" text-decoration="underline" textLength="149" x="273" y="220.2232">ReadDeviceJSONList()</text><ellipse cx="264" cy="233.1734" fill="#84BE84" rx="3" ry="3" style="stroke:#038048;stroke-width:1.0;"/><text fill="#000000" font-family="sans-serif" font-size="14" lengthAdjust="spacing" text-decoration="underline" textLength="168" x="273" y="236.5201">DecodeDeviceJSONList()</text><ellipse cx="264" cy="249.4703" fill="#84BE84" rx="3" ry="3" style="stroke:#038048;stroke-width:1.0;"/><text fill="#000000" font-family="sans-serif" font-size="14" lengthAdjust="spacing" text-decoration="underline" textLength="184" x="273" y="252.817">ReadDeviceTypeAsString()</text><ellipse cx="264" cy="265.7672" fill="#84BE84" rx="3" ry="3" style="stroke:#038048;stroke-width:1.0;"/><text fill="#000000" font-family="sans-serif" font-size="14" lengthAdjust="spacing" textLength="96" x="273" y="269.1139">DeviceClose()</text><ellipse cx="264" cy="282.0641" fill="#84BE84" rx="3" ry="3" style="stroke:#038048;stroke-width:1.0;"/><text fill="#000000" font-family="sans-serif" font-size="14" lengthAdjust="spacing" textLength="95" x="273" y="285.4107">DeviceOpen()</text><ellipse cx="264" cy="298.3609" fill="#84BE84" rx="3" ry="3" style="stroke:#038048;stroke-width:1.0;"/><text fill="#000000" font-family="sans-serif" font-size="14" lengthAdjust="spacing" textLength="106" x="273" y="301.7076">DeviceIsOpen()</text></g><!--class Communicator--><g id="elem_Communicator"><rect codeLine="60" fill="#FFFFFF" height="276.1563" id="Communicator" rx="2.5" ry="2.5" style="stroke:#555555;stroke-width:0.5;" width="261" x="498.5" y="41"/><rect fill="#808080" height="32" rx="2.5" ry="2.5" style="stroke:#808080;stroke-width:0.5;" width="261" x="498.5" y="41"/><rect fill="#808080" height="2.5" style="stroke:#808080;stroke-width:0.5;" width="261" x="498.5" y="70.5"/><rect codeLine="60" fill="none" height="276.1563" id="Communicator" rx="2.5" ry="2.5" style="stroke:#555555;stroke-width:0.5;" width="261" x="498.5" y="41"/><ellipse cx="574.25" cy="57" fill="#ADD1B2" rx="11" ry="11" style="stroke:#181818;stroke-width:1.0;"/><path d="M577.2188,62.6406 Q576.6406,62.9375 576,63.0781 Q575.3594,63.2344 574.6563,63.2344 Q572.1563,63.2344 570.8281,61.5938 Q569.5156,59.9375 569.5156,56.8125 Q569.5156,53.6875 570.8281,52.0313 Q572.1563,50.375 574.6563,50.375 Q575.3594,50.375 576,50.5313 Q576.6563,50.6875 577.2188,50.9844 L577.2188,53.7031 Q576.5938,53.125 576,52.8594 Q575.4063,52.5781 574.7813,52.5781 Q573.4375,52.5781 572.75,53.6563 Q572.0625,54.7188 572.0625,56.8125 Q572.0625,58.9063 572.75,59.9844 Q573.4375,61.0469 574.7813,61.0469 Q575.4063,61.0469 576,60.7813 Q576.5938,60.5 577.2188,59.9219 L577.2188,62.6406 Z " fill="#000000"/><text fill="#000000" font-family="sans-serif" font-size="14" lengthAdjust="spacing" textLength="101" x="594.75" y="61.8467">Communicator</text><line style="stroke:#555555;stroke-width:0.5;" x1="499.5" x2="758.5" y1="73" y2="73"/><rect fill="none" height="6" style="stroke:#C82930;stroke-width:1.0;" width="6" x="506.5" y="83.6484"/><text fill="#000000" font-family="sans-serif" font-size="14" lengthAdjust="spacing" textLength="233" x="518.5" y="89.9951">WebSocket Connection : LV Class</text><rect fill="none" height="6" style="stroke:#C82930;stroke-width:1.0;" width="6" x="506.5" y="99.9453"/><text fill="#000000" font-family="sans-serif" font-size="14" lengthAdjust="spacing" textLength="106" x="518.5" y="106.292">ID counter : I32</text><rect fill="none" height="6" style="stroke:#C82930;stroke-width:1.0;" width="6" x="506.5" y="116.2422"/><text fill="#000000" font-family="sans-serif" font-size="14" lengthAdjust="spacing" textLength="235" x="518.5" y="122.5889">connectionEstablished? : Boolean</text><line style="stroke:#555555;stroke-width:0.5;" x1="499.5" x2="758.5" y1="129.8906" y2="129.8906"/><ellipse cx="509.5" cy="143.5391" fill="#84BE84" rx="3" ry="3" style="stroke:#038048;stroke-width:1.0;"/><text fill="#000000" font-family="sans-serif" font-size="14" lengthAdjust="spacing" text-decoration="underline" textLength="161" x="518.5" y="146.8857">JSON Parse Command()</text><ellipse cx="509.5" cy="159.8359" fill="#84BE84" rx="3" ry="3" style="stroke:#038048;stroke-width:1.0;"/><text fill="#000000" font-family="sans-serif" font-size="14" lengthAdjust="spacing" text-decoration="underline" textLength="131" x="518.5" y="163.1826">JSON Parse Errors()</text><ellipse cx="509.5" cy="176.1328" fill="#84BE84" rx="3" ry="3" style="stroke:#038048;stroke-width:1.0;"/><text fill="#000000" font-family="sans-serif" font-size="14" lengthAdjust="spacing" text-decoration="underline" textLength="104" x="518.5" y="179.4795">JSON Parse ID()</text><ellipse cx="509.5" cy="192.4297" fill="#84BE84" rx="3" ry="3" style="stroke:#038048;stroke-width:1.0;"/><text fill="#000000" font-family="sans-serif" font-size="14" lengthAdjust="spacing" text-decoration="underline" textLength="115" x="518.5" y="195.7764">JSON Parse Info()</text><ellipse cx="509.5" cy="208.7266" fill="#84BE84" rx="3" ry="3" style="stroke:#038048;stroke-width:1.0;"/><text fill="#000000" font-family="sans-serif" font-size="14" lengthAdjust="spacing" text-decoration="underline" textLength="142" x="518.5" y="212.0732">JSON Parse Results()</text><ellipse cx="509.5" cy="225.0234" fill="#84BE84" rx="3" ry="3" style="stroke:#038048;stroke-width:1.0;"/><text fill="#000000" font-family="sans-serif" font-size="14" lengthAdjust="spacing" text-decoration="underline" textLength="93" x="518.5" y="228.3701">Overwrite ID()</text><ellipse cx="509.5" cy="241.3203" fill="#84BE84" rx="3" ry="3" style="stroke:#038048;stroke-width:1.0;"/><text fill="#000000" font-family="sans-serif" font-size="14" lengthAdjust="spacing" textLength="128" x="518.5" y="244.667">OpenConnection()</text><ellipse cx="509.5" cy="257.6172" fill="#84BE84" rx="3" ry="3" style="stroke:#038048;stroke-width:1.0;"/><text fill="#000000" font-family="sans-serif" font-size="14" lengthAdjust="spacing" textLength="129" x="518.5" y="260.9639">CloseConnection()</text><ellipse cx="509.5" cy="273.9141" fill="#84BE84" rx="3" ry="3" style="stroke:#038048;stroke-width:1.0;"/><text fill="#000000" font-family="sans-serif" font-size="14" lengthAdjust="spacing" textLength="158" x="518.5" y="277.2607">SendAndAskForReply()</text><polygon fill="#FFFF44" points="509.5,285.2109,513.5,289.2109,509.5,293.2109,505.5,289.2109" style="stroke:#B38D22;stroke-width:1.0;"/><text fill="#000000" font-family="sans-serif" font-size="14" lengthAdjust="spacing" textLength="94" x="518.5" y="293.5576">ReceiveJson()</text><polygon fill="#FFFF44" points="509.5,301.5078,513.5,305.5078,509.5,309.5078,505.5,305.5078" style="stroke:#B38D22;stroke-width:1.0;"/><text fill="#000000" font-family="sans-serif" font-size="14" lengthAdjust="spacing" textLength="75" x="518.5" y="309.8545">SendJson()</text></g><!--class Monochromator--><g id="elem_Monochromator"><rect codeLine="98" fill="#FFFFFF" height="422.8281" id="Monochromator" rx="2.5" ry="2.5" style="stroke:#555555;stroke-width:0.5;" width="190" x="323" y="564.57"/><rect fill="#808080" height="32" rx="2.5" ry="2.5" style="stroke:#808080;stroke-width:0.5;" width="190" x="323" y="564.57"/><rect fill="#808080" height="2.5" style="stroke:#808080;stroke-width:0.5;" width="190" x="323" y="594.07"/><rect codeLine="98" fill="none" height="422.8281" id="Monochromator" rx="2.5" ry="2.5" style="stroke:#555555;stroke-width:0.5;" width="190" x="323" y="564.57"/><ellipse cx="359.6" cy="580.57" fill="#ADD1B2" rx="11" ry="11" style="stroke:#181818;stroke-width:1.0;"/><path d="M362.5688,586.2106 Q361.9906,586.5075 361.35,586.6481 Q360.7094,586.8044 360.0063,586.8044 Q357.5063,586.8044 356.1781,585.1637 Q354.8656,583.5075 354.8656,580.3825 Q354.8656,577.2575 356.1781,575.6012 Q357.5063,573.945 360.0063,573.945 Q360.7094,573.945 361.35,574.1012 Q362.0063,574.2575 362.5688,574.5544 L362.5688,577.2731 Q361.9438,576.695 361.35,576.4294 Q360.7563,576.1481 360.1313,576.1481 Q358.7875,576.1481 358.1,577.2262 Q357.4125,578.2887 357.4125,580.3825 Q357.4125,582.4762 358.1,583.5544 Q358.7875,584.6169 360.1313,584.6169 Q360.7563,584.6169 361.35,584.3512 Q361.9438,584.07 362.5688,583.4919 L362.5688,586.2106 Z " fill="#000000"/><text fill="#000000" font-family="sans-serif" font-size="14" lengthAdjust="spacing" textLength="110" x="378.4" y="585.4167">Monochromator</text><line style="stroke:#555555;stroke-width:0.5;" x1="324" x2="512" y1="596.57" y2="596.57"/><line style="stroke:#555555;stroke-width:0.5;" x1="324" x2="512" y1="604.57" y2="604.57"/><ellipse cx="334" cy="618.2184" fill="#84BE84" rx="3" ry="3" style="stroke:#038048;stroke-width:1.0;"/><text fill="#000000" font-family="sans-serif" font-size="14" lengthAdjust="spacing" text-decoration="underline" textLength="87" x="343" y="621.5651">setPosition()</text><ellipse cx="334" cy="634.5153" fill="#84BE84" rx="3" ry="3" style="stroke:#038048;stroke-width:1.0;"/><text fill="#000000" font-family="sans-serif" font-size="14" lengthAdjust="spacing" text-decoration="underline" textLength="164" x="343" y="637.862">getFilterWheelPosition()</text><ellipse cx="334" cy="650.8122" fill="#84BE84" rx="3" ry="3" style="stroke:#038048;stroke-width:1.0;"/><text fill="#000000" font-family="sans-serif" font-size="14" lengthAdjust="spacing" text-decoration="underline" textLength="124" x="343" y="654.1589">moveFilterWheel()</text><ellipse cx="334" cy="667.1091" fill="#84BE84" rx="3" ry="3" style="stroke:#038048;stroke-width:1.0;"/><text fill="#000000" font-family="sans-serif" font-size="14" lengthAdjust="spacing" text-decoration="underline" textLength="138" x="343" y="670.4557">getGratingPosition()</text><ellipse cx="334" cy="683.4059" fill="#84BE84" rx="3" ry="3" style="stroke:#038048;stroke-width:1.0;"/><text fill="#000000" font-family="sans-serif" font-size="14" lengthAdjust="spacing" text-decoration="underline" textLength="98" x="343" y="686.7526">moveGrating()</text><ellipse cx="334" cy="699.7028" fill="#84BE84" rx="3" ry="3" style="stroke:#038048;stroke-width:1.0;"/><text fill="#000000" font-family="sans-serif" font-size="14" lengthAdjust="spacing" text-decoration="underline" textLength="127" x="343" y="703.0495">getMirrorPosition()</text><ellipse cx="334" cy="715.9997" fill="#84BE84" rx="3" ry="3" style="stroke:#038048;stroke-width:1.0;"/><text fill="#000000" font-family="sans-serif" font-size="14" lengthAdjust="spacing" text-decoration="underline" textLength="87" x="343" y="719.3464">moveMirror()</text><ellipse cx="334" cy="732.2966" fill="#84BE84" rx="3" ry="3" style="stroke:#038048;stroke-width:1.0;"/><text fill="#000000" font-family="sans-serif" font-size="14" lengthAdjust="spacing" text-decoration="underline" textLength="88" x="343" y="735.6432">getPosition()</text><ellipse cx="334" cy="748.5934" fill="#84BE84" rx="3" ry="3" style="stroke:#038048;stroke-width:1.0;"/><text fill="#000000" font-family="sans-serif" font-size="14" lengthAdjust="spacing" text-decoration="underline" textLength="121" x="343" y="751.9401">moveToPosition()</text><ellipse cx="334" cy="764.8903" fill="#84BE84" rx="3" ry="3" style="stroke:#038048;stroke-width:1.0;"/><text fill="#000000" font-family="sans-serif" font-size="14" lengthAdjust="spacing" text-decoration="underline" textLength="128" x="343" y="768.237">getShutterStatus()</text><ellipse cx="334" cy="781.1872" fill="#84BE84" rx="3" ry="3" style="stroke:#038048;stroke-width:1.0;"/><text fill="#000000" font-family="sans-serif" font-size="14" lengthAdjust="spacing" text-decoration="underline" textLength="99" x="343" y="784.5339">shutterClose()</text><ellipse cx="334" cy="797.4841" fill="#84BE84" rx="3" ry="3" style="stroke:#038048;stroke-width:1.0;"/><text fill="#000000" font-family="sans-serif" font-size="14" lengthAdjust="spacing" text-decoration="underline" textLength="98" x="343" y="800.8307">shutterOpen()</text><ellipse cx="334" cy="813.7809" fill="#84BE84" rx="3" ry="3" style="stroke:#038048;stroke-width:1.0;"/><text fill="#000000" font-family="sans-serif" font-size="14" lengthAdjust="spacing" text-decoration="underline" textLength="103" x="343" y="817.1276">shutterSelect()</text><ellipse cx="334" cy="830.0778" fill="#84BE84" rx="3" ry="3" style="stroke:#038048;stroke-width:1.0;"/><text fill="#000000" font-family="sans-serif" font-size="14" lengthAdjust="spacing" text-decoration="underline" textLength="144" x="343" y="833.4245">getSlitPositionInMM()</text><ellipse cx="334" cy="846.3747" fill="#84BE84" rx="3" ry="3" style="stroke:#038048;stroke-width:1.0;"/><text fill="#000000" font-family="sans-serif" font-size="14" lengthAdjust="spacing" text-decoration="underline" textLength="92" x="343" y="849.7214">moveSlitMM()</text><ellipse cx="334" cy="862.6716" fill="#84BE84" rx="3" ry="3" style="stroke:#038048;stroke-width:1.0;"/><text fill="#000000" font-family="sans-serif" font-size="14" lengthAdjust="spacing" text-decoration="underline" textLength="77" x="343" y="866.0182">getConfig()</text><ellipse cx="334" cy="878.9684" fill="#84BE84" rx="3" ry="3" style="stroke:#038048;stroke-width:1.0;"/><text fill="#000000" font-family="sans-serif" font-size="14" lengthAdjust="spacing" text-decoration="underline" textLength="30" x="343" y="882.3151">Init()</text><ellipse cx="334" cy="895.2653" fill="#84BE84" rx="3" ry="3" style="stroke:#038048;stroke-width:1.0;"/><text fill="#000000" font-family="sans-serif" font-size="14" lengthAdjust="spacing" text-decoration="underline" textLength="55" x="343" y="898.612">isBusy()</text><ellipse cx="334" cy="911.5622" fill="#84BE84" rx="3" ry="3" style="stroke:#038048;stroke-width:1.0;"/><text fill="#000000" font-family="sans-serif" font-size="14" lengthAdjust="spacing" text-decoration="underline" textLength="84" x="343" y="914.9089">isInitialized()</text><rect fill="#F24D5C" height="6" style="stroke:#C82930;stroke-width:1.0;" width="6" x="331" y="924.8591"/><text fill="#000000" font-family="sans-serif" font-size="14" lengthAdjust="spacing" text-decoration="underline" textLength="125" x="343" y="931.2057">parseConfigData()</text><ellipse cx="334" cy="944.1559" fill="#84BE84" rx="3" ry="3" style="stroke:#038048;stroke-width:1.0;"/><text fill="#000000" font-family="sans-serif" font-size="14" lengthAdjust="spacing" textLength="96" x="343" y="947.5026">DeviceClose()</text><ellipse cx="334" cy="960.4528" fill="#84BE84" rx="3" ry="3" style="stroke:#038048;stroke-width:1.0;"/><text fill="#000000" font-family="sans-serif" font-size="14" lengthAdjust="spacing" textLength="106" x="343" y="963.7995">DeviceIsOpen()</text><ellipse cx="334" cy="976.7497" fill="#84BE84" rx="3" ry="3" style="stroke:#038048;stroke-width:1.0;"/><text fill="#000000" font-family="sans-serif" font-size="14" lengthAdjust="spacing" textLength="95" x="343" y="980.0964">DeviceOpen()</text></g><!--class SCD--><g id="elem_SCD"><rect codeLine="127" fill="#FFFFFF" height="471.7188" id="SCD" rx="2.5" ry="2.5" style="stroke:#555555;stroke-width:0.5;" width="212" x="548" y="540.12"/><rect fill="#808080" height="32" rx="2.5" ry="2.5" style="stroke:#808080;stroke-width:0.5;" width="212" x="548" y="540.12"/><rect fill="#808080" height="2.5" style="stroke:#808080;stroke-width:0.5;" width="212" x="548" y="569.62"/><rect codeLine="127" fill="none" height="471.7188" id="SCD" rx="2.5" ry="2.5" style="stroke:#555555;stroke-width:0.5;" width="212" x="548" y="540.12"/><ellipse cx="634.75" cy="556.12" fill="#ADD1B2" rx="11" ry="11" style="stroke:#181818;stroke-width:1.0;"/><path d="M637.7188,561.7606 Q637.1406,562.0575 636.5,562.1981 Q635.8594,562.3544 635.1563,562.3544 Q632.6563,562.3544 631.3281,560.7137 Q630.0156,559.0575 630.0156,555.9325 Q630.0156,552.8075 631.3281,551.1512 Q632.6563,549.495 635.1563,549.495 Q635.8594,549.495 636.5,549.6512 Q637.1563,549.8075 637.7188,550.1044 L637.7188,552.8231 Q637.0938,552.245 636.5,551.9794 Q635.9063,551.6981 635.2813,551.6981 Q633.9375,551.6981 633.25,552.7762 Q632.5625,553.8387 632.5625,555.9325 Q632.5625,558.0262 633.25,559.1044 Q633.9375,560.1669 635.2813,560.1669 Q635.9063,560.1669 636.5,559.9012 Q637.0938,559.62 637.7188,559.0419 L637.7188,561.7606 Z " fill="#000000"/><text fill="#000000" font-family="sans-serif" font-size="14" lengthAdjust="spacing" textLength="30" x="655.25" y="560.9667">SCD</text><line style="stroke:#555555;stroke-width:0.5;" x1="549" x2="759" y1="572.12" y2="572.12"/><line style="stroke:#555555;stroke-width:0.5;" x1="549" x2="759" y1="580.12" y2="580.12"/><ellipse cx="559" cy="593.7684" fill="#84BE84" rx="3" ry="3" style="stroke:#038048;stroke-width:1.0;"/><text fill="#000000" font-family="sans-serif" font-size="14" lengthAdjust="spacing" text-decoration="underline" textLength="68" x="568" y="597.1151">AcqStart()</text><ellipse cx="559" cy="610.0653" fill="#84BE84" rx="3" ry="3" style="stroke:#038048;stroke-width:1.0;"/><text fill="#000000" font-family="sans-serif" font-size="14" lengthAdjust="spacing" text-decoration="underline" textLength="68" x="568" y="613.412">AcqStop()</text><ellipse cx="559" cy="626.3622" fill="#84BE84" rx="3" ry="3" style="stroke:#038048;stroke-width:1.0;"/><text fill="#000000" font-family="sans-serif" font-size="14" lengthAdjust="spacing" text-decoration="underline" textLength="79" x="568" y="629.7089">AcqPause()</text><ellipse cx="559" cy="642.6591" fill="#84BE84" rx="3" ry="3" style="stroke:#038048;stroke-width:1.0;"/><text fill="#000000" font-family="sans-serif" font-size="14" lengthAdjust="spacing" text-decoration="underline" textLength="99" x="568" y="646.0057">AcqContinue()</text><ellipse cx="559" cy="658.9559" fill="#84BE84" rx="3" ry="3" style="stroke:#038048;stroke-width:1.0;"/><text fill="#000000" font-family="sans-serif" font-size="14" lengthAdjust="spacing" text-decoration="underline" textLength="98" x="568" y="662.3026">ForceTrigger()</text><ellipse cx="559" cy="675.2528" fill="#84BE84" rx="3" ry="3" style="stroke:#038048;stroke-width:1.0;"/><text fill="#000000" font-family="sans-serif" font-size="14" lengthAdjust="spacing" text-decoration="underline" textLength="102" x="568" y="678.5995">IsDeviceBusy()</text><ellipse cx="559" cy="691.5497" fill="#84BE84" rx="3" ry="3" style="stroke:#038048;stroke-width:1.0;"/><text fill="#000000" font-family="sans-serif" font-size="14" lengthAdjust="spacing" text-decoration="underline" textLength="149" x="568" y="694.8964">GetFirmwareVersion()</text><ellipse cx="559" cy="707.8466" fill="#84BE84" rx="3" ry="3" style="stroke:#038048;stroke-width:1.0;"/><text fill="#000000" font-family="sans-serif" font-size="14" lengthAdjust="spacing" text-decoration="underline" textLength="121" x="568" y="711.1932">GetFpgaVersion()</text><ellipse cx="559" cy="724.1434" fill="#84BE84" rx="3" ry="3" style="stroke:#038048;stroke-width:1.0;"/><text fill="#000000" font-family="sans-serif" font-size="14" lengthAdjust="spacing" text-decoration="underline" textLength="134" x="568" y="727.4901">GetBoardRevision()</text><ellipse cx="559" cy="740.4403" fill="#84BE84" rx="3" ry="3" style="stroke:#038048;stroke-width:1.0;"/><text fill="#000000" font-family="sans-serif" font-size="14" lengthAdjust="spacing" text-decoration="underline" textLength="127" x="568" y="743.787">GetSerialNumber()</text><ellipse cx="559" cy="756.7372" fill="#84BE84" rx="3" ry="3" style="stroke:#038048;stroke-width:1.0;"/><text fill="#000000" font-family="sans-serif" font-size="14" lengthAdjust="spacing" text-decoration="underline" textLength="143" x="568" y="760.0839">GetIntegrationTime()</text><ellipse cx="559" cy="773.0341" fill="#84BE84" rx="3" ry="3" style="stroke:#038048;stroke-width:1.0;"/><text fill="#000000" font-family="sans-serif" font-size="14" lengthAdjust="spacing" text-decoration="underline" textLength="141" x="568" y="776.3807">SetIntegrationTime()</text><ellipse cx="559" cy="789.3309" fill="#84BE84" rx="3" ry="3" style="stroke:#038048;stroke-width:1.0;"/><text fill="#000000" font-family="sans-serif" font-size="14" lengthAdjust="spacing" text-decoration="underline" textLength="131" x="568" y="792.6776">SetHvBiasVoltage()</text><ellipse cx="559" cy="805.6278" fill="#84BE84" rx="3" ry="3" style="stroke:#038048;stroke-width:1.0;"/><text fill="#000000" font-family="sans-serif" font-size="14" lengthAdjust="spacing" text-decoration="underline" textLength="133" x="568" y="808.9745">GetHvBiasVoltage()</text><ellipse cx="559" cy="821.9247" fill="#84BE84" rx="3" ry="3" style="stroke:#038048;stroke-width:1.0;"/><text fill="#000000" font-family="sans-serif" font-size="14" lengthAdjust="spacing" text-decoration="underline" textLength="186" x="568" y="825.2714">GetMaxHVVoltageAllowed()</text><ellipse cx="559" cy="838.2216" fill="#84BE84" rx="3" ry="3" style="stroke:#038048;stroke-width:1.0;"/><text fill="#000000" font-family="sans-serif" font-size="14" lengthAdjust="spacing" text-decoration="underline" textLength="84" x="568" y="841.5682">GetAcqSet()</text><ellipse cx="559" cy="854.5184" fill="#84BE84" rx="3" ry="3" style="stroke:#038048;stroke-width:1.0;"/><text fill="#000000" font-family="sans-serif" font-size="14" lengthAdjust="spacing" text-decoration="underline" textLength="104" x="568" y="857.8651">DefineAcqSet()</text><ellipse cx="559" cy="870.8153" fill="#84BE84" rx="3" ry="3" style="stroke:#038048;stroke-width:1.0;"/><text fill="#000000" font-family="sans-serif" font-size="14" lengthAdjust="spacing" text-decoration="underline" textLength="112" x="568" y="874.162">IsDataAvailable()</text><ellipse cx="559" cy="887.1122" fill="#84BE84" rx="3" ry="3" style="stroke:#038048;stroke-width:1.0;"/><text fill="#000000" font-family="sans-serif" font-size="14" lengthAdjust="spacing" text-decoration="underline" textLength="126" x="568" y="890.4589">GetAvailableData()</text><ellipse cx="559" cy="903.4091" fill="#84BE84" rx="3" ry="3" style="stroke:#038048;stroke-width:1.0;"/><text fill="#000000" font-family="sans-serif" font-size="14" lengthAdjust="spacing" text-decoration="underline" textLength="133" x="568" y="906.7557">SetInTriggerMode()</text><ellipse cx="559" cy="919.7059" fill="#84BE84" rx="3" ry="3" style="stroke:#038048;stroke-width:1.0;"/><text fill="#000000" font-family="sans-serif" font-size="14" lengthAdjust="spacing" text-decoration="underline" textLength="123" x="568" y="923.0526">GetTriggerMode()</text><ellipse cx="559" cy="936.0028" fill="#84BE84" rx="3" ry="3" style="stroke:#038048;stroke-width:1.0;"/><text fill="#000000" font-family="sans-serif" font-size="14" lengthAdjust="spacing" text-decoration="underline" textLength="96" x="568" y="939.3495">GetLastError()</text><ellipse cx="559" cy="952.2997" fill="#84BE84" rx="3" ry="3" style="stroke:#038048;stroke-width:1.0;"/><text fill="#000000" font-family="sans-serif" font-size="14" lengthAdjust="spacing" text-decoration="underline" textLength="93" x="568" y="955.6464">GetErrorLog()</text><ellipse cx="559" cy="968.5966" fill="#84BE84" rx="3" ry="3" style="stroke:#038048;stroke-width:1.0;"/><text fill="#000000" font-family="sans-serif" font-size="14" lengthAdjust="spacing" textLength="96" x="568" y="971.9432">DeviceClose()</text><ellipse cx="559" cy="984.8934" fill="#84BE84" rx="3" ry="3" style="stroke:#038048;stroke-width:1.0;"/><text fill="#000000" font-family="sans-serif" font-size="14" lengthAdjust="spacing" textLength="95" x="568" y="988.2401">DeviceOpen()</text><ellipse cx="559" cy="1001.1903" fill="#84BE84" rx="3" ry="3" style="stroke:#038048;stroke-width:1.0;"/><text fill="#000000" font-family="sans-serif" font-size="14" lengthAdjust="spacing" textLength="106" x="568" y="1004.537">DeviceIsOpen()</text></g><!--class WebSocket Client--><g id="elem_WebSocket Client"><rect fill="#FFFFFF" height="48" id="WebSocket Client" rx="2.5" ry="2.5" style="stroke:#555555;stroke-width:0.5;" width="154" x="816" y="751.98"/><rect fill="#808080" height="32" rx="2.5" ry="2.5" style="stroke:#808080;stroke-width:0.5;" width="154" x="816" y="751.98"/><rect fill="#808080" height="2.5" style="stroke:#808080;stroke-width:0.5;" width="154" x="816" y="781.48"/><rect fill="none" height="48" id="WebSocket Client" rx="2.5" ry="2.5" style="stroke:#555555;stroke-width:0.5;" width="154" x="816" y="751.98"/><ellipse cx="831" cy="767.98" fill="#ADD1B2" rx="11" ry="11" style="stroke:#181818;stroke-width:1.0;"/><path d="M833.9688,773.6206 Q833.3906,773.9175 832.75,774.0581 Q832.1094,774.2144 831.4063,774.2144 Q828.9063,774.2144 827.5781,772.5738 Q826.2656,770.9175 826.2656,767.7925 Q826.2656,764.6675 827.5781,763.0113 Q828.9063,761.355 831.4063,761.355 Q832.1094,761.355 832.75,761.5113 Q833.4063,761.6675 833.9688,761.9644 L833.9688,764.6831 Q833.3438,764.105 832.75,763.8394 Q832.1563,763.5581 831.5313,763.5581 Q830.1875,763.5581 829.5,764.6363 Q828.8125,765.6988 828.8125,767.7925 Q828.8125,769.8863 829.5,770.9644 Q830.1875,772.0269 831.5313,772.0269 Q832.1563,772.0269 832.75,771.7613 Q833.3438,771.48 833.9688,770.9019 L833.9688,773.6206 Z " fill="#000000"/><text fill="#000000" font-family="sans-serif" font-size="14" lengthAdjust="spacing" textLength="122" x="845" y="772.8267">WebSocket Client</text><line style="stroke:#555555;stroke-width:0.5;" x1="817" x2="969" y1="783.98" y2="783.98"/><line style="stroke:#555555;stroke-width:0.5;" x1="817" x2="969" y1="791.98" y2="791.98"/></g><!--reverse link GenericDevice to CCD--><g id="link_GenericDevice_CCD"><path codeLine="57" d="M308.141,326.1969 C300.101,349.7769 297.14,358.43 288,385.22 " fill="none" id="GenericDevice-backto-CCD" style="stroke:#181818;stroke-width:1.0;"/><polygon fill="none" points="313.95,309.16,302.462,324.2605,313.8199,328.1332,313.95,309.16" style="stroke:#181818;stroke-width:1.0;"/></g><!--reverse link Communicator to WebSocket Client--><g id="link_Communicator_WebSocket Client"><path codeLine="77" d="M747.4818,327.3843 C760.4518,346.7743 765.93,357.01 776,377.15 C842.62,510.46 878,688.29 889.1,751.49 " fill="none" id="Communicator-backto-WebSocket Client" style="stroke:#181818;stroke-width:1.0;"/><polygon fill="#181818" points="740.81,317.41,740.8211,324.6211,747.4818,327.3843,747.4707,320.1732,740.81,317.41" style="stroke:#181818;stroke-width:1.0;"/></g><!--reverse link GenericDevice to Monochromator--><g id="link_GenericDevice_Monochromator"><path codeLine="124" d="M372.8253,327.0692 C380.3353,401.5692 388.17,479.17 396.75,564.29 " fill="none" id="GenericDevice-backto-Monochromator" style="stroke:#181818;stroke-width:1.0;"/><polygon fill="none" points="371.02,309.16,366.8556,327.671,378.7951,326.4675,371.02,309.16" style="stroke:#181818;stroke-width:1.0;"/></g><!--reverse link GenericDevice to SCD--><g id="link_GenericDevice_SCD"><path codeLine="156" d="M475.2235,311.5544 C509.6735,350.5144 528.05,371.88 531,377.15 C559.02,427.23 581.49,484.5 599.16,539.69 " fill="none" id="GenericDevice-backto-SCD" style="stroke:#181818;stroke-width:1.0;"/><polygon fill="none" points="463.3,298.07,470.7287,315.5289,479.7183,307.58,463.3,298.07" style="stroke:#181818;stroke-width:1.0;"/></g><!--SRC=[hPXRJzn65CVVzrDOyD8seafJLQfGfMWli6p41hHUaRpEZW_U4UCPPyvuWL2-Uy_OPgy-zgQA4G_u_ERwFpU3u2CZCi1SI8WX5qvuwwBp7Zue4_xAeg4MY0CX7r9d2vCChIRWzB9y3Z3h4d0rybVvx2ENrlWQU5y- -y0L29hZOC6_tuUVtXRjRKw_qS9wRxCeKGwaLzRqP9WbEbbQfnRYTxtIQd4-78vEefVU2thXbNoDNZBmIvkyHkzIy74EaFHDCXRAnE2zCYd-yciJJ0iZ_97Sk0z9tpdnt48DPJ8INhGHrjohj0EQ2PF2r2RGpA1NNYvfmm7fhy29z1WoLbck6L38RuL25Qwolx3ETrAn5nmbXPQ55dvpZ5jR3M8kM5f3X_1Vn0eqcDGlvtOcCc7YfRfdrY01-_BRa5ob5NZRxQ30vsCuNfTTRaRkoayuNAfy3bbEmlZ20Szf4ARz39MxiEQmtrXzvvUuUCejqXxcAkEXI-LlGt0XIuGWOOrXhDQWouXYgLYbHkYRWZzh-_Xm0ZS3jBe82l2SKsaARi8JN_jF2eUbpo7DD7_EcQjnWBoNOvS7Li2bTPdWYI4O3sxZ-JpOuIjuZDROfYGUfIHHCwjOMuVAsAeo7gaoTggChCfhP0Gh9M6eBJQzd-1D3gR1SF2wZlSw2dkllTqQD0O3Jibgy4dqpxzdPmrLgjThBc0somgZP2ZFPIMxLw1fqRCli8YjVA0wJYSqLGcCpgFhkwgQRi39A9B1QO3AUpJvyyF68jS3B-Z-5bhX4fAFH0si3RxMTAsVuflFqMseK57OcZ2Ca5lSXNFMOISs6NKZvjvsGkGwXVRCUZVa2uzE-RVbDWOITNEHEwRIGHXR32Pq47rye2YVGQwVjysdCv2WLl09TuUTXc7romDtsLNyj-0iQwsnPhR4ruho1-SzUwwtvJv9-MeEBYEzO- -eGJWmKhmq69L9u6dVbInTtxRZlBr7MbxepqMsADrlRwvtkRD98VqaUPllKB5mLL5zZvN2pSg6UboTC_Z2jK8c_un0KZjo3BcPCTn47wlD_q06OVB7Eh6GzCsoJQsnSkbijexwvbnTzrGjLLs7qh84qEriPbUm1VDD0BKpT0VTazKWEz5KXQJGFK_5yNr7vmHpstbByRBmT79gPtt1f0siaBNGBF4cEGl4LELbImEarVfG4pETyWSB96Vlw1edHZ4xKCYtoGh3E8fcAdFDIV-iuVFc9nNR_r5KTuE8YRIO_Jwangtb0wUqsfmrteg2yvIoPJGK7GK3K2MXb5DrDuo0M9sR5siSWjzbZyB1NTNzy5oUYYvcO8LBPhHcAnLl9NiMcb0daeRiG0qPswN6ntDNgu4IU6UrPp-1nyTIK_5qTLT3VQtj8zUcZil6dbRdQiozCj16a88K8FsLK9eQBtv7QuB_B2tlgdON_Xy6utN3tCfS2_GNVCebehHUsvzS1tyqkEEgO_uF]--></g></svg>