<svg xmlns="http://www.w3.org/2000/svg" xmlns:xlink="http://www.w3.org/1999/xlink" contentStyleType="text/css" data-diagram-type="CLASS" height="578px" preserveAspectRatio="none" style="width:239px;height:578px;background:#FFFFFF;" version="1.1" viewBox="0 0 239 578" width="239px" zoomAndPan="magnify"><defs/><g><!--cluster horiba.lvlib--><g class="cluster" data-entity="horiba.lvlib" data-source-line="8" data-uid="ent0003" id="cluster_horiba.lvlib"><path d="M8.5,6 L99.1191,6 A3.75,3.75 0 0 1 101.6191,8.5 L108.6191,28.2969 L229.5,28.2969 A2.5,2.5 0 0 1 232,30.7969 L232,569.03 A2.5,2.5 0 0 1 229.5,571.53 L8.5,571.53 A2.5,2.5 0 0 1 6,569.03 L6,8.5 A2.5,2.5 0 0 1 8.5,6" fill="none" style="stroke:#000000;stroke-width:1.5;"/><line style="stroke:#000000;stroke-width:1.5;" x1="6" x2="108.6191" y1="28.2969" y2="28.2969"/><text fill="#000000" font-family="sans-serif" font-size="14" font-weight="bold" lengthAdjust="spacing" textLength="89.6191" x="10" y="20.9951">horiba.lvlib</text></g><!--class Monochromator--><g class="entity" data-entity="Monochromator" data-source-line="8" data-uid="ent0002" id="entity_Monochromator"><rect fill="#FFFFFF" height="406.5313" rx="2.5" ry="2.5" style="stroke:#555555;stroke-width:0.5;" width="194.4443" x="21.78" y="149"/><rect fill="#808080" height="32" rx="2.5" ry="2.5" style="stroke:#808080;stroke-width:0.5;" width="194.4443" x="21.78" y="149"/><rect fill="#808080" height="2.5" style="stroke:#808080;stroke-width:0.5;" width="194.4443" x="21.78" y="178.5"/><rect fill="none" height="406.5313" rx="2.5" ry="2.5" style="stroke:#555555;stroke-width:0.5;" width="194.4443" x="21.78" y="149"/><ellipse cx="59.9291" cy="165" fill="#ADD1B2" rx="11" ry="11" style="stroke:#181818;stroke-width:1;"/><path d="M62.8978,170.6406 Q62.3197,170.9375 61.6791,171.0781 Q61.0384,171.2344 60.3353,171.2344 Q57.8353,171.2344 56.5072,169.5938 Q55.1947,167.9375 55.1947,164.8125 Q55.1947,161.6875 56.5072,160.0313 Q57.8353,158.375 60.3353,158.375 Q61.0384,158.375 61.6791,158.5313 Q62.3353,158.6875 62.8978,158.9844 L62.8978,161.7031 Q62.2728,161.125 61.6791,160.8594 Q61.0853,160.5781 60.4603,160.5781 Q59.1166,160.5781 58.4291,161.6563 Q57.7416,162.7188 57.7416,164.8125 Q57.7416,166.9063 58.4291,167.9844 Q59.1166,169.0469 60.4603,169.0469 Q61.0853,169.0469 61.6791,168.7813 Q62.2728,168.5 62.8978,167.9219 L62.8978,170.6406 Z " fill="#000000"/><text fill="#000000" font-family="sans-serif" font-size="14" lengthAdjust="spacing" textLength="111.002" x="79.0733" y="169.8467">Monochromator</text><line style="stroke:#555555;stroke-width:0.5;" x1="22.78" x2="215.2243" y1="181" y2="181"/><line style="stroke:#555555;stroke-width:0.5;" x1="22.78" x2="215.2243" y1="189" y2="189"/><ellipse cx="32.78" cy="202.6484" fill="#84BE84" rx="3" ry="3" style="stroke:#038048;stroke-width:1;"/><text fill="#000000" font-family="sans-serif" font-size="14" lengthAdjust="spacing" text-decoration="underline" textLength="87.3291" x="41.78" y="205.9951">setPosition()</text><ellipse cx="32.78" cy="218.9453" fill="#84BE84" rx="3" ry="3" style="stroke:#038048;stroke-width:1;"/><text fill="#000000" font-family="sans-serif" font-size="14" lengthAdjust="spacing" text-decoration="underline" textLength="168.4443" x="41.78" y="222.292">getFilterWheelPosition()</text><ellipse cx="32.78" cy="235.2422" fill="#84BE84" rx="3" ry="3" style="stroke:#038048;stroke-width:1;"/><text fill="#000000" font-family="sans-serif" font-size="14" lengthAdjust="spacing" text-decoration="underline" textLength="129.5479" x="41.78" y="238.5889">moveFilterWheel()</text><ellipse cx="32.78" cy="251.5391" fill="#84BE84" rx="3" ry="3" style="stroke:#038048;stroke-width:1;"/><text fill="#000000" font-family="sans-serif" font-size="14" lengthAdjust="spacing" text-decoration="underline" textLength="141.2441" x="41.78" y="254.8857">getGratingPosition()</text><ellipse cx="32.78" cy="267.8359" fill="#84BE84" rx="3" ry="3" style="stroke:#038048;stroke-width:1;"/><text fill="#000000" font-family="sans-serif" font-size="14" lengthAdjust="spacing" text-decoration="underline" textLength="102.3477" x="41.78" y="271.1826">moveGrating()</text><ellipse cx="32.78" cy="284.1328" fill="#84BE84" rx="3" ry="3" style="stroke:#038048;stroke-width:1;"/><text fill="#000000" font-family="sans-serif" font-size="14" lengthAdjust="spacing" text-decoration="underline" textLength="130.7236" x="41.78" y="287.4795">getMirrorPosition()</text><ellipse cx="32.78" cy="300.4297" fill="#84BE84" rx="3" ry="3" style="stroke:#038048;stroke-width:1;"/><text fill="#000000" font-family="sans-serif" font-size="14" lengthAdjust="spacing" text-decoration="underline" textLength="91.8271" x="41.78" y="303.7764">moveMirror()</text><ellipse cx="32.78" cy="316.7266" fill="#84BE84" rx="3" ry="3" style="stroke:#038048;stroke-width:1;"/><text fill="#000000" font-family="sans-serif" font-size="14" lengthAdjust="spacing" text-decoration="underline" textLength="88.9219" x="41.78" y="320.0732">getPosition()</text><ellipse cx="32.78" cy="333.0234" fill="#84BE84" rx="3" ry="3" style="stroke:#038048;stroke-width:1;"/><text fill="#000000" font-family="sans-serif" font-size="14" lengthAdjust="spacing" text-decoration="underline" textLength="122.1514" x="41.78" y="336.3701">moveToPosition()</text><ellipse cx="32.78" cy="349.3203" fill="#84BE84" rx="3" ry="3" style="stroke:#038048;stroke-width:1;"/><text fill="#000000" font-family="sans-serif" font-size="14" lengthAdjust="spacing" text-decoration="underline" textLength="130.5049" x="41.78" y="352.667">getShutterStatus()</text><ellipse cx="32.78" cy="365.6172" fill="#84BE84" rx="3" ry="3" style="stroke:#038048;stroke-width:1;"/><text fill="#000000" font-family="sans-serif" font-size="14" lengthAdjust="spacing" text-decoration="underline" textLength="99.4492" x="41.78" y="368.9639">shutterClose()</text><ellipse cx="32.78" cy="381.9141" fill="#84BE84" rx="3" ry="3" style="stroke:#038048;stroke-width:1;"/><text fill="#000000" font-family="sans-serif" font-size="14" lengthAdjust="spacing" text-decoration="underline" textLength="98.7041" x="41.78" y="385.2607">shutterOpen()</text><ellipse cx="32.78" cy="398.2109" fill="#84BE84" rx="3" ry="3" style="stroke:#038048;stroke-width:1;"/><text fill="#000000" font-family="sans-serif" font-size="14" lengthAdjust="spacing" text-decoration="underline" textLength="148.2373" x="41.78" y="401.5576">getSlitPositionInMM()</text><ellipse cx="32.78" cy="414.5078" fill="#84BE84" rx="3" ry="3" style="stroke:#038048;stroke-width:1;"/><text fill="#000000" font-family="sans-serif" font-size="14" lengthAdjust="spacing" text-decoration="underline" textLength="96.3389" x="41.78" y="417.8545">moveSlitMM()</text><ellipse cx="32.78" cy="430.8047" fill="#84BE84" rx="3" ry="3" style="stroke:#038048;stroke-width:1;"/><text fill="#000000" font-family="sans-serif" font-size="14" lengthAdjust="spacing" text-decoration="underline" textLength="78.832" x="41.78" y="434.1514">getConfig()</text><ellipse cx="32.78" cy="447.1016" fill="#84BE84" rx="3" ry="3" style="stroke:#038048;stroke-width:1;"/><text fill="#000000" font-family="sans-serif" font-size="14" lengthAdjust="spacing" text-decoration="underline" textLength="33.3047" x="41.78" y="450.4482">Init()</text><ellipse cx="32.78" cy="463.3984" fill="#84BE84" rx="3" ry="3" style="stroke:#038048;stroke-width:1;"/><text fill="#000000" font-family="sans-serif" font-size="14" lengthAdjust="spacing" text-decoration="underline" textLength="56.1641" x="41.78" y="466.7451">isBusy()</text><ellipse cx="32.78" cy="479.6953" fill="#84BE84" rx="3" ry="3" style="stroke:#038048;stroke-width:1;"/><text fill="#000000" font-family="sans-serif" font-size="14" lengthAdjust="spacing" text-decoration="underline" textLength="89.585" x="41.78" y="483.042">isInitialized()</text><rect fill="#F24D5C" height="6" style="stroke:#C82930;stroke-width:1;" width="6" x="29.78" y="492.9922"/><text fill="#000000" font-family="sans-serif" font-size="14" lengthAdjust="spacing" text-decoration="underline" textLength="128.3994" x="41.78" y="499.3389">parseConfigData()</text><ellipse cx="32.78" cy="512.2891" fill="#84BE84" rx="3" ry="3" style="stroke:#038048;stroke-width:1;"/><text fill="#000000" font-family="sans-serif" font-size="14" lengthAdjust="spacing" textLength="96.9404" x="41.78" y="515.6357">DeviceClose()</text><ellipse cx="32.78" cy="528.5859" fill="#84BE84" rx="3" ry="3" style="stroke:#038048;stroke-width:1;"/><text fill="#000000" font-family="sans-serif" font-size="14" lengthAdjust="spacing" textLength="107.6182" x="41.78" y="531.9326">DeviceIsOpen()</text><ellipse cx="32.78" cy="544.8828" fill="#84BE84" rx="3" ry="3" style="stroke:#038048;stroke-width:1;"/><text fill="#000000" font-family="sans-serif" font-size="14" lengthAdjust="spacing" textLength="96.1953" x="41.78" y="548.2295">DeviceOpen()</text></g><!--class GenericDevice--><g class="entity" data-entity="GenericDevice" data-source-line="33" data-uid="ent0004" id="entity_GenericDevice"><rect fill="#FFFFFF" height="48" rx="2.5" ry="2.5" style="stroke:#555555;stroke-width:0.5;" width="134.1699" x="51.92" y="41"/><rect fill="#808080" height="32" rx="2.5" ry="2.5" style="stroke:#808080;stroke-width:0.5;" width="134.1699" x="51.92" y="41"/><rect fill="#808080" height="2.5" style="stroke:#808080;stroke-width:0.5;" width="134.1699" x="51.92" y="70.5"/><rect fill="none" height="48" rx="2.5" ry="2.5" style="stroke:#555555;stroke-width:0.5;" width="134.1699" x="51.92" y="41"/><ellipse cx="66.92" cy="57" fill="#ADD1B2" rx="11" ry="11" style="stroke:#181818;stroke-width:1;"/><path d="M69.8888,62.6406 Q69.3106,62.9375 68.67,63.0781 Q68.0294,63.2344 67.3263,63.2344 Q64.8263,63.2344 63.4981,61.5938 Q62.1856,59.9375 62.1856,56.8125 Q62.1856,53.6875 63.4981,52.0313 Q64.8263,50.375 67.3263,50.375 Q68.0294,50.375 68.67,50.5313 Q69.3263,50.6875 69.8888,50.9844 L69.8888,53.7031 Q69.2638,53.125 68.67,52.8594 Q68.0763,52.5781 67.4513,52.5781 Q66.1075,52.5781 65.42,53.6563 Q64.7325,54.7188 64.7325,56.8125 Q64.7325,58.9063 65.42,59.9844 Q66.1075,61.0469 67.4513,61.0469 Q68.0763,61.0469 68.67,60.7813 Q69.2638,60.5 69.8888,59.9219 L69.8888,62.6406 Z " fill="#000000"/><text fill="#000000" font-family="sans-serif" font-size="14" lengthAdjust="spacing" textLength="102.1699" x="80.92" y="61.8467">GenericDevice</text><line style="stroke:#555555;stroke-width:0.5;" x1="52.92" x2="185.0899" y1="73" y2="73"/><line style="stroke:#555555;stroke-width:0.5;" x1="52.92" x2="185.0899" y1="81" y2="81"/></g><!--reverse link GenericDevice to Monochromator--><g class="link" data-entity-1="GenericDevice" data-entity-2="Monochromator" data-source-line="33" data-uid="lnk5" id="link_GenericDevice_Monochromator"><path codeLine="33" d="M119,107.34 C119,122.25 119,125.16 119,148.75" fill="none" id="GenericDevice-backto-Monochromator" style="stroke:#181818;stroke-width:1;"/><polygon fill="none" points="119,89.34,113,107.34,125,107.34,119,89.34" style="stroke:#181818;stroke-width:1;"/></g><!--SRC=[XPFDQiCm48JlUWgHNbfAIYw54dgAGz8SJ0ifzAp8stY9h3NIEj2cUVTQiHjInpzhTB3cqwmqI1vOMfM1pvM6DUJAAIOdfyBlq8Q_J4P6UJzJUhTrLDWa8bC2DujJNM7a4d0rydYg9h8WopKmELKJU05LUbmrV9g4JrpGJ7avv8QOAPC9Ej2CP8KEBdAKaiEDUZ1xWvjfJ9PqwYWBnnl9WpXuLepwA0yPS4h9KTvxu3Vo63nkxzg0BV023OFxI05CFvlH7YxWJiDb6JZQxR1P3NOQnUWSkM6VYkkq6JPufy6Krcd1vSdNfLRuTifNI6J8Go_ncaDF8uFd7Qzi77VlEf1TUcaKaVt4Zd1N5hbTGJyh_5UN5jQXClWDIIioBg-nXwhpNB4Aq7dv7FQeuHnFOtxb_s9f2FMqE8h_zty95Xpg2Xh9vv_nkFU5225-0G00]--></g></svg>