<?xml version="1.0" encoding="us-ascii" standalone="no"?><svg xmlns="http://www.w3.org/2000/svg" xmlns:xlink="http://www.w3.org/1999/xlink" contentStyleType="text/css" height="463px" preserveAspectRatio="none" style="width:307px;height:463px;background:#FFFFFF;" version="1.1" viewBox="0 0 307 463" width="307px" zoomAndPan="magnify"><defs/><g><!--cluster horiba.lvlib--><g id="cluster_horiba.lvlib"><path d="M8.5,6 L95.5,6 A3.75,3.75 0 0 1 98,8.5 L105,28.2969 L297.5,28.2969 A2.5,2.5 0 0 1 300,30.7969 L300,330.66 A2.5,2.5 0 0 1 297.5,333.16 L8.5,333.16 A2.5,2.5 0 0 1 6,330.66 L6,8.5 A2.5,2.5 0 0 1 8.5,6 " fill="none" style="stroke:#000000;stroke-width:1.5;"/><line style="stroke:#000000;stroke-width:1.5;" x1="6" x2="105" y1="28.2969" y2="28.2969"/><text fill="#000000" font-family="sans-serif" font-size="14" font-weight="bold" lengthAdjust="spacing" textLength="86" x="10" y="20.9951">horiba.lvlib</text></g><!--cluster WebSockets.lvlib--><g id="cluster_WebSockets.lvlib"><path d="M62.5,357.16 L197.5,357.16 A3.75,3.75 0 0 1 200,359.66 L207,379.4569 L243.5,379.4569 A2.5,2.5 0 0 1 246,381.9569 L246,453.66 A2.5,2.5 0 0 1 243.5,456.16 L62.5,456.16 A2.5,2.5 0 0 1 60,453.66 L60,359.66 A2.5,2.5 0 0 1 62.5,357.16 " fill="none" style="stroke:#000000;stroke-width:1.5;"/><line style="stroke:#000000;stroke-width:1.5;" x1="60" x2="207" y1="379.4569" y2="379.4569"/><text fill="#000000" font-family="sans-serif" font-size="14" font-weight="bold" lengthAdjust="spacing" textLength="134" x="64" y="372.1551">WebSockets.lvlib</text></g><!--class Communicator--><g id="elem_Communicator"><rect codeLine="8" fill="#FFFFFF" height="276.1563" id="Communicator" rx="2.5" ry="2.5" style="stroke:#555555;stroke-width:0.5;" width="261" x="22.5" y="41"/><rect fill="#808080" height="32" rx="2.5" ry="2.5" style="stroke:#808080;stroke-width:0.5;" width="261" x="22.5" y="41"/><rect fill="#808080" height="2.5" style="stroke:#808080;stroke-width:0.5;" width="261" x="22.5" y="70.5"/><rect codeLine="8" fill="none" height="276.1563" id="Communicator" rx="2.5" ry="2.5" style="stroke:#555555;stroke-width:0.5;" width="261" x="22.5" y="41"/><ellipse cx="98.25" cy="57" fill="#ADD1B2" rx="11" ry="11" style="stroke:#181818;stroke-width:1.0;"/><path d="M101.2188,62.6406 Q100.6406,62.9375 100,63.0781 Q99.3594,63.2344 98.6563,63.2344 Q96.1563,63.2344 94.8281,61.5938 Q93.5156,59.9375 93.5156,56.8125 Q93.5156,53.6875 94.8281,52.0313 Q96.1563,50.375 98.6563,50.375 Q99.3594,50.375 100,50.5313 Q100.6563,50.6875 101.2188,50.9844 L101.2188,53.7031 Q100.5938,53.125 100,52.8594 Q99.4063,52.5781 98.7813,52.5781 Q97.4375,52.5781 96.75,53.6563 Q96.0625,54.7188 96.0625,56.8125 Q96.0625,58.9063 96.75,59.9844 Q97.4375,61.0469 98.7813,61.0469 Q99.4063,61.0469 100,60.7813 Q100.5938,60.5 101.2188,59.9219 L101.2188,62.6406 Z " fill="#000000"/><text fill="#000000" font-family="sans-serif" font-size="14" lengthAdjust="spacing" textLength="101" x="118.75" y="61.8467">Communicator</text><line style="stroke:#555555;stroke-width:0.5;" x1="23.5" x2="282.5" y1="73" y2="73"/><rect fill="none" height="6" style="stroke:#C82930;stroke-width:1.0;" width="6" x="30.5" y="83.6484"/><text fill="#000000" font-family="sans-serif" font-size="14" lengthAdjust="spacing" textLength="233" x="42.5" y="89.9951">WebSocket Connection : LV Class</text><rect fill="none" height="6" style="stroke:#C82930;stroke-width:1.0;" width="6" x="30.5" y="99.9453"/><text fill="#000000" font-family="sans-serif" font-size="14" lengthAdjust="spacing" textLength="106" x="42.5" y="106.292">ID counter : I32</text><rect fill="none" height="6" style="stroke:#C82930;stroke-width:1.0;" width="6" x="30.5" y="116.2422"/><text fill="#000000" font-family="sans-serif" font-size="14" lengthAdjust="spacing" textLength="235" x="42.5" y="122.5889">connectionEstablished? : Boolean</text><line style="stroke:#555555;stroke-width:0.5;" x1="23.5" x2="282.5" y1="129.8906" y2="129.8906"/><ellipse cx="33.5" cy="143.5391" fill="#84BE84" rx="3" ry="3" style="stroke:#038048;stroke-width:1.0;"/><text fill="#000000" font-family="sans-serif" font-size="14" lengthAdjust="spacing" text-decoration="underline" textLength="161" x="42.5" y="146.8857">JSON Parse Command()</text><ellipse cx="33.5" cy="159.8359" fill="#84BE84" rx="3" ry="3" style="stroke:#038048;stroke-width:1.0;"/><text fill="#000000" font-family="sans-serif" font-size="14" lengthAdjust="spacing" text-decoration="underline" textLength="131" x="42.5" y="163.1826">JSON Parse Errors()</text><ellipse cx="33.5" cy="176.1328" fill="#84BE84" rx="3" ry="3" style="stroke:#038048;stroke-width:1.0;"/><text fill="#000000" font-family="sans-serif" font-size="14" lengthAdjust="spacing" text-decoration="underline" textLength="104" x="42.5" y="179.4795">JSON Parse ID()</text><ellipse cx="33.5" cy="192.4297" fill="#84BE84" rx="3" ry="3" style="stroke:#038048;stroke-width:1.0;"/><text fill="#000000" font-family="sans-serif" font-size="14" lengthAdjust="spacing" text-decoration="underline" textLength="115" x="42.5" y="195.7764">JSON Parse Info()</text><ellipse cx="33.5" cy="208.7266" fill="#84BE84" rx="3" ry="3" style="stroke:#038048;stroke-width:1.0;"/><text fill="#000000" font-family="sans-serif" font-size="14" lengthAdjust="spacing" text-decoration="underline" textLength="142" x="42.5" y="212.0732">JSON Parse Results()</text><ellipse cx="33.5" cy="225.0234" fill="#84BE84" rx="3" ry="3" style="stroke:#038048;stroke-width:1.0;"/><text fill="#000000" font-family="sans-serif" font-size="14" lengthAdjust="spacing" text-decoration="underline" textLength="93" x="42.5" y="228.3701">Overwrite ID()</text><ellipse cx="33.5" cy="241.3203" fill="#84BE84" rx="3" ry="3" style="stroke:#038048;stroke-width:1.0;"/><text fill="#000000" font-family="sans-serif" font-size="14" lengthAdjust="spacing" textLength="128" x="42.5" y="244.667">OpenConnection()</text><ellipse cx="33.5" cy="257.6172" fill="#84BE84" rx="3" ry="3" style="stroke:#038048;stroke-width:1.0;"/><text fill="#000000" font-family="sans-serif" font-size="14" lengthAdjust="spacing" textLength="129" x="42.5" y="260.9639">CloseConnection()</text><ellipse cx="33.5" cy="273.9141" fill="#84BE84" rx="3" ry="3" style="stroke:#038048;stroke-width:1.0;"/><text fill="#000000" font-family="sans-serif" font-size="14" lengthAdjust="spacing" textLength="158" x="42.5" y="277.2607">SendAndAskForReply()</text><polygon fill="#FFFF44" points="33.5,285.2109,37.5,289.2109,33.5,293.2109,29.5,289.2109" style="stroke:#B38D22;stroke-width:1.0;"/><text fill="#000000" font-family="sans-serif" font-size="14" lengthAdjust="spacing" textLength="94" x="42.5" y="293.5576">ReceiveJson()</text><polygon fill="#FFFF44" points="33.5,301.5078,37.5,305.5078,33.5,309.5078,29.5,305.5078" style="stroke:#B38D22;stroke-width:1.0;"/><text fill="#000000" font-family="sans-serif" font-size="14" lengthAdjust="spacing" textLength="75" x="42.5" y="309.8545">SendJson()</text></g><!--class WebSocket Client--><g id="elem_WebSocket Client"><rect fill="#FFFFFF" height="48" id="WebSocket Client" rx="2.5" ry="2.5" style="stroke:#555555;stroke-width:0.5;" width="154" x="76" y="392.16"/><rect fill="#808080" height="32" rx="2.5" ry="2.5" style="stroke:#808080;stroke-width:0.5;" width="154" x="76" y="392.16"/><rect fill="#808080" height="2.5" style="stroke:#808080;stroke-width:0.5;" width="154" x="76" y="421.66"/><rect fill="none" height="48" id="WebSocket Client" rx="2.5" ry="2.5" style="stroke:#555555;stroke-width:0.5;" width="154" x="76" y="392.16"/><ellipse cx="91" cy="408.16" fill="#ADD1B2" rx="11" ry="11" style="stroke:#181818;stroke-width:1.0;"/><path d="M93.9688,413.8006 Q93.3906,414.0975 92.75,414.2381 Q92.1094,414.3944 91.4063,414.3944 Q88.9063,414.3944 87.5781,412.7538 Q86.2656,411.0975 86.2656,407.9725 Q86.2656,404.8475 87.5781,403.1913 Q88.9063,401.535 91.4063,401.535 Q92.1094,401.535 92.75,401.6913 Q93.4063,401.8475 93.9688,402.1444 L93.9688,404.8631 Q93.3438,404.285 92.75,404.0194 Q92.1563,403.7381 91.5313,403.7381 Q90.1875,403.7381 89.5,404.8163 Q88.8125,405.8788 88.8125,407.9725 Q88.8125,410.0663 89.5,411.1444 Q90.1875,412.2069 91.5313,412.2069 Q92.1563,412.2069 92.75,411.9413 Q93.3438,411.66 93.9688,411.0819 L93.9688,413.8006 Z " fill="#000000"/><text fill="#000000" font-family="sans-serif" font-size="14" lengthAdjust="spacing" textLength="122" x="105" y="413.0067">WebSocket Client</text><line style="stroke:#555555;stroke-width:0.5;" x1="77" x2="229" y1="424.16" y2="424.16"/><line style="stroke:#555555;stroke-width:0.5;" x1="77" x2="229" y1="432.16" y2="432.16"/></g><!--reverse link Communicator to WebSocket Client--><g id="link_Communicator_WebSocket Client"><path codeLine="25" d="M153,329.51 C153,358.24 153,373.35 153,391.67 " fill="none" id="Communicator-backto-WebSocket Client" style="stroke:#181818;stroke-width:1.0;"/><polygon fill="#181818" points="153,317.51,149,323.51,153,329.51,157,323.51,153,317.51" style="stroke:#181818;stroke-width:1.0;"/></g><!--SRC=[XP5BImCn4CVl-HJ3zkA3Ib44wKNijiKMiT85FMUJgGsRpIn9Mf6btzriNRjzK7UI79B_RnwPSUZ1y1nTmGKcM73BFLdeCvSfKzroY3LtRi15zcbfPMHCEW2TyTPECB8IROtSR-qO6PFnDT3RsZ7mZ3p4E4duqAiMswCz5U50IjvJ3b9P55wHOQAA0j6Ih4hvZLvhbVPZolELKQBwNGGbAnSAjTn0zmFJX4GMsX2JCRyHe0ylxx_5DE1a22AKup5q1oPtjuqYTeuZvtcgbLkYV0pKW4WZDwmCprw93PGv-YK5d-jfCdk5DsuTGbKQD_BYieKRMKlMjMAJOJjY5jGApT6jj3-JRxP6-sML_qlN20MQff47Kgp9uHajGIEVmdRPcEmS2_szBtVcA52jSUeEtJgLM_t8Dko_YLzrkn3jPkrgPc_uMg7n4MFi1m00]--></g></svg>