<svg xmlns="http://www.w3.org/2000/svg" xmlns:xlink="http://www.w3.org/1999/xlink" contentStyleType="text/css" data-diagram-type="CLASS" height="611px" preserveAspectRatio="none" style="width:265px;height:611px;background:#FFFFFF;" version="1.1" viewBox="0 0 265 611" width="265px" zoomAndPan="magnify"><defs/><g><!--cluster horiba.lvlib--><g class="cluster" data-entity="horiba.lvlib" data-source-line="8" data-uid="ent0003" id="cluster_horiba.lvlib"><path d="M8.5,6 L99.1191,6 A3.75,3.75 0 0 1 101.6191,8.5 L108.6191,28.2969 L255.5,28.2969 A2.5,2.5 0 0 1 258,30.7969 L258,601.62 A2.5,2.5 0 0 1 255.5,604.12 L8.5,604.12 A2.5,2.5 0 0 1 6,601.62 L6,8.5 A2.5,2.5 0 0 1 8.5,6" fill="none" style="stroke:#000000;stroke-width:1.5;"/><line style="stroke:#000000;stroke-width:1.5;" x1="6" x2="108.6191" y1="28.2969" y2="28.2969"/><text fill="#000000" font-family="sans-serif" font-size="14" font-weight="bold" lengthAdjust="spacing" textLength="89.6191" x="10" y="20.9951">horiba.lvlib</text></g><!--class SCD--><g class="entity" data-entity="SCD" data-source-line="8" data-uid="ent0002" id="entity_SCD"><rect fill="#FFFFFF" height="439.125" rx="2.5" ry="2.5" style="stroke:#555555;stroke-width:0.5;" width="219.3955" x="22.3" y="149"/><rect fill="#808080" height="32" rx="2.5" ry="2.5" style="stroke:#808080;stroke-width:0.5;" width="219.3955" x="22.3" y="149"/><rect fill="#808080" height="2.5" style="stroke:#808080;stroke-width:0.5;" width="219.3955" x="22.3" y="178.5"/><rect fill="none" height="439.125" rx="2.5" ry="2.5" style="stroke:#555555;stroke-width:0.5;" width="219.3955" x="22.3" y="149"/><ellipse cx="113.0266" cy="165" fill="#ADD1B2" rx="11" ry="11" style="stroke:#181818;stroke-width:1;"/><path d="M115.9953,170.6406 Q115.4172,170.9375 114.7766,171.0781 Q114.1359,171.2344 113.4328,171.2344 Q110.9328,171.2344 109.6047,169.5938 Q108.2922,167.9375 108.2922,164.8125 Q108.2922,161.6875 109.6047,160.0313 Q110.9328,158.375 113.4328,158.375 Q114.1359,158.375 114.7766,158.5313 Q115.4328,158.6875 115.9953,158.9844 L115.9953,161.7031 Q115.3703,161.125 114.7766,160.8594 Q114.1828,160.5781 113.5578,160.5781 Q112.2141,160.5781 111.5266,161.6563 Q110.8391,162.7188 110.8391,164.8125 Q110.8391,166.9063 111.5266,167.9844 Q112.2141,169.0469 113.5578,169.0469 Q114.1828,169.0469 114.7766,168.7813 Q115.3703,168.5 115.9953,167.9219 L115.9953,170.6406 Z " fill="#000000"/><text fill="#000000" font-family="sans-serif" font-size="14" lengthAdjust="spacing" textLength="29.4424" x="133.5266" y="169.8467">SCD</text><line style="stroke:#555555;stroke-width:0.5;" x1="23.3" x2="240.6955" y1="181" y2="181"/><line style="stroke:#555555;stroke-width:0.5;" x1="23.3" x2="240.6955" y1="189" y2="189"/><ellipse cx="33.3" cy="202.6484" fill="#84BE84" rx="3" ry="3" style="stroke:#038048;stroke-width:1;"/><text fill="#000000" font-family="sans-serif" font-size="14" lengthAdjust="spacing" text-decoration="underline" textLength="71.2852" x="42.3" y="205.9951">AcqStart()</text><ellipse cx="33.3" cy="218.9453" fill="#84BE84" rx="3" ry="3" style="stroke:#038048;stroke-width:1;"/><text fill="#000000" font-family="sans-serif" font-size="14" lengthAdjust="spacing" text-decoration="underline" textLength="68.9131" x="42.3" y="222.292">AcqStop()</text><ellipse cx="33.3" cy="235.2422" fill="#84BE84" rx="3" ry="3" style="stroke:#038048;stroke-width:1;"/><text fill="#000000" font-family="sans-serif" font-size="14" lengthAdjust="spacing" text-decoration="underline" textLength="78.8867" x="42.3" y="238.5889">AcqPause()</text><ellipse cx="33.3" cy="251.5391" fill="#84BE84" rx="3" ry="3" style="stroke:#038048;stroke-width:1;"/><text fill="#000000" font-family="sans-serif" font-size="14" lengthAdjust="spacing" text-decoration="underline" textLength="100.0371" x="42.3" y="254.8857">AcqContinue()</text><ellipse cx="33.3" cy="267.8359" fill="#84BE84" rx="3" ry="3" style="stroke:#038048;stroke-width:1;"/><text fill="#000000" font-family="sans-serif" font-size="14" lengthAdjust="spacing" text-decoration="underline" textLength="99.9482" x="42.3" y="271.1826">ForceTrigger()</text><ellipse cx="33.3" cy="284.1328" fill="#84BE84" rx="3" ry="3" style="stroke:#038048;stroke-width:1;"/><text fill="#000000" font-family="sans-serif" font-size="14" lengthAdjust="spacing" text-decoration="underline" textLength="104.2822" x="42.3" y="287.4795">IsDeviceBusy()</text><ellipse cx="33.3" cy="300.4297" fill="#84BE84" rx="3" ry="3" style="stroke:#038048;stroke-width:1;"/><text fill="#000000" font-family="sans-serif" font-size="14" lengthAdjust="spacing" text-decoration="underline" textLength="154.1777" x="42.3" y="303.7764">GetFirmwareVersion()</text><ellipse cx="33.3" cy="316.7266" fill="#84BE84" rx="3" ry="3" style="stroke:#038048;stroke-width:1;"/><text fill="#000000" font-family="sans-serif" font-size="14" lengthAdjust="spacing" text-decoration="underline" textLength="122.8486" x="42.3" y="320.0732">GetFpgaVersion()</text><ellipse cx="33.3" cy="333.0234" fill="#84BE84" rx="3" ry="3" style="stroke:#038048;stroke-width:1;"/><text fill="#000000" font-family="sans-serif" font-size="14" lengthAdjust="spacing" text-decoration="underline" textLength="136.4043" x="42.3" y="336.3701">GetBoardRevision()</text><ellipse cx="33.3" cy="349.3203" fill="#84BE84" rx="3" ry="3" style="stroke:#038048;stroke-width:1;"/><text fill="#000000" font-family="sans-serif" font-size="14" lengthAdjust="spacing" text-decoration="underline" textLength="131.7285" x="42.3" y="352.667">GetSerialNumber()</text><ellipse cx="33.3" cy="365.6172" fill="#84BE84" rx="3" ry="3" style="stroke:#038048;stroke-width:1;"/><text fill="#000000" font-family="sans-serif" font-size="14" lengthAdjust="spacing" text-decoration="underline" textLength="135.6934" x="42.3" y="368.9639">SetHvBiasVoltage()</text><ellipse cx="33.3" cy="381.9141" fill="#84BE84" rx="3" ry="3" style="stroke:#038048;stroke-width:1;"/><text fill="#000000" font-family="sans-serif" font-size="14" lengthAdjust="spacing" text-decoration="underline" textLength="137.6553" x="42.3" y="385.2607">GetHvBiasVoltage()</text><ellipse cx="33.3" cy="398.2109" fill="#84BE84" rx="3" ry="3" style="stroke:#038048;stroke-width:1;"/><text fill="#000000" font-family="sans-serif" font-size="14" lengthAdjust="spacing" text-decoration="underline" textLength="193.3955" x="42.3" y="401.5576">GetMaxHVVoltageAllowed()</text><ellipse cx="33.3" cy="414.5078" fill="#84BE84" rx="3" ry="3" style="stroke:#038048;stroke-width:1;"/><text fill="#000000" font-family="sans-serif" font-size="14" lengthAdjust="spacing" text-decoration="underline" textLength="85.0254" x="42.3" y="417.8545">GetAcqSet()</text><ellipse cx="33.3" cy="430.8047" fill="#84BE84" rx="3" ry="3" style="stroke:#038048;stroke-width:1;"/><text fill="#000000" font-family="sans-serif" font-size="14" lengthAdjust="spacing" text-decoration="underline" textLength="83.0635" x="42.3" y="434.1514">SetAcqSet()</text><ellipse cx="33.3" cy="447.1016" fill="#84BE84" rx="3" ry="3" style="stroke:#038048;stroke-width:1;"/><text fill="#000000" font-family="sans-serif" font-size="14" lengthAdjust="spacing" text-decoration="underline" textLength="119.9639" x="42.3" y="450.4482">IsDataAvailable()</text><ellipse cx="33.3" cy="463.3984" fill="#84BE84" rx="3" ry="3" style="stroke:#038048;stroke-width:1;"/><text fill="#000000" font-family="sans-serif" font-size="14" lengthAdjust="spacing" text-decoration="underline" textLength="133.4922" x="42.3" y="466.7451">GetAvailableData()</text><ellipse cx="33.3" cy="479.6953" fill="#84BE84" rx="3" ry="3" style="stroke:#038048;stroke-width:1;"/><text fill="#000000" font-family="sans-serif" font-size="14" lengthAdjust="spacing" text-decoration="underline" textLength="135.3994" x="42.3" y="483.042">SetInTriggerMode()</text><ellipse cx="33.3" cy="495.9922" fill="#84BE84" rx="3" ry="3" style="stroke:#038048;stroke-width:1;"/><text fill="#000000" font-family="sans-serif" font-size="14" lengthAdjust="spacing" text-decoration="underline" textLength="124.3594" x="42.3" y="499.3389">GetTriggerMode()</text><ellipse cx="33.3" cy="512.2891" fill="#84BE84" rx="3" ry="3" style="stroke:#038048;stroke-width:1;"/><text fill="#000000" font-family="sans-serif" font-size="14" lengthAdjust="spacing" text-decoration="underline" textLength="99.7158" x="42.3" y="515.6357">GetLastError()</text><ellipse cx="33.3" cy="528.5859" fill="#84BE84" rx="3" ry="3" style="stroke:#038048;stroke-width:1;"/><text fill="#000000" font-family="sans-serif" font-size="14" lengthAdjust="spacing" text-decoration="underline" textLength="95.8057" x="42.3" y="531.9326">GetErrorLog()</text><ellipse cx="33.3" cy="544.8828" fill="#84BE84" rx="3" ry="3" style="stroke:#038048;stroke-width:1;"/><text fill="#000000" font-family="sans-serif" font-size="14" lengthAdjust="spacing" textLength="96.9404" x="42.3" y="548.2295">DeviceClose()</text><ellipse cx="33.3" cy="561.1797" fill="#84BE84" rx="3" ry="3" style="stroke:#038048;stroke-width:1;"/><text fill="#000000" font-family="sans-serif" font-size="14" lengthAdjust="spacing" textLength="96.1953" x="42.3" y="564.5264">DeviceOpen()</text><ellipse cx="33.3" cy="577.4766" fill="#84BE84" rx="3" ry="3" style="stroke:#038048;stroke-width:1;"/><text fill="#000000" font-family="sans-serif" font-size="14" lengthAdjust="spacing" textLength="107.6182" x="42.3" y="580.8232">DeviceIsOpen()</text></g><!--class GenericDevice--><g class="entity" data-entity="GenericDevice" data-source-line="35" data-uid="ent0004" id="entity_GenericDevice"><rect fill="#FFFFFF" height="48" rx="2.5" ry="2.5" style="stroke:#555555;stroke-width:0.5;" width="134.1699" x="64.92" y="41"/><rect fill="#808080" height="32" rx="2.5" ry="2.5" style="stroke:#808080;stroke-width:0.5;" width="134.1699" x="64.92" y="41"/><rect fill="#808080" height="2.5" style="stroke:#808080;stroke-width:0.5;" width="134.1699" x="64.92" y="70.5"/><rect fill="none" height="48" rx="2.5" ry="2.5" style="stroke:#555555;stroke-width:0.5;" width="134.1699" x="64.92" y="41"/><ellipse cx="79.92" cy="57" fill="#ADD1B2" rx="11" ry="11" style="stroke:#181818;stroke-width:1;"/><path d="M82.8888,62.6406 Q82.3106,62.9375 81.67,63.0781 Q81.0294,63.2344 80.3263,63.2344 Q77.8263,63.2344 76.4981,61.5938 Q75.1856,59.9375 75.1856,56.8125 Q75.1856,53.6875 76.4981,52.0313 Q77.8263,50.375 80.3263,50.375 Q81.0294,50.375 81.67,50.5313 Q82.3263,50.6875 82.8888,50.9844 L82.8888,53.7031 Q82.2638,53.125 81.67,52.8594 Q81.0763,52.5781 80.4513,52.5781 Q79.1075,52.5781 78.42,53.6563 Q77.7325,54.7188 77.7325,56.8125 Q77.7325,58.9063 78.42,59.9844 Q79.1075,61.0469 80.4513,61.0469 Q81.0763,61.0469 81.67,60.7813 Q82.2638,60.5 82.8888,59.9219 L82.8888,62.6406 Z " fill="#000000"/><text fill="#000000" font-family="sans-serif" font-size="14" lengthAdjust="spacing" textLength="102.1699" x="93.92" y="61.8467">GenericDevice</text><line style="stroke:#555555;stroke-width:0.5;" x1="65.92" x2="198.0899" y1="73" y2="73"/><line style="stroke:#555555;stroke-width:0.5;" x1="65.92" x2="198.0899" y1="81" y2="81"/></g><!--reverse link GenericDevice to SCD--><g class="link" data-entity-1="GenericDevice" data-entity-2="SCD" data-source-line="35" data-uid="lnk5" id="link_GenericDevice_SCD"><path codeLine="35" d="M132,107.16 C132,121.98 132,124.86 132,148.58" fill="none" id="GenericDevice-backto-SCD" style="stroke:#181818;stroke-width:1;"/><polygon fill="none" points="132,89.16,126,107.16,138,107.16,132,89.16" style="stroke:#181818;stroke-width:1;"/></g><!--SRC=[ZTFDJiCm303WUvuY6XSG0ks2X12NhMDiqlWHHRkxgLKYqhWuxW2DlJljLY7O5Y1L3uq_sKwJ11JjeSHGWS4KAs0GOdsXmhFrxLUf4mSX3C4y5qorpnDo3JWOhySE8ywHEtAs7jjaJ5uwq5-FRJ11Q7Bi53plju_wfeMgvjKPYL2fSyjen99NfisYUq_4DeDJjt0skqYJKKylrJ88Y3KhlInHdYXVwUE1UKa5M0wFeb6gei5xg0D6eqcpLklh21WJ6tnaMnJ8-yKqZ71X3GxhyBvVNAECBPUlm3X73itouwugu2yp9E3yeQdvgqgHBRZRkinYZQSeayNGGfYJ4oWmckf_wWRU9lCE3PoZLyoZjjqnb6XRluMRtmq2WmLO1vcBj_CbMXwjDFNTtjvG7i_r7pE385VCn56nZiweQC7N_ERi98us9tHh_gv2lsTw6hg0MgcVL-WQVRFlPiDw-lBZv6JF9LDAVG80]--></g></svg>