<svg xmlns="http://www.w3.org/2000/svg" xmlns:xlink="http://www.w3.org/1999/xlink" contentStyleType="text/css" data-diagram-type="CLASS" height="969px" preserveAspectRatio="none" style="width:317px;height:969px;background:#FFFFFF;" version="1.1" viewBox="0 0 317 969" width="317px" zoomAndPan="magnify"><defs/><g><!--cluster horiba.lvlib--><g class="cluster" data-entity="horiba.lvlib" data-source-line="8" data-uid="ent0003" id="cluster_horiba.lvlib"><path d="M8.5,6 L99.1191,6 A3.75,3.75 0 0 1 101.6191,8.5 L108.6191,28.2969 L307.5,28.2969 A2.5,2.5 0 0 1 310,30.7969 L310,960.16 A2.5,2.5 0 0 1 307.5,962.66 L8.5,962.66 A2.5,2.5 0 0 1 6,960.16 L6,8.5 A2.5,2.5 0 0 1 8.5,6" fill="none" style="stroke:#000000;stroke-width:1.5;"/><line style="stroke:#000000;stroke-width:1.5;" x1="6" x2="108.6191" y1="28.2969" y2="28.2969"/><text fill="#000000" font-family="sans-serif" font-size="14" font-weight="bold" lengthAdjust="spacing" textLength="89.6191" x="10" y="20.9951">horiba.lvlib</text></g><!--class CCD--><g class="entity" data-entity="CCD" data-source-line="8" data-uid="ent0002" id="entity_CCD"><rect fill="#FFFFFF" height="797.6563" rx="2.5" ry="2.5" style="stroke:#555555;stroke-width:0.5;" width="272.7295" x="21.64" y="149"/><rect fill="#808080" height="32" rx="2.5" ry="2.5" style="stroke:#808080;stroke-width:0.5;" width="272.7295" x="21.64" y="149"/><rect fill="#808080" height="2.5" style="stroke:#808080;stroke-width:0.5;" width="272.7295" x="21.64" y="178.5"/><rect fill="none" height="797.6563" rx="2.5" ry="2.5" style="stroke:#555555;stroke-width:0.5;" width="272.7295" x="21.64" y="149"/><ellipse cx="138.5892" cy="165" fill="#ADD1B2" rx="11" ry="11" style="stroke:#181818;stroke-width:1;"/><path d="M141.558,170.6406 Q140.9798,170.9375 140.3392,171.0781 Q139.6986,171.2344 138.9955,171.2344 Q136.4955,171.2344 135.1673,169.5938 Q133.8548,167.9375 133.8548,164.8125 Q133.8548,161.6875 135.1673,160.0313 Q136.4955,158.375 138.9955,158.375 Q139.6986,158.375 140.3392,158.5313 Q140.9955,158.6875 141.558,158.9844 L141.558,161.7031 Q140.933,161.125 140.3392,160.8594 Q139.7455,160.5781 139.1205,160.5781 Q137.7767,160.5781 137.0892,161.6563 Q136.4017,162.7188 136.4017,164.8125 Q136.4017,166.9063 137.0892,167.9844 Q137.7767,169.0469 139.1205,169.0469 Q139.7455,169.0469 140.3392,168.7813 Q140.933,168.5 141.558,167.9219 L141.558,170.6406 Z " fill="#000000"/><text fill="#000000" font-family="sans-serif" font-size="14" lengthAdjust="spacing" textLength="30.3311" x="159.0892" y="169.8467">CCD</text><line style="stroke:#555555;stroke-width:0.5;" x1="22.64" x2="293.3695" y1="181" y2="181"/><line style="stroke:#555555;stroke-width:0.5;" x1="22.64" x2="293.3695" y1="189" y2="189"/><ellipse cx="32.64" cy="202.6484" fill="#84BE84" rx="3" ry="3" style="stroke:#038048;stroke-width:1;"/><text fill="#000000" font-family="sans-serif" font-size="14" lengthAdjust="spacing" text-decoration="underline" textLength="194.749" x="41.64" y="205.9951">getSpeedAndGainSettings()</text><ellipse cx="32.64" cy="218.9453" fill="#84BE84" rx="3" ry="3" style="stroke:#038048;stroke-width:1;"/><text fill="#000000" font-family="sans-serif" font-size="14" lengthAdjust="spacing" text-decoration="underline" textLength="140.3691" x="41.64" y="222.292">parse1dOr2dArray()</text><ellipse cx="32.64" cy="235.2422" fill="#84BE84" rx="3" ry="3" style="stroke:#038048;stroke-width:1;"/><text fill="#000000" font-family="sans-serif" font-size="14" lengthAdjust="spacing" text-decoration="underline" textLength="109.8398" x="41.64" y="238.5889">parseCcdData()</text><ellipse cx="32.64" cy="251.5391" fill="#84BE84" rx="3" ry="3" style="stroke:#038048;stroke-width:1;"/><text fill="#000000" font-family="sans-serif" font-size="14" lengthAdjust="spacing" text-decoration="underline" textLength="128.3994" x="41.64" y="254.8857">parseConfigData()</text><ellipse cx="32.64" cy="267.8359" fill="#84BE84" rx="3" ry="3" style="stroke:#038048;stroke-width:1;"/><text fill="#000000" font-family="sans-serif" font-size="14" lengthAdjust="spacing" text-decoration="underline" textLength="132.877" x="41.64" y="271.1826">parseRangeMode()</text><ellipse cx="32.64" cy="284.1328" fill="#84BE84" rx="3" ry="3" style="stroke:#038048;stroke-width:1;"/><text fill="#000000" font-family="sans-serif" font-size="14" lengthAdjust="spacing" text-decoration="underline" textLength="167.7607" x="41.64" y="287.4795">stitchingModeAverage()</text><ellipse cx="32.64" cy="300.4297" fill="#84BE84" rx="3" ry="3" style="stroke:#038048;stroke-width:1;"/><text fill="#000000" font-family="sans-serif" font-size="14" lengthAdjust="spacing" text-decoration="underline" textLength="157.2539" x="41.64" y="303.7764">stitchingModeSimple()</text><ellipse cx="32.64" cy="316.7266" fill="#84BE84" rx="3" ry="3" style="stroke:#038048;stroke-width:1;"/><text fill="#000000" font-family="sans-serif" font-size="14" lengthAdjust="spacing" text-decoration="underline" textLength="125.125" x="41.64" y="320.0732">acquisitionAbort()</text><ellipse cx="32.64" cy="333.0234" fill="#84BE84" rx="3" ry="3" style="stroke:#038048;stroke-width:1;"/><text fill="#000000" font-family="sans-serif" font-size="14" lengthAdjust="spacing" text-decoration="underline" textLength="121.0508" x="41.64" y="336.3701">acquisitionStart()</text><ellipse cx="32.64" cy="349.3203" fill="#84BE84" rx="3" ry="3" style="stroke:#038048;stroke-width:1;"/><text fill="#000000" font-family="sans-serif" font-size="14" lengthAdjust="spacing" text-decoration="underline" textLength="219.3584" x="41.64" y="352.667">calculateRangeModePositions()</text><ellipse cx="32.64" cy="365.6172" fill="#84BE84" rx="3" ry="3" style="stroke:#038048;stroke-width:1;"/><text fill="#000000" font-family="sans-serif" font-size="14" lengthAdjust="spacing" text-decoration="underline" textLength="246.7295" x="41.64" y="368.9639">convertWavelengthToRamanShift()</text><ellipse cx="32.64" cy="381.9141" fill="#84BE84" rx="3" ry="3" style="stroke:#038048;stroke-width:1;"/><text fill="#000000" font-family="sans-serif" font-size="14" lengthAdjust="spacing" text-decoration="underline" textLength="101.6504" x="41.64" y="385.2607">getAcqCount()</text><ellipse cx="32.64" cy="398.2109" fill="#84BE84" rx="3" ry="3" style="stroke:#038048;stroke-width:1;"/><text fill="#000000" font-family="sans-serif" font-size="14" lengthAdjust="spacing" text-decoration="underline" textLength="144.8945" x="41.64" y="401.5576">getAcquisitionBusy()</text><ellipse cx="32.64" cy="414.5078" fill="#84BE84" rx="3" ry="3" style="stroke:#038048;stroke-width:1;"/><text fill="#000000" font-family="sans-serif" font-size="14" lengthAdjust="spacing" text-decoration="underline" textLength="144.2656" x="41.64" y="417.8545">getAcquisitionData()</text><ellipse cx="32.64" cy="430.8047" fill="#84BE84" rx="3" ry="3" style="stroke:#038048;stroke-width:1;"/><text fill="#000000" font-family="sans-serif" font-size="14" lengthAdjust="spacing" text-decoration="underline" textLength="154.9297" x="41.64" y="434.1514">getAcquisitionReady()</text><ellipse cx="32.64" cy="447.1016" fill="#84BE84" rx="3" ry="3" style="stroke:#038048;stroke-width:1;"/><text fill="#000000" font-family="sans-serif" font-size="14" lengthAdjust="spacing" text-decoration="underline" textLength="156.707" x="41.64" y="450.4482">getChipTemperature()</text><ellipse cx="32.64" cy="463.3984" fill="#84BE84" rx="3" ry="3" style="stroke:#038048;stroke-width:1;"/><text fill="#000000" font-family="sans-serif" font-size="14" lengthAdjust="spacing" text-decoration="underline" textLength="115.2197" x="41.64" y="466.7451">getCleanCount()</text><ellipse cx="32.64" cy="479.6953" fill="#84BE84" rx="3" ry="3" style="stroke:#038048;stroke-width:1;"/><text fill="#000000" font-family="sans-serif" font-size="14" lengthAdjust="spacing" text-decoration="underline" textLength="78.832" x="41.64" y="483.042">getConfig()</text><ellipse cx="32.64" cy="495.9922" fill="#84BE84" rx="3" ry="3" style="stroke:#038048;stroke-width:1;"/><text fill="#000000" font-family="sans-serif" font-size="14" lengthAdjust="spacing" text-decoration="underline" textLength="96.0791" x="41.64" y="499.3389">getDataSize()</text><ellipse cx="32.64" cy="512.2891" fill="#84BE84" rx="3" ry="3" style="stroke:#038048;stroke-width:1;"/><text fill="#000000" font-family="sans-serif" font-size="14" lengthAdjust="spacing" text-decoration="underline" textLength="133.7246" x="41.64" y="515.6357">getExposureTime()</text><ellipse cx="32.64" cy="528.5859" fill="#84BE84" rx="3" ry="3" style="stroke:#038048;stroke-width:1;"/><text fill="#000000" font-family="sans-serif" font-size="14" lengthAdjust="spacing" text-decoration="underline" textLength="103.6328" x="41.64" y="531.9326">getFitParams()</text><ellipse cx="32.64" cy="544.8828" fill="#84BE84" rx="3" ry="3" style="stroke:#038048;stroke-width:1;"/><text fill="#000000" font-family="sans-serif" font-size="14" lengthAdjust="spacing" text-decoration="underline" textLength="66.1035" x="41.64" y="548.2295">getGain()</text><ellipse cx="32.64" cy="561.1797" fill="#84BE84" rx="3" ry="3" style="stroke:#038048;stroke-width:1;"/><text fill="#000000" font-family="sans-serif" font-size="14" lengthAdjust="spacing" text-decoration="underline" textLength="129.4385" x="41.64" y="564.5264">getParallelSpeed()</text><ellipse cx="32.64" cy="577.4766" fill="#84BE84" rx="3" ry="3" style="stroke:#038048;stroke-width:1;"/><text fill="#000000" font-family="sans-serif" font-size="14" lengthAdjust="spacing" text-decoration="underline" textLength="102.2998" x="41.64" y="580.8232">getSignalOut()</text><ellipse cx="32.64" cy="593.7734" fill="#84BE84" rx="3" ry="3" style="stroke:#038048;stroke-width:1;"/><text fill="#000000" font-family="sans-serif" font-size="14" lengthAdjust="spacing" text-decoration="underline" textLength="77.7998" x="41.64" y="597.1201">getSpeed()</text><ellipse cx="32.64" cy="610.0703" fill="#84BE84" rx="3" ry="3" style="stroke:#038048;stroke-width:1;"/><text fill="#000000" font-family="sans-serif" font-size="14" lengthAdjust="spacing" text-decoration="underline" textLength="148.1416" x="41.64" y="613.417">getTimerResolution()</text><ellipse cx="32.64" cy="626.3672" fill="#84BE84" rx="3" ry="3" style="stroke:#038048;stroke-width:1;"/><text fill="#000000" font-family="sans-serif" font-size="14" lengthAdjust="spacing" text-decoration="underline" textLength="97.2549" x="41.64" y="629.7139">getTriggerIn()</text><ellipse cx="32.64" cy="642.6641" fill="#84BE84" rx="3" ry="3" style="stroke:#038048;stroke-width:1;"/><text fill="#000000" font-family="sans-serif" font-size="14" lengthAdjust="spacing" text-decoration="underline" textLength="185.377" x="41.64" y="646.0107">getXAxisConversionType()</text><ellipse cx="32.64" cy="658.9609" fill="#84BE84" rx="3" ry="3" style="stroke:#038048;stroke-width:1;"/><text fill="#000000" font-family="sans-serif" font-size="14" lengthAdjust="spacing" text-decoration="underline" textLength="57.9004" x="41.64" y="662.3076">restart()</text><ellipse cx="32.64" cy="675.2578" fill="#84BE84" rx="3" ry="3" style="stroke:#038048;stroke-width:1;"/><text fill="#000000" font-family="sans-serif" font-size="14" lengthAdjust="spacing" text-decoration="underline" textLength="100.0576" x="41.64" y="678.6045">setAcqCount()</text><ellipse cx="32.64" cy="691.5547" fill="#84BE84" rx="3" ry="3" style="stroke:#038048;stroke-width:1;"/><text fill="#000000" font-family="sans-serif" font-size="14" lengthAdjust="spacing" text-decoration="underline" textLength="108.5615" x="41.64" y="694.9014">setAcqFormat()</text><ellipse cx="32.64" cy="707.8516" fill="#84BE84" rx="3" ry="3" style="stroke:#038048;stroke-width:1;"/><text fill="#000000" font-family="sans-serif" font-size="14" lengthAdjust="spacing" text-decoration="underline" textLength="163.3857" x="41.64" y="711.1982">setCenterWavelength()</text><ellipse cx="32.64" cy="724.1484" fill="#84BE84" rx="3" ry="3" style="stroke:#038048;stroke-width:1;"/><text fill="#000000" font-family="sans-serif" font-size="14" lengthAdjust="spacing" text-decoration="underline" textLength="113.627" x="41.64" y="727.4951">setCleanCount()</text><ellipse cx="32.64" cy="740.4453" fill="#84BE84" rx="3" ry="3" style="stroke:#038048;stroke-width:1;"/><text fill="#000000" font-family="sans-serif" font-size="14" lengthAdjust="spacing" text-decoration="underline" textLength="132.1318" x="41.64" y="743.792">setExposureTime()</text><ellipse cx="32.64" cy="756.7422" fill="#84BE84" rx="3" ry="3" style="stroke:#038048;stroke-width:1;"/><text fill="#000000" font-family="sans-serif" font-size="14" lengthAdjust="spacing" text-decoration="underline" textLength="64.5107" x="41.64" y="760.0889">setGain()</text><ellipse cx="32.64" cy="773.0391" fill="#84BE84" rx="3" ry="3" style="stroke:#038048;stroke-width:1;"/><text fill="#000000" font-family="sans-serif" font-size="14" lengthAdjust="spacing" text-decoration="underline" textLength="127.8457" x="41.64" y="776.3857">setParallelSpeed()</text><ellipse cx="32.64" cy="789.3359" fill="#84BE84" rx="3" ry="3" style="stroke:#038048;stroke-width:1;"/><text fill="#000000" font-family="sans-serif" font-size="14" lengthAdjust="spacing" text-decoration="underline" textLength="54.5029" x="41.64" y="792.6826">setRoi()</text><ellipse cx="32.64" cy="805.6328" fill="#84BE84" rx="3" ry="3" style="stroke:#038048;stroke-width:1;"/><text fill="#000000" font-family="sans-serif" font-size="14" lengthAdjust="spacing" text-decoration="underline" textLength="100.707" x="41.64" y="808.9795">setSignalOut()</text><ellipse cx="32.64" cy="821.9297" fill="#84BE84" rx="3" ry="3" style="stroke:#038048;stroke-width:1;"/><text fill="#000000" font-family="sans-serif" font-size="14" lengthAdjust="spacing" text-decoration="underline" textLength="76.207" x="41.64" y="825.2764">setSpeed()</text><ellipse cx="32.64" cy="838.2266" fill="#84BE84" rx="3" ry="3" style="stroke:#038048;stroke-width:1;"/><text fill="#000000" font-family="sans-serif" font-size="14" lengthAdjust="spacing" text-decoration="underline" textLength="146.5488" x="41.64" y="841.5732">setTimerResolution()</text><ellipse cx="32.64" cy="854.5234" fill="#84BE84" rx="3" ry="3" style="stroke:#038048;stroke-width:1;"/><text fill="#000000" font-family="sans-serif" font-size="14" lengthAdjust="spacing" text-decoration="underline" textLength="95.6621" x="41.64" y="857.8701">setTriggerIn()</text><ellipse cx="32.64" cy="870.8203" fill="#84BE84" rx="3" ry="3" style="stroke:#038048;stroke-width:1;"/><text fill="#000000" font-family="sans-serif" font-size="14" lengthAdjust="spacing" text-decoration="underline" textLength="183.7842" x="41.64" y="874.167">setXAxisConversionType()</text><ellipse cx="32.64" cy="887.1172" fill="#84BE84" rx="3" ry="3" style="stroke:#038048;stroke-width:1;"/><text fill="#000000" font-family="sans-serif" font-size="14" lengthAdjust="spacing" textLength="96.9404" x="41.64" y="890.4639">DeviceClose()</text><ellipse cx="32.64" cy="903.4141" fill="#84BE84" rx="3" ry="3" style="stroke:#038048;stroke-width:1;"/><text fill="#000000" font-family="sans-serif" font-size="14" lengthAdjust="spacing" textLength="107.6182" x="41.64" y="906.7607">DeviceIsOpen()</text><ellipse cx="32.64" cy="919.7109" fill="#84BE84" rx="3" ry="3" style="stroke:#038048;stroke-width:1;"/><text fill="#000000" font-family="sans-serif" font-size="14" lengthAdjust="spacing" textLength="96.1953" x="41.64" y="923.0576">DeviceOpen()</text><ellipse cx="32.64" cy="936.0078" fill="#84BE84" rx="3" ry="3" style="stroke:#038048;stroke-width:1;"/><text fill="#000000" font-family="sans-serif" font-size="14" lengthAdjust="spacing" textLength="94.0762" x="41.64" y="939.3545">getChipSize()</text></g><!--class GenericDevice--><g class="entity" data-entity="GenericDevice" data-source-line="57" data-uid="ent0004" id="entity_GenericDevice"><rect fill="#FFFFFF" height="48" rx="2.5" ry="2.5" style="stroke:#555555;stroke-width:0.5;" width="134.1699" x="90.92" y="41"/><rect fill="#808080" height="32" rx="2.5" ry="2.5" style="stroke:#808080;stroke-width:0.5;" width="134.1699" x="90.92" y="41"/><rect fill="#808080" height="2.5" style="stroke:#808080;stroke-width:0.5;" width="134.1699" x="90.92" y="70.5"/><rect fill="none" height="48" rx="2.5" ry="2.5" style="stroke:#555555;stroke-width:0.5;" width="134.1699" x="90.92" y="41"/><ellipse cx="105.92" cy="57" fill="#ADD1B2" rx="11" ry="11" style="stroke:#181818;stroke-width:1;"/><path d="M108.8888,62.6406 Q108.3106,62.9375 107.67,63.0781 Q107.0294,63.2344 106.3263,63.2344 Q103.8263,63.2344 102.4981,61.5938 Q101.1856,59.9375 101.1856,56.8125 Q101.1856,53.6875 102.4981,52.0313 Q103.8263,50.375 106.3263,50.375 Q107.0294,50.375 107.67,50.5313 Q108.3263,50.6875 108.8888,50.9844 L108.8888,53.7031 Q108.2638,53.125 107.67,52.8594 Q107.0763,52.5781 106.4513,52.5781 Q105.1075,52.5781 104.42,53.6563 Q103.7325,54.7188 103.7325,56.8125 Q103.7325,58.9063 104.42,59.9844 Q105.1075,61.0469 106.4513,61.0469 Q107.0763,61.0469 107.67,60.7813 Q108.2638,60.5 108.8888,59.9219 L108.8888,62.6406 Z " fill="#000000"/><text fill="#000000" font-family="sans-serif" font-size="14" lengthAdjust="spacing" textLength="102.1699" x="119.92" y="61.8467">GenericDevice</text><line style="stroke:#555555;stroke-width:0.5;" x1="91.92" x2="224.0899" y1="73" y2="73"/><line style="stroke:#555555;stroke-width:0.5;" x1="91.92" x2="224.0899" y1="81" y2="81"/></g><!--reverse link GenericDevice to CCD--><g class="link" data-entity-1="GenericDevice" data-entity-2="CCD" data-source-line="57" data-uid="lnk5" id="link_GenericDevice_CCD"><path codeLine="57" d="M158,107.2 C158,121.73 158,124.36 158,148.89" fill="none" id="GenericDevice-backto-CCD" style="stroke:#181818;stroke-width:1;"/><polygon fill="none" points="158,89.2,152,107.2,164,107.2,158,89.2" style="stroke:#181818;stroke-width:1;"/></g><!--SRC=[ZPLDRzim38Rl_XL6TjamjEW631YANLndwNeOKiG1kYiZipPHMN95EcYMvRzFIhBr8v4T6JxOUlYbbuGO9JNG8BUWiC0M78XrwMN23sJ2LvFc6fYlG3rKpdQcpAtsmBl9TXrWrfNeziYNxNgBJAoHFN2nNM-17mZUnq70hnVXILxGObl_fWihOfkq98TAo9f41I_fgBQE5d2kbveMbta-7gNhPCq2GcgJhXkKsfQRz6E5KhI8PMRAQo1Je0YPYjz_E0Rxm8oVogdxN6REmQg7obKv1e4-mffxgWQW6PWAVzeIZpCi9Ahs2GSaMwA3wXIoeARL4H3KOqTCuIYpXNKoI1K2CKg1Lfq6UIxZrkwC8WUihF55o1qiKQEff9xR6JHWYfhk8p6yW9bwp7shz0B_ihtgU7KA5zVbDJVpxHftcDVKph5flJ3IEOnp6i7qrx1hb-XsoBUWt_4GtvzQopw7EJLnQ49o6uQBeqGOakXciDKQzNQYebH1bG4zxUArzjk72jmCsUekA13d75KLkfiuyIjx8iwtFSVUqtpLHex68SUxd8SwS0TCh6iWJkHe1DrpvyV1WLxXKxJcFYNv92KzDRCKtHjGcNjLvXDLva6LEQhoVsICIrAOQyl7_j_mj4LpPEFWztxUzrEOR9BNTz0r6dIaTiQZzDkVixCZjrII97y1]--></g></svg>