<?xml version="1.0" encoding="us-ascii" standalone="no"?><svg xmlns="http://www.w3.org/2000/svg" xmlns:xlink="http://www.w3.org/1999/xlink" contentStyleType="text/css" height="594px" preserveAspectRatio="none" style="width:235px;height:594px;background:#FFFFFF;" version="1.1" viewBox="0 0 235 594" width="235px" zoomAndPan="magnify"><defs/><g><!--cluster horiba.lvlib--><g id="cluster_horiba.lvlib"><path d="M8.5,6 L95.5,6 A3.75,3.75 0 0 1 98,8.5 L105,28.2969 L225.5,28.2969 A2.5,2.5 0 0 1 228,30.7969 L228,585.33 A2.5,2.5 0 0 1 225.5,587.83 L8.5,587.83 A2.5,2.5 0 0 1 6,585.33 L6,8.5 A2.5,2.5 0 0 1 8.5,6 " fill="none" style="stroke:#000000;stroke-width:1.5;"/><line style="stroke:#000000;stroke-width:1.5;" x1="6" x2="105" y1="28.2969" y2="28.2969"/><text fill="#000000" font-family="sans-serif" font-size="14" font-weight="bold" lengthAdjust="spacing" textLength="86" x="10" y="20.9951">horiba.lvlib</text></g><!--class Monochromator--><g id="elem_Monochromator"><rect codeLine="8" fill="#FFFFFF" height="422.8281" id="Monochromator" rx="2.5" ry="2.5" style="stroke:#555555;stroke-width:0.5;" width="190" x="22" y="149"/><rect fill="#808080" height="32" rx="2.5" ry="2.5" style="stroke:#808080;stroke-width:0.5;" width="190" x="22" y="149"/><rect fill="#808080" height="2.5" style="stroke:#808080;stroke-width:0.5;" width="190" x="22" y="178.5"/><rect codeLine="8" fill="none" height="422.8281" id="Monochromator" rx="2.5" ry="2.5" style="stroke:#555555;stroke-width:0.5;" width="190" x="22" y="149"/><ellipse cx="58.6" cy="165" fill="#ADD1B2" rx="11" ry="11" style="stroke:#181818;stroke-width:1.0;"/><path d="M61.5688,170.6406 Q60.9906,170.9375 60.35,171.0781 Q59.7094,171.2344 59.0063,171.2344 Q56.5063,171.2344 55.1781,169.5938 Q53.8656,167.9375 53.8656,164.8125 Q53.8656,161.6875 55.1781,160.0313 Q56.5063,158.375 59.0063,158.375 Q59.7094,158.375 60.35,158.5313 Q61.0063,158.6875 61.5688,158.9844 L61.5688,161.7031 Q60.9438,161.125 60.35,160.8594 Q59.7563,160.5781 59.1313,160.5781 Q57.7875,160.5781 57.1,161.6563 Q56.4125,162.7188 56.4125,164.8125 Q56.4125,166.9063 57.1,167.9844 Q57.7875,169.0469 59.1313,169.0469 Q59.7563,169.0469 60.35,168.7813 Q60.9438,168.5 61.5688,167.9219 L61.5688,170.6406 Z " fill="#000000"/><text fill="#000000" font-family="sans-serif" font-size="14" lengthAdjust="spacing" textLength="110" x="77.4" y="169.8467">Monochromator</text><line style="stroke:#555555;stroke-width:0.5;" x1="23" x2="211" y1="181" y2="181"/><line style="stroke:#555555;stroke-width:0.5;" x1="23" x2="211" y1="189" y2="189"/><ellipse cx="33" cy="202.6484" fill="#84BE84" rx="3" ry="3" style="stroke:#038048;stroke-width:1.0;"/><text fill="#000000" font-family="sans-serif" font-size="14" lengthAdjust="spacing" text-decoration="underline" textLength="87" x="42" y="205.9951">setPosition()</text><ellipse cx="33" cy="218.9453" fill="#84BE84" rx="3" ry="3" style="stroke:#038048;stroke-width:1.0;"/><text fill="#000000" font-family="sans-serif" font-size="14" lengthAdjust="spacing" text-decoration="underline" textLength="164" x="42" y="222.292">getFilterWheelPosition()</text><ellipse cx="33" cy="235.2422" fill="#84BE84" rx="3" ry="3" style="stroke:#038048;stroke-width:1.0;"/><text fill="#000000" font-family="sans-serif" font-size="14" lengthAdjust="spacing" text-decoration="underline" textLength="124" x="42" y="238.5889">moveFilterWheel()</text><ellipse cx="33" cy="251.5391" fill="#84BE84" rx="3" ry="3" style="stroke:#038048;stroke-width:1.0;"/><text fill="#000000" font-family="sans-serif" font-size="14" lengthAdjust="spacing" text-decoration="underline" textLength="138" x="42" y="254.8857">getGratingPosition()</text><ellipse cx="33" cy="267.8359" fill="#84BE84" rx="3" ry="3" style="stroke:#038048;stroke-width:1.0;"/><text fill="#000000" font-family="sans-serif" font-size="14" lengthAdjust="spacing" text-decoration="underline" textLength="98" x="42" y="271.1826">moveGrating()</text><ellipse cx="33" cy="284.1328" fill="#84BE84" rx="3" ry="3" style="stroke:#038048;stroke-width:1.0;"/><text fill="#000000" font-family="sans-serif" font-size="14" lengthAdjust="spacing" text-decoration="underline" textLength="127" x="42" y="287.4795">getMirrorPosition()</text><ellipse cx="33" cy="300.4297" fill="#84BE84" rx="3" ry="3" style="stroke:#038048;stroke-width:1.0;"/><text fill="#000000" font-family="sans-serif" font-size="14" lengthAdjust="spacing" text-decoration="underline" textLength="87" x="42" y="303.7764">moveMirror()</text><ellipse cx="33" cy="316.7266" fill="#84BE84" rx="3" ry="3" style="stroke:#038048;stroke-width:1.0;"/><text fill="#000000" font-family="sans-serif" font-size="14" lengthAdjust="spacing" text-decoration="underline" textLength="88" x="42" y="320.0732">getPosition()</text><ellipse cx="33" cy="333.0234" fill="#84BE84" rx="3" ry="3" style="stroke:#038048;stroke-width:1.0;"/><text fill="#000000" font-family="sans-serif" font-size="14" lengthAdjust="spacing" text-decoration="underline" textLength="121" x="42" y="336.3701">moveToPosition()</text><ellipse cx="33" cy="349.3203" fill="#84BE84" rx="3" ry="3" style="stroke:#038048;stroke-width:1.0;"/><text fill="#000000" font-family="sans-serif" font-size="14" lengthAdjust="spacing" text-decoration="underline" textLength="128" x="42" y="352.667">getShutterStatus()</text><ellipse cx="33" cy="365.6172" fill="#84BE84" rx="3" ry="3" style="stroke:#038048;stroke-width:1.0;"/><text fill="#000000" font-family="sans-serif" font-size="14" lengthAdjust="spacing" text-decoration="underline" textLength="99" x="42" y="368.9639">shutterClose()</text><ellipse cx="33" cy="381.9141" fill="#84BE84" rx="3" ry="3" style="stroke:#038048;stroke-width:1.0;"/><text fill="#000000" font-family="sans-serif" font-size="14" lengthAdjust="spacing" text-decoration="underline" textLength="98" x="42" y="385.2607">shutterOpen()</text><ellipse cx="33" cy="398.2109" fill="#84BE84" rx="3" ry="3" style="stroke:#038048;stroke-width:1.0;"/><text fill="#000000" font-family="sans-serif" font-size="14" lengthAdjust="spacing" text-decoration="underline" textLength="103" x="42" y="401.5576">shutterSelect()</text><ellipse cx="33" cy="414.5078" fill="#84BE84" rx="3" ry="3" style="stroke:#038048;stroke-width:1.0;"/><text fill="#000000" font-family="sans-serif" font-size="14" lengthAdjust="spacing" text-decoration="underline" textLength="144" x="42" y="417.8545">getSlitPositionInMM()</text><ellipse cx="33" cy="430.8047" fill="#84BE84" rx="3" ry="3" style="stroke:#038048;stroke-width:1.0;"/><text fill="#000000" font-family="sans-serif" font-size="14" lengthAdjust="spacing" text-decoration="underline" textLength="92" x="42" y="434.1514">moveSlitMM()</text><ellipse cx="33" cy="447.1016" fill="#84BE84" rx="3" ry="3" style="stroke:#038048;stroke-width:1.0;"/><text fill="#000000" font-family="sans-serif" font-size="14" lengthAdjust="spacing" text-decoration="underline" textLength="77" x="42" y="450.4482">getConfig()</text><ellipse cx="33" cy="463.3984" fill="#84BE84" rx="3" ry="3" style="stroke:#038048;stroke-width:1.0;"/><text fill="#000000" font-family="sans-serif" font-size="14" lengthAdjust="spacing" text-decoration="underline" textLength="30" x="42" y="466.7451">Init()</text><ellipse cx="33" cy="479.6953" fill="#84BE84" rx="3" ry="3" style="stroke:#038048;stroke-width:1.0;"/><text fill="#000000" font-family="sans-serif" font-size="14" lengthAdjust="spacing" text-decoration="underline" textLength="55" x="42" y="483.042">isBusy()</text><ellipse cx="33" cy="495.9922" fill="#84BE84" rx="3" ry="3" style="stroke:#038048;stroke-width:1.0;"/><text fill="#000000" font-family="sans-serif" font-size="14" lengthAdjust="spacing" text-decoration="underline" textLength="84" x="42" y="499.3389">isInitialized()</text><rect fill="#F24D5C" height="6" style="stroke:#C82930;stroke-width:1.0;" width="6" x="30" y="509.2891"/><text fill="#000000" font-family="sans-serif" font-size="14" lengthAdjust="spacing" text-decoration="underline" textLength="125" x="42" y="515.6357">parseConfigData()</text><ellipse cx="33" cy="528.5859" fill="#84BE84" rx="3" ry="3" style="stroke:#038048;stroke-width:1.0;"/><text fill="#000000" font-family="sans-serif" font-size="14" lengthAdjust="spacing" textLength="96" x="42" y="531.9326">DeviceClose()</text><ellipse cx="33" cy="544.8828" fill="#84BE84" rx="3" ry="3" style="stroke:#038048;stroke-width:1.0;"/><text fill="#000000" font-family="sans-serif" font-size="14" lengthAdjust="spacing" textLength="106" x="42" y="548.2295">DeviceIsOpen()</text><ellipse cx="33" cy="561.1797" fill="#84BE84" rx="3" ry="3" style="stroke:#038048;stroke-width:1.0;"/><text fill="#000000" font-family="sans-serif" font-size="14" lengthAdjust="spacing" textLength="95" x="42" y="564.5264">DeviceOpen()</text></g><!--class GenericDevice--><g id="elem_GenericDevice"><rect fill="#FFFFFF" height="48" id="GenericDevice" rx="2.5" ry="2.5" style="stroke:#555555;stroke-width:0.5;" width="133" x="50.5" y="41"/><rect fill="#808080" height="32" rx="2.5" ry="2.5" style="stroke:#808080;stroke-width:0.5;" width="133" x="50.5" y="41"/><rect fill="#808080" height="2.5" style="stroke:#808080;stroke-width:0.5;" width="133" x="50.5" y="70.5"/><rect fill="none" height="48" id="GenericDevice" rx="2.5" ry="2.5" style="stroke:#555555;stroke-width:0.5;" width="133" x="50.5" y="41"/><ellipse cx="65.5" cy="57" fill="#ADD1B2" rx="11" ry="11" style="stroke:#181818;stroke-width:1.0;"/><path d="M68.4688,62.6406 Q67.8906,62.9375 67.25,63.0781 Q66.6094,63.2344 65.9063,63.2344 Q63.4063,63.2344 62.0781,61.5938 Q60.7656,59.9375 60.7656,56.8125 Q60.7656,53.6875 62.0781,52.0313 Q63.4063,50.375 65.9063,50.375 Q66.6094,50.375 67.25,50.5313 Q67.9063,50.6875 68.4688,50.9844 L68.4688,53.7031 Q67.8438,53.125 67.25,52.8594 Q66.6563,52.5781 66.0313,52.5781 Q64.6875,52.5781 64,53.6563 Q63.3125,54.7188 63.3125,56.8125 Q63.3125,58.9063 64,59.9844 Q64.6875,61.0469 66.0313,61.0469 Q66.6563,61.0469 67.25,60.7813 Q67.8438,60.5 68.4688,59.9219 L68.4688,62.6406 Z " fill="#000000"/><text fill="#000000" font-family="sans-serif" font-size="14" lengthAdjust="spacing" textLength="101" x="79.5" y="61.8467">GenericDevice</text><line style="stroke:#555555;stroke-width:0.5;" x1="51.5" x2="182.5" y1="73" y2="73"/><line style="stroke:#555555;stroke-width:0.5;" x1="51.5" x2="182.5" y1="81" y2="81"/></g><!--reverse link GenericDevice to Monochromator--><g id="link_GenericDevice_Monochromator"><path codeLine="34" d="M117,107.03 C117,121.89 117,124.84 117,148.59 " fill="none" id="GenericDevice-backto-Monochromator" style="stroke:#181818;stroke-width:1.0;"/><polygon fill="none" points="117,89.03,111,107.03,123,107.03,117,89.03" style="stroke:#181818;stroke-width:1.0;"/></g><!--SRC=[XPD1Jy8m583l_HKDNZG6myN444-CW1mMJMRYkNHFzaBNjxGTYIB_tPPDWeDkRzcXVL-_zhsj5XpNeWHR2GaPLC88HuPFcTsY3gEI9qfOEnDokp5KwpmXvO6RnJ4kC38vc1PvF4ONMP1sBJ0vHXTu0U4T5ni-JSB3pcX7bN_vcfoZakTeG3eapMImy5511jVYGUqKhgSfQPA5eJAKD-9xjhTEE9G7lY_15PGV-Bq5zqOMW-FsxXgm0RT0vS1y502gdorf1sTmLBZq3KUz6PQrO5IKeZ5aXZqD5zKC2zvfi4jPKJjVUUPpjRrEsGP955de9LuhqBr01if_-FXP59wAMkaqZHSMo5ZUYnBIdnZf_qfZv0HePxNzYkN2EXGAlo6_YepzdswXsNakd0ZGQVaSTYZXrC7E_Ch-TQwJQAVPWVs_8alGO50sq8W__up7lPU8CVOB]--></g></svg>