<?xml version="1.0" encoding="us-ascii" standalone="no"?><svg xmlns="http://www.w3.org/2000/svg" xmlns:xlink="http://www.w3.org/1999/xlink" contentStyleType="text/css" height="643px" preserveAspectRatio="none" style="width:257px;height:643px;background:#FFFFFF;" version="1.1" viewBox="0 0 257 643" width="257px" zoomAndPan="magnify"><defs/><g><!--cluster horiba.lvlib--><g id="cluster_horiba.lvlib"><path d="M8.5,6 L95.5,6 A3.75,3.75 0 0 1 98,8.5 L105,28.2969 L247.5,28.2969 A2.5,2.5 0 0 1 250,30.7969 L250,634.22 A2.5,2.5 0 0 1 247.5,636.72 L8.5,636.72 A2.5,2.5 0 0 1 6,634.22 L6,8.5 A2.5,2.5 0 0 1 8.5,6 " fill="none" style="stroke:#000000;stroke-width:1.5;"/><line style="stroke:#000000;stroke-width:1.5;" x1="6" x2="105" y1="28.2969" y2="28.2969"/><text fill="#000000" font-family="sans-serif" font-size="14" font-weight="bold" lengthAdjust="spacing" textLength="86" x="10" y="20.9951">horiba.lvlib</text></g><!--class SCD--><g id="elem_SCD"><rect codeLine="8" fill="#FFFFFF" height="471.7188" id="SCD" rx="2.5" ry="2.5" style="stroke:#555555;stroke-width:0.5;" width="212" x="22" y="149"/><rect fill="#808080" height="32" rx="2.5" ry="2.5" style="stroke:#808080;stroke-width:0.5;" width="212" x="22" y="149"/><rect fill="#808080" height="2.5" style="stroke:#808080;stroke-width:0.5;" width="212" x="22" y="178.5"/><rect codeLine="8" fill="none" height="471.7188" id="SCD" rx="2.5" ry="2.5" style="stroke:#555555;stroke-width:0.5;" width="212" x="22" y="149"/><ellipse cx="108.75" cy="165" fill="#ADD1B2" rx="11" ry="11" style="stroke:#181818;stroke-width:1.0;"/><path d="M111.7188,170.6406 Q111.1406,170.9375 110.5,171.0781 Q109.8594,171.2344 109.1563,171.2344 Q106.6563,171.2344 105.3281,169.5938 Q104.0156,167.9375 104.0156,164.8125 Q104.0156,161.6875 105.3281,160.0313 Q106.6563,158.375 109.1563,158.375 Q109.8594,158.375 110.5,158.5313 Q111.1563,158.6875 111.7188,158.9844 L111.7188,161.7031 Q111.0938,161.125 110.5,160.8594 Q109.9063,160.5781 109.2813,160.5781 Q107.9375,160.5781 107.25,161.6563 Q106.5625,162.7188 106.5625,164.8125 Q106.5625,166.9063 107.25,167.9844 Q107.9375,169.0469 109.2813,169.0469 Q109.9063,169.0469 110.5,168.7813 Q111.0938,168.5 111.7188,167.9219 L111.7188,170.6406 Z " fill="#000000"/><text fill="#000000" font-family="sans-serif" font-size="14" lengthAdjust="spacing" textLength="30" x="129.25" y="169.8467">SCD</text><line style="stroke:#555555;stroke-width:0.5;" x1="23" x2="233" y1="181" y2="181"/><line style="stroke:#555555;stroke-width:0.5;" x1="23" x2="233" y1="189" y2="189"/><ellipse cx="33" cy="202.6484" fill="#84BE84" rx="3" ry="3" style="stroke:#038048;stroke-width:1.0;"/><text fill="#000000" font-family="sans-serif" font-size="14" lengthAdjust="spacing" text-decoration="underline" textLength="68" x="42" y="205.9951">AcqStart()</text><ellipse cx="33" cy="218.9453" fill="#84BE84" rx="3" ry="3" style="stroke:#038048;stroke-width:1.0;"/><text fill="#000000" font-family="sans-serif" font-size="14" lengthAdjust="spacing" text-decoration="underline" textLength="68" x="42" y="222.292">AcqStop()</text><ellipse cx="33" cy="235.2422" fill="#84BE84" rx="3" ry="3" style="stroke:#038048;stroke-width:1.0;"/><text fill="#000000" font-family="sans-serif" font-size="14" lengthAdjust="spacing" text-decoration="underline" textLength="79" x="42" y="238.5889">AcqPause()</text><ellipse cx="33" cy="251.5391" fill="#84BE84" rx="3" ry="3" style="stroke:#038048;stroke-width:1.0;"/><text fill="#000000" font-family="sans-serif" font-size="14" lengthAdjust="spacing" text-decoration="underline" textLength="99" x="42" y="254.8857">AcqContinue()</text><ellipse cx="33" cy="267.8359" fill="#84BE84" rx="3" ry="3" style="stroke:#038048;stroke-width:1.0;"/><text fill="#000000" font-family="sans-serif" font-size="14" lengthAdjust="spacing" text-decoration="underline" textLength="98" x="42" y="271.1826">ForceTrigger()</text><ellipse cx="33" cy="284.1328" fill="#84BE84" rx="3" ry="3" style="stroke:#038048;stroke-width:1.0;"/><text fill="#000000" font-family="sans-serif" font-size="14" lengthAdjust="spacing" text-decoration="underline" textLength="102" x="42" y="287.4795">IsDeviceBusy()</text><ellipse cx="33" cy="300.4297" fill="#84BE84" rx="3" ry="3" style="stroke:#038048;stroke-width:1.0;"/><text fill="#000000" font-family="sans-serif" font-size="14" lengthAdjust="spacing" text-decoration="underline" textLength="149" x="42" y="303.7764">GetFirmwareVersion()</text><ellipse cx="33" cy="316.7266" fill="#84BE84" rx="3" ry="3" style="stroke:#038048;stroke-width:1.0;"/><text fill="#000000" font-family="sans-serif" font-size="14" lengthAdjust="spacing" text-decoration="underline" textLength="121" x="42" y="320.0732">GetFpgaVersion()</text><ellipse cx="33" cy="333.0234" fill="#84BE84" rx="3" ry="3" style="stroke:#038048;stroke-width:1.0;"/><text fill="#000000" font-family="sans-serif" font-size="14" lengthAdjust="spacing" text-decoration="underline" textLength="134" x="42" y="336.3701">GetBoardRevision()</text><ellipse cx="33" cy="349.3203" fill="#84BE84" rx="3" ry="3" style="stroke:#038048;stroke-width:1.0;"/><text fill="#000000" font-family="sans-serif" font-size="14" lengthAdjust="spacing" text-decoration="underline" textLength="127" x="42" y="352.667">GetSerialNumber()</text><ellipse cx="33" cy="365.6172" fill="#84BE84" rx="3" ry="3" style="stroke:#038048;stroke-width:1.0;"/><text fill="#000000" font-family="sans-serif" font-size="14" lengthAdjust="spacing" text-decoration="underline" textLength="143" x="42" y="368.9639">GetIntegrationTime()</text><ellipse cx="33" cy="381.9141" fill="#84BE84" rx="3" ry="3" style="stroke:#038048;stroke-width:1.0;"/><text fill="#000000" font-family="sans-serif" font-size="14" lengthAdjust="spacing" text-decoration="underline" textLength="141" x="42" y="385.2607">SetIntegrationTime()</text><ellipse cx="33" cy="398.2109" fill="#84BE84" rx="3" ry="3" style="stroke:#038048;stroke-width:1.0;"/><text fill="#000000" font-family="sans-serif" font-size="14" lengthAdjust="spacing" text-decoration="underline" textLength="131" x="42" y="401.5576">SetHvBiasVoltage()</text><ellipse cx="33" cy="414.5078" fill="#84BE84" rx="3" ry="3" style="stroke:#038048;stroke-width:1.0;"/><text fill="#000000" font-family="sans-serif" font-size="14" lengthAdjust="spacing" text-decoration="underline" textLength="133" x="42" y="417.8545">GetHvBiasVoltage()</text><ellipse cx="33" cy="430.8047" fill="#84BE84" rx="3" ry="3" style="stroke:#038048;stroke-width:1.0;"/><text fill="#000000" font-family="sans-serif" font-size="14" lengthAdjust="spacing" text-decoration="underline" textLength="186" x="42" y="434.1514">GetMaxHVVoltageAllowed()</text><ellipse cx="33" cy="447.1016" fill="#84BE84" rx="3" ry="3" style="stroke:#038048;stroke-width:1.0;"/><text fill="#000000" font-family="sans-serif" font-size="14" lengthAdjust="spacing" text-decoration="underline" textLength="84" x="42" y="450.4482">GetAcqSet()</text><ellipse cx="33" cy="463.3984" fill="#84BE84" rx="3" ry="3" style="stroke:#038048;stroke-width:1.0;"/><text fill="#000000" font-family="sans-serif" font-size="14" lengthAdjust="spacing" text-decoration="underline" textLength="104" x="42" y="466.7451">DefineAcqSet()</text><ellipse cx="33" cy="479.6953" fill="#84BE84" rx="3" ry="3" style="stroke:#038048;stroke-width:1.0;"/><text fill="#000000" font-family="sans-serif" font-size="14" lengthAdjust="spacing" text-decoration="underline" textLength="112" x="42" y="483.042">IsDataAvailable()</text><ellipse cx="33" cy="495.9922" fill="#84BE84" rx="3" ry="3" style="stroke:#038048;stroke-width:1.0;"/><text fill="#000000" font-family="sans-serif" font-size="14" lengthAdjust="spacing" text-decoration="underline" textLength="126" x="42" y="499.3389">GetAvailableData()</text><ellipse cx="33" cy="512.2891" fill="#84BE84" rx="3" ry="3" style="stroke:#038048;stroke-width:1.0;"/><text fill="#000000" font-family="sans-serif" font-size="14" lengthAdjust="spacing" text-decoration="underline" textLength="133" x="42" y="515.6357">SetInTriggerMode()</text><ellipse cx="33" cy="528.5859" fill="#84BE84" rx="3" ry="3" style="stroke:#038048;stroke-width:1.0;"/><text fill="#000000" font-family="sans-serif" font-size="14" lengthAdjust="spacing" text-decoration="underline" textLength="123" x="42" y="531.9326">GetTriggerMode()</text><ellipse cx="33" cy="544.8828" fill="#84BE84" rx="3" ry="3" style="stroke:#038048;stroke-width:1.0;"/><text fill="#000000" font-family="sans-serif" font-size="14" lengthAdjust="spacing" text-decoration="underline" textLength="96" x="42" y="548.2295">GetLastError()</text><ellipse cx="33" cy="561.1797" fill="#84BE84" rx="3" ry="3" style="stroke:#038048;stroke-width:1.0;"/><text fill="#000000" font-family="sans-serif" font-size="14" lengthAdjust="spacing" text-decoration="underline" textLength="93" x="42" y="564.5264">GetErrorLog()</text><ellipse cx="33" cy="577.4766" fill="#84BE84" rx="3" ry="3" style="stroke:#038048;stroke-width:1.0;"/><text fill="#000000" font-family="sans-serif" font-size="14" lengthAdjust="spacing" textLength="96" x="42" y="580.8232">DeviceClose()</text><ellipse cx="33" cy="593.7734" fill="#84BE84" rx="3" ry="3" style="stroke:#038048;stroke-width:1.0;"/><text fill="#000000" font-family="sans-serif" font-size="14" lengthAdjust="spacing" textLength="95" x="42" y="597.1201">DeviceOpen()</text><ellipse cx="33" cy="610.0703" fill="#84BE84" rx="3" ry="3" style="stroke:#038048;stroke-width:1.0;"/><text fill="#000000" font-family="sans-serif" font-size="14" lengthAdjust="spacing" textLength="106" x="42" y="613.417">DeviceIsOpen()</text></g><!--class GenericDevice--><g id="elem_GenericDevice"><rect fill="#FFFFFF" height="48" id="GenericDevice" rx="2.5" ry="2.5" style="stroke:#555555;stroke-width:0.5;" width="133" x="61.5" y="41"/><rect fill="#808080" height="32" rx="2.5" ry="2.5" style="stroke:#808080;stroke-width:0.5;" width="133" x="61.5" y="41"/><rect fill="#808080" height="2.5" style="stroke:#808080;stroke-width:0.5;" width="133" x="61.5" y="70.5"/><rect fill="none" height="48" id="GenericDevice" rx="2.5" ry="2.5" style="stroke:#555555;stroke-width:0.5;" width="133" x="61.5" y="41"/><ellipse cx="76.5" cy="57" fill="#ADD1B2" rx="11" ry="11" style="stroke:#181818;stroke-width:1.0;"/><path d="M79.4688,62.6406 Q78.8906,62.9375 78.25,63.0781 Q77.6094,63.2344 76.9063,63.2344 Q74.4063,63.2344 73.0781,61.5938 Q71.7656,59.9375 71.7656,56.8125 Q71.7656,53.6875 73.0781,52.0313 Q74.4063,50.375 76.9063,50.375 Q77.6094,50.375 78.25,50.5313 Q78.9063,50.6875 79.4688,50.9844 L79.4688,53.7031 Q78.8438,53.125 78.25,52.8594 Q77.6563,52.5781 77.0313,52.5781 Q75.6875,52.5781 75,53.6563 Q74.3125,54.7188 74.3125,56.8125 Q74.3125,58.9063 75,59.9844 Q75.6875,61.0469 77.0313,61.0469 Q77.6563,61.0469 78.25,60.7813 Q78.8438,60.5 79.4688,59.9219 L79.4688,62.6406 Z " fill="#000000"/><text fill="#000000" font-family="sans-serif" font-size="14" lengthAdjust="spacing" textLength="101" x="90.5" y="61.8467">GenericDevice</text><line style="stroke:#555555;stroke-width:0.5;" x1="62.5" x2="193.5" y1="73" y2="73"/><line style="stroke:#555555;stroke-width:0.5;" x1="62.5" x2="193.5" y1="81" y2="81"/></g><!--reverse link GenericDevice to SCD--><g id="link_GenericDevice_SCD"><path codeLine="37" d="M128,107.37 C128,122.14 128,124.88 128,148.6 " fill="none" id="GenericDevice-backto-SCD" style="stroke:#181818;stroke-width:1.0;"/><polygon fill="none" points="128,89.37,122,107.37,134,107.37,128,89.37" style="stroke:#181818;stroke-width:1.0;"/></g><!--SRC=[ZTFDJkCm403Wkv_2wbvsXK1SLaA8IvjIMWbOH53l4sS85eudEvwKNPM-EquR8IXrgQCSxFaq_Xi75EsXnj20mHmRO11YVQx2i_LThzQPWn16O9uhfjQN6Ra8VapMxGiZBf5xydlTjic4lFJWTDssmHGXvlWouTbfzwaFMgY9lov8X6fTMaOZbhmoNHOzU2As1PouXRF5UPwD1tgfba50h5dfPOtoHELA7mtDtro0vUUlP9IQPF0Ese39Q1RtQdsR01DYWmzigmfvjvY5CIwimL4R_kyMLoWJo_KBCCwHGzn-sZKLV6T615pUnpdtgXpPWhjjwoAry8XcNh2ArHGJFTWwSGJvuMww65a8St825IPdFKpTmB_fl4T3v-W5owJjAW0JrJ76H-jnduWt20B31LW7XKklw5rqVCzPzULoGsKwro7c6e9SCbFw_jRHQwewy673NJbcZZP5lpN-fq6_OtWM-e1QgS-lyWfzB2MpOGDzyNfylEFTAgNU0000]--></g></svg>