<?xml version="1.0" encoding="us-ascii" standalone="no"?><svg xmlns="http://www.w3.org/2000/svg" xmlns:xlink="http://www.w3.org/1999/xlink" contentStyleType="text/css" height="985px" preserveAspectRatio="none" style="width:311px;height:985px;background:#FFFFFF;" version="1.1" viewBox="0 0 311 985" width="311px" zoomAndPan="magnify"><defs/><g><!--cluster horiba.lvlib--><g id="cluster_horiba.lvlib"><path d="M8.5,6 L95.5,6 A3.75,3.75 0 0 1 98,8.5 L105,28.2969 L301.5,28.2969 A2.5,2.5 0 0 1 304,30.7969 L304,976.45 A2.5,2.5 0 0 1 301.5,978.95 L8.5,978.95 A2.5,2.5 0 0 1 6,976.45 L6,8.5 A2.5,2.5 0 0 1 8.5,6 " fill="none" style="stroke:#000000;stroke-width:1.5;"/><line style="stroke:#000000;stroke-width:1.5;" x1="6" x2="105" y1="28.2969" y2="28.2969"/><text fill="#000000" font-family="sans-serif" font-size="14" font-weight="bold" lengthAdjust="spacing" textLength="86" x="10" y="20.9951">horiba.lvlib</text></g><!--class CCD--><g id="elem_CCD"><rect codeLine="8" fill="#FFFFFF" height="813.9531" id="CCD" rx="2.5" ry="2.5" style="stroke:#555555;stroke-width:0.5;" width="265" x="22.5" y="149"/><rect fill="#808080" height="32" rx="2.5" ry="2.5" style="stroke:#808080;stroke-width:0.5;" width="265" x="22.5" y="149"/><rect fill="#808080" height="2.5" style="stroke:#808080;stroke-width:0.5;" width="265" x="22.5" y="178.5"/><rect codeLine="8" fill="none" height="813.9531" id="CCD" rx="2.5" ry="2.5" style="stroke:#555555;stroke-width:0.5;" width="265" x="22.5" y="149"/><ellipse cx="135.25" cy="165" fill="#ADD1B2" rx="11" ry="11" style="stroke:#181818;stroke-width:1.0;"/><path d="M138.2188,170.6406 Q137.6406,170.9375 137,171.0781 Q136.3594,171.2344 135.6563,171.2344 Q133.1563,171.2344 131.8281,169.5938 Q130.5156,167.9375 130.5156,164.8125 Q130.5156,161.6875 131.8281,160.0313 Q133.1563,158.375 135.6563,158.375 Q136.3594,158.375 137,158.5313 Q137.6563,158.6875 138.2188,158.9844 L138.2188,161.7031 Q137.5938,161.125 137,160.8594 Q136.4063,160.5781 135.7813,160.5781 Q134.4375,160.5781 133.75,161.6563 Q133.0625,162.7188 133.0625,164.8125 Q133.0625,166.9063 133.75,167.9844 Q134.4375,169.0469 135.7813,169.0469 Q136.4063,169.0469 137,168.7813 Q137.5938,168.5 138.2188,167.9219 L138.2188,170.6406 Z " fill="#000000"/><text fill="#000000" font-family="sans-serif" font-size="14" lengthAdjust="spacing" textLength="31" x="155.75" y="169.8467">CCD</text><line style="stroke:#555555;stroke-width:0.5;" x1="23.5" x2="286.5" y1="181" y2="181"/><line style="stroke:#555555;stroke-width:0.5;" x1="23.5" x2="286.5" y1="189" y2="189"/><ellipse cx="33.5" cy="202.6484" fill="#84BE84" rx="3" ry="3" style="stroke:#038048;stroke-width:1.0;"/><text fill="#000000" font-family="sans-serif" font-size="14" lengthAdjust="spacing" text-decoration="underline" textLength="193" x="42.5" y="205.9951">getSpeedAndGainSettings()</text><ellipse cx="33.5" cy="218.9453" fill="#84BE84" rx="3" ry="3" style="stroke:#038048;stroke-width:1.0;"/><text fill="#000000" font-family="sans-serif" font-size="14" lengthAdjust="spacing" text-decoration="underline" textLength="125" x="42.5" y="222.292">parseConfigData()</text><ellipse cx="33.5" cy="235.2422" fill="#84BE84" rx="3" ry="3" style="stroke:#038048;stroke-width:1.0;"/><text fill="#000000" font-family="sans-serif" font-size="14" lengthAdjust="spacing" text-decoration="underline" textLength="123" x="42.5" y="238.5889">parseImageData()</text><ellipse cx="33.5" cy="251.5391" fill="#84BE84" rx="3" ry="3" style="stroke:#038048;stroke-width:1.0;"/><text fill="#000000" font-family="sans-serif" font-size="14" lengthAdjust="spacing" text-decoration="underline" textLength="133" x="42.5" y="254.8857">parseRangeMode()</text><ellipse cx="33.5" cy="267.8359" fill="#84BE84" rx="3" ry="3" style="stroke:#038048;stroke-width:1.0;"/><text fill="#000000" font-family="sans-serif" font-size="14" lengthAdjust="spacing" text-decoration="underline" textLength="137" x="42.5" y="271.1826">parseSpectralData()</text><ellipse cx="33.5" cy="284.1328" fill="#84BE84" rx="3" ry="3" style="stroke:#038048;stroke-width:1.0;"/><text fill="#000000" font-family="sans-serif" font-size="14" lengthAdjust="spacing" text-decoration="underline" textLength="164" x="42.5" y="287.4795">stitchingModeAverage()</text><ellipse cx="33.5" cy="300.4297" fill="#84BE84" rx="3" ry="3" style="stroke:#038048;stroke-width:1.0;"/><text fill="#000000" font-family="sans-serif" font-size="14" lengthAdjust="spacing" text-decoration="underline" textLength="154" x="42.5" y="303.7764">stitchingModeSimple()</text><ellipse cx="33.5" cy="316.7266" fill="#84BE84" rx="3" ry="3" style="stroke:#038048;stroke-width:1.0;"/><text fill="#000000" font-family="sans-serif" font-size="14" lengthAdjust="spacing" text-decoration="underline" textLength="121" x="42.5" y="320.0732">acquisitionAbort()</text><ellipse cx="33.5" cy="333.0234" fill="#84BE84" rx="3" ry="3" style="stroke:#038048;stroke-width:1.0;"/><text fill="#000000" font-family="sans-serif" font-size="14" lengthAdjust="spacing" text-decoration="underline" textLength="116" x="42.5" y="336.3701">acquisitionStart()</text><ellipse cx="33.5" cy="349.3203" fill="#84BE84" rx="3" ry="3" style="stroke:#038048;stroke-width:1.0;"/><text fill="#000000" font-family="sans-serif" font-size="14" lengthAdjust="spacing" text-decoration="underline" textLength="218" x="42.5" y="352.667">calculateRangeModePositions()</text><ellipse cx="33.5" cy="365.6172" fill="#84BE84" rx="3" ry="3" style="stroke:#038048;stroke-width:1.0;"/><text fill="#000000" font-family="sans-serif" font-size="14" lengthAdjust="spacing" text-decoration="underline" textLength="239" x="42.5" y="368.9639">convertWavelengthToRamanShift()</text><ellipse cx="33.5" cy="381.9141" fill="#84BE84" rx="3" ry="3" style="stroke:#038048;stroke-width:1.0;"/><text fill="#000000" font-family="sans-serif" font-size="14" lengthAdjust="spacing" text-decoration="underline" textLength="101" x="42.5" y="385.2607">getAcqCount()</text><ellipse cx="33.5" cy="398.2109" fill="#84BE84" rx="3" ry="3" style="stroke:#038048;stroke-width:1.0;"/><text fill="#000000" font-family="sans-serif" font-size="14" lengthAdjust="spacing" text-decoration="underline" textLength="142" x="42.5" y="401.5576">getAcquisitionBusy()</text><ellipse cx="33.5" cy="414.5078" fill="#84BE84" rx="3" ry="3" style="stroke:#038048;stroke-width:1.0;"/><text fill="#000000" font-family="sans-serif" font-size="14" lengthAdjust="spacing" text-decoration="underline" textLength="151" x="42.5" y="417.8545">getAcquisitionReady()</text><ellipse cx="33.5" cy="430.8047" fill="#84BE84" rx="3" ry="3" style="stroke:#038048;stroke-width:1.0;"/><text fill="#000000" font-family="sans-serif" font-size="14" lengthAdjust="spacing" text-decoration="underline" textLength="154" x="42.5" y="434.1514">getChipTemperature()</text><ellipse cx="33.5" cy="447.1016" fill="#84BE84" rx="3" ry="3" style="stroke:#038048;stroke-width:1.0;"/><text fill="#000000" font-family="sans-serif" font-size="14" lengthAdjust="spacing" text-decoration="underline" textLength="114" x="42.5" y="450.4482">getCleanCount()</text><ellipse cx="33.5" cy="463.3984" fill="#84BE84" rx="3" ry="3" style="stroke:#038048;stroke-width:1.0;"/><text fill="#000000" font-family="sans-serif" font-size="14" lengthAdjust="spacing" text-decoration="underline" textLength="77" x="42.5" y="466.7451">getConfig()</text><ellipse cx="33.5" cy="479.6953" fill="#84BE84" rx="3" ry="3" style="stroke:#038048;stroke-width:1.0;"/><text fill="#000000" font-family="sans-serif" font-size="14" lengthAdjust="spacing" text-decoration="underline" textLength="94" x="42.5" y="483.042">getDataSize()</text><ellipse cx="33.5" cy="495.9922" fill="#84BE84" rx="3" ry="3" style="stroke:#038048;stroke-width:1.0;"/><text fill="#000000" font-family="sans-serif" font-size="14" lengthAdjust="spacing" text-decoration="underline" textLength="132" x="42.5" y="499.3389">getExposureTime()</text><ellipse cx="33.5" cy="512.2891" fill="#84BE84" rx="3" ry="3" style="stroke:#038048;stroke-width:1.0;"/><text fill="#000000" font-family="sans-serif" font-size="14" lengthAdjust="spacing" text-decoration="underline" textLength="100" x="42.5" y="515.6357">getFitParams()</text><ellipse cx="33.5" cy="528.5859" fill="#84BE84" rx="3" ry="3" style="stroke:#038048;stroke-width:1.0;"/><text fill="#000000" font-family="sans-serif" font-size="14" lengthAdjust="spacing" text-decoration="underline" textLength="64" x="42.5" y="531.9326">getGain()</text><ellipse cx="33.5" cy="544.8828" fill="#84BE84" rx="3" ry="3" style="stroke:#038048;stroke-width:1.0;"/><text fill="#000000" font-family="sans-serif" font-size="14" lengthAdjust="spacing" text-decoration="underline" textLength="107" x="42.5" y="548.2295">getImageData()</text><ellipse cx="33.5" cy="561.1797" fill="#84BE84" rx="3" ry="3" style="stroke:#038048;stroke-width:1.0;"/><text fill="#000000" font-family="sans-serif" font-size="14" lengthAdjust="spacing" text-decoration="underline" textLength="126" x="42.5" y="564.5264">getParallelSpeed()</text><ellipse cx="33.5" cy="577.4766" fill="#84BE84" rx="3" ry="3" style="stroke:#038048;stroke-width:1.0;"/><text fill="#000000" font-family="sans-serif" font-size="14" lengthAdjust="spacing" text-decoration="underline" textLength="99" x="42.5" y="580.8232">getSignalOut()</text><ellipse cx="33.5" cy="593.7734" fill="#84BE84" rx="3" ry="3" style="stroke:#038048;stroke-width:1.0;"/><text fill="#000000" font-family="sans-serif" font-size="14" lengthAdjust="spacing" text-decoration="underline" textLength="121" x="42.5" y="597.1201">getSpectralData()</text><ellipse cx="33.5" cy="610.0703" fill="#84BE84" rx="3" ry="3" style="stroke:#038048;stroke-width:1.0;"/><text fill="#000000" font-family="sans-serif" font-size="14" lengthAdjust="spacing" text-decoration="underline" textLength="78" x="42.5" y="613.417">getSpeed()</text><ellipse cx="33.5" cy="626.3672" fill="#84BE84" rx="3" ry="3" style="stroke:#038048;stroke-width:1.0;"/><text fill="#000000" font-family="sans-serif" font-size="14" lengthAdjust="spacing" text-decoration="underline" textLength="146" x="42.5" y="629.7139">getTimerResolution()</text><ellipse cx="33.5" cy="642.6641" fill="#84BE84" rx="3" ry="3" style="stroke:#038048;stroke-width:1.0;"/><text fill="#000000" font-family="sans-serif" font-size="14" lengthAdjust="spacing" text-decoration="underline" textLength="94" x="42.5" y="646.0107">getTriggerIn()</text><ellipse cx="33.5" cy="658.9609" fill="#84BE84" rx="3" ry="3" style="stroke:#038048;stroke-width:1.0;"/><text fill="#000000" font-family="sans-serif" font-size="14" lengthAdjust="spacing" text-decoration="underline" textLength="181" x="42.5" y="662.3076">getXAxisConversionType()</text><ellipse cx="33.5" cy="675.2578" fill="#84BE84" rx="3" ry="3" style="stroke:#038048;stroke-width:1.0;"/><text fill="#000000" font-family="sans-serif" font-size="14" lengthAdjust="spacing" text-decoration="underline" textLength="55" x="42.5" y="678.6045">restart()</text><ellipse cx="33.5" cy="691.5547" fill="#84BE84" rx="3" ry="3" style="stroke:#038048;stroke-width:1.0;"/><text fill="#000000" font-family="sans-serif" font-size="14" lengthAdjust="spacing" text-decoration="underline" textLength="100" x="42.5" y="694.9014">setAcqCount()</text><ellipse cx="33.5" cy="707.8516" fill="#84BE84" rx="3" ry="3" style="stroke:#038048;stroke-width:1.0;"/><text fill="#000000" font-family="sans-serif" font-size="14" lengthAdjust="spacing" text-decoration="underline" textLength="106" x="42.5" y="711.1982">setAcqFormat()</text><ellipse cx="33.5" cy="724.1484" fill="#84BE84" rx="3" ry="3" style="stroke:#038048;stroke-width:1.0;"/><text fill="#000000" font-family="sans-serif" font-size="14" lengthAdjust="spacing" text-decoration="underline" textLength="160" x="42.5" y="727.4951">setCenterWavelength()</text><ellipse cx="33.5" cy="740.4453" fill="#84BE84" rx="3" ry="3" style="stroke:#038048;stroke-width:1.0;"/><text fill="#000000" font-family="sans-serif" font-size="14" lengthAdjust="spacing" text-decoration="underline" textLength="113" x="42.5" y="743.792">setCleanCount()</text><ellipse cx="33.5" cy="756.7422" fill="#84BE84" rx="3" ry="3" style="stroke:#038048;stroke-width:1.0;"/><text fill="#000000" font-family="sans-serif" font-size="14" lengthAdjust="spacing" text-decoration="underline" textLength="131" x="42.5" y="760.0889">setExposureTime()</text><ellipse cx="33.5" cy="773.0391" fill="#84BE84" rx="3" ry="3" style="stroke:#038048;stroke-width:1.0;"/><text fill="#000000" font-family="sans-serif" font-size="14" lengthAdjust="spacing" text-decoration="underline" textLength="63" x="42.5" y="776.3857">setGain()</text><ellipse cx="33.5" cy="789.3359" fill="#84BE84" rx="3" ry="3" style="stroke:#038048;stroke-width:1.0;"/><text fill="#000000" font-family="sans-serif" font-size="14" lengthAdjust="spacing" text-decoration="underline" textLength="125" x="42.5" y="792.6826">setParallelSpeed()</text><ellipse cx="33.5" cy="805.6328" fill="#84BE84" rx="3" ry="3" style="stroke:#038048;stroke-width:1.0;"/><text fill="#000000" font-family="sans-serif" font-size="14" lengthAdjust="spacing" text-decoration="underline" textLength="54" x="42.5" y="808.9795">setRoi()</text><ellipse cx="33.5" cy="821.9297" fill="#84BE84" rx="3" ry="3" style="stroke:#038048;stroke-width:1.0;"/><text fill="#000000" font-family="sans-serif" font-size="14" lengthAdjust="spacing" text-decoration="underline" textLength="98" x="42.5" y="825.2764">setSignalOut()</text><ellipse cx="33.5" cy="838.2266" fill="#84BE84" rx="3" ry="3" style="stroke:#038048;stroke-width:1.0;"/><text fill="#000000" font-family="sans-serif" font-size="14" lengthAdjust="spacing" text-decoration="underline" textLength="77" x="42.5" y="841.5732">setSpeed()</text><ellipse cx="33.5" cy="854.5234" fill="#84BE84" rx="3" ry="3" style="stroke:#038048;stroke-width:1.0;"/><text fill="#000000" font-family="sans-serif" font-size="14" lengthAdjust="spacing" text-decoration="underline" textLength="145" x="42.5" y="857.8701">setTimerResolution()</text><ellipse cx="33.5" cy="870.8203" fill="#84BE84" rx="3" ry="3" style="stroke:#038048;stroke-width:1.0;"/><text fill="#000000" font-family="sans-serif" font-size="14" lengthAdjust="spacing" text-decoration="underline" textLength="93" x="42.5" y="874.167">setTriggerIn()</text><ellipse cx="33.5" cy="887.1172" fill="#84BE84" rx="3" ry="3" style="stroke:#038048;stroke-width:1.0;"/><text fill="#000000" font-family="sans-serif" font-size="14" lengthAdjust="spacing" text-decoration="underline" textLength="180" x="42.5" y="890.4639">setXAxisConversionType()</text><ellipse cx="33.5" cy="903.4141" fill="#84BE84" rx="3" ry="3" style="stroke:#038048;stroke-width:1.0;"/><text fill="#000000" font-family="sans-serif" font-size="14" lengthAdjust="spacing" textLength="96" x="42.5" y="906.7607">DeviceClose()</text><ellipse cx="33.5" cy="919.7109" fill="#84BE84" rx="3" ry="3" style="stroke:#038048;stroke-width:1.0;"/><text fill="#000000" font-family="sans-serif" font-size="14" lengthAdjust="spacing" textLength="106" x="42.5" y="923.0576">DeviceIsOpen()</text><ellipse cx="33.5" cy="936.0078" fill="#84BE84" rx="3" ry="3" style="stroke:#038048;stroke-width:1.0;"/><text fill="#000000" font-family="sans-serif" font-size="14" lengthAdjust="spacing" textLength="95" x="42.5" y="939.3545">DeviceOpen()</text><ellipse cx="33.5" cy="952.3047" fill="#84BE84" rx="3" ry="3" style="stroke:#038048;stroke-width:1.0;"/><text fill="#000000" font-family="sans-serif" font-size="14" lengthAdjust="spacing" textLength="93" x="42.5" y="955.6514">getChipSize()</text></g><!--class GenericDevice--><g id="elem_GenericDevice"><rect fill="#FFFFFF" height="48" id="GenericDevice" rx="2.5" ry="2.5" style="stroke:#555555;stroke-width:0.5;" width="133" x="88.5" y="41"/><rect fill="#808080" height="32" rx="2.5" ry="2.5" style="stroke:#808080;stroke-width:0.5;" width="133" x="88.5" y="41"/><rect fill="#808080" height="2.5" style="stroke:#808080;stroke-width:0.5;" width="133" x="88.5" y="70.5"/><rect fill="none" height="48" id="GenericDevice" rx="2.5" ry="2.5" style="stroke:#555555;stroke-width:0.5;" width="133" x="88.5" y="41"/><ellipse cx="103.5" cy="57" fill="#ADD1B2" rx="11" ry="11" style="stroke:#181818;stroke-width:1.0;"/><path d="M106.4688,62.6406 Q105.8906,62.9375 105.25,63.0781 Q104.6094,63.2344 103.9063,63.2344 Q101.4063,63.2344 100.0781,61.5938 Q98.7656,59.9375 98.7656,56.8125 Q98.7656,53.6875 100.0781,52.0313 Q101.4063,50.375 103.9063,50.375 Q104.6094,50.375 105.25,50.5313 Q105.9063,50.6875 106.4688,50.9844 L106.4688,53.7031 Q105.8438,53.125 105.25,52.8594 Q104.6563,52.5781 104.0313,52.5781 Q102.6875,52.5781 102,53.6563 Q101.3125,54.7188 101.3125,56.8125 Q101.3125,58.9063 102,59.9844 Q102.6875,61.0469 104.0313,61.0469 Q104.6563,61.0469 105.25,60.7813 Q105.8438,60.5 106.4688,59.9219 L106.4688,62.6406 Z " fill="#000000"/><text fill="#000000" font-family="sans-serif" font-size="14" lengthAdjust="spacing" textLength="101" x="117.5" y="61.8467">GenericDevice</text><line style="stroke:#555555;stroke-width:0.5;" x1="89.5" x2="220.5" y1="73" y2="73"/><line style="stroke:#555555;stroke-width:0.5;" x1="89.5" x2="220.5" y1="81" y2="81"/></g><!--reverse link GenericDevice to CCD--><g id="link_GenericDevice_CCD"><path codeLine="58" d="M155,107.25 C155,121.77 155,124.35 155,148.85 " fill="none" id="GenericDevice-backto-CCD" style="stroke:#181818;stroke-width:1.0;"/><polygon fill="none" points="155,89.25,149,107.25,161,107.25,155,89.25" style="stroke:#181818;stroke-width:1.0;"/></g><!--SRC=[ZPN1Rjim38RlVWeZksmOMlGoO2XsIPscos5e4GVOhepCsaHboHNfe5sMTv-SfEtMX7Pa-63nCqcHFsr6IHtKo0qOpB610E93Ufdm0xdkgKup2ynNO1xAu5jNPDv6uCDqkmum7meCU-JBThr7fjx97hZOhlV0TuJeuo3WrulkIlwXnJVnJfTUnDTfGG6Da7U9wRoaeye7MiAvNLbQNcRPP9IkapKB29bDkgvHAbziqiybIjuW5cDNt02v74N8bVpnqp4u1cRClBkdSW82FT2iXX87c3cu4d_u0dkOc9kH05PtnK9YgfXpvscymX03dq3cL3TM0S4yjiJKLNEyz446gLn0emnOqrgGjzFU-TrBIesDT_4GyXDMQD6LKYty76fmUKNtIepOmx5vpA9QUe6NRAzQVZw5cqSbwc1MKRF0kea5bpQWpba4rv_RJb6gkUjzJh_r4DTFZUUOmu9g7PgIt7LpmohHwLyr3WWw4frtQz5knqcbSYeTsDjMhyQmv5zcLhLsXGXpP6_Rhf4w5wWiCSnqujVuYJZRIfAZfyLperGu8Ej3m4C2tG5J7shGYGoTO7WR31qSa1oV8Xdk4mIVrEv8pJsfjW4fS6-N-SGkys2NMUtoApB15HdChETZ-pE-RT0TCHnixpyR-s5EDid_VwaRT1Z8x5uUfT_-d9qT-OybIV8N]--></g></svg>